G75*
%MOIN*%
%OFA0B0*%
%FSLAX25Y25*%
%IPPOS*%
%LPD*%
%AMOC8*
5,1,8,0,0,1.08239X$1,22.5*
%
%ADD10C,0.08674*%
%ADD11C,0.06800*%
%ADD12C,0.06800*%
%ADD13OC8,0.06800*%
%ADD14C,0.07400*%
%ADD15C,0.13800*%
%ADD16R,0.08800X0.08800*%
%ADD17C,0.08800*%
%ADD18C,0.03778*%
D10*
X0028047Y0039150D02*
X0035921Y0039150D01*
X0050882Y0047024D02*
X0050882Y0054898D01*
X0035921Y0063165D02*
X0028047Y0063165D01*
D11*
X0024757Y0084098D02*
X0024757Y0090098D01*
X0042557Y0090098D02*
X0042557Y0084098D01*
X0042557Y0109698D02*
X0042557Y0115698D01*
X0024757Y0115698D02*
X0024757Y0109698D01*
X0147429Y0108441D02*
X0153429Y0108441D01*
X0153429Y0118441D02*
X0147429Y0118441D01*
X0147429Y0128441D02*
X0153429Y0128441D01*
X0153429Y0138441D02*
X0147429Y0138441D01*
X0147429Y0098441D02*
X0153429Y0098441D01*
X0153429Y0088441D02*
X0147429Y0088441D01*
X0147429Y0078441D02*
X0153429Y0078441D01*
X0303197Y0075449D02*
X0309197Y0075449D01*
X0309197Y0085449D02*
X0303197Y0085449D01*
X0303197Y0095449D02*
X0309197Y0095449D01*
X0309197Y0105449D02*
X0303197Y0105449D01*
X0303197Y0115449D02*
X0309197Y0115449D01*
X0309197Y0125449D02*
X0303197Y0125449D01*
X0303197Y0135449D02*
X0309197Y0135449D01*
X0309197Y0145449D02*
X0303197Y0145449D01*
X0303157Y0156787D02*
X0309157Y0156787D01*
X0309157Y0166787D02*
X0303157Y0166787D01*
X0303157Y0176787D02*
X0309157Y0176787D01*
X0309157Y0186787D02*
X0303157Y0186787D01*
X0303157Y0196787D02*
X0309157Y0196787D01*
X0309157Y0206787D02*
X0303157Y0206787D01*
X0303157Y0216787D02*
X0309157Y0216787D01*
X0309157Y0226787D02*
X0303157Y0226787D01*
X0244720Y0229161D02*
X0244720Y0235161D01*
X0234720Y0235161D02*
X0234720Y0229161D01*
X0224720Y0229161D02*
X0224720Y0235161D01*
X0214720Y0235161D02*
X0214720Y0229161D01*
D12*
X0169878Y0203028D03*
D13*
X0179878Y0203028D03*
X0189878Y0203028D03*
X0189878Y0213028D03*
X0179878Y0213028D03*
X0169878Y0213028D03*
D14*
X0179511Y0038500D02*
X0186111Y0038500D01*
X0186111Y0028500D02*
X0179511Y0028500D01*
X0179511Y0018500D02*
X0186111Y0018500D01*
D15*
X0251811Y0028500D03*
D16*
X0120528Y0024878D03*
X0070469Y0025035D03*
D17*
X0090154Y0025035D03*
X0140213Y0024878D03*
D18*
X0183894Y0048894D03*
X0178894Y0101394D03*
X0178894Y0106394D03*
X0192394Y0103281D03*
X0196394Y0108635D03*
X0204399Y0108388D03*
X0211394Y0113894D03*
X0228894Y0103894D03*
X0218894Y0126394D03*
X0216394Y0136394D03*
X0223894Y0136394D03*
X0226394Y0143894D03*
X0241394Y0148894D03*
X0261394Y0136394D03*
X0211394Y0153894D03*
X0203894Y0138894D03*
X0186394Y0141394D03*
X0186394Y0136394D03*
X0176394Y0128894D03*
X0163894Y0141394D03*
X0153894Y0146394D03*
X0146394Y0151394D03*
X0131394Y0133894D03*
X0118894Y0133894D03*
X0096394Y0136394D03*
X0093894Y0148894D03*
X0096394Y0116394D03*
X0096899Y0100888D03*
X0128894Y0108894D03*
X0186394Y0148894D03*
X0181394Y0183894D03*
X0171394Y0191394D03*
X0158894Y0213894D03*
X0078894Y0233894D03*
X0053894Y0228894D03*
X0016394Y0226394D03*
X0018894Y0206394D03*
X0046394Y0198894D03*
X0058894Y0186394D03*
X0038894Y0168894D03*
X0023894Y0131394D03*
X0018894Y0113894D03*
M02*
