G75*
%MOIN*%
%OFA0B0*%
%FSLAX25Y25*%
%IPPOS*%
%LPD*%
%AMOC8*
5,1,8,0,0,1.08239X$1,22.5*
%
%ADD10C,0.07874*%
%ADD11C,0.06000*%
%ADD12C,0.06000*%
%ADD13OC8,0.06000*%
%ADD14C,0.06600*%
%ADD15R,0.08000X0.08000*%
%ADD16C,0.08000*%
%ADD17C,0.00787*%
%ADD18C,0.02978*%
%ADD19C,0.00600*%
D10*
X0028047Y0039150D02*
X0035921Y0039150D01*
X0050882Y0047024D02*
X0050882Y0054898D01*
X0035921Y0063165D02*
X0028047Y0063165D01*
D11*
X0024757Y0084098D02*
X0024757Y0090098D01*
X0042557Y0090098D02*
X0042557Y0084098D01*
X0042557Y0109698D02*
X0042557Y0115698D01*
X0024757Y0115698D02*
X0024757Y0109698D01*
X0147429Y0108441D02*
X0153429Y0108441D01*
X0153429Y0118441D02*
X0147429Y0118441D01*
X0147429Y0128441D02*
X0153429Y0128441D01*
X0153429Y0138441D02*
X0147429Y0138441D01*
X0147429Y0098441D02*
X0153429Y0098441D01*
X0153429Y0088441D02*
X0147429Y0088441D01*
X0147429Y0078441D02*
X0153429Y0078441D01*
X0303197Y0075449D02*
X0309197Y0075449D01*
X0309197Y0085449D02*
X0303197Y0085449D01*
X0303197Y0095449D02*
X0309197Y0095449D01*
X0309197Y0105449D02*
X0303197Y0105449D01*
X0303197Y0115449D02*
X0309197Y0115449D01*
X0309197Y0125449D02*
X0303197Y0125449D01*
X0303197Y0135449D02*
X0309197Y0135449D01*
X0309197Y0145449D02*
X0303197Y0145449D01*
X0303157Y0156787D02*
X0309157Y0156787D01*
X0309157Y0166787D02*
X0303157Y0166787D01*
X0303157Y0176787D02*
X0309157Y0176787D01*
X0309157Y0186787D02*
X0303157Y0186787D01*
X0303157Y0196787D02*
X0309157Y0196787D01*
X0309157Y0206787D02*
X0303157Y0206787D01*
X0303157Y0216787D02*
X0309157Y0216787D01*
X0309157Y0226787D02*
X0303157Y0226787D01*
X0244720Y0229161D02*
X0244720Y0235161D01*
X0234720Y0235161D02*
X0234720Y0229161D01*
X0224720Y0229161D02*
X0224720Y0235161D01*
X0214720Y0235161D02*
X0214720Y0229161D01*
D12*
X0169878Y0203028D03*
D13*
X0179878Y0203028D03*
X0189878Y0203028D03*
X0189878Y0213028D03*
X0179878Y0213028D03*
X0169878Y0213028D03*
D14*
X0179511Y0038500D02*
X0186111Y0038500D01*
X0186111Y0028500D02*
X0179511Y0028500D01*
X0179511Y0018500D02*
X0186111Y0018500D01*
D15*
X0120528Y0024878D03*
X0070469Y0025035D03*
D16*
X0090154Y0025035D03*
X0140213Y0024878D03*
D17*
X0013287Y0010787D02*
X0013287Y0238220D01*
X0212132Y0238220D01*
X0211335Y0237424D01*
X0210727Y0235956D01*
X0210727Y0228367D01*
X0211335Y0226899D01*
X0212458Y0225776D01*
X0213926Y0225168D01*
X0215515Y0225168D01*
X0216983Y0225776D01*
X0218106Y0226899D01*
X0218714Y0228367D01*
X0218714Y0235956D01*
X0218106Y0237424D01*
X0217309Y0238220D01*
X0222132Y0238220D01*
X0221335Y0237424D01*
X0220727Y0235956D01*
X0220727Y0228367D01*
X0221335Y0226899D01*
X0222458Y0225776D01*
X0223926Y0225168D01*
X0225515Y0225168D01*
X0226983Y0225776D01*
X0228106Y0226899D01*
X0228714Y0228367D01*
X0228714Y0235956D01*
X0228106Y0237424D01*
X0227309Y0238220D01*
X0232132Y0238220D01*
X0231335Y0237424D01*
X0230727Y0235956D01*
X0230727Y0228367D01*
X0231335Y0226899D01*
X0232458Y0225776D01*
X0233926Y0225168D01*
X0235515Y0225168D01*
X0236983Y0225776D01*
X0238106Y0226899D01*
X0238714Y0228367D01*
X0238714Y0235956D01*
X0238106Y0237424D01*
X0237309Y0238220D01*
X0242132Y0238220D01*
X0241335Y0237424D01*
X0240727Y0235956D01*
X0240727Y0228367D01*
X0241335Y0226899D01*
X0242458Y0225776D01*
X0243926Y0225168D01*
X0245515Y0225168D01*
X0246983Y0225776D01*
X0248106Y0226899D01*
X0248714Y0228367D01*
X0248714Y0235956D01*
X0248106Y0237424D01*
X0247309Y0238220D01*
X0315701Y0238220D01*
X0315701Y0010787D01*
X0013287Y0010787D01*
X0013287Y0011109D02*
X0315701Y0011109D01*
X0315701Y0011895D02*
X0255113Y0011895D01*
X0254035Y0011606D02*
X0258332Y0012758D01*
X0262184Y0014982D01*
X0265329Y0018127D01*
X0267553Y0021979D01*
X0268705Y0026276D01*
X0268705Y0030724D01*
X0267553Y0035021D01*
X0265329Y0038873D01*
X0262184Y0042018D01*
X0258332Y0044242D01*
X0254035Y0045394D01*
X0249587Y0045394D01*
X0245290Y0044242D01*
X0241438Y0042018D01*
X0238293Y0038873D01*
X0236069Y0035021D01*
X0234917Y0030724D01*
X0234917Y0026276D01*
X0236069Y0021979D01*
X0238293Y0018127D01*
X0241438Y0014982D01*
X0245290Y0012758D01*
X0249587Y0011606D01*
X0254035Y0011606D01*
X0258046Y0012681D02*
X0315701Y0012681D01*
X0315701Y0013467D02*
X0259560Y0013467D01*
X0260922Y0014253D02*
X0315701Y0014253D01*
X0315701Y0015039D02*
X0262241Y0015039D01*
X0263027Y0015825D02*
X0315701Y0015825D01*
X0315701Y0016611D02*
X0263813Y0016611D01*
X0264599Y0017396D02*
X0315701Y0017396D01*
X0315701Y0018182D02*
X0265361Y0018182D01*
X0265815Y0018968D02*
X0315701Y0018968D01*
X0315701Y0019754D02*
X0266269Y0019754D01*
X0266723Y0020540D02*
X0315701Y0020540D01*
X0315701Y0021326D02*
X0267176Y0021326D01*
X0267589Y0022112D02*
X0315701Y0022112D01*
X0315701Y0022898D02*
X0267800Y0022898D01*
X0268010Y0023684D02*
X0315701Y0023684D01*
X0315701Y0024470D02*
X0268221Y0024470D01*
X0268431Y0025256D02*
X0315701Y0025256D01*
X0315701Y0026042D02*
X0268642Y0026042D01*
X0268705Y0026827D02*
X0315701Y0026827D01*
X0315701Y0027613D02*
X0268705Y0027613D01*
X0268705Y0028399D02*
X0315701Y0028399D01*
X0315701Y0029185D02*
X0268705Y0029185D01*
X0268705Y0029971D02*
X0315701Y0029971D01*
X0315701Y0030757D02*
X0268696Y0030757D01*
X0268485Y0031543D02*
X0315701Y0031543D01*
X0315701Y0032329D02*
X0268275Y0032329D01*
X0268064Y0033115D02*
X0315701Y0033115D01*
X0315701Y0033901D02*
X0267854Y0033901D01*
X0267643Y0034687D02*
X0315701Y0034687D01*
X0315701Y0035472D02*
X0267293Y0035472D01*
X0266839Y0036258D02*
X0315701Y0036258D01*
X0315701Y0037044D02*
X0266385Y0037044D01*
X0265931Y0037830D02*
X0315701Y0037830D01*
X0315701Y0038616D02*
X0265478Y0038616D01*
X0264800Y0039402D02*
X0315701Y0039402D01*
X0315701Y0040188D02*
X0264014Y0040188D01*
X0263228Y0040974D02*
X0315701Y0040974D01*
X0315701Y0041760D02*
X0262443Y0041760D01*
X0261271Y0042546D02*
X0315701Y0042546D01*
X0315701Y0043332D02*
X0259909Y0043332D01*
X0258548Y0044118D02*
X0315701Y0044118D01*
X0315701Y0044903D02*
X0255865Y0044903D01*
X0247757Y0044903D02*
X0055784Y0044903D01*
X0055822Y0044977D02*
X0056081Y0045775D01*
X0056213Y0046604D01*
X0056213Y0050567D01*
X0051276Y0050567D01*
X0051276Y0051354D01*
X0056213Y0051354D01*
X0056213Y0055317D01*
X0056081Y0056146D01*
X0055822Y0056944D01*
X0055441Y0057692D01*
X0054948Y0058370D01*
X0054355Y0058964D01*
X0053676Y0059457D01*
X0052928Y0059838D01*
X0052130Y0060097D01*
X0051301Y0060228D01*
X0051276Y0060228D01*
X0051276Y0051354D01*
X0050488Y0051354D01*
X0050488Y0050567D01*
X0045551Y0050567D01*
X0045551Y0046604D01*
X0045682Y0045775D01*
X0045942Y0044977D01*
X0046323Y0044230D01*
X0046816Y0043551D01*
X0047409Y0042958D01*
X0048088Y0042464D01*
X0048836Y0042083D01*
X0049634Y0041824D01*
X0050462Y0041693D01*
X0050488Y0041693D01*
X0050488Y0050567D01*
X0051276Y0050567D01*
X0051276Y0041693D01*
X0051301Y0041693D01*
X0052130Y0041824D01*
X0052928Y0042083D01*
X0053676Y0042464D01*
X0054355Y0042958D01*
X0054948Y0043551D01*
X0055441Y0044230D01*
X0055822Y0044977D01*
X0056053Y0045689D02*
X0315701Y0045689D01*
X0315701Y0046475D02*
X0184543Y0046475D01*
X0184388Y0046411D02*
X0185300Y0046789D01*
X0185998Y0047487D01*
X0186376Y0048400D01*
X0186376Y0049388D01*
X0185998Y0050300D01*
X0185300Y0050998D01*
X0185281Y0051006D01*
X0185281Y0090819D01*
X0202045Y0107583D01*
X0202295Y0106982D01*
X0202993Y0106283D01*
X0203905Y0105905D01*
X0204893Y0105905D01*
X0205806Y0106283D01*
X0206504Y0106982D01*
X0206882Y0107894D01*
X0206882Y0108882D01*
X0206504Y0109794D01*
X0205806Y0110493D01*
X0205204Y0110742D01*
X0208954Y0114492D01*
X0208911Y0114388D01*
X0208911Y0113400D01*
X0209289Y0112487D01*
X0209987Y0111789D01*
X0210900Y0111411D01*
X0211888Y0111411D01*
X0212800Y0111789D01*
X0213498Y0112487D01*
X0213506Y0112506D01*
X0218319Y0112506D01*
X0226419Y0104406D01*
X0226411Y0104388D01*
X0226411Y0103400D01*
X0226789Y0102487D01*
X0227487Y0101789D01*
X0228400Y0101411D01*
X0229388Y0101411D01*
X0230300Y0101789D01*
X0230998Y0102487D01*
X0231376Y0103400D01*
X0231376Y0104388D01*
X0230998Y0105300D01*
X0230300Y0105998D01*
X0229388Y0106376D01*
X0228400Y0106376D01*
X0228381Y0106369D01*
X0219468Y0115281D01*
X0213506Y0115281D01*
X0213498Y0115300D01*
X0212800Y0115998D01*
X0211888Y0116376D01*
X0210900Y0116376D01*
X0210795Y0116333D01*
X0218381Y0123919D01*
X0218400Y0123911D01*
X0219388Y0123911D01*
X0220300Y0124289D01*
X0220998Y0124987D01*
X0221376Y0125900D01*
X0221376Y0126888D01*
X0220998Y0127800D01*
X0220300Y0128498D01*
X0219388Y0128876D01*
X0218400Y0128876D01*
X0217487Y0128498D01*
X0216789Y0127800D01*
X0216411Y0126888D01*
X0216411Y0125900D01*
X0216419Y0125881D01*
X0198876Y0108338D01*
X0198876Y0109129D01*
X0198498Y0110042D01*
X0197800Y0110740D01*
X0196888Y0111118D01*
X0195900Y0111118D01*
X0194987Y0110740D01*
X0194289Y0110042D01*
X0194242Y0109929D01*
X0180600Y0109929D01*
X0179842Y0109171D01*
X0179500Y0108830D01*
X0179388Y0108876D01*
X0178400Y0108876D01*
X0177487Y0108498D01*
X0176789Y0107800D01*
X0176411Y0106888D01*
X0176411Y0105900D01*
X0176789Y0104987D01*
X0177487Y0104289D01*
X0178400Y0103911D01*
X0179388Y0103911D01*
X0179719Y0104048D01*
X0179500Y0103830D01*
X0179388Y0103876D01*
X0178400Y0103876D01*
X0177487Y0103498D01*
X0176789Y0102800D01*
X0176411Y0101888D01*
X0176411Y0100900D01*
X0176789Y0099987D01*
X0177487Y0099289D01*
X0178400Y0098911D01*
X0179388Y0098911D01*
X0180300Y0099289D01*
X0180998Y0099987D01*
X0181376Y0100900D01*
X0181376Y0101888D01*
X0181335Y0101987D01*
X0190242Y0101987D01*
X0190289Y0101875D01*
X0190987Y0101176D01*
X0191501Y0100963D01*
X0182506Y0091968D01*
X0182506Y0051006D01*
X0182487Y0050998D01*
X0181789Y0050300D01*
X0181411Y0049388D01*
X0181411Y0048400D01*
X0181789Y0047487D01*
X0182487Y0046789D01*
X0183400Y0046411D01*
X0184388Y0046411D01*
X0183245Y0046475D02*
X0056192Y0046475D01*
X0056213Y0047261D02*
X0182015Y0047261D01*
X0181557Y0048047D02*
X0056213Y0048047D01*
X0056213Y0048833D02*
X0181411Y0048833D01*
X0181507Y0049619D02*
X0056213Y0049619D01*
X0056213Y0050405D02*
X0181894Y0050405D01*
X0182506Y0051191D02*
X0051276Y0051191D01*
X0051276Y0051977D02*
X0050488Y0051977D01*
X0050488Y0051354D02*
X0050488Y0060228D01*
X0050462Y0060228D01*
X0049634Y0060097D01*
X0048836Y0059838D01*
X0048088Y0059457D01*
X0047409Y0058964D01*
X0046816Y0058370D01*
X0046323Y0057692D01*
X0045942Y0056944D01*
X0045682Y0056146D01*
X0045551Y0055317D01*
X0045551Y0051354D01*
X0050488Y0051354D01*
X0050488Y0051191D02*
X0013287Y0051191D01*
X0013287Y0051977D02*
X0045551Y0051977D01*
X0045551Y0052763D02*
X0013287Y0052763D01*
X0013287Y0053548D02*
X0045551Y0053548D01*
X0045551Y0054334D02*
X0013287Y0054334D01*
X0013287Y0055120D02*
X0045551Y0055120D01*
X0045644Y0055906D02*
X0013287Y0055906D01*
X0013287Y0056692D02*
X0045860Y0056692D01*
X0046214Y0057478D02*
X0013287Y0057478D01*
X0013287Y0058264D02*
X0026996Y0058264D01*
X0027066Y0058235D02*
X0025254Y0058985D01*
X0023867Y0060372D01*
X0023117Y0062185D01*
X0023117Y0064146D01*
X0023867Y0065958D01*
X0025254Y0067345D01*
X0027066Y0068096D01*
X0036902Y0068096D01*
X0038714Y0067345D01*
X0040101Y0065958D01*
X0040852Y0064146D01*
X0040852Y0062185D01*
X0040101Y0060372D01*
X0038714Y0058985D01*
X0036902Y0058235D01*
X0027066Y0058235D01*
X0025190Y0059050D02*
X0013287Y0059050D01*
X0013287Y0059836D02*
X0024404Y0059836D01*
X0023764Y0060622D02*
X0013287Y0060622D01*
X0013287Y0061408D02*
X0023438Y0061408D01*
X0023117Y0062194D02*
X0013287Y0062194D01*
X0013287Y0062979D02*
X0023117Y0062979D01*
X0023117Y0063765D02*
X0013287Y0063765D01*
X0013287Y0064551D02*
X0023284Y0064551D01*
X0023610Y0065337D02*
X0013287Y0065337D01*
X0013287Y0066123D02*
X0024032Y0066123D01*
X0024818Y0066909D02*
X0013287Y0066909D01*
X0013287Y0067695D02*
X0026098Y0067695D01*
X0013287Y0068481D02*
X0182506Y0068481D01*
X0182506Y0069267D02*
X0013287Y0069267D01*
X0013287Y0070053D02*
X0182506Y0070053D01*
X0182506Y0070839D02*
X0013287Y0070839D01*
X0013287Y0071624D02*
X0182506Y0071624D01*
X0182506Y0072410D02*
X0013287Y0072410D01*
X0013287Y0073196D02*
X0182506Y0073196D01*
X0182506Y0073982D02*
X0013287Y0073982D01*
X0013287Y0074768D02*
X0145860Y0074768D01*
X0145167Y0075055D02*
X0146635Y0074447D01*
X0154224Y0074447D01*
X0155691Y0075055D01*
X0156815Y0076179D01*
X0157423Y0077647D01*
X0157423Y0079235D01*
X0156815Y0080703D01*
X0155691Y0081827D01*
X0154224Y0082435D01*
X0146635Y0082435D01*
X0145167Y0081827D01*
X0144043Y0080703D01*
X0143435Y0079235D01*
X0143435Y0077647D01*
X0144043Y0076179D01*
X0145167Y0075055D01*
X0144668Y0075554D02*
X0013287Y0075554D01*
X0013287Y0076340D02*
X0143977Y0076340D01*
X0143651Y0077126D02*
X0013287Y0077126D01*
X0013287Y0077912D02*
X0143435Y0077912D01*
X0143435Y0078698D02*
X0013287Y0078698D01*
X0013287Y0079484D02*
X0143538Y0079484D01*
X0143864Y0080270D02*
X0044722Y0080270D01*
X0044860Y0080340D02*
X0045420Y0080746D01*
X0045909Y0081235D01*
X0046315Y0081795D01*
X0046629Y0082411D01*
X0046843Y0083069D01*
X0046951Y0083752D01*
X0046951Y0086704D01*
X0042951Y0086704D01*
X0042951Y0079712D01*
X0043586Y0079812D01*
X0044244Y0080026D01*
X0044860Y0080340D01*
X0045729Y0081055D02*
X0144396Y0081055D01*
X0145202Y0081841D02*
X0046339Y0081841D01*
X0046700Y0082627D02*
X0182506Y0082627D01*
X0182506Y0081841D02*
X0155656Y0081841D01*
X0156463Y0081055D02*
X0182506Y0081055D01*
X0182506Y0080270D02*
X0156994Y0080270D01*
X0157320Y0079484D02*
X0182506Y0079484D01*
X0182506Y0078698D02*
X0157423Y0078698D01*
X0157423Y0077912D02*
X0182506Y0077912D01*
X0182506Y0077126D02*
X0157207Y0077126D01*
X0156882Y0076340D02*
X0182506Y0076340D01*
X0182506Y0075554D02*
X0156190Y0075554D01*
X0154998Y0074768D02*
X0182506Y0074768D01*
X0185281Y0074768D02*
X0299203Y0074768D01*
X0299203Y0074654D02*
X0299811Y0073187D01*
X0300935Y0072063D01*
X0302402Y0071455D01*
X0309991Y0071455D01*
X0311459Y0072063D01*
X0312583Y0073187D01*
X0313191Y0074654D01*
X0313191Y0076243D01*
X0312583Y0077711D01*
X0311459Y0078835D01*
X0309991Y0079443D01*
X0302402Y0079443D01*
X0300935Y0078835D01*
X0299811Y0077711D01*
X0299203Y0076243D01*
X0299203Y0074654D01*
X0299482Y0073982D02*
X0185281Y0073982D01*
X0185281Y0073196D02*
X0299807Y0073196D01*
X0300587Y0072410D02*
X0185281Y0072410D01*
X0185281Y0071624D02*
X0301994Y0071624D01*
X0299203Y0075554D02*
X0185281Y0075554D01*
X0185281Y0076340D02*
X0299243Y0076340D01*
X0299569Y0077126D02*
X0185281Y0077126D01*
X0185281Y0077912D02*
X0300012Y0077912D01*
X0300798Y0078698D02*
X0185281Y0078698D01*
X0185281Y0079484D02*
X0315701Y0079484D01*
X0315701Y0080270D02*
X0185281Y0080270D01*
X0185281Y0081055D02*
X0315701Y0081055D01*
X0315701Y0081841D02*
X0310924Y0081841D01*
X0311459Y0082063D02*
X0309991Y0081455D01*
X0302402Y0081455D01*
X0300935Y0082063D01*
X0299811Y0083187D01*
X0299203Y0084654D01*
X0299203Y0086243D01*
X0299811Y0087711D01*
X0300935Y0088835D01*
X0302402Y0089443D01*
X0309991Y0089443D01*
X0311459Y0088835D01*
X0312583Y0087711D01*
X0313191Y0086243D01*
X0313191Y0084654D01*
X0312583Y0083187D01*
X0311459Y0082063D01*
X0312023Y0082627D02*
X0315701Y0082627D01*
X0315701Y0083413D02*
X0312676Y0083413D01*
X0313002Y0084199D02*
X0315701Y0084199D01*
X0315701Y0084985D02*
X0313191Y0084985D01*
X0313191Y0085771D02*
X0315701Y0085771D01*
X0315701Y0086557D02*
X0313061Y0086557D01*
X0312735Y0087343D02*
X0315701Y0087343D01*
X0315701Y0088129D02*
X0312165Y0088129D01*
X0311266Y0088915D02*
X0315701Y0088915D01*
X0315701Y0089700D02*
X0185281Y0089700D01*
X0185281Y0088915D02*
X0301128Y0088915D01*
X0300229Y0088129D02*
X0185281Y0088129D01*
X0185281Y0087343D02*
X0299659Y0087343D01*
X0299333Y0086557D02*
X0185281Y0086557D01*
X0185281Y0085771D02*
X0299203Y0085771D01*
X0299203Y0084985D02*
X0185281Y0084985D01*
X0185281Y0084199D02*
X0299392Y0084199D01*
X0299717Y0083413D02*
X0185281Y0083413D01*
X0185281Y0082627D02*
X0300370Y0082627D01*
X0301470Y0081841D02*
X0185281Y0081841D01*
X0182506Y0083413D02*
X0046898Y0083413D01*
X0046951Y0084199D02*
X0182506Y0084199D01*
X0182506Y0084985D02*
X0155522Y0084985D01*
X0155691Y0085055D02*
X0156815Y0086179D01*
X0157423Y0087647D01*
X0157423Y0089235D01*
X0156815Y0090703D01*
X0155691Y0091827D01*
X0154224Y0092435D01*
X0146635Y0092435D01*
X0145167Y0091827D01*
X0144043Y0090703D01*
X0143435Y0089235D01*
X0143435Y0087647D01*
X0144043Y0086179D01*
X0145167Y0085055D01*
X0146635Y0084447D01*
X0154224Y0084447D01*
X0155691Y0085055D01*
X0156407Y0085771D02*
X0182506Y0085771D01*
X0182506Y0086557D02*
X0156971Y0086557D01*
X0157297Y0087343D02*
X0182506Y0087343D01*
X0182506Y0088129D02*
X0157423Y0088129D01*
X0157423Y0088915D02*
X0182506Y0088915D01*
X0182506Y0089700D02*
X0157230Y0089700D01*
X0156905Y0090486D02*
X0182506Y0090486D01*
X0182506Y0091272D02*
X0156246Y0091272D01*
X0155132Y0092058D02*
X0182596Y0092058D01*
X0183382Y0092844D02*
X0045993Y0092844D01*
X0045909Y0092960D02*
X0045420Y0093449D01*
X0044860Y0093855D01*
X0044244Y0094169D01*
X0043586Y0094383D01*
X0042951Y0094484D01*
X0042951Y0087491D01*
X0046951Y0087491D01*
X0046951Y0090443D01*
X0046843Y0091127D01*
X0046629Y0091784D01*
X0046315Y0092400D01*
X0045909Y0092960D01*
X0045171Y0093630D02*
X0184168Y0093630D01*
X0184954Y0094416D02*
X0043379Y0094416D01*
X0042951Y0094416D02*
X0042164Y0094416D01*
X0042164Y0094484D02*
X0041529Y0094383D01*
X0040871Y0094169D01*
X0040255Y0093855D01*
X0039695Y0093449D01*
X0039206Y0092960D01*
X0038800Y0092400D01*
X0038486Y0091784D01*
X0038272Y0091127D01*
X0038164Y0090443D01*
X0038164Y0087491D01*
X0042164Y0087491D01*
X0042164Y0086704D01*
X0042951Y0086704D01*
X0042951Y0087491D01*
X0042164Y0087491D01*
X0042164Y0094484D01*
X0041736Y0094416D02*
X0013287Y0094416D01*
X0013287Y0095202D02*
X0145020Y0095202D01*
X0145167Y0095055D02*
X0146635Y0094447D01*
X0154224Y0094447D01*
X0155691Y0095055D01*
X0156815Y0096179D01*
X0157423Y0097647D01*
X0157423Y0099235D01*
X0156815Y0100703D01*
X0155691Y0101827D01*
X0154224Y0102435D01*
X0146635Y0102435D01*
X0145167Y0101827D01*
X0144043Y0100703D01*
X0143435Y0099235D01*
X0143435Y0097647D01*
X0144043Y0096179D01*
X0145167Y0095055D01*
X0144234Y0095988D02*
X0013287Y0095988D01*
X0013287Y0096774D02*
X0143797Y0096774D01*
X0143471Y0097560D02*
X0013287Y0097560D01*
X0013287Y0098346D02*
X0143435Y0098346D01*
X0143435Y0099131D02*
X0098653Y0099131D01*
X0098306Y0098783D02*
X0099004Y0099482D01*
X0099382Y0100394D01*
X0099382Y0101382D01*
X0099004Y0102294D01*
X0098306Y0102993D01*
X0098193Y0103040D01*
X0098193Y0114682D01*
X0098498Y0114987D01*
X0098876Y0115900D01*
X0098876Y0116888D01*
X0098498Y0117800D01*
X0097800Y0118498D01*
X0096888Y0118876D01*
X0095900Y0118876D01*
X0094987Y0118498D01*
X0094289Y0117800D01*
X0093911Y0116888D01*
X0093911Y0115900D01*
X0094289Y0114987D01*
X0094987Y0114289D01*
X0095606Y0114033D01*
X0095606Y0103040D01*
X0095493Y0102993D01*
X0094795Y0102294D01*
X0094417Y0101382D01*
X0094417Y0100394D01*
X0094795Y0099482D01*
X0095493Y0098783D01*
X0096405Y0098405D01*
X0097393Y0098405D01*
X0098306Y0098783D01*
X0099184Y0099917D02*
X0143718Y0099917D01*
X0144043Y0100703D02*
X0099382Y0100703D01*
X0099338Y0101489D02*
X0144829Y0101489D01*
X0146250Y0102275D02*
X0099012Y0102275D01*
X0098193Y0103061D02*
X0177050Y0103061D01*
X0176572Y0102275D02*
X0154609Y0102275D01*
X0156029Y0101489D02*
X0176411Y0101489D01*
X0176492Y0100703D02*
X0156815Y0100703D01*
X0157140Y0099917D02*
X0176859Y0099917D01*
X0177868Y0099131D02*
X0157423Y0099131D01*
X0157423Y0098346D02*
X0188883Y0098346D01*
X0189669Y0099131D02*
X0179920Y0099131D01*
X0180928Y0099917D02*
X0190455Y0099917D01*
X0191241Y0100703D02*
X0181295Y0100703D01*
X0181376Y0101489D02*
X0190675Y0101489D01*
X0193593Y0099131D02*
X0301651Y0099131D01*
X0300935Y0098835D02*
X0302402Y0099443D01*
X0309991Y0099443D01*
X0311459Y0098835D01*
X0312583Y0097711D01*
X0313191Y0096243D01*
X0313191Y0094654D01*
X0312583Y0093187D01*
X0311459Y0092063D01*
X0309991Y0091455D01*
X0302402Y0091455D01*
X0300935Y0092063D01*
X0299811Y0093187D01*
X0299203Y0094654D01*
X0299203Y0096243D01*
X0299811Y0097711D01*
X0300935Y0098835D01*
X0300446Y0098346D02*
X0192808Y0098346D01*
X0192022Y0097560D02*
X0299748Y0097560D01*
X0299423Y0096774D02*
X0191236Y0096774D01*
X0190450Y0095988D02*
X0299203Y0095988D01*
X0299203Y0095202D02*
X0189664Y0095202D01*
X0188878Y0094416D02*
X0299302Y0094416D01*
X0299627Y0093630D02*
X0188092Y0093630D01*
X0187306Y0092844D02*
X0300154Y0092844D01*
X0300946Y0092058D02*
X0186520Y0092058D01*
X0185734Y0091272D02*
X0315701Y0091272D01*
X0315701Y0090486D02*
X0185281Y0090486D01*
X0183894Y0091394D02*
X0218894Y0126394D01*
X0220588Y0128210D02*
X0300310Y0128210D01*
X0299811Y0127711D02*
X0299203Y0126243D01*
X0299203Y0124654D01*
X0299811Y0123187D01*
X0300935Y0122063D01*
X0302402Y0121455D01*
X0309991Y0121455D01*
X0311459Y0122063D01*
X0312583Y0123187D01*
X0313191Y0124654D01*
X0313191Y0126243D01*
X0312583Y0127711D01*
X0311459Y0128835D01*
X0309991Y0129443D01*
X0302402Y0129443D01*
X0300935Y0128835D01*
X0299811Y0127711D01*
X0299692Y0127424D02*
X0221154Y0127424D01*
X0221376Y0126638D02*
X0299367Y0126638D01*
X0299203Y0125852D02*
X0221357Y0125852D01*
X0221031Y0125067D02*
X0299203Y0125067D01*
X0299358Y0124281D02*
X0220280Y0124281D01*
X0217957Y0123495D02*
X0299684Y0123495D01*
X0300289Y0122709D02*
X0217171Y0122709D01*
X0216385Y0121923D02*
X0301273Y0121923D01*
X0302402Y0119443D02*
X0300935Y0118835D01*
X0299811Y0117711D01*
X0299203Y0116243D01*
X0299203Y0114654D01*
X0299811Y0113187D01*
X0300935Y0112063D01*
X0302402Y0111455D01*
X0309991Y0111455D01*
X0311459Y0112063D01*
X0312583Y0113187D01*
X0313191Y0114654D01*
X0313191Y0116243D01*
X0312583Y0117711D01*
X0311459Y0118835D01*
X0309991Y0119443D01*
X0302402Y0119443D01*
X0300879Y0118779D02*
X0213241Y0118779D01*
X0212455Y0117993D02*
X0300093Y0117993D01*
X0299603Y0117207D02*
X0211669Y0117207D01*
X0210884Y0116422D02*
X0299277Y0116422D01*
X0299203Y0115636D02*
X0213163Y0115636D01*
X0211394Y0113894D02*
X0218894Y0113894D01*
X0228894Y0103894D01*
X0229802Y0106205D02*
X0299203Y0106205D01*
X0299203Y0106243D02*
X0299203Y0104654D01*
X0299811Y0103187D01*
X0300935Y0102063D01*
X0302402Y0101455D01*
X0309991Y0101455D01*
X0311459Y0102063D01*
X0312583Y0103187D01*
X0313191Y0104654D01*
X0313191Y0106243D01*
X0312583Y0107711D01*
X0311459Y0108835D01*
X0309991Y0109443D01*
X0302402Y0109443D01*
X0300935Y0108835D01*
X0299811Y0107711D01*
X0299203Y0106243D01*
X0299513Y0106991D02*
X0227759Y0106991D01*
X0226973Y0107776D02*
X0299877Y0107776D01*
X0300662Y0108562D02*
X0226187Y0108562D01*
X0225401Y0109348D02*
X0302175Y0109348D01*
X0301797Y0111706D02*
X0223043Y0111706D01*
X0222258Y0112492D02*
X0300506Y0112492D01*
X0299773Y0113278D02*
X0221472Y0113278D01*
X0220686Y0114064D02*
X0299448Y0114064D01*
X0299203Y0114850D02*
X0219900Y0114850D01*
X0218333Y0112492D02*
X0213500Y0112492D01*
X0212600Y0111706D02*
X0219119Y0111706D01*
X0219905Y0110920D02*
X0205382Y0110920D01*
X0206164Y0110134D02*
X0220691Y0110134D01*
X0221477Y0109348D02*
X0206689Y0109348D01*
X0206882Y0108562D02*
X0222263Y0108562D01*
X0223049Y0107776D02*
X0206833Y0107776D01*
X0206508Y0106991D02*
X0223835Y0106991D01*
X0224621Y0106205D02*
X0205615Y0106205D01*
X0203183Y0106205D02*
X0200667Y0106205D01*
X0201453Y0106991D02*
X0202291Y0106991D01*
X0199881Y0105419D02*
X0225407Y0105419D01*
X0226192Y0104633D02*
X0199095Y0104633D01*
X0198309Y0103847D02*
X0226411Y0103847D01*
X0226551Y0103061D02*
X0197523Y0103061D01*
X0196737Y0102275D02*
X0227001Y0102275D01*
X0228211Y0101489D02*
X0195951Y0101489D01*
X0195165Y0100703D02*
X0315701Y0100703D01*
X0315701Y0099917D02*
X0194379Y0099917D01*
X0188098Y0097560D02*
X0157387Y0097560D01*
X0157061Y0096774D02*
X0187312Y0096774D01*
X0186526Y0095988D02*
X0156624Y0095988D01*
X0155838Y0095202D02*
X0185740Y0095202D01*
X0183894Y0091394D02*
X0183894Y0048894D01*
X0186376Y0048833D02*
X0315701Y0048833D01*
X0315701Y0048047D02*
X0186230Y0048047D01*
X0185772Y0047261D02*
X0315701Y0047261D01*
X0315701Y0049619D02*
X0186281Y0049619D01*
X0185894Y0050405D02*
X0315701Y0050405D01*
X0315701Y0051191D02*
X0185281Y0051191D01*
X0185281Y0051977D02*
X0315701Y0051977D01*
X0315701Y0052763D02*
X0185281Y0052763D01*
X0185281Y0053548D02*
X0315701Y0053548D01*
X0315701Y0054334D02*
X0185281Y0054334D01*
X0185281Y0055120D02*
X0315701Y0055120D01*
X0315701Y0055906D02*
X0185281Y0055906D01*
X0185281Y0056692D02*
X0315701Y0056692D01*
X0315701Y0057478D02*
X0185281Y0057478D01*
X0185281Y0058264D02*
X0315701Y0058264D01*
X0315701Y0059050D02*
X0185281Y0059050D01*
X0185281Y0059836D02*
X0315701Y0059836D01*
X0315701Y0060622D02*
X0185281Y0060622D01*
X0185281Y0061408D02*
X0315701Y0061408D01*
X0315701Y0062194D02*
X0185281Y0062194D01*
X0185281Y0062979D02*
X0315701Y0062979D01*
X0315701Y0063765D02*
X0185281Y0063765D01*
X0185281Y0064551D02*
X0315701Y0064551D01*
X0315701Y0065337D02*
X0185281Y0065337D01*
X0185281Y0066123D02*
X0315701Y0066123D01*
X0315701Y0066909D02*
X0185281Y0066909D01*
X0185281Y0067695D02*
X0315701Y0067695D01*
X0315701Y0068481D02*
X0185281Y0068481D01*
X0185281Y0069267D02*
X0315701Y0069267D01*
X0315701Y0070053D02*
X0185281Y0070053D01*
X0185281Y0070839D02*
X0315701Y0070839D01*
X0315701Y0071624D02*
X0310400Y0071624D01*
X0311806Y0072410D02*
X0315701Y0072410D01*
X0315701Y0073196D02*
X0312587Y0073196D01*
X0312912Y0073982D02*
X0315701Y0073982D01*
X0315701Y0074768D02*
X0313191Y0074768D01*
X0313191Y0075554D02*
X0315701Y0075554D01*
X0315701Y0076340D02*
X0313150Y0076340D01*
X0312825Y0077126D02*
X0315701Y0077126D01*
X0315701Y0077912D02*
X0312382Y0077912D01*
X0311596Y0078698D02*
X0315701Y0078698D01*
X0315701Y0092058D02*
X0311447Y0092058D01*
X0312240Y0092844D02*
X0315701Y0092844D01*
X0315701Y0093630D02*
X0312766Y0093630D01*
X0313092Y0094416D02*
X0315701Y0094416D01*
X0315701Y0095202D02*
X0313191Y0095202D01*
X0313191Y0095988D02*
X0315701Y0095988D01*
X0315701Y0096774D02*
X0312971Y0096774D01*
X0312645Y0097560D02*
X0315701Y0097560D01*
X0315701Y0098346D02*
X0311948Y0098346D01*
X0310742Y0099131D02*
X0315701Y0099131D01*
X0315701Y0101489D02*
X0310073Y0101489D01*
X0311671Y0102275D02*
X0315701Y0102275D01*
X0315701Y0103061D02*
X0312457Y0103061D01*
X0312856Y0103847D02*
X0315701Y0103847D01*
X0315701Y0104633D02*
X0313182Y0104633D01*
X0313191Y0105419D02*
X0315701Y0105419D01*
X0315701Y0106205D02*
X0313191Y0106205D01*
X0312881Y0106991D02*
X0315701Y0106991D01*
X0315701Y0107776D02*
X0312517Y0107776D01*
X0311731Y0108562D02*
X0315701Y0108562D01*
X0315701Y0109348D02*
X0310219Y0109348D01*
X0310597Y0111706D02*
X0315701Y0111706D01*
X0315701Y0110920D02*
X0223829Y0110920D01*
X0224615Y0110134D02*
X0315701Y0110134D01*
X0315701Y0112492D02*
X0311888Y0112492D01*
X0312620Y0113278D02*
X0315701Y0113278D01*
X0315701Y0114064D02*
X0312946Y0114064D01*
X0313191Y0114850D02*
X0315701Y0114850D01*
X0315701Y0115636D02*
X0313191Y0115636D01*
X0313117Y0116422D02*
X0315701Y0116422D01*
X0315701Y0117207D02*
X0312791Y0117207D01*
X0312300Y0117993D02*
X0315701Y0117993D01*
X0315701Y0118779D02*
X0311514Y0118779D01*
X0315701Y0119565D02*
X0214027Y0119565D01*
X0214813Y0120351D02*
X0315701Y0120351D01*
X0315701Y0121137D02*
X0215599Y0121137D01*
X0213247Y0122709D02*
X0144671Y0122709D01*
X0145022Y0123060D02*
X0155658Y0123060D01*
X0160105Y0127506D01*
X0174281Y0127506D01*
X0174289Y0127487D01*
X0174987Y0126789D01*
X0175900Y0126411D01*
X0176888Y0126411D01*
X0177800Y0126789D01*
X0178498Y0127487D01*
X0178876Y0128400D01*
X0178876Y0129388D01*
X0178498Y0130300D01*
X0177800Y0130998D01*
X0177682Y0131047D01*
X0258009Y0131047D01*
X0258822Y0131860D01*
X0260881Y0133919D01*
X0260900Y0133911D01*
X0261888Y0133911D01*
X0262800Y0134289D01*
X0263498Y0134987D01*
X0263876Y0135900D01*
X0263876Y0136888D01*
X0263498Y0137800D01*
X0262800Y0138498D01*
X0261888Y0138876D01*
X0260900Y0138876D01*
X0259987Y0138498D01*
X0259289Y0137800D01*
X0258911Y0136888D01*
X0258911Y0135900D01*
X0258919Y0135881D01*
X0256860Y0133822D01*
X0212273Y0133822D01*
X0214040Y0135589D01*
X0214289Y0134987D01*
X0214987Y0134289D01*
X0215900Y0133911D01*
X0216888Y0133911D01*
X0217800Y0134289D01*
X0218498Y0134987D01*
X0218545Y0135100D01*
X0221742Y0135100D01*
X0221789Y0134987D01*
X0222487Y0134289D01*
X0223400Y0133911D01*
X0224388Y0133911D01*
X0225300Y0134289D01*
X0225998Y0134987D01*
X0226376Y0135900D01*
X0226376Y0136888D01*
X0225998Y0137800D01*
X0225300Y0138498D01*
X0224388Y0138876D01*
X0223400Y0138876D01*
X0223069Y0138739D01*
X0225787Y0141458D01*
X0225900Y0141411D01*
X0226888Y0141411D01*
X0227800Y0141789D01*
X0228498Y0142487D01*
X0228876Y0143400D01*
X0228876Y0144388D01*
X0228498Y0145300D01*
X0227800Y0145998D01*
X0226888Y0146376D01*
X0225900Y0146376D01*
X0224987Y0145998D01*
X0224289Y0145300D01*
X0223911Y0144388D01*
X0223911Y0143400D01*
X0223958Y0143287D01*
X0220747Y0140076D01*
X0214868Y0140076D01*
X0209979Y0135187D01*
X0205661Y0135187D01*
X0217979Y0147506D01*
X0239281Y0147506D01*
X0239289Y0147487D01*
X0239987Y0146789D01*
X0240900Y0146411D01*
X0241888Y0146411D01*
X0242800Y0146789D01*
X0243498Y0147487D01*
X0243876Y0148400D01*
X0243876Y0149388D01*
X0243498Y0150300D01*
X0242800Y0150998D01*
X0241888Y0151376D01*
X0240900Y0151376D01*
X0239987Y0150998D01*
X0239289Y0150300D01*
X0239281Y0150281D01*
X0216830Y0150281D01*
X0206248Y0139699D01*
X0205998Y0140300D01*
X0205300Y0140998D01*
X0204388Y0141376D01*
X0203400Y0141376D01*
X0203381Y0141369D01*
X0160281Y0184468D01*
X0160281Y0211781D01*
X0160300Y0211789D01*
X0160998Y0212487D01*
X0161376Y0213400D01*
X0161376Y0214388D01*
X0160998Y0215300D01*
X0160300Y0215998D01*
X0159388Y0216376D01*
X0158400Y0216376D01*
X0157487Y0215998D01*
X0156789Y0215300D01*
X0156781Y0215281D01*
X0029468Y0215281D01*
X0018869Y0225881D01*
X0018876Y0225900D01*
X0018876Y0226888D01*
X0018498Y0227800D01*
X0017800Y0228498D01*
X0016888Y0228876D01*
X0015900Y0228876D01*
X0014987Y0228498D01*
X0014289Y0227800D01*
X0013911Y0226888D01*
X0013911Y0225900D01*
X0014289Y0224987D01*
X0014987Y0224289D01*
X0015024Y0224274D01*
X0015024Y0204791D01*
X0015836Y0203978D01*
X0017506Y0202308D01*
X0017506Y0116006D01*
X0017487Y0115998D01*
X0016789Y0115300D01*
X0016411Y0114388D01*
X0016411Y0113400D01*
X0016789Y0112487D01*
X0017487Y0111789D01*
X0018400Y0111411D01*
X0019388Y0111411D01*
X0020300Y0111789D01*
X0020764Y0112253D01*
X0020764Y0108903D01*
X0021372Y0107435D01*
X0022495Y0106312D01*
X0023963Y0105704D01*
X0025552Y0105704D01*
X0027020Y0106312D01*
X0028143Y0107435D01*
X0028751Y0108903D01*
X0028751Y0116492D01*
X0028143Y0117960D01*
X0027020Y0119083D01*
X0025552Y0119691D01*
X0023963Y0119691D01*
X0022495Y0119083D01*
X0021372Y0117960D01*
X0020764Y0116492D01*
X0020764Y0115535D01*
X0020300Y0115998D01*
X0020281Y0116006D01*
X0020281Y0203457D01*
X0019699Y0204040D01*
X0020300Y0204289D01*
X0020998Y0204987D01*
X0021006Y0205006D01*
X0038319Y0205006D01*
X0043919Y0199406D01*
X0043911Y0199388D01*
X0043911Y0198400D01*
X0044289Y0197487D01*
X0044987Y0196789D01*
X0045900Y0196411D01*
X0046888Y0196411D01*
X0047800Y0196789D01*
X0048498Y0197487D01*
X0048876Y0198400D01*
X0048876Y0199388D01*
X0048498Y0200300D01*
X0047800Y0200998D01*
X0046888Y0201376D01*
X0045900Y0201376D01*
X0045881Y0201369D01*
X0039468Y0207781D01*
X0021006Y0207781D01*
X0020998Y0207800D01*
X0020300Y0208498D01*
X0019388Y0208876D01*
X0018400Y0208876D01*
X0017798Y0208627D01*
X0017798Y0223027D01*
X0027506Y0213319D01*
X0028319Y0212506D01*
X0156781Y0212506D01*
X0156789Y0212487D01*
X0157487Y0211789D01*
X0157506Y0211781D01*
X0157506Y0183319D01*
X0190544Y0150281D01*
X0188506Y0150281D01*
X0188498Y0150300D01*
X0187800Y0150998D01*
X0186888Y0151376D01*
X0185900Y0151376D01*
X0184987Y0150998D01*
X0184289Y0150300D01*
X0183911Y0149388D01*
X0183911Y0148400D01*
X0184289Y0147487D01*
X0184987Y0146789D01*
X0185900Y0146411D01*
X0186888Y0146411D01*
X0187800Y0146789D01*
X0188498Y0147487D01*
X0188506Y0147506D01*
X0189808Y0147506D01*
X0202127Y0135187D01*
X0188581Y0135187D01*
X0188876Y0135900D01*
X0188876Y0136888D01*
X0188498Y0137800D01*
X0187800Y0138498D01*
X0186888Y0138876D01*
X0185900Y0138876D01*
X0184987Y0138498D01*
X0184289Y0137800D01*
X0184281Y0137781D01*
X0164468Y0137781D01*
X0163295Y0138954D01*
X0163400Y0138911D01*
X0164388Y0138911D01*
X0165300Y0139289D01*
X0165998Y0139987D01*
X0166006Y0140006D01*
X0184281Y0140006D01*
X0184289Y0139987D01*
X0184987Y0139289D01*
X0185900Y0138911D01*
X0186888Y0138911D01*
X0187800Y0139289D01*
X0188498Y0139987D01*
X0188876Y0140900D01*
X0188876Y0141888D01*
X0188498Y0142800D01*
X0187800Y0143498D01*
X0186888Y0143876D01*
X0185900Y0143876D01*
X0184987Y0143498D01*
X0184289Y0142800D01*
X0184281Y0142781D01*
X0166006Y0142781D01*
X0165998Y0142800D01*
X0165300Y0143498D01*
X0164388Y0143876D01*
X0163400Y0143876D01*
X0162487Y0143498D01*
X0161789Y0142800D01*
X0161411Y0141888D01*
X0161411Y0140900D01*
X0161454Y0140795D01*
X0156369Y0145881D01*
X0156376Y0145900D01*
X0156376Y0146888D01*
X0155998Y0147800D01*
X0155300Y0148498D01*
X0154388Y0148876D01*
X0153400Y0148876D01*
X0152487Y0148498D01*
X0151789Y0147800D01*
X0151411Y0146888D01*
X0151411Y0145900D01*
X0151789Y0144987D01*
X0152487Y0144289D01*
X0153400Y0143911D01*
X0154388Y0143911D01*
X0154406Y0143919D01*
X0163138Y0135187D01*
X0155824Y0135187D01*
X0156815Y0136179D01*
X0157423Y0137647D01*
X0157423Y0139235D01*
X0156815Y0140703D01*
X0155691Y0141827D01*
X0154224Y0142435D01*
X0146635Y0142435D01*
X0145167Y0141827D01*
X0144043Y0140703D01*
X0143435Y0139235D01*
X0143435Y0137647D01*
X0144043Y0136179D01*
X0145035Y0135187D01*
X0133545Y0135187D01*
X0133498Y0135300D01*
X0132814Y0135984D01*
X0145787Y0148958D01*
X0145900Y0148911D01*
X0146888Y0148911D01*
X0147800Y0149289D01*
X0148498Y0149987D01*
X0148876Y0150900D01*
X0148876Y0151888D01*
X0148498Y0152800D01*
X0147800Y0153498D01*
X0146888Y0153876D01*
X0145900Y0153876D01*
X0144987Y0153498D01*
X0144289Y0152800D01*
X0143911Y0151888D01*
X0143911Y0150900D01*
X0143958Y0150787D01*
X0130747Y0137576D01*
X0129868Y0137576D01*
X0127479Y0135187D01*
X0121045Y0135187D01*
X0120998Y0135300D01*
X0120300Y0135998D01*
X0119388Y0136376D01*
X0118400Y0136376D01*
X0117487Y0135998D01*
X0116789Y0135300D01*
X0116411Y0134388D01*
X0116411Y0133400D01*
X0116667Y0132781D01*
X0026006Y0132781D01*
X0025998Y0132800D01*
X0025300Y0133498D01*
X0024388Y0133876D01*
X0023400Y0133876D01*
X0022487Y0133498D01*
X0021789Y0132800D01*
X0021411Y0131888D01*
X0021411Y0130900D01*
X0021789Y0129987D01*
X0022487Y0129289D01*
X0023400Y0128911D01*
X0024388Y0128911D01*
X0025300Y0129289D01*
X0025998Y0129987D01*
X0026006Y0130006D01*
X0143755Y0130006D01*
X0143435Y0129235D01*
X0143435Y0127647D01*
X0144043Y0126179D01*
X0144388Y0125835D01*
X0143873Y0125835D01*
X0143060Y0125022D01*
X0129406Y0111369D01*
X0129388Y0111376D01*
X0128400Y0111376D01*
X0127487Y0110998D01*
X0126789Y0110300D01*
X0126411Y0109388D01*
X0126411Y0108400D01*
X0126789Y0107487D01*
X0127487Y0106789D01*
X0128400Y0106411D01*
X0129388Y0106411D01*
X0130300Y0106789D01*
X0130998Y0107487D01*
X0131376Y0108400D01*
X0131376Y0109388D01*
X0131369Y0109406D01*
X0145022Y0123060D01*
X0145399Y0121923D02*
X0143885Y0121923D01*
X0144477Y0121137D02*
X0143099Y0121137D01*
X0144043Y0120703D02*
X0143435Y0119235D01*
X0143435Y0117647D01*
X0144043Y0116179D01*
X0145167Y0115055D01*
X0146635Y0114447D01*
X0154224Y0114447D01*
X0155691Y0115055D01*
X0156815Y0116179D01*
X0157423Y0117647D01*
X0157423Y0119235D01*
X0156815Y0120703D01*
X0155691Y0121827D01*
X0154224Y0122435D01*
X0146635Y0122435D01*
X0145167Y0121827D01*
X0144043Y0120703D01*
X0143898Y0120351D02*
X0142313Y0120351D01*
X0141527Y0119565D02*
X0143572Y0119565D01*
X0143435Y0118779D02*
X0140741Y0118779D01*
X0139955Y0117993D02*
X0143435Y0117993D01*
X0143617Y0117207D02*
X0139170Y0117207D01*
X0138384Y0116422D02*
X0143943Y0116422D01*
X0144587Y0115636D02*
X0137598Y0115636D01*
X0136812Y0114850D02*
X0145663Y0114850D01*
X0146635Y0112435D02*
X0145167Y0111827D01*
X0144043Y0110703D01*
X0143435Y0109235D01*
X0143435Y0107647D01*
X0144043Y0106179D01*
X0145167Y0105055D01*
X0146635Y0104447D01*
X0154224Y0104447D01*
X0155691Y0105055D01*
X0156815Y0106179D01*
X0157423Y0107647D01*
X0157423Y0109235D01*
X0156815Y0110703D01*
X0155691Y0111827D01*
X0154224Y0112435D01*
X0146635Y0112435D01*
X0145046Y0111706D02*
X0133668Y0111706D01*
X0132882Y0110920D02*
X0144260Y0110920D01*
X0143808Y0110134D02*
X0132096Y0110134D01*
X0131376Y0109348D02*
X0143482Y0109348D01*
X0143435Y0108562D02*
X0131376Y0108562D01*
X0131118Y0107776D02*
X0143435Y0107776D01*
X0143707Y0106991D02*
X0130502Y0106991D01*
X0128894Y0108894D02*
X0144447Y0124447D01*
X0155083Y0124447D01*
X0159530Y0128894D01*
X0176394Y0128894D01*
X0178713Y0129782D02*
X0315701Y0129782D01*
X0315701Y0128996D02*
X0311069Y0128996D01*
X0312083Y0128210D02*
X0315701Y0128210D01*
X0315701Y0127424D02*
X0312701Y0127424D01*
X0313027Y0126638D02*
X0315701Y0126638D01*
X0315701Y0125852D02*
X0313191Y0125852D01*
X0313191Y0125067D02*
X0315701Y0125067D01*
X0315701Y0124281D02*
X0313036Y0124281D01*
X0312710Y0123495D02*
X0315701Y0123495D01*
X0315701Y0122709D02*
X0312105Y0122709D01*
X0311121Y0121923D02*
X0315701Y0121923D01*
X0315701Y0130568D02*
X0178230Y0130568D01*
X0178876Y0128996D02*
X0301325Y0128996D01*
X0302402Y0131455D02*
X0300935Y0132063D01*
X0299811Y0133187D01*
X0299203Y0134654D01*
X0299203Y0136243D01*
X0299811Y0137711D01*
X0300935Y0138835D01*
X0302402Y0139443D01*
X0309991Y0139443D01*
X0311459Y0138835D01*
X0312583Y0137711D01*
X0313191Y0136243D01*
X0313191Y0134654D01*
X0312583Y0133187D01*
X0311459Y0132063D01*
X0309991Y0131455D01*
X0302402Y0131455D01*
X0300858Y0132140D02*
X0259102Y0132140D01*
X0259888Y0132926D02*
X0300072Y0132926D01*
X0299594Y0133712D02*
X0260674Y0133712D01*
X0263009Y0134498D02*
X0299268Y0134498D01*
X0299203Y0135283D02*
X0263621Y0135283D01*
X0263876Y0136069D02*
X0299203Y0136069D01*
X0299457Y0136855D02*
X0263876Y0136855D01*
X0263564Y0137641D02*
X0299782Y0137641D01*
X0300527Y0138427D02*
X0262871Y0138427D01*
X0261394Y0136394D02*
X0257435Y0132435D01*
X0145775Y0132435D01*
X0144734Y0131394D01*
X0023894Y0131394D01*
X0024785Y0133712D02*
X0116411Y0133712D01*
X0116457Y0134498D02*
X0098009Y0134498D01*
X0097800Y0134289D02*
X0098498Y0134987D01*
X0098876Y0135900D01*
X0098876Y0136888D01*
X0098498Y0137800D01*
X0097800Y0138498D01*
X0097781Y0138506D01*
X0097781Y0146968D01*
X0096968Y0147781D01*
X0096369Y0148381D01*
X0096376Y0148400D01*
X0096376Y0149388D01*
X0095998Y0150300D01*
X0095300Y0150998D01*
X0094388Y0151376D01*
X0093400Y0151376D01*
X0092487Y0150998D01*
X0091789Y0150300D01*
X0091411Y0149388D01*
X0091411Y0148400D01*
X0091789Y0147487D01*
X0092487Y0146789D01*
X0093400Y0146411D01*
X0094388Y0146411D01*
X0094406Y0146419D01*
X0095006Y0145819D01*
X0095006Y0138506D01*
X0094987Y0138498D01*
X0094289Y0137800D01*
X0093911Y0136888D01*
X0093911Y0135900D01*
X0094289Y0134987D01*
X0094987Y0134289D01*
X0095900Y0133911D01*
X0096888Y0133911D01*
X0097800Y0134289D01*
X0098621Y0135283D02*
X0116782Y0135283D01*
X0117659Y0136069D02*
X0098876Y0136069D01*
X0098876Y0136855D02*
X0129147Y0136855D01*
X0128361Y0136069D02*
X0120129Y0136069D01*
X0121005Y0135283D02*
X0127575Y0135283D01*
X0130812Y0137641D02*
X0098564Y0137641D01*
X0097871Y0138427D02*
X0131598Y0138427D01*
X0132383Y0139213D02*
X0097781Y0139213D01*
X0097781Y0139999D02*
X0133169Y0139999D01*
X0133955Y0140785D02*
X0097781Y0140785D01*
X0097781Y0141571D02*
X0134741Y0141571D01*
X0135527Y0142357D02*
X0097781Y0142357D01*
X0097781Y0143143D02*
X0136313Y0143143D01*
X0137099Y0143928D02*
X0097781Y0143928D01*
X0097781Y0144714D02*
X0137885Y0144714D01*
X0138671Y0145500D02*
X0097781Y0145500D01*
X0097781Y0146286D02*
X0139457Y0146286D01*
X0140243Y0147072D02*
X0097677Y0147072D01*
X0096891Y0147858D02*
X0141028Y0147858D01*
X0141814Y0148644D02*
X0096376Y0148644D01*
X0096359Y0149430D02*
X0142600Y0149430D01*
X0143386Y0150216D02*
X0096033Y0150216D01*
X0095292Y0151002D02*
X0143911Y0151002D01*
X0143911Y0151788D02*
X0020281Y0151788D01*
X0020281Y0152573D02*
X0144195Y0152573D01*
X0144848Y0153359D02*
X0020281Y0153359D01*
X0020281Y0154145D02*
X0186680Y0154145D01*
X0187466Y0153359D02*
X0147939Y0153359D01*
X0148592Y0152573D02*
X0188252Y0152573D01*
X0189038Y0151788D02*
X0148876Y0151788D01*
X0148876Y0151002D02*
X0184995Y0151002D01*
X0184254Y0150216D02*
X0148593Y0150216D01*
X0147941Y0149430D02*
X0183929Y0149430D01*
X0183911Y0148644D02*
X0154949Y0148644D01*
X0155940Y0147858D02*
X0184135Y0147858D01*
X0184704Y0147072D02*
X0156300Y0147072D01*
X0156376Y0146286D02*
X0191028Y0146286D01*
X0191814Y0145500D02*
X0156749Y0145500D01*
X0157535Y0144714D02*
X0192600Y0144714D01*
X0193386Y0143928D02*
X0158321Y0143928D01*
X0159107Y0143143D02*
X0162132Y0143143D01*
X0161605Y0142357D02*
X0159893Y0142357D01*
X0160679Y0141571D02*
X0161411Y0141571D01*
X0163894Y0141394D02*
X0186394Y0141394D01*
X0188156Y0143143D02*
X0194172Y0143143D01*
X0194958Y0142357D02*
X0188682Y0142357D01*
X0188876Y0141571D02*
X0195744Y0141571D01*
X0196529Y0140785D02*
X0188829Y0140785D01*
X0188503Y0139999D02*
X0197315Y0139999D01*
X0198101Y0139213D02*
X0187617Y0139213D01*
X0187871Y0138427D02*
X0198887Y0138427D01*
X0199673Y0137641D02*
X0188564Y0137641D01*
X0188876Y0136855D02*
X0200459Y0136855D01*
X0201245Y0136069D02*
X0188876Y0136069D01*
X0188621Y0135283D02*
X0202031Y0135283D01*
X0202865Y0136411D02*
X0190383Y0148894D01*
X0186394Y0148894D01*
X0188083Y0147072D02*
X0190242Y0147072D01*
X0189824Y0151002D02*
X0187792Y0151002D01*
X0191390Y0153359D02*
X0208928Y0153359D01*
X0208911Y0153400D02*
X0209289Y0152487D01*
X0209987Y0151789D01*
X0210900Y0151411D01*
X0211888Y0151411D01*
X0212800Y0151789D01*
X0213498Y0152487D01*
X0213876Y0153400D01*
X0213876Y0154388D01*
X0213498Y0155300D01*
X0212800Y0155998D01*
X0211888Y0156376D01*
X0210900Y0156376D01*
X0210787Y0156330D01*
X0183830Y0183287D01*
X0183876Y0183400D01*
X0183876Y0184388D01*
X0183498Y0185300D01*
X0182800Y0185998D01*
X0181888Y0186376D01*
X0180900Y0186376D01*
X0179987Y0185998D01*
X0179289Y0185300D01*
X0178911Y0184388D01*
X0178911Y0183400D01*
X0179289Y0182487D01*
X0179987Y0181789D01*
X0180900Y0181411D01*
X0181888Y0181411D01*
X0182000Y0181458D01*
X0208958Y0154500D01*
X0208911Y0154388D01*
X0208911Y0153400D01*
X0208911Y0154145D02*
X0190604Y0154145D01*
X0189818Y0154931D02*
X0208527Y0154931D01*
X0207741Y0155717D02*
X0189032Y0155717D01*
X0188246Y0156503D02*
X0206955Y0156503D01*
X0206169Y0157289D02*
X0187460Y0157289D01*
X0186675Y0158075D02*
X0205383Y0158075D01*
X0204597Y0158861D02*
X0185889Y0158861D01*
X0185103Y0159647D02*
X0203811Y0159647D01*
X0203025Y0160433D02*
X0184317Y0160433D01*
X0183531Y0161219D02*
X0202239Y0161219D01*
X0201453Y0162004D02*
X0182745Y0162004D01*
X0181959Y0162790D02*
X0200667Y0162790D01*
X0199882Y0163576D02*
X0181173Y0163576D01*
X0180387Y0164362D02*
X0199096Y0164362D01*
X0198310Y0165148D02*
X0179601Y0165148D01*
X0178815Y0165934D02*
X0197524Y0165934D01*
X0196738Y0166720D02*
X0178030Y0166720D01*
X0177244Y0167506D02*
X0195952Y0167506D01*
X0195166Y0168292D02*
X0176458Y0168292D01*
X0175672Y0169078D02*
X0194380Y0169078D01*
X0193594Y0169864D02*
X0174886Y0169864D01*
X0174100Y0170649D02*
X0192808Y0170649D01*
X0192022Y0171435D02*
X0173314Y0171435D01*
X0172528Y0172221D02*
X0191237Y0172221D01*
X0190451Y0173007D02*
X0171742Y0173007D01*
X0170956Y0173793D02*
X0189665Y0173793D01*
X0188879Y0174579D02*
X0170170Y0174579D01*
X0169384Y0175365D02*
X0188093Y0175365D01*
X0187307Y0176151D02*
X0168599Y0176151D01*
X0167813Y0176937D02*
X0186521Y0176937D01*
X0185735Y0177723D02*
X0167027Y0177723D01*
X0166241Y0178509D02*
X0184949Y0178509D01*
X0184163Y0179295D02*
X0165455Y0179295D01*
X0164669Y0180080D02*
X0183377Y0180080D01*
X0182591Y0180866D02*
X0163883Y0180866D01*
X0163097Y0181652D02*
X0180317Y0181652D01*
X0179338Y0182438D02*
X0162311Y0182438D01*
X0161525Y0183224D02*
X0178984Y0183224D01*
X0178911Y0184010D02*
X0160739Y0184010D01*
X0160281Y0184796D02*
X0179080Y0184796D01*
X0179571Y0185582D02*
X0160281Y0185582D01*
X0160281Y0186368D02*
X0180879Y0186368D01*
X0181908Y0186368D02*
X0299164Y0186368D01*
X0299164Y0185993D02*
X0299772Y0184525D01*
X0300895Y0183402D01*
X0302363Y0182794D01*
X0309952Y0182794D01*
X0311420Y0183402D01*
X0312543Y0184525D01*
X0313151Y0185993D01*
X0313151Y0187582D01*
X0312543Y0189050D01*
X0311420Y0190173D01*
X0309952Y0190781D01*
X0302363Y0190781D01*
X0300895Y0190173D01*
X0299772Y0189050D01*
X0299164Y0187582D01*
X0299164Y0185993D01*
X0299334Y0185582D02*
X0183217Y0185582D01*
X0183707Y0184796D02*
X0299660Y0184796D01*
X0300287Y0184010D02*
X0183876Y0184010D01*
X0183893Y0183224D02*
X0301324Y0183224D01*
X0302363Y0180781D02*
X0300895Y0180173D01*
X0299772Y0179050D01*
X0299164Y0177582D01*
X0299164Y0175993D01*
X0299772Y0174525D01*
X0300895Y0173402D01*
X0302363Y0172794D01*
X0309952Y0172794D01*
X0311420Y0173402D01*
X0312543Y0174525D01*
X0313151Y0175993D01*
X0313151Y0177582D01*
X0312543Y0179050D01*
X0311420Y0180173D01*
X0309952Y0180781D01*
X0302363Y0180781D01*
X0300803Y0180080D02*
X0187036Y0180080D01*
X0186251Y0180866D02*
X0315701Y0180866D01*
X0315701Y0180080D02*
X0311512Y0180080D01*
X0312298Y0179295D02*
X0315701Y0179295D01*
X0315701Y0178509D02*
X0312767Y0178509D01*
X0313093Y0177723D02*
X0315701Y0177723D01*
X0315701Y0176937D02*
X0313151Y0176937D01*
X0313151Y0176151D02*
X0315701Y0176151D01*
X0315701Y0175365D02*
X0312891Y0175365D01*
X0312566Y0174579D02*
X0315701Y0174579D01*
X0315701Y0173793D02*
X0311811Y0173793D01*
X0310467Y0173007D02*
X0315701Y0173007D01*
X0315701Y0172221D02*
X0194896Y0172221D01*
X0195682Y0171435D02*
X0315701Y0171435D01*
X0315701Y0170649D02*
X0310270Y0170649D01*
X0309952Y0170781D02*
X0311420Y0170173D01*
X0312543Y0169050D01*
X0313151Y0167582D01*
X0313151Y0165993D01*
X0312543Y0164525D01*
X0311420Y0163402D01*
X0309952Y0162794D01*
X0302363Y0162794D01*
X0300895Y0163402D01*
X0299772Y0164525D01*
X0299164Y0165993D01*
X0299164Y0167582D01*
X0299772Y0169050D01*
X0300895Y0170173D01*
X0302363Y0170781D01*
X0309952Y0170781D01*
X0311729Y0169864D02*
X0315701Y0169864D01*
X0315701Y0169078D02*
X0312515Y0169078D01*
X0312857Y0168292D02*
X0315701Y0168292D01*
X0315701Y0167506D02*
X0313151Y0167506D01*
X0313151Y0166720D02*
X0315701Y0166720D01*
X0315701Y0165934D02*
X0313127Y0165934D01*
X0312801Y0165148D02*
X0315701Y0165148D01*
X0315701Y0164362D02*
X0312380Y0164362D01*
X0311594Y0163576D02*
X0315701Y0163576D01*
X0315701Y0162790D02*
X0204327Y0162790D01*
X0205112Y0162004D02*
X0315701Y0162004D01*
X0315701Y0161219D02*
X0205898Y0161219D01*
X0206684Y0160433D02*
X0301522Y0160433D01*
X0300895Y0160173D02*
X0299772Y0159050D01*
X0299164Y0157582D01*
X0299164Y0155993D01*
X0299772Y0154525D01*
X0300895Y0153402D01*
X0302363Y0152794D01*
X0309952Y0152794D01*
X0311420Y0153402D01*
X0312543Y0154525D01*
X0313151Y0155993D01*
X0313151Y0157582D01*
X0312543Y0159050D01*
X0311420Y0160173D01*
X0309952Y0160781D01*
X0302363Y0160781D01*
X0300895Y0160173D01*
X0300369Y0159647D02*
X0207470Y0159647D01*
X0208256Y0158861D02*
X0299694Y0158861D01*
X0299368Y0158075D02*
X0209042Y0158075D01*
X0209828Y0157289D02*
X0299164Y0157289D01*
X0299164Y0156503D02*
X0210614Y0156503D01*
X0213081Y0155717D02*
X0299278Y0155717D01*
X0299604Y0154931D02*
X0213651Y0154931D01*
X0213876Y0154145D02*
X0300152Y0154145D01*
X0300997Y0153359D02*
X0213860Y0153359D01*
X0213534Y0152573D02*
X0315701Y0152573D01*
X0315701Y0151788D02*
X0212797Y0151788D01*
X0209991Y0151788D02*
X0192962Y0151788D01*
X0192176Y0152573D02*
X0209253Y0152573D01*
X0214407Y0147858D02*
X0196891Y0147858D01*
X0196106Y0148644D02*
X0215193Y0148644D01*
X0215979Y0149430D02*
X0195320Y0149430D01*
X0194534Y0150216D02*
X0216765Y0150216D01*
X0217405Y0148894D02*
X0204922Y0136411D01*
X0202865Y0136411D01*
X0203894Y0138894D02*
X0158894Y0183894D01*
X0158894Y0213894D01*
X0028894Y0213894D01*
X0016394Y0226394D01*
X0016411Y0226376D01*
X0016411Y0205365D01*
X0018894Y0202883D01*
X0018894Y0113894D01*
X0020663Y0115636D02*
X0020764Y0115636D01*
X0020764Y0116422D02*
X0020281Y0116422D01*
X0020281Y0117207D02*
X0021060Y0117207D01*
X0021405Y0117993D02*
X0020281Y0117993D01*
X0020281Y0118779D02*
X0022191Y0118779D01*
X0023658Y0119565D02*
X0020281Y0119565D01*
X0020281Y0120351D02*
X0138389Y0120351D01*
X0137603Y0119565D02*
X0044645Y0119565D01*
X0044860Y0119455D02*
X0044244Y0119769D01*
X0043586Y0119983D01*
X0042951Y0120084D01*
X0042951Y0113091D01*
X0046951Y0113091D01*
X0046951Y0116043D01*
X0046843Y0116727D01*
X0046629Y0117384D01*
X0046315Y0118000D01*
X0045909Y0118560D01*
X0045420Y0119049D01*
X0044860Y0119455D01*
X0045689Y0118779D02*
X0095665Y0118779D01*
X0094482Y0117993D02*
X0046319Y0117993D01*
X0046687Y0117207D02*
X0094044Y0117207D01*
X0093911Y0116422D02*
X0046891Y0116422D01*
X0046951Y0115636D02*
X0094020Y0115636D01*
X0094427Y0114850D02*
X0046951Y0114850D01*
X0046951Y0114064D02*
X0095531Y0114064D01*
X0095606Y0113278D02*
X0046951Y0113278D01*
X0046951Y0112304D02*
X0042951Y0112304D01*
X0042951Y0105312D01*
X0043586Y0105412D01*
X0044244Y0105626D01*
X0044860Y0105940D01*
X0045420Y0106346D01*
X0045909Y0106835D01*
X0046315Y0107395D01*
X0046629Y0108011D01*
X0046843Y0108669D01*
X0046951Y0109352D01*
X0046951Y0112304D01*
X0046951Y0111706D02*
X0095606Y0111706D01*
X0095606Y0110920D02*
X0046951Y0110920D01*
X0046951Y0110134D02*
X0095606Y0110134D01*
X0095606Y0109348D02*
X0046951Y0109348D01*
X0046808Y0108562D02*
X0095606Y0108562D01*
X0095606Y0107776D02*
X0046510Y0107776D01*
X0046022Y0106991D02*
X0095606Y0106991D01*
X0095606Y0106205D02*
X0045225Y0106205D01*
X0043607Y0105419D02*
X0095606Y0105419D01*
X0095606Y0104633D02*
X0013287Y0104633D01*
X0013287Y0105419D02*
X0041508Y0105419D01*
X0041529Y0105412D02*
X0042164Y0105312D01*
X0042164Y0112304D01*
X0042951Y0112304D01*
X0042951Y0113091D01*
X0042164Y0113091D01*
X0042164Y0112304D01*
X0038164Y0112304D01*
X0038164Y0109352D01*
X0038272Y0108669D01*
X0038486Y0108011D01*
X0038800Y0107395D01*
X0039206Y0106835D01*
X0039695Y0106346D01*
X0040255Y0105940D01*
X0040871Y0105626D01*
X0041529Y0105412D01*
X0042164Y0105419D02*
X0042951Y0105419D01*
X0042951Y0106205D02*
X0042164Y0106205D01*
X0042164Y0106991D02*
X0042951Y0106991D01*
X0042951Y0107776D02*
X0042164Y0107776D01*
X0042164Y0108562D02*
X0042951Y0108562D01*
X0042951Y0109348D02*
X0042164Y0109348D01*
X0042164Y0110134D02*
X0042951Y0110134D01*
X0042951Y0110920D02*
X0042164Y0110920D01*
X0042164Y0111706D02*
X0042951Y0111706D01*
X0042951Y0112492D02*
X0095606Y0112492D01*
X0098193Y0112492D02*
X0130530Y0112492D01*
X0131316Y0113278D02*
X0098193Y0113278D01*
X0098193Y0114064D02*
X0132102Y0114064D01*
X0132888Y0114850D02*
X0098361Y0114850D01*
X0098767Y0115636D02*
X0133674Y0115636D01*
X0134459Y0116422D02*
X0098876Y0116422D01*
X0098744Y0117207D02*
X0135245Y0117207D01*
X0136031Y0117993D02*
X0098305Y0117993D01*
X0097122Y0118779D02*
X0136817Y0118779D01*
X0139175Y0121137D02*
X0020281Y0121137D01*
X0020281Y0121923D02*
X0139961Y0121923D01*
X0140747Y0122709D02*
X0020281Y0122709D01*
X0020281Y0123495D02*
X0141533Y0123495D01*
X0142319Y0124281D02*
X0020281Y0124281D01*
X0020281Y0125067D02*
X0143104Y0125067D01*
X0144370Y0125852D02*
X0020281Y0125852D01*
X0020281Y0126638D02*
X0143853Y0126638D01*
X0143527Y0127424D02*
X0020281Y0127424D01*
X0020281Y0128210D02*
X0143435Y0128210D01*
X0143435Y0128996D02*
X0024593Y0128996D01*
X0023194Y0128996D02*
X0020281Y0128996D01*
X0020281Y0129782D02*
X0021994Y0129782D01*
X0021548Y0130568D02*
X0020281Y0130568D01*
X0020281Y0131354D02*
X0021411Y0131354D01*
X0021516Y0132140D02*
X0020281Y0132140D01*
X0020281Y0132926D02*
X0021915Y0132926D01*
X0023002Y0133712D02*
X0020281Y0133712D01*
X0020281Y0134498D02*
X0094779Y0134498D01*
X0094166Y0135283D02*
X0020281Y0135283D01*
X0020281Y0136069D02*
X0093911Y0136069D01*
X0093911Y0136855D02*
X0020281Y0136855D01*
X0020281Y0137641D02*
X0094223Y0137641D01*
X0094916Y0138427D02*
X0020281Y0138427D01*
X0020281Y0139213D02*
X0095006Y0139213D01*
X0095006Y0139999D02*
X0020281Y0139999D01*
X0020281Y0140785D02*
X0095006Y0140785D01*
X0095006Y0141571D02*
X0020281Y0141571D01*
X0020281Y0142357D02*
X0095006Y0142357D01*
X0095006Y0143143D02*
X0020281Y0143143D01*
X0020281Y0143928D02*
X0095006Y0143928D01*
X0095006Y0144714D02*
X0020281Y0144714D01*
X0020281Y0145500D02*
X0095006Y0145500D01*
X0094539Y0146286D02*
X0020281Y0146286D01*
X0020281Y0147072D02*
X0092204Y0147072D01*
X0091635Y0147858D02*
X0020281Y0147858D01*
X0020281Y0148644D02*
X0091411Y0148644D01*
X0091429Y0149430D02*
X0020281Y0149430D01*
X0020281Y0150216D02*
X0091754Y0150216D01*
X0092495Y0151002D02*
X0020281Y0151002D01*
X0017506Y0151002D02*
X0013287Y0151002D01*
X0013287Y0151788D02*
X0017506Y0151788D01*
X0017506Y0152573D02*
X0013287Y0152573D01*
X0013287Y0153359D02*
X0017506Y0153359D01*
X0017506Y0154145D02*
X0013287Y0154145D01*
X0013287Y0154931D02*
X0017506Y0154931D01*
X0017506Y0155717D02*
X0013287Y0155717D01*
X0013287Y0156503D02*
X0017506Y0156503D01*
X0017506Y0157289D02*
X0013287Y0157289D01*
X0013287Y0158075D02*
X0017506Y0158075D01*
X0017506Y0158861D02*
X0013287Y0158861D01*
X0013287Y0159647D02*
X0017506Y0159647D01*
X0017506Y0160433D02*
X0013287Y0160433D01*
X0013287Y0161219D02*
X0017506Y0161219D01*
X0017506Y0162004D02*
X0013287Y0162004D01*
X0013287Y0162790D02*
X0017506Y0162790D01*
X0017506Y0163576D02*
X0013287Y0163576D01*
X0013287Y0164362D02*
X0017506Y0164362D01*
X0017506Y0165148D02*
X0013287Y0165148D01*
X0013287Y0165934D02*
X0017506Y0165934D01*
X0017506Y0166720D02*
X0013287Y0166720D01*
X0013287Y0167506D02*
X0017506Y0167506D01*
X0017506Y0168292D02*
X0013287Y0168292D01*
X0013287Y0169078D02*
X0017506Y0169078D01*
X0017506Y0169864D02*
X0013287Y0169864D01*
X0013287Y0170649D02*
X0017506Y0170649D01*
X0017506Y0171435D02*
X0013287Y0171435D01*
X0013287Y0172221D02*
X0017506Y0172221D01*
X0017506Y0173007D02*
X0013287Y0173007D01*
X0013287Y0173793D02*
X0017506Y0173793D01*
X0017506Y0174579D02*
X0013287Y0174579D01*
X0013287Y0175365D02*
X0017506Y0175365D01*
X0017506Y0176151D02*
X0013287Y0176151D01*
X0013287Y0176937D02*
X0017506Y0176937D01*
X0017506Y0177723D02*
X0013287Y0177723D01*
X0013287Y0178509D02*
X0017506Y0178509D01*
X0017506Y0179295D02*
X0013287Y0179295D01*
X0013287Y0180080D02*
X0017506Y0180080D01*
X0017506Y0180866D02*
X0013287Y0180866D01*
X0013287Y0181652D02*
X0017506Y0181652D01*
X0017506Y0182438D02*
X0013287Y0182438D01*
X0013287Y0183224D02*
X0017506Y0183224D01*
X0017506Y0184010D02*
X0013287Y0184010D01*
X0013287Y0184796D02*
X0017506Y0184796D01*
X0017506Y0185582D02*
X0013287Y0185582D01*
X0013287Y0186368D02*
X0017506Y0186368D01*
X0017506Y0187154D02*
X0013287Y0187154D01*
X0013287Y0187940D02*
X0017506Y0187940D01*
X0017506Y0188725D02*
X0013287Y0188725D01*
X0013287Y0189511D02*
X0017506Y0189511D01*
X0017506Y0190297D02*
X0013287Y0190297D01*
X0013287Y0191083D02*
X0017506Y0191083D01*
X0017506Y0191869D02*
X0013287Y0191869D01*
X0013287Y0192655D02*
X0017506Y0192655D01*
X0017506Y0193441D02*
X0013287Y0193441D01*
X0013287Y0194227D02*
X0017506Y0194227D01*
X0017506Y0195013D02*
X0013287Y0195013D01*
X0013287Y0195799D02*
X0017506Y0195799D01*
X0017506Y0196585D02*
X0013287Y0196585D01*
X0013287Y0197371D02*
X0017506Y0197371D01*
X0017506Y0198156D02*
X0013287Y0198156D01*
X0013287Y0198942D02*
X0017506Y0198942D01*
X0017506Y0199728D02*
X0013287Y0199728D01*
X0013287Y0200514D02*
X0017506Y0200514D01*
X0017506Y0201300D02*
X0013287Y0201300D01*
X0013287Y0202086D02*
X0017506Y0202086D01*
X0016942Y0202872D02*
X0013287Y0202872D01*
X0013287Y0203658D02*
X0016156Y0203658D01*
X0015371Y0204444D02*
X0013287Y0204444D01*
X0013287Y0205230D02*
X0015024Y0205230D01*
X0015024Y0206016D02*
X0013287Y0206016D01*
X0013287Y0206801D02*
X0015024Y0206801D01*
X0015024Y0207587D02*
X0013287Y0207587D01*
X0013287Y0208373D02*
X0015024Y0208373D01*
X0015024Y0209159D02*
X0013287Y0209159D01*
X0013287Y0209945D02*
X0015024Y0209945D01*
X0015024Y0210731D02*
X0013287Y0210731D01*
X0013287Y0211517D02*
X0015024Y0211517D01*
X0015024Y0212303D02*
X0013287Y0212303D01*
X0013287Y0213089D02*
X0015024Y0213089D01*
X0015024Y0213875D02*
X0013287Y0213875D01*
X0013287Y0214661D02*
X0015024Y0214661D01*
X0015024Y0215447D02*
X0013287Y0215447D01*
X0013287Y0216232D02*
X0015024Y0216232D01*
X0015024Y0217018D02*
X0013287Y0217018D01*
X0013287Y0217804D02*
X0015024Y0217804D01*
X0015024Y0218590D02*
X0013287Y0218590D01*
X0013287Y0219376D02*
X0015024Y0219376D01*
X0015024Y0220162D02*
X0013287Y0220162D01*
X0013287Y0220948D02*
X0015024Y0220948D01*
X0015024Y0221734D02*
X0013287Y0221734D01*
X0013287Y0222520D02*
X0015024Y0222520D01*
X0015024Y0223306D02*
X0013287Y0223306D01*
X0013287Y0224092D02*
X0015024Y0224092D01*
X0014399Y0224877D02*
X0013287Y0224877D01*
X0013287Y0225663D02*
X0014009Y0225663D01*
X0013911Y0226449D02*
X0013287Y0226449D01*
X0013287Y0227235D02*
X0014055Y0227235D01*
X0014510Y0228021D02*
X0013287Y0228021D01*
X0013287Y0228807D02*
X0015733Y0228807D01*
X0017055Y0228807D02*
X0210727Y0228807D01*
X0210727Y0229593D02*
X0013287Y0229593D01*
X0013287Y0230379D02*
X0210727Y0230379D01*
X0210727Y0231165D02*
X0013287Y0231165D01*
X0013287Y0231951D02*
X0210727Y0231951D01*
X0210727Y0232737D02*
X0013287Y0232737D01*
X0013287Y0233523D02*
X0210727Y0233523D01*
X0210727Y0234308D02*
X0013287Y0234308D01*
X0013287Y0235094D02*
X0210727Y0235094D01*
X0210727Y0235880D02*
X0013287Y0235880D01*
X0013287Y0236666D02*
X0211021Y0236666D01*
X0211363Y0237452D02*
X0013287Y0237452D01*
X0018277Y0228021D02*
X0210870Y0228021D01*
X0211196Y0227235D02*
X0018732Y0227235D01*
X0018876Y0226449D02*
X0211785Y0226449D01*
X0212729Y0225663D02*
X0019086Y0225663D01*
X0019872Y0224877D02*
X0299626Y0224877D01*
X0299772Y0224525D02*
X0300895Y0223402D01*
X0302363Y0222794D01*
X0309952Y0222794D01*
X0311420Y0223402D01*
X0312543Y0224525D01*
X0313151Y0225993D01*
X0313151Y0227582D01*
X0312543Y0229050D01*
X0311420Y0230173D01*
X0309952Y0230781D01*
X0302363Y0230781D01*
X0300895Y0230173D01*
X0299772Y0229050D01*
X0299164Y0227582D01*
X0299164Y0225993D01*
X0299772Y0224525D01*
X0300205Y0224092D02*
X0020658Y0224092D01*
X0021444Y0223306D02*
X0301127Y0223306D01*
X0302363Y0220781D02*
X0300895Y0220173D01*
X0299772Y0219050D01*
X0299164Y0217582D01*
X0299164Y0215993D01*
X0299772Y0214525D01*
X0300895Y0213402D01*
X0302363Y0212794D01*
X0309952Y0212794D01*
X0311420Y0213402D01*
X0312543Y0214525D01*
X0313151Y0215993D01*
X0313151Y0217582D01*
X0312543Y0219050D01*
X0311420Y0220173D01*
X0309952Y0220781D01*
X0302363Y0220781D01*
X0300884Y0220162D02*
X0024587Y0220162D01*
X0023802Y0220948D02*
X0315701Y0220948D01*
X0315701Y0221734D02*
X0023016Y0221734D01*
X0022230Y0222520D02*
X0315701Y0222520D01*
X0315701Y0223306D02*
X0311188Y0223306D01*
X0312110Y0224092D02*
X0315701Y0224092D01*
X0315701Y0224877D02*
X0312689Y0224877D01*
X0313015Y0225663D02*
X0315701Y0225663D01*
X0315701Y0226449D02*
X0313151Y0226449D01*
X0313151Y0227235D02*
X0315701Y0227235D01*
X0315701Y0228021D02*
X0312969Y0228021D01*
X0312644Y0228807D02*
X0315701Y0228807D01*
X0315701Y0229593D02*
X0312000Y0229593D01*
X0310923Y0230379D02*
X0315701Y0230379D01*
X0315701Y0231165D02*
X0248714Y0231165D01*
X0248714Y0231951D02*
X0315701Y0231951D01*
X0315701Y0232737D02*
X0248714Y0232737D01*
X0248714Y0233523D02*
X0315701Y0233523D01*
X0315701Y0234308D02*
X0248714Y0234308D01*
X0248714Y0235094D02*
X0315701Y0235094D01*
X0315701Y0235880D02*
X0248714Y0235880D01*
X0248420Y0236666D02*
X0315701Y0236666D01*
X0315701Y0237452D02*
X0248078Y0237452D01*
X0241363Y0237452D02*
X0238078Y0237452D01*
X0238420Y0236666D02*
X0241021Y0236666D01*
X0240727Y0235880D02*
X0238714Y0235880D01*
X0238714Y0235094D02*
X0240727Y0235094D01*
X0240727Y0234308D02*
X0238714Y0234308D01*
X0238714Y0233523D02*
X0240727Y0233523D01*
X0240727Y0232737D02*
X0238714Y0232737D01*
X0238714Y0231951D02*
X0240727Y0231951D01*
X0240727Y0231165D02*
X0238714Y0231165D01*
X0238714Y0230379D02*
X0240727Y0230379D01*
X0240727Y0229593D02*
X0238714Y0229593D01*
X0238714Y0228807D02*
X0240727Y0228807D01*
X0240870Y0228021D02*
X0238571Y0228021D01*
X0238245Y0227235D02*
X0241196Y0227235D01*
X0241785Y0226449D02*
X0237656Y0226449D01*
X0236712Y0225663D02*
X0242729Y0225663D01*
X0246712Y0225663D02*
X0299300Y0225663D01*
X0299164Y0226449D02*
X0247656Y0226449D01*
X0248245Y0227235D02*
X0299164Y0227235D01*
X0299346Y0228021D02*
X0248571Y0228021D01*
X0248714Y0228807D02*
X0299671Y0228807D01*
X0300315Y0229593D02*
X0248714Y0229593D01*
X0248714Y0230379D02*
X0301392Y0230379D01*
X0300098Y0219376D02*
X0025373Y0219376D01*
X0026159Y0218590D02*
X0299581Y0218590D01*
X0299256Y0217804D02*
X0026945Y0217804D01*
X0027731Y0217018D02*
X0168221Y0217018D01*
X0168224Y0217021D02*
X0165884Y0214682D01*
X0165884Y0211373D01*
X0168224Y0209034D01*
X0171532Y0209034D01*
X0173872Y0211373D01*
X0173872Y0214682D01*
X0171532Y0217021D01*
X0168224Y0217021D01*
X0167435Y0216232D02*
X0159735Y0216232D01*
X0160852Y0215447D02*
X0166649Y0215447D01*
X0165884Y0214661D02*
X0161263Y0214661D01*
X0161376Y0213875D02*
X0165884Y0213875D01*
X0165884Y0213089D02*
X0161248Y0213089D01*
X0160814Y0212303D02*
X0165884Y0212303D01*
X0165884Y0211517D02*
X0160281Y0211517D01*
X0160281Y0210731D02*
X0166527Y0210731D01*
X0167312Y0209945D02*
X0160281Y0209945D01*
X0160281Y0209159D02*
X0168098Y0209159D01*
X0168849Y0207313D02*
X0168191Y0207099D01*
X0167575Y0206785D01*
X0167016Y0206379D01*
X0166527Y0205890D01*
X0166120Y0205330D01*
X0165806Y0204714D01*
X0165592Y0204056D01*
X0165492Y0203421D01*
X0169484Y0203421D01*
X0169484Y0202634D01*
X0165492Y0202634D01*
X0165592Y0201999D01*
X0165806Y0201341D01*
X0166120Y0200725D01*
X0166527Y0200165D01*
X0167016Y0199676D01*
X0167575Y0199270D01*
X0168191Y0198956D01*
X0168849Y0198742D01*
X0169484Y0198641D01*
X0169484Y0202634D01*
X0170272Y0202634D01*
X0170272Y0203421D01*
X0174264Y0203421D01*
X0174163Y0204056D01*
X0173950Y0204714D01*
X0173636Y0205330D01*
X0173229Y0205890D01*
X0172740Y0206379D01*
X0172181Y0206785D01*
X0171565Y0207099D01*
X0170907Y0207313D01*
X0170272Y0207414D01*
X0170272Y0203421D01*
X0169484Y0203421D01*
X0169484Y0207414D01*
X0168849Y0207313D01*
X0169484Y0206801D02*
X0170272Y0206801D01*
X0170272Y0206016D02*
X0169484Y0206016D01*
X0169484Y0205230D02*
X0170272Y0205230D01*
X0170272Y0204444D02*
X0169484Y0204444D01*
X0169484Y0203658D02*
X0170272Y0203658D01*
X0170272Y0202872D02*
X0175884Y0202872D01*
X0175884Y0203658D02*
X0174227Y0203658D01*
X0174038Y0204444D02*
X0175884Y0204444D01*
X0175884Y0204682D02*
X0175884Y0201373D01*
X0178224Y0199034D01*
X0178826Y0199034D01*
X0173045Y0193253D01*
X0172800Y0193498D01*
X0171888Y0193876D01*
X0170900Y0193876D01*
X0169987Y0193498D01*
X0169289Y0192800D01*
X0168911Y0191888D01*
X0168911Y0190900D01*
X0169289Y0189987D01*
X0169987Y0189289D01*
X0170900Y0188911D01*
X0171888Y0188911D01*
X0172800Y0189289D01*
X0173498Y0189987D01*
X0173545Y0190100D01*
X0173551Y0190100D01*
X0180940Y0197489D01*
X0186169Y0197489D01*
X0186927Y0198247D01*
X0187969Y0199289D01*
X0188224Y0199034D01*
X0191532Y0199034D01*
X0193872Y0201373D01*
X0193872Y0204682D01*
X0191532Y0207021D01*
X0188224Y0207021D01*
X0185884Y0204682D01*
X0185884Y0201373D01*
X0186139Y0201118D01*
X0185097Y0200076D01*
X0182575Y0200076D01*
X0183872Y0201373D01*
X0183872Y0204682D01*
X0181532Y0207021D01*
X0178224Y0207021D01*
X0175884Y0204682D01*
X0176432Y0205230D02*
X0173687Y0205230D01*
X0173104Y0206016D02*
X0177218Y0206016D01*
X0178004Y0206801D02*
X0172149Y0206801D01*
X0171658Y0209159D02*
X0178098Y0209159D01*
X0178224Y0209034D02*
X0181532Y0209034D01*
X0183872Y0211373D01*
X0183872Y0214682D01*
X0181532Y0217021D01*
X0178224Y0217021D01*
X0175884Y0214682D01*
X0175884Y0211373D01*
X0178224Y0209034D01*
X0177312Y0209945D02*
X0172443Y0209945D01*
X0173229Y0210731D02*
X0176527Y0210731D01*
X0175884Y0211517D02*
X0173872Y0211517D01*
X0173872Y0212303D02*
X0175884Y0212303D01*
X0175884Y0213089D02*
X0173872Y0213089D01*
X0173872Y0213875D02*
X0175884Y0213875D01*
X0175884Y0214661D02*
X0173872Y0214661D01*
X0173107Y0215447D02*
X0176649Y0215447D01*
X0177435Y0216232D02*
X0172321Y0216232D01*
X0171535Y0217018D02*
X0178221Y0217018D01*
X0181535Y0217018D02*
X0188221Y0217018D01*
X0188224Y0217021D02*
X0185884Y0214682D01*
X0185884Y0211373D01*
X0188224Y0209034D01*
X0191532Y0209034D01*
X0193872Y0211373D01*
X0193872Y0214682D01*
X0191532Y0217021D01*
X0188224Y0217021D01*
X0187435Y0216232D02*
X0182321Y0216232D01*
X0183107Y0215447D02*
X0186649Y0215447D01*
X0185884Y0214661D02*
X0183872Y0214661D01*
X0183872Y0213875D02*
X0185884Y0213875D01*
X0185884Y0213089D02*
X0183872Y0213089D01*
X0183872Y0212303D02*
X0185884Y0212303D01*
X0185884Y0211517D02*
X0183872Y0211517D01*
X0183229Y0210731D02*
X0186527Y0210731D01*
X0187312Y0209945D02*
X0182443Y0209945D01*
X0181658Y0209159D02*
X0188098Y0209159D01*
X0188004Y0206801D02*
X0181752Y0206801D01*
X0182538Y0206016D02*
X0187218Y0206016D01*
X0186432Y0205230D02*
X0183324Y0205230D01*
X0183872Y0204444D02*
X0185884Y0204444D01*
X0185884Y0203658D02*
X0183872Y0203658D01*
X0183872Y0202872D02*
X0185884Y0202872D01*
X0185884Y0202086D02*
X0183872Y0202086D01*
X0183798Y0201300D02*
X0185957Y0201300D01*
X0185535Y0200514D02*
X0183012Y0200514D01*
X0180822Y0197371D02*
X0299164Y0197371D01*
X0299164Y0197582D02*
X0299164Y0195993D01*
X0299772Y0194525D01*
X0300895Y0193402D01*
X0302363Y0192794D01*
X0309952Y0192794D01*
X0311420Y0193402D01*
X0312543Y0194525D01*
X0313151Y0195993D01*
X0313151Y0197582D01*
X0312543Y0199050D01*
X0311420Y0200173D01*
X0309952Y0200781D01*
X0302363Y0200781D01*
X0300895Y0200173D01*
X0299772Y0199050D01*
X0299164Y0197582D01*
X0299402Y0198156D02*
X0186836Y0198156D01*
X0187622Y0198942D02*
X0299727Y0198942D01*
X0300450Y0199728D02*
X0192227Y0199728D01*
X0193013Y0200514D02*
X0301719Y0200514D01*
X0302363Y0202794D02*
X0309952Y0202794D01*
X0311420Y0203402D01*
X0312543Y0204525D01*
X0313151Y0205993D01*
X0313151Y0207582D01*
X0312543Y0209050D01*
X0311420Y0210173D01*
X0309952Y0210781D01*
X0302363Y0210781D01*
X0300895Y0210173D01*
X0299772Y0209050D01*
X0299164Y0207582D01*
X0299164Y0205993D01*
X0299772Y0204525D01*
X0300895Y0203402D01*
X0302363Y0202794D01*
X0302174Y0202872D02*
X0193872Y0202872D01*
X0193872Y0203658D02*
X0300639Y0203658D01*
X0299853Y0204444D02*
X0193872Y0204444D01*
X0193324Y0205230D02*
X0299480Y0205230D01*
X0299164Y0206016D02*
X0192538Y0206016D01*
X0191752Y0206801D02*
X0299164Y0206801D01*
X0299166Y0207587D02*
X0160281Y0207587D01*
X0160281Y0206801D02*
X0167607Y0206801D01*
X0166652Y0206016D02*
X0160281Y0206016D01*
X0160281Y0205230D02*
X0166069Y0205230D01*
X0165718Y0204444D02*
X0160281Y0204444D01*
X0160281Y0203658D02*
X0165529Y0203658D01*
X0165579Y0202086D02*
X0160281Y0202086D01*
X0160281Y0201300D02*
X0165827Y0201300D01*
X0166273Y0200514D02*
X0160281Y0200514D01*
X0160281Y0199728D02*
X0166964Y0199728D01*
X0168233Y0198942D02*
X0160281Y0198942D01*
X0160281Y0198156D02*
X0177948Y0198156D01*
X0177162Y0197371D02*
X0160281Y0197371D01*
X0160281Y0196585D02*
X0176377Y0196585D01*
X0175591Y0195799D02*
X0160281Y0195799D01*
X0160281Y0195013D02*
X0174805Y0195013D01*
X0174019Y0194227D02*
X0160281Y0194227D01*
X0160281Y0193441D02*
X0169930Y0193441D01*
X0169229Y0192655D02*
X0160281Y0192655D01*
X0160281Y0191869D02*
X0168911Y0191869D01*
X0168911Y0191083D02*
X0160281Y0191083D01*
X0160281Y0190297D02*
X0169161Y0190297D01*
X0169765Y0189511D02*
X0160281Y0189511D01*
X0160281Y0188725D02*
X0299638Y0188725D01*
X0299312Y0187940D02*
X0160281Y0187940D01*
X0160281Y0187154D02*
X0299164Y0187154D01*
X0300234Y0189511D02*
X0173022Y0189511D01*
X0173748Y0190297D02*
X0301195Y0190297D01*
X0300856Y0193441D02*
X0176892Y0193441D01*
X0177678Y0194227D02*
X0300070Y0194227D01*
X0299570Y0195013D02*
X0178464Y0195013D01*
X0179250Y0195799D02*
X0299244Y0195799D01*
X0299164Y0196585D02*
X0180036Y0196585D01*
X0178734Y0198942D02*
X0171523Y0198942D01*
X0171565Y0198956D02*
X0172181Y0199270D01*
X0172740Y0199676D01*
X0173229Y0200165D01*
X0173636Y0200725D01*
X0173950Y0201341D01*
X0174163Y0201999D01*
X0174264Y0202634D01*
X0170272Y0202634D01*
X0170272Y0198641D01*
X0170907Y0198742D01*
X0171565Y0198956D01*
X0170272Y0198942D02*
X0169484Y0198942D01*
X0169484Y0199728D02*
X0170272Y0199728D01*
X0170272Y0200514D02*
X0169484Y0200514D01*
X0169484Y0201300D02*
X0170272Y0201300D01*
X0170272Y0202086D02*
X0169484Y0202086D01*
X0169484Y0202872D02*
X0160281Y0202872D01*
X0157506Y0202872D02*
X0044378Y0202872D01*
X0045163Y0202086D02*
X0157506Y0202086D01*
X0157506Y0201300D02*
X0047072Y0201300D01*
X0048284Y0200514D02*
X0157506Y0200514D01*
X0157506Y0199728D02*
X0048735Y0199728D01*
X0048876Y0198942D02*
X0157506Y0198942D01*
X0157506Y0198156D02*
X0048776Y0198156D01*
X0048382Y0197371D02*
X0157506Y0197371D01*
X0157506Y0196585D02*
X0047307Y0196585D01*
X0045481Y0196585D02*
X0020281Y0196585D01*
X0020281Y0197371D02*
X0044406Y0197371D01*
X0044012Y0198156D02*
X0020281Y0198156D01*
X0020281Y0198942D02*
X0043911Y0198942D01*
X0043597Y0199728D02*
X0020281Y0199728D01*
X0020281Y0200514D02*
X0042811Y0200514D01*
X0042025Y0201300D02*
X0020281Y0201300D01*
X0020281Y0202086D02*
X0041239Y0202086D01*
X0040453Y0202872D02*
X0020281Y0202872D01*
X0020081Y0203658D02*
X0039667Y0203658D01*
X0038882Y0204444D02*
X0020455Y0204444D01*
X0018894Y0206394D02*
X0038894Y0206394D01*
X0046394Y0198894D01*
X0043592Y0203658D02*
X0157506Y0203658D01*
X0157506Y0204444D02*
X0042806Y0204444D01*
X0042020Y0205230D02*
X0157506Y0205230D01*
X0157506Y0206016D02*
X0041234Y0206016D01*
X0040448Y0206801D02*
X0157506Y0206801D01*
X0157506Y0207587D02*
X0039662Y0207587D01*
X0029303Y0215447D02*
X0156936Y0215447D01*
X0158052Y0216232D02*
X0028517Y0216232D01*
X0026165Y0214661D02*
X0017798Y0214661D01*
X0017798Y0215447D02*
X0025379Y0215447D01*
X0024593Y0216232D02*
X0017798Y0216232D01*
X0017798Y0217018D02*
X0023807Y0217018D01*
X0023021Y0217804D02*
X0017798Y0217804D01*
X0017798Y0218590D02*
X0022235Y0218590D01*
X0021449Y0219376D02*
X0017798Y0219376D01*
X0017798Y0220162D02*
X0020663Y0220162D01*
X0019877Y0220948D02*
X0017798Y0220948D01*
X0017798Y0221734D02*
X0019091Y0221734D01*
X0018306Y0222520D02*
X0017798Y0222520D01*
X0017798Y0213875D02*
X0026951Y0213875D01*
X0027737Y0213089D02*
X0017798Y0213089D01*
X0017798Y0212303D02*
X0156973Y0212303D01*
X0157506Y0211517D02*
X0017798Y0211517D01*
X0017798Y0210731D02*
X0157506Y0210731D01*
X0157506Y0209945D02*
X0017798Y0209945D01*
X0017798Y0209159D02*
X0157506Y0209159D01*
X0157506Y0208373D02*
X0020425Y0208373D01*
X0020281Y0195799D02*
X0157506Y0195799D01*
X0157506Y0195013D02*
X0020281Y0195013D01*
X0020281Y0194227D02*
X0157506Y0194227D01*
X0157506Y0193441D02*
X0020281Y0193441D01*
X0020281Y0192655D02*
X0157506Y0192655D01*
X0157506Y0191869D02*
X0020281Y0191869D01*
X0020281Y0191083D02*
X0157506Y0191083D01*
X0157506Y0190297D02*
X0020281Y0190297D01*
X0020281Y0189511D02*
X0157506Y0189511D01*
X0157506Y0188725D02*
X0059752Y0188725D01*
X0059388Y0188876D02*
X0058400Y0188876D01*
X0057487Y0188498D01*
X0056789Y0187800D01*
X0056781Y0187781D01*
X0055819Y0187781D01*
X0055006Y0186968D01*
X0039406Y0171369D01*
X0039388Y0171376D01*
X0038400Y0171376D01*
X0037487Y0170998D01*
X0036789Y0170300D01*
X0036411Y0169388D01*
X0036411Y0168400D01*
X0036789Y0167487D01*
X0037487Y0166789D01*
X0038400Y0166411D01*
X0039388Y0166411D01*
X0040300Y0166789D01*
X0040998Y0167487D01*
X0041376Y0168400D01*
X0041376Y0169388D01*
X0041369Y0169406D01*
X0056869Y0184907D01*
X0057487Y0184289D01*
X0058400Y0183911D01*
X0059388Y0183911D01*
X0060300Y0184289D01*
X0060998Y0184987D01*
X0061376Y0185900D01*
X0061376Y0186888D01*
X0060998Y0187800D01*
X0060300Y0188498D01*
X0059388Y0188876D01*
X0058036Y0188725D02*
X0020281Y0188725D01*
X0020281Y0187940D02*
X0056929Y0187940D01*
X0056394Y0186394D02*
X0038894Y0168894D01*
X0037138Y0170649D02*
X0020281Y0170649D01*
X0020281Y0169864D02*
X0036608Y0169864D01*
X0036411Y0169078D02*
X0020281Y0169078D01*
X0020281Y0168292D02*
X0036456Y0168292D01*
X0036781Y0167506D02*
X0020281Y0167506D01*
X0020281Y0166720D02*
X0037654Y0166720D01*
X0040133Y0166720D02*
X0174105Y0166720D01*
X0173319Y0167506D02*
X0041006Y0167506D01*
X0041332Y0168292D02*
X0172534Y0168292D01*
X0171748Y0169078D02*
X0041376Y0169078D01*
X0041826Y0169864D02*
X0170962Y0169864D01*
X0170176Y0170649D02*
X0042612Y0170649D01*
X0043397Y0171435D02*
X0169390Y0171435D01*
X0168604Y0172221D02*
X0044183Y0172221D01*
X0044969Y0173007D02*
X0167818Y0173007D01*
X0167032Y0173793D02*
X0045755Y0173793D01*
X0046541Y0174579D02*
X0166246Y0174579D01*
X0165460Y0175365D02*
X0047327Y0175365D01*
X0048113Y0176151D02*
X0164674Y0176151D01*
X0163889Y0176937D02*
X0048899Y0176937D01*
X0049685Y0177723D02*
X0163103Y0177723D01*
X0162317Y0178509D02*
X0050471Y0178509D01*
X0051257Y0179295D02*
X0161531Y0179295D01*
X0160745Y0180080D02*
X0052043Y0180080D01*
X0052828Y0180866D02*
X0159959Y0180866D01*
X0159173Y0181652D02*
X0053614Y0181652D01*
X0054400Y0182438D02*
X0158387Y0182438D01*
X0157601Y0183224D02*
X0055186Y0183224D01*
X0055972Y0184010D02*
X0058161Y0184010D01*
X0056980Y0184796D02*
X0056758Y0184796D01*
X0056394Y0186394D02*
X0058894Y0186394D01*
X0061376Y0186368D02*
X0157506Y0186368D01*
X0157506Y0187154D02*
X0061266Y0187154D01*
X0060859Y0187940D02*
X0157506Y0187940D01*
X0157506Y0185582D02*
X0061245Y0185582D01*
X0060807Y0184796D02*
X0157506Y0184796D01*
X0157506Y0184010D02*
X0059627Y0184010D01*
X0055192Y0187154D02*
X0020281Y0187154D01*
X0020281Y0186368D02*
X0054406Y0186368D01*
X0055006Y0186968D02*
X0055006Y0186968D01*
X0053620Y0185582D02*
X0020281Y0185582D01*
X0020281Y0184796D02*
X0052834Y0184796D01*
X0052048Y0184010D02*
X0020281Y0184010D01*
X0020281Y0183224D02*
X0051262Y0183224D01*
X0050476Y0182438D02*
X0020281Y0182438D01*
X0020281Y0181652D02*
X0049690Y0181652D01*
X0048904Y0180866D02*
X0020281Y0180866D01*
X0020281Y0180080D02*
X0048118Y0180080D01*
X0047332Y0179295D02*
X0020281Y0179295D01*
X0020281Y0178509D02*
X0046547Y0178509D01*
X0045761Y0177723D02*
X0020281Y0177723D01*
X0020281Y0176937D02*
X0044975Y0176937D01*
X0044189Y0176151D02*
X0020281Y0176151D01*
X0020281Y0175365D02*
X0043403Y0175365D01*
X0042617Y0174579D02*
X0020281Y0174579D01*
X0020281Y0173793D02*
X0041831Y0173793D01*
X0041045Y0173007D02*
X0020281Y0173007D01*
X0020281Y0172221D02*
X0040259Y0172221D01*
X0039473Y0171435D02*
X0020281Y0171435D01*
X0020281Y0165934D02*
X0174891Y0165934D01*
X0175677Y0165148D02*
X0020281Y0165148D01*
X0020281Y0164362D02*
X0176463Y0164362D01*
X0177249Y0163576D02*
X0020281Y0163576D01*
X0020281Y0162790D02*
X0178035Y0162790D01*
X0178821Y0162004D02*
X0020281Y0162004D01*
X0020281Y0161219D02*
X0179607Y0161219D01*
X0180393Y0160433D02*
X0020281Y0160433D01*
X0020281Y0159647D02*
X0181179Y0159647D01*
X0181965Y0158861D02*
X0020281Y0158861D01*
X0020281Y0158075D02*
X0182750Y0158075D01*
X0183536Y0157289D02*
X0020281Y0157289D01*
X0020281Y0156503D02*
X0184322Y0156503D01*
X0185108Y0155717D02*
X0020281Y0155717D01*
X0020281Y0154931D02*
X0185894Y0154931D01*
X0193748Y0151002D02*
X0239995Y0151002D01*
X0241394Y0148894D02*
X0217405Y0148894D01*
X0217545Y0147072D02*
X0239704Y0147072D01*
X0243083Y0147072D02*
X0299546Y0147072D01*
X0299811Y0147711D02*
X0299203Y0146243D01*
X0299203Y0144654D01*
X0299811Y0143187D01*
X0300935Y0142063D01*
X0302402Y0141455D01*
X0309991Y0141455D01*
X0311459Y0142063D01*
X0312583Y0143187D01*
X0313191Y0144654D01*
X0313191Y0146243D01*
X0312583Y0147711D01*
X0311459Y0148835D01*
X0309991Y0149443D01*
X0302402Y0149443D01*
X0300935Y0148835D01*
X0299811Y0147711D01*
X0299958Y0147858D02*
X0243652Y0147858D01*
X0243876Y0148644D02*
X0300744Y0148644D01*
X0302372Y0149430D02*
X0243859Y0149430D01*
X0243533Y0150216D02*
X0315701Y0150216D01*
X0315701Y0151002D02*
X0242792Y0151002D01*
X0228741Y0144714D02*
X0299203Y0144714D01*
X0299203Y0145500D02*
X0228298Y0145500D01*
X0227105Y0146286D02*
X0299221Y0146286D01*
X0299504Y0143928D02*
X0228876Y0143928D01*
X0228770Y0143143D02*
X0299855Y0143143D01*
X0300641Y0142357D02*
X0228368Y0142357D01*
X0227273Y0141571D02*
X0302123Y0141571D01*
X0301848Y0139213D02*
X0223543Y0139213D01*
X0224328Y0139999D02*
X0315701Y0139999D01*
X0315701Y0140785D02*
X0225114Y0140785D01*
X0225371Y0138427D02*
X0259916Y0138427D01*
X0259223Y0137641D02*
X0226064Y0137641D01*
X0226376Y0136855D02*
X0258911Y0136855D01*
X0258911Y0136069D02*
X0226376Y0136069D01*
X0226121Y0135283D02*
X0258321Y0135283D01*
X0257535Y0134498D02*
X0225509Y0134498D01*
X0222279Y0134498D02*
X0218009Y0134498D01*
X0214779Y0134498D02*
X0212949Y0134498D01*
X0213734Y0135283D02*
X0214166Y0135283D01*
X0212433Y0137641D02*
X0208114Y0137641D01*
X0207328Y0136855D02*
X0211647Y0136855D01*
X0210861Y0136069D02*
X0206542Y0136069D01*
X0205757Y0135283D02*
X0210075Y0135283D01*
X0208900Y0138427D02*
X0213219Y0138427D01*
X0214005Y0139213D02*
X0209686Y0139213D01*
X0210472Y0139999D02*
X0214791Y0139999D01*
X0212830Y0142357D02*
X0223027Y0142357D01*
X0223813Y0143143D02*
X0213616Y0143143D01*
X0214402Y0143928D02*
X0223911Y0143928D01*
X0224046Y0144714D02*
X0215187Y0144714D01*
X0215973Y0145500D02*
X0224489Y0145500D01*
X0225682Y0146286D02*
X0216759Y0146286D01*
X0213621Y0147072D02*
X0197677Y0147072D01*
X0198463Y0146286D02*
X0212835Y0146286D01*
X0212049Y0145500D02*
X0199249Y0145500D01*
X0200035Y0144714D02*
X0211263Y0144714D01*
X0210477Y0143928D02*
X0200821Y0143928D01*
X0201607Y0143143D02*
X0209692Y0143143D01*
X0208906Y0142357D02*
X0202393Y0142357D01*
X0203179Y0141571D02*
X0208120Y0141571D01*
X0207334Y0140785D02*
X0205514Y0140785D01*
X0206123Y0139999D02*
X0206548Y0139999D01*
X0211258Y0140785D02*
X0221455Y0140785D01*
X0222241Y0141571D02*
X0212044Y0141571D01*
X0217199Y0128210D02*
X0178798Y0128210D01*
X0178435Y0127424D02*
X0216633Y0127424D01*
X0216411Y0126638D02*
X0177436Y0126638D01*
X0175351Y0126638D02*
X0159237Y0126638D01*
X0160023Y0127424D02*
X0174352Y0127424D01*
X0163042Y0135283D02*
X0155920Y0135283D01*
X0156705Y0136069D02*
X0162256Y0136069D01*
X0161470Y0136855D02*
X0157095Y0136855D01*
X0157421Y0137641D02*
X0160684Y0137641D01*
X0159898Y0138427D02*
X0157423Y0138427D01*
X0157423Y0139213D02*
X0159112Y0139213D01*
X0158326Y0139999D02*
X0157107Y0139999D01*
X0156733Y0140785D02*
X0157541Y0140785D01*
X0156755Y0141571D02*
X0155947Y0141571D01*
X0155969Y0142357D02*
X0154412Y0142357D01*
X0155183Y0143143D02*
X0139972Y0143143D01*
X0140758Y0143928D02*
X0153358Y0143928D01*
X0152062Y0144714D02*
X0141544Y0144714D01*
X0142330Y0145500D02*
X0151577Y0145500D01*
X0151411Y0146286D02*
X0143116Y0146286D01*
X0143902Y0147072D02*
X0151487Y0147072D01*
X0151847Y0147858D02*
X0144688Y0147858D01*
X0145473Y0148644D02*
X0152839Y0148644D01*
X0153894Y0146394D02*
X0163894Y0136394D01*
X0186394Y0136394D01*
X0184916Y0138427D02*
X0163822Y0138427D01*
X0165117Y0139213D02*
X0185171Y0139213D01*
X0184284Y0139999D02*
X0166003Y0139999D01*
X0165656Y0143143D02*
X0184632Y0143143D01*
X0158451Y0125852D02*
X0216390Y0125852D01*
X0215604Y0125067D02*
X0157665Y0125067D01*
X0156879Y0124281D02*
X0214819Y0124281D01*
X0214033Y0123495D02*
X0156093Y0123495D01*
X0155459Y0121923D02*
X0212461Y0121923D01*
X0211675Y0121137D02*
X0156381Y0121137D01*
X0156961Y0120351D02*
X0210889Y0120351D01*
X0210103Y0119565D02*
X0157286Y0119565D01*
X0157423Y0118779D02*
X0209317Y0118779D01*
X0208531Y0117993D02*
X0157423Y0117993D01*
X0157241Y0117207D02*
X0207745Y0117207D01*
X0206959Y0116422D02*
X0156915Y0116422D01*
X0156272Y0115636D02*
X0206174Y0115636D01*
X0205388Y0114850D02*
X0155195Y0114850D01*
X0155812Y0111706D02*
X0202244Y0111706D01*
X0203030Y0112492D02*
X0134454Y0112492D01*
X0135240Y0113278D02*
X0203816Y0113278D01*
X0204602Y0114064D02*
X0136026Y0114064D01*
X0129744Y0111706D02*
X0098193Y0111706D01*
X0098193Y0110920D02*
X0127409Y0110920D01*
X0126720Y0110134D02*
X0098193Y0110134D01*
X0098193Y0109348D02*
X0126411Y0109348D01*
X0126411Y0108562D02*
X0098193Y0108562D01*
X0098193Y0107776D02*
X0126669Y0107776D01*
X0127286Y0106991D02*
X0098193Y0106991D01*
X0098193Y0106205D02*
X0144033Y0106205D01*
X0144803Y0105419D02*
X0098193Y0105419D01*
X0098193Y0104633D02*
X0146187Y0104633D01*
X0154672Y0104633D02*
X0177144Y0104633D01*
X0176610Y0105419D02*
X0156055Y0105419D01*
X0156826Y0106205D02*
X0176411Y0106205D01*
X0176454Y0106991D02*
X0157151Y0106991D01*
X0157423Y0107776D02*
X0176779Y0107776D01*
X0177642Y0108562D02*
X0157423Y0108562D01*
X0157376Y0109348D02*
X0180019Y0109348D01*
X0179517Y0103847D02*
X0179459Y0103847D01*
X0178329Y0103847D02*
X0098193Y0103847D01*
X0095606Y0103847D02*
X0013287Y0103847D01*
X0013287Y0103061D02*
X0095606Y0103061D01*
X0094786Y0102275D02*
X0013287Y0102275D01*
X0013287Y0101489D02*
X0094461Y0101489D01*
X0094417Y0100703D02*
X0013287Y0100703D01*
X0013287Y0099917D02*
X0094614Y0099917D01*
X0095145Y0099131D02*
X0013287Y0099131D01*
X0013287Y0106205D02*
X0022754Y0106205D01*
X0021817Y0106991D02*
X0013287Y0106991D01*
X0013287Y0107776D02*
X0021230Y0107776D01*
X0020905Y0108562D02*
X0013287Y0108562D01*
X0013287Y0109348D02*
X0020764Y0109348D01*
X0020764Y0110134D02*
X0013287Y0110134D01*
X0013287Y0110920D02*
X0020764Y0110920D01*
X0020764Y0111706D02*
X0020100Y0111706D01*
X0017688Y0111706D02*
X0013287Y0111706D01*
X0013287Y0112492D02*
X0016787Y0112492D01*
X0016462Y0113278D02*
X0013287Y0113278D01*
X0013287Y0114064D02*
X0016411Y0114064D01*
X0016602Y0114850D02*
X0013287Y0114850D01*
X0013287Y0115636D02*
X0017125Y0115636D01*
X0017506Y0116422D02*
X0013287Y0116422D01*
X0013287Y0117207D02*
X0017506Y0117207D01*
X0017506Y0117993D02*
X0013287Y0117993D01*
X0013287Y0118779D02*
X0017506Y0118779D01*
X0017506Y0119565D02*
X0013287Y0119565D01*
X0013287Y0120351D02*
X0017506Y0120351D01*
X0017506Y0121137D02*
X0013287Y0121137D01*
X0013287Y0121923D02*
X0017506Y0121923D01*
X0017506Y0122709D02*
X0013287Y0122709D01*
X0013287Y0123495D02*
X0017506Y0123495D01*
X0017506Y0124281D02*
X0013287Y0124281D01*
X0013287Y0125067D02*
X0017506Y0125067D01*
X0017506Y0125852D02*
X0013287Y0125852D01*
X0013287Y0126638D02*
X0017506Y0126638D01*
X0017506Y0127424D02*
X0013287Y0127424D01*
X0013287Y0128210D02*
X0017506Y0128210D01*
X0017506Y0128996D02*
X0013287Y0128996D01*
X0013287Y0129782D02*
X0017506Y0129782D01*
X0017506Y0130568D02*
X0013287Y0130568D01*
X0013287Y0131354D02*
X0017506Y0131354D01*
X0017506Y0132140D02*
X0013287Y0132140D01*
X0013287Y0132926D02*
X0017506Y0132926D01*
X0017506Y0133712D02*
X0013287Y0133712D01*
X0013287Y0134498D02*
X0017506Y0134498D01*
X0017506Y0135283D02*
X0013287Y0135283D01*
X0013287Y0136069D02*
X0017506Y0136069D01*
X0017506Y0136855D02*
X0013287Y0136855D01*
X0013287Y0137641D02*
X0017506Y0137641D01*
X0017506Y0138427D02*
X0013287Y0138427D01*
X0013287Y0139213D02*
X0017506Y0139213D01*
X0017506Y0139999D02*
X0013287Y0139999D01*
X0013287Y0140785D02*
X0017506Y0140785D01*
X0017506Y0141571D02*
X0013287Y0141571D01*
X0013287Y0142357D02*
X0017506Y0142357D01*
X0017506Y0143143D02*
X0013287Y0143143D01*
X0013287Y0143928D02*
X0017506Y0143928D01*
X0017506Y0144714D02*
X0013287Y0144714D01*
X0013287Y0145500D02*
X0017506Y0145500D01*
X0017506Y0146286D02*
X0013287Y0146286D01*
X0013287Y0147072D02*
X0017506Y0147072D01*
X0017506Y0147858D02*
X0013287Y0147858D01*
X0013287Y0148644D02*
X0017506Y0148644D01*
X0017506Y0149430D02*
X0013287Y0149430D01*
X0013287Y0150216D02*
X0017506Y0150216D01*
X0025873Y0132926D02*
X0116607Y0132926D01*
X0132899Y0136069D02*
X0144153Y0136069D01*
X0143763Y0136855D02*
X0133685Y0136855D01*
X0134471Y0137641D02*
X0143438Y0137641D01*
X0143435Y0138427D02*
X0135257Y0138427D01*
X0136043Y0139213D02*
X0143435Y0139213D01*
X0143752Y0139999D02*
X0136828Y0139999D01*
X0137614Y0140785D02*
X0144125Y0140785D01*
X0144911Y0141571D02*
X0138400Y0141571D01*
X0139186Y0142357D02*
X0146446Y0142357D01*
X0144939Y0135283D02*
X0133505Y0135283D01*
X0143662Y0129782D02*
X0025793Y0129782D01*
X0025856Y0119565D02*
X0040470Y0119565D01*
X0040255Y0119455D02*
X0039695Y0119049D01*
X0039206Y0118560D01*
X0038800Y0118000D01*
X0038486Y0117384D01*
X0038272Y0116727D01*
X0038164Y0116043D01*
X0038164Y0113091D01*
X0042164Y0113091D01*
X0042164Y0120084D01*
X0041529Y0119983D01*
X0040871Y0119769D01*
X0040255Y0119455D01*
X0039425Y0118779D02*
X0027324Y0118779D01*
X0028110Y0117993D02*
X0038796Y0117993D01*
X0038428Y0117207D02*
X0028455Y0117207D01*
X0028751Y0116422D02*
X0038224Y0116422D01*
X0038164Y0115636D02*
X0028751Y0115636D01*
X0028751Y0114850D02*
X0038164Y0114850D01*
X0038164Y0114064D02*
X0028751Y0114064D01*
X0028751Y0113278D02*
X0038164Y0113278D01*
X0038164Y0111706D02*
X0028751Y0111706D01*
X0028751Y0110920D02*
X0038164Y0110920D01*
X0038164Y0110134D02*
X0028751Y0110134D01*
X0028751Y0109348D02*
X0038164Y0109348D01*
X0038307Y0108562D02*
X0028610Y0108562D01*
X0028284Y0107776D02*
X0038605Y0107776D01*
X0039093Y0106991D02*
X0027698Y0106991D01*
X0026761Y0106205D02*
X0039890Y0106205D01*
X0042164Y0112492D02*
X0028751Y0112492D01*
X0042164Y0113278D02*
X0042951Y0113278D01*
X0042951Y0114064D02*
X0042164Y0114064D01*
X0042164Y0114850D02*
X0042951Y0114850D01*
X0042951Y0115636D02*
X0042164Y0115636D01*
X0042164Y0116422D02*
X0042951Y0116422D01*
X0042951Y0117207D02*
X0042164Y0117207D01*
X0042164Y0117993D02*
X0042951Y0117993D01*
X0042951Y0118779D02*
X0042164Y0118779D01*
X0042164Y0119565D02*
X0042951Y0119565D01*
X0042951Y0093630D02*
X0042164Y0093630D01*
X0042164Y0092844D02*
X0042951Y0092844D01*
X0042951Y0092058D02*
X0042164Y0092058D01*
X0042164Y0091272D02*
X0042951Y0091272D01*
X0042951Y0090486D02*
X0042164Y0090486D01*
X0042164Y0089700D02*
X0042951Y0089700D01*
X0042951Y0088915D02*
X0042164Y0088915D01*
X0042164Y0088129D02*
X0042951Y0088129D01*
X0042951Y0087343D02*
X0143561Y0087343D01*
X0143435Y0088129D02*
X0046951Y0088129D01*
X0046951Y0088915D02*
X0143435Y0088915D01*
X0143628Y0089700D02*
X0046951Y0089700D01*
X0046944Y0090486D02*
X0143954Y0090486D01*
X0144613Y0091272D02*
X0046796Y0091272D01*
X0046490Y0092058D02*
X0145726Y0092058D01*
X0143887Y0086557D02*
X0046951Y0086557D01*
X0046951Y0085771D02*
X0144451Y0085771D01*
X0145336Y0084985D02*
X0046951Y0084985D01*
X0042951Y0084985D02*
X0042164Y0084985D01*
X0042164Y0085771D02*
X0042951Y0085771D01*
X0042951Y0086557D02*
X0042164Y0086557D01*
X0042164Y0086704D02*
X0042164Y0079712D01*
X0041529Y0079812D01*
X0040871Y0080026D01*
X0040255Y0080340D01*
X0039695Y0080746D01*
X0039206Y0081235D01*
X0038800Y0081795D01*
X0038486Y0082411D01*
X0038272Y0083069D01*
X0038164Y0083752D01*
X0038164Y0086704D01*
X0042164Y0086704D01*
X0042164Y0087343D02*
X0028751Y0087343D01*
X0028751Y0088129D02*
X0038164Y0088129D01*
X0038164Y0088915D02*
X0028751Y0088915D01*
X0028751Y0089700D02*
X0038164Y0089700D01*
X0038171Y0090486D02*
X0028751Y0090486D01*
X0028751Y0090892D02*
X0028143Y0092360D01*
X0027020Y0093483D01*
X0025552Y0094091D01*
X0023963Y0094091D01*
X0022495Y0093483D01*
X0021372Y0092360D01*
X0020764Y0090892D01*
X0020764Y0083303D01*
X0021372Y0081835D01*
X0022495Y0080712D01*
X0023963Y0080104D01*
X0025552Y0080104D01*
X0027020Y0080712D01*
X0028143Y0081835D01*
X0028751Y0083303D01*
X0028751Y0090892D01*
X0028594Y0091272D02*
X0038319Y0091272D01*
X0038625Y0092058D02*
X0028268Y0092058D01*
X0027659Y0092844D02*
X0039122Y0092844D01*
X0039944Y0093630D02*
X0026666Y0093630D01*
X0022849Y0093630D02*
X0013287Y0093630D01*
X0013287Y0092844D02*
X0021856Y0092844D01*
X0021247Y0092058D02*
X0013287Y0092058D01*
X0013287Y0091272D02*
X0020921Y0091272D01*
X0020764Y0090486D02*
X0013287Y0090486D01*
X0013287Y0089700D02*
X0020764Y0089700D01*
X0020764Y0088915D02*
X0013287Y0088915D01*
X0013287Y0088129D02*
X0020764Y0088129D01*
X0020764Y0087343D02*
X0013287Y0087343D01*
X0013287Y0086557D02*
X0020764Y0086557D01*
X0020764Y0085771D02*
X0013287Y0085771D01*
X0013287Y0084985D02*
X0020764Y0084985D01*
X0020764Y0084199D02*
X0013287Y0084199D01*
X0013287Y0083413D02*
X0020764Y0083413D01*
X0021044Y0082627D02*
X0013287Y0082627D01*
X0013287Y0081841D02*
X0021369Y0081841D01*
X0022152Y0081055D02*
X0013287Y0081055D01*
X0013287Y0080270D02*
X0023563Y0080270D01*
X0025952Y0080270D02*
X0040393Y0080270D01*
X0039386Y0081055D02*
X0027363Y0081055D01*
X0028146Y0081841D02*
X0038776Y0081841D01*
X0038415Y0082627D02*
X0028471Y0082627D01*
X0028751Y0083413D02*
X0038217Y0083413D01*
X0038164Y0084199D02*
X0028751Y0084199D01*
X0028751Y0084985D02*
X0038164Y0084985D01*
X0038164Y0085771D02*
X0028751Y0085771D01*
X0028751Y0086557D02*
X0038164Y0086557D01*
X0042164Y0084199D02*
X0042951Y0084199D01*
X0042951Y0083413D02*
X0042164Y0083413D01*
X0042164Y0082627D02*
X0042951Y0082627D01*
X0042951Y0081841D02*
X0042164Y0081841D01*
X0042164Y0081055D02*
X0042951Y0081055D01*
X0042951Y0080270D02*
X0042164Y0080270D01*
X0037870Y0067695D02*
X0182506Y0067695D01*
X0182506Y0066909D02*
X0039151Y0066909D01*
X0039937Y0066123D02*
X0182506Y0066123D01*
X0182506Y0065337D02*
X0040359Y0065337D01*
X0040684Y0064551D02*
X0182506Y0064551D01*
X0182506Y0063765D02*
X0040852Y0063765D01*
X0040852Y0062979D02*
X0182506Y0062979D01*
X0182506Y0062194D02*
X0040852Y0062194D01*
X0040530Y0061408D02*
X0182506Y0061408D01*
X0182506Y0060622D02*
X0040205Y0060622D01*
X0039565Y0059836D02*
X0048832Y0059836D01*
X0047528Y0059050D02*
X0038779Y0059050D01*
X0036973Y0058264D02*
X0046739Y0058264D01*
X0050488Y0058264D02*
X0051276Y0058264D01*
X0051276Y0059050D02*
X0050488Y0059050D01*
X0050488Y0059836D02*
X0051276Y0059836D01*
X0052932Y0059836D02*
X0182506Y0059836D01*
X0182506Y0059050D02*
X0054236Y0059050D01*
X0055025Y0058264D02*
X0182506Y0058264D01*
X0182506Y0057478D02*
X0055550Y0057478D01*
X0055904Y0056692D02*
X0182506Y0056692D01*
X0182506Y0055906D02*
X0056119Y0055906D01*
X0056213Y0055120D02*
X0182506Y0055120D01*
X0182506Y0054334D02*
X0056213Y0054334D01*
X0056213Y0053548D02*
X0182506Y0053548D01*
X0182506Y0052763D02*
X0056213Y0052763D01*
X0056213Y0051977D02*
X0182506Y0051977D01*
X0178657Y0042794D02*
X0177079Y0042140D01*
X0175871Y0040932D01*
X0175217Y0039354D01*
X0175217Y0037646D01*
X0175871Y0036068D01*
X0177079Y0034860D01*
X0178657Y0034206D01*
X0186965Y0034206D01*
X0188543Y0034860D01*
X0189751Y0036068D01*
X0190405Y0037646D01*
X0190405Y0039354D01*
X0189751Y0040932D01*
X0188543Y0042140D01*
X0186965Y0042794D01*
X0178657Y0042794D01*
X0178058Y0042546D02*
X0053788Y0042546D01*
X0054729Y0043332D02*
X0243713Y0043332D01*
X0245074Y0044118D02*
X0055360Y0044118D01*
X0051276Y0044118D02*
X0050488Y0044118D01*
X0050488Y0044903D02*
X0051276Y0044903D01*
X0051276Y0045689D02*
X0050488Y0045689D01*
X0050488Y0046475D02*
X0051276Y0046475D01*
X0051276Y0047261D02*
X0050488Y0047261D01*
X0050488Y0048047D02*
X0051276Y0048047D01*
X0051276Y0048833D02*
X0050488Y0048833D01*
X0050488Y0049619D02*
X0051276Y0049619D01*
X0051276Y0050405D02*
X0050488Y0050405D01*
X0050488Y0052763D02*
X0051276Y0052763D01*
X0051276Y0053548D02*
X0050488Y0053548D01*
X0050488Y0054334D02*
X0051276Y0054334D01*
X0051276Y0055120D02*
X0050488Y0055120D01*
X0050488Y0055906D02*
X0051276Y0055906D01*
X0051276Y0056692D02*
X0050488Y0056692D01*
X0050488Y0057478D02*
X0051276Y0057478D01*
X0045551Y0050405D02*
X0013287Y0050405D01*
X0013287Y0049619D02*
X0045551Y0049619D01*
X0045551Y0048833D02*
X0013287Y0048833D01*
X0013287Y0048047D02*
X0045551Y0048047D01*
X0045551Y0047261D02*
X0013287Y0047261D01*
X0013287Y0046475D02*
X0045572Y0046475D01*
X0045710Y0045689D02*
X0013287Y0045689D01*
X0013287Y0044903D02*
X0045979Y0044903D01*
X0046404Y0044118D02*
X0037882Y0044118D01*
X0037968Y0044090D02*
X0037170Y0044349D01*
X0036341Y0044480D01*
X0032378Y0044480D01*
X0032378Y0039543D01*
X0041252Y0039543D01*
X0041252Y0039569D01*
X0041121Y0040398D01*
X0040861Y0041196D01*
X0040480Y0041944D01*
X0039987Y0042622D01*
X0039394Y0043216D01*
X0038715Y0043709D01*
X0037968Y0044090D01*
X0039234Y0043332D02*
X0047035Y0043332D01*
X0047976Y0042546D02*
X0040043Y0042546D01*
X0040574Y0041760D02*
X0050040Y0041760D01*
X0050488Y0041760D02*
X0051276Y0041760D01*
X0051724Y0041760D02*
X0176699Y0041760D01*
X0175913Y0040974D02*
X0040934Y0040974D01*
X0041154Y0040188D02*
X0175563Y0040188D01*
X0175237Y0039402D02*
X0032378Y0039402D01*
X0032378Y0039543D02*
X0032378Y0038756D01*
X0041252Y0038756D01*
X0041252Y0038730D01*
X0041121Y0037901D01*
X0040861Y0037103D01*
X0040480Y0036356D01*
X0039987Y0035677D01*
X0039394Y0035084D01*
X0038715Y0034590D01*
X0037968Y0034209D01*
X0037170Y0033950D01*
X0036341Y0033819D01*
X0032378Y0033819D01*
X0032378Y0038756D01*
X0031591Y0038756D01*
X0031591Y0033819D01*
X0027628Y0033819D01*
X0026799Y0033950D01*
X0026001Y0034209D01*
X0025253Y0034590D01*
X0024575Y0035084D01*
X0023981Y0035677D01*
X0023488Y0036356D01*
X0023107Y0037103D01*
X0022848Y0037901D01*
X0022717Y0038730D01*
X0022717Y0038756D01*
X0031590Y0038756D01*
X0031590Y0039543D01*
X0022717Y0039543D01*
X0022717Y0039569D01*
X0022848Y0040398D01*
X0023107Y0041196D01*
X0023488Y0041944D01*
X0023981Y0042622D01*
X0024575Y0043216D01*
X0025253Y0043709D01*
X0026001Y0044090D01*
X0026799Y0044349D01*
X0027628Y0044480D01*
X0031591Y0044480D01*
X0031591Y0039543D01*
X0032378Y0039543D01*
X0032378Y0040188D02*
X0031591Y0040188D01*
X0031591Y0040974D02*
X0032378Y0040974D01*
X0032378Y0041760D02*
X0031591Y0041760D01*
X0031591Y0042546D02*
X0032378Y0042546D01*
X0032378Y0043332D02*
X0031591Y0043332D01*
X0031591Y0044118D02*
X0032378Y0044118D01*
X0031590Y0039402D02*
X0013287Y0039402D01*
X0013287Y0038616D02*
X0022735Y0038616D01*
X0022871Y0037830D02*
X0013287Y0037830D01*
X0013287Y0037044D02*
X0023137Y0037044D01*
X0023559Y0036258D02*
X0013287Y0036258D01*
X0013287Y0035472D02*
X0024186Y0035472D01*
X0025121Y0034687D02*
X0013287Y0034687D01*
X0013287Y0033901D02*
X0027112Y0033901D01*
X0031591Y0033901D02*
X0032378Y0033901D01*
X0032378Y0034687D02*
X0031591Y0034687D01*
X0031591Y0035472D02*
X0032378Y0035472D01*
X0032378Y0036258D02*
X0031591Y0036258D01*
X0031591Y0037044D02*
X0032378Y0037044D01*
X0032378Y0037830D02*
X0031591Y0037830D01*
X0031591Y0038616D02*
X0032378Y0038616D01*
X0036857Y0033901D02*
X0235768Y0033901D01*
X0235979Y0034687D02*
X0188125Y0034687D01*
X0189156Y0035472D02*
X0236329Y0035472D01*
X0236783Y0036258D02*
X0189830Y0036258D01*
X0190156Y0037044D02*
X0237237Y0037044D01*
X0237691Y0037830D02*
X0190405Y0037830D01*
X0190405Y0038616D02*
X0238144Y0038616D01*
X0238822Y0039402D02*
X0190385Y0039402D01*
X0190059Y0040188D02*
X0239608Y0040188D01*
X0240394Y0040974D02*
X0189709Y0040974D01*
X0188923Y0041760D02*
X0241180Y0041760D01*
X0242351Y0042546D02*
X0187564Y0042546D01*
X0186965Y0032794D02*
X0178657Y0032794D01*
X0177079Y0032140D01*
X0175871Y0030932D01*
X0175217Y0029354D01*
X0175217Y0027646D01*
X0175871Y0026068D01*
X0177079Y0024860D01*
X0178657Y0024206D01*
X0186965Y0024206D01*
X0188543Y0024860D01*
X0189751Y0026068D01*
X0190405Y0027646D01*
X0190405Y0029354D01*
X0189751Y0030932D01*
X0188543Y0032140D01*
X0186965Y0032794D01*
X0188087Y0032329D02*
X0235347Y0032329D01*
X0235558Y0033115D02*
X0013287Y0033115D01*
X0013287Y0032329D02*
X0177535Y0032329D01*
X0176482Y0031543D02*
X0013287Y0031543D01*
X0013287Y0030757D02*
X0175798Y0030757D01*
X0175473Y0029971D02*
X0092347Y0029971D01*
X0092224Y0030034D02*
X0091417Y0030296D01*
X0090578Y0030429D01*
X0090547Y0030429D01*
X0090547Y0025429D01*
X0089760Y0025429D01*
X0089760Y0030429D01*
X0089729Y0030429D01*
X0088891Y0030296D01*
X0088083Y0030034D01*
X0087327Y0029649D01*
X0086640Y0029150D01*
X0086039Y0028549D01*
X0085540Y0027862D01*
X0085155Y0027106D01*
X0084893Y0026298D01*
X0084760Y0025460D01*
X0084760Y0025429D01*
X0089760Y0025429D01*
X0089760Y0024642D01*
X0084760Y0024642D01*
X0084760Y0024611D01*
X0084893Y0023772D01*
X0085155Y0022965D01*
X0085540Y0022209D01*
X0086039Y0021522D01*
X0086640Y0020921D01*
X0087327Y0020422D01*
X0088083Y0020037D01*
X0088891Y0019775D01*
X0089729Y0019642D01*
X0089760Y0019642D01*
X0089760Y0024642D01*
X0090547Y0024642D01*
X0090547Y0025429D01*
X0095547Y0025429D01*
X0095547Y0025460D01*
X0095414Y0026298D01*
X0095152Y0027106D01*
X0094767Y0027862D01*
X0094268Y0028549D01*
X0093667Y0029150D01*
X0092980Y0029649D01*
X0092224Y0030034D01*
X0093618Y0029185D02*
X0115534Y0029185D01*
X0115534Y0029290D02*
X0115534Y0020466D01*
X0116116Y0019884D01*
X0124939Y0019884D01*
X0125521Y0020466D01*
X0125521Y0029290D01*
X0124939Y0029872D01*
X0116116Y0029872D01*
X0115534Y0029290D01*
X0115534Y0028399D02*
X0094377Y0028399D01*
X0094894Y0027613D02*
X0115534Y0027613D01*
X0115534Y0026827D02*
X0095243Y0026827D01*
X0095455Y0026042D02*
X0115534Y0026042D01*
X0115534Y0025256D02*
X0090547Y0025256D01*
X0090547Y0024642D02*
X0095547Y0024642D01*
X0095547Y0024611D01*
X0095414Y0023772D01*
X0095152Y0022965D01*
X0094767Y0022209D01*
X0094268Y0021522D01*
X0093667Y0020921D01*
X0092980Y0020422D01*
X0092224Y0020037D01*
X0091417Y0019775D01*
X0090578Y0019642D01*
X0090547Y0019642D01*
X0090547Y0024642D01*
X0090547Y0024470D02*
X0089760Y0024470D01*
X0089760Y0025256D02*
X0075462Y0025256D01*
X0075462Y0026042D02*
X0084852Y0026042D01*
X0085065Y0026827D02*
X0075462Y0026827D01*
X0075462Y0027613D02*
X0085414Y0027613D01*
X0085931Y0028399D02*
X0075462Y0028399D01*
X0075462Y0029185D02*
X0086689Y0029185D01*
X0087960Y0029971D02*
X0074938Y0029971D01*
X0074880Y0030029D02*
X0066057Y0030029D01*
X0065475Y0029447D01*
X0065475Y0020624D01*
X0066057Y0020042D01*
X0074880Y0020042D01*
X0075462Y0020624D01*
X0075462Y0029447D01*
X0074880Y0030029D01*
X0065999Y0029971D02*
X0013287Y0029971D01*
X0013287Y0029185D02*
X0065475Y0029185D01*
X0065475Y0028399D02*
X0013287Y0028399D01*
X0013287Y0027613D02*
X0065475Y0027613D01*
X0065475Y0026827D02*
X0013287Y0026827D01*
X0013287Y0026042D02*
X0065475Y0026042D01*
X0065475Y0025256D02*
X0013287Y0025256D01*
X0013287Y0024470D02*
X0065475Y0024470D01*
X0065475Y0023684D02*
X0013287Y0023684D01*
X0013287Y0022898D02*
X0065475Y0022898D01*
X0065475Y0022112D02*
X0013287Y0022112D01*
X0013287Y0021326D02*
X0065475Y0021326D01*
X0065558Y0020540D02*
X0013287Y0020540D01*
X0013287Y0019754D02*
X0089019Y0019754D01*
X0089760Y0019754D02*
X0090547Y0019754D01*
X0091288Y0019754D02*
X0174983Y0019754D01*
X0174933Y0019599D02*
X0174821Y0018894D01*
X0182417Y0018894D01*
X0182417Y0023194D01*
X0179142Y0023194D01*
X0178412Y0023078D01*
X0177709Y0022850D01*
X0177051Y0022514D01*
X0176453Y0022080D01*
X0175931Y0021558D01*
X0175497Y0020960D01*
X0175161Y0020302D01*
X0174933Y0019599D01*
X0174833Y0018968D02*
X0013287Y0018968D01*
X0013287Y0018182D02*
X0182417Y0018182D01*
X0182417Y0018106D02*
X0174821Y0018106D01*
X0174933Y0017401D01*
X0175161Y0016698D01*
X0175497Y0016040D01*
X0175931Y0015442D01*
X0176453Y0014920D01*
X0177051Y0014486D01*
X0177709Y0014150D01*
X0178412Y0013922D01*
X0179142Y0013806D01*
X0182417Y0013806D01*
X0182417Y0018106D01*
X0182417Y0018894D01*
X0183205Y0018894D01*
X0183205Y0023194D01*
X0186480Y0023194D01*
X0187210Y0023078D01*
X0187913Y0022850D01*
X0188571Y0022514D01*
X0189169Y0022080D01*
X0189691Y0021558D01*
X0190125Y0020960D01*
X0190461Y0020302D01*
X0190689Y0019599D01*
X0190801Y0018894D01*
X0183205Y0018894D01*
X0183205Y0018106D01*
X0183205Y0013806D01*
X0186480Y0013806D01*
X0187210Y0013922D01*
X0187913Y0014150D01*
X0188571Y0014486D01*
X0189169Y0014920D01*
X0189691Y0015442D01*
X0190125Y0016040D01*
X0190461Y0016698D01*
X0190689Y0017401D01*
X0190801Y0018106D01*
X0183205Y0018106D01*
X0182417Y0018106D01*
X0182417Y0017396D02*
X0183205Y0017396D01*
X0183205Y0016611D02*
X0182417Y0016611D01*
X0182417Y0015825D02*
X0183205Y0015825D01*
X0183205Y0015039D02*
X0182417Y0015039D01*
X0182417Y0014253D02*
X0183205Y0014253D01*
X0177508Y0014253D02*
X0013287Y0014253D01*
X0013287Y0015039D02*
X0176334Y0015039D01*
X0175653Y0015825D02*
X0013287Y0015825D01*
X0013287Y0016611D02*
X0175206Y0016611D01*
X0174934Y0017396D02*
X0013287Y0017396D01*
X0013287Y0013467D02*
X0244062Y0013467D01*
X0242700Y0014253D02*
X0188114Y0014253D01*
X0189288Y0015039D02*
X0241381Y0015039D01*
X0240595Y0015825D02*
X0189969Y0015825D01*
X0190416Y0016611D02*
X0239809Y0016611D01*
X0239023Y0017396D02*
X0190688Y0017396D01*
X0190789Y0018968D02*
X0237807Y0018968D01*
X0238261Y0018182D02*
X0183205Y0018182D01*
X0183205Y0018968D02*
X0182417Y0018968D01*
X0182417Y0019754D02*
X0183205Y0019754D01*
X0183205Y0020540D02*
X0182417Y0020540D01*
X0182417Y0021326D02*
X0183205Y0021326D01*
X0183205Y0022112D02*
X0182417Y0022112D01*
X0182417Y0022898D02*
X0183205Y0022898D01*
X0177857Y0022898D02*
X0144798Y0022898D01*
X0145123Y0023684D02*
X0235612Y0023684D01*
X0235401Y0024470D02*
X0187601Y0024470D01*
X0188939Y0025256D02*
X0235191Y0025256D01*
X0234980Y0026042D02*
X0189725Y0026042D01*
X0190066Y0026827D02*
X0234917Y0026827D01*
X0234917Y0027613D02*
X0190391Y0027613D01*
X0190405Y0028399D02*
X0234917Y0028399D01*
X0234917Y0029185D02*
X0190405Y0029185D01*
X0190149Y0029971D02*
X0234917Y0029971D01*
X0234926Y0030757D02*
X0189824Y0030757D01*
X0189140Y0031543D02*
X0235137Y0031543D01*
X0235822Y0022898D02*
X0187765Y0022898D01*
X0189125Y0022112D02*
X0236033Y0022112D01*
X0236446Y0021326D02*
X0189860Y0021326D01*
X0190339Y0020540D02*
X0236899Y0020540D01*
X0237353Y0019754D02*
X0190639Y0019754D01*
X0178021Y0024470D02*
X0145206Y0024470D01*
X0145206Y0023885D02*
X0144446Y0022049D01*
X0143041Y0020645D01*
X0141206Y0019884D01*
X0139219Y0019884D01*
X0137384Y0020645D01*
X0135979Y0022049D01*
X0135219Y0023885D01*
X0135219Y0025871D01*
X0135979Y0027707D01*
X0137384Y0029111D01*
X0139219Y0029872D01*
X0141206Y0029872D01*
X0143041Y0029111D01*
X0144446Y0027707D01*
X0145206Y0025871D01*
X0145206Y0023885D01*
X0145206Y0025256D02*
X0176683Y0025256D01*
X0175897Y0026042D02*
X0145136Y0026042D01*
X0144810Y0026827D02*
X0175556Y0026827D01*
X0175231Y0027613D02*
X0144485Y0027613D01*
X0143753Y0028399D02*
X0175217Y0028399D01*
X0175217Y0029185D02*
X0142863Y0029185D01*
X0137562Y0029185D02*
X0125521Y0029185D01*
X0125521Y0028399D02*
X0136672Y0028399D01*
X0135941Y0027613D02*
X0125521Y0027613D01*
X0125521Y0026827D02*
X0135615Y0026827D01*
X0135289Y0026042D02*
X0125521Y0026042D01*
X0125521Y0025256D02*
X0135219Y0025256D01*
X0135219Y0024470D02*
X0125521Y0024470D01*
X0125521Y0023684D02*
X0135302Y0023684D01*
X0135628Y0022898D02*
X0125521Y0022898D01*
X0125521Y0022112D02*
X0135953Y0022112D01*
X0136702Y0021326D02*
X0125521Y0021326D01*
X0125521Y0020540D02*
X0137636Y0020540D01*
X0142789Y0020540D02*
X0175283Y0020540D01*
X0175763Y0021326D02*
X0143723Y0021326D01*
X0144472Y0022112D02*
X0176497Y0022112D01*
X0177497Y0034687D02*
X0038848Y0034687D01*
X0039783Y0035472D02*
X0176466Y0035472D01*
X0175792Y0036258D02*
X0040410Y0036258D01*
X0040831Y0037044D02*
X0175467Y0037044D01*
X0175217Y0037830D02*
X0041098Y0037830D01*
X0041234Y0038616D02*
X0175217Y0038616D01*
X0115534Y0024470D02*
X0095525Y0024470D01*
X0095386Y0023684D02*
X0115534Y0023684D01*
X0115534Y0022898D02*
X0095118Y0022898D01*
X0094696Y0022112D02*
X0115534Y0022112D01*
X0115534Y0021326D02*
X0094072Y0021326D01*
X0093143Y0020540D02*
X0115534Y0020540D01*
X0090547Y0020540D02*
X0089760Y0020540D01*
X0089760Y0021326D02*
X0090547Y0021326D01*
X0090547Y0022112D02*
X0089760Y0022112D01*
X0089760Y0022898D02*
X0090547Y0022898D01*
X0090547Y0023684D02*
X0089760Y0023684D01*
X0089760Y0026042D02*
X0090547Y0026042D01*
X0090547Y0026827D02*
X0089760Y0026827D01*
X0089760Y0027613D02*
X0090547Y0027613D01*
X0090547Y0028399D02*
X0089760Y0028399D01*
X0089760Y0029185D02*
X0090547Y0029185D01*
X0090547Y0029971D02*
X0089760Y0029971D01*
X0084782Y0024470D02*
X0075462Y0024470D01*
X0075462Y0023684D02*
X0084921Y0023684D01*
X0085189Y0022898D02*
X0075462Y0022898D01*
X0075462Y0022112D02*
X0085611Y0022112D01*
X0086235Y0021326D02*
X0075462Y0021326D01*
X0075379Y0020540D02*
X0087164Y0020540D01*
X0051276Y0042546D02*
X0050488Y0042546D01*
X0050488Y0043332D02*
X0051276Y0043332D01*
X0026086Y0044118D02*
X0013287Y0044118D01*
X0013287Y0043332D02*
X0024734Y0043332D01*
X0023926Y0042546D02*
X0013287Y0042546D01*
X0013287Y0041760D02*
X0023394Y0041760D01*
X0023035Y0040974D02*
X0013287Y0040974D01*
X0013287Y0040188D02*
X0022815Y0040188D01*
X0013287Y0012681D02*
X0245576Y0012681D01*
X0248509Y0011895D02*
X0013287Y0011895D01*
X0157051Y0110134D02*
X0194381Y0110134D01*
X0195422Y0110920D02*
X0156598Y0110920D01*
X0197366Y0110920D02*
X0201458Y0110920D01*
X0200672Y0110134D02*
X0198406Y0110134D01*
X0198786Y0109348D02*
X0199886Y0109348D01*
X0199100Y0108562D02*
X0198876Y0108562D01*
X0206168Y0111706D02*
X0210188Y0111706D01*
X0209287Y0112492D02*
X0206954Y0112492D01*
X0207740Y0113278D02*
X0208962Y0113278D01*
X0208911Y0114064D02*
X0208526Y0114064D01*
X0230880Y0105419D02*
X0299203Y0105419D01*
X0299212Y0104633D02*
X0231275Y0104633D01*
X0231376Y0103847D02*
X0299538Y0103847D01*
X0299937Y0103061D02*
X0231236Y0103061D01*
X0230786Y0102275D02*
X0300723Y0102275D01*
X0302320Y0101489D02*
X0229576Y0101489D01*
X0258316Y0131354D02*
X0315701Y0131354D01*
X0315701Y0132140D02*
X0311536Y0132140D01*
X0312322Y0132926D02*
X0315701Y0132926D01*
X0315701Y0133712D02*
X0312800Y0133712D01*
X0313126Y0134498D02*
X0315701Y0134498D01*
X0315701Y0135283D02*
X0313191Y0135283D01*
X0313191Y0136069D02*
X0315701Y0136069D01*
X0315701Y0136855D02*
X0312937Y0136855D01*
X0312612Y0137641D02*
X0315701Y0137641D01*
X0315701Y0138427D02*
X0311867Y0138427D01*
X0310545Y0139213D02*
X0315701Y0139213D01*
X0315701Y0141571D02*
X0310270Y0141571D01*
X0311753Y0142357D02*
X0315701Y0142357D01*
X0315701Y0143143D02*
X0312539Y0143143D01*
X0312890Y0143928D02*
X0315701Y0143928D01*
X0315701Y0144714D02*
X0313191Y0144714D01*
X0313191Y0145500D02*
X0315701Y0145500D01*
X0315701Y0146286D02*
X0313173Y0146286D01*
X0312847Y0147072D02*
X0315701Y0147072D01*
X0315701Y0147858D02*
X0312436Y0147858D01*
X0311650Y0148644D02*
X0315701Y0148644D01*
X0315701Y0149430D02*
X0310022Y0149430D01*
X0311318Y0153359D02*
X0315701Y0153359D01*
X0315701Y0154145D02*
X0312163Y0154145D01*
X0312711Y0154931D02*
X0315701Y0154931D01*
X0315701Y0155717D02*
X0313037Y0155717D01*
X0313151Y0156503D02*
X0315701Y0156503D01*
X0315701Y0157289D02*
X0313151Y0157289D01*
X0312947Y0158075D02*
X0315701Y0158075D01*
X0315701Y0158861D02*
X0312621Y0158861D01*
X0311946Y0159647D02*
X0315701Y0159647D01*
X0315701Y0160433D02*
X0310793Y0160433D01*
X0300721Y0163576D02*
X0203541Y0163576D01*
X0202755Y0164362D02*
X0299935Y0164362D01*
X0299514Y0165148D02*
X0201969Y0165148D01*
X0201183Y0165934D02*
X0299188Y0165934D01*
X0299164Y0166720D02*
X0200397Y0166720D01*
X0199611Y0167506D02*
X0299164Y0167506D01*
X0299458Y0168292D02*
X0198825Y0168292D01*
X0198039Y0169078D02*
X0299800Y0169078D01*
X0300586Y0169864D02*
X0197253Y0169864D01*
X0196467Y0170649D02*
X0302045Y0170649D01*
X0301848Y0173007D02*
X0194110Y0173007D01*
X0193324Y0173793D02*
X0300504Y0173793D01*
X0299749Y0174579D02*
X0192538Y0174579D01*
X0191752Y0175365D02*
X0299424Y0175365D01*
X0299164Y0176151D02*
X0190966Y0176151D01*
X0190180Y0176937D02*
X0299164Y0176937D01*
X0299222Y0177723D02*
X0189394Y0177723D01*
X0188608Y0178509D02*
X0299548Y0178509D01*
X0300017Y0179295D02*
X0187822Y0179295D01*
X0185465Y0181652D02*
X0315701Y0181652D01*
X0315701Y0182438D02*
X0184679Y0182438D01*
X0175320Y0191869D02*
X0315701Y0191869D01*
X0315701Y0191083D02*
X0174534Y0191083D01*
X0176106Y0192655D02*
X0315701Y0192655D01*
X0315701Y0193441D02*
X0311459Y0193441D01*
X0312245Y0194227D02*
X0315701Y0194227D01*
X0315701Y0195013D02*
X0312745Y0195013D01*
X0313071Y0195799D02*
X0315701Y0195799D01*
X0315701Y0196585D02*
X0313151Y0196585D01*
X0313151Y0197371D02*
X0315701Y0197371D01*
X0315701Y0198156D02*
X0312913Y0198156D01*
X0312588Y0198942D02*
X0315701Y0198942D01*
X0315701Y0199728D02*
X0311865Y0199728D01*
X0310596Y0200514D02*
X0315701Y0200514D01*
X0315701Y0201300D02*
X0193798Y0201300D01*
X0193872Y0202086D02*
X0315701Y0202086D01*
X0315701Y0202872D02*
X0310141Y0202872D01*
X0311676Y0203658D02*
X0315701Y0203658D01*
X0315701Y0204444D02*
X0312462Y0204444D01*
X0312835Y0205230D02*
X0315701Y0205230D01*
X0315701Y0206016D02*
X0313151Y0206016D01*
X0313151Y0206801D02*
X0315701Y0206801D01*
X0315701Y0207587D02*
X0313149Y0207587D01*
X0312823Y0208373D02*
X0315701Y0208373D01*
X0315701Y0209159D02*
X0312434Y0209159D01*
X0311648Y0209945D02*
X0315701Y0209945D01*
X0315701Y0210731D02*
X0310073Y0210731D01*
X0310664Y0213089D02*
X0315701Y0213089D01*
X0315701Y0213875D02*
X0311893Y0213875D01*
X0312599Y0214661D02*
X0315701Y0214661D01*
X0315701Y0215447D02*
X0312925Y0215447D01*
X0313151Y0216232D02*
X0315701Y0216232D01*
X0315701Y0217018D02*
X0313151Y0217018D01*
X0313059Y0217804D02*
X0315701Y0217804D01*
X0315701Y0218590D02*
X0312733Y0218590D01*
X0312217Y0219376D02*
X0315701Y0219376D01*
X0315701Y0220162D02*
X0311431Y0220162D01*
X0315701Y0212303D02*
X0193872Y0212303D01*
X0193872Y0213089D02*
X0301651Y0213089D01*
X0300422Y0213875D02*
X0193872Y0213875D01*
X0193872Y0214661D02*
X0299716Y0214661D01*
X0299390Y0215447D02*
X0193107Y0215447D01*
X0192321Y0216232D02*
X0299164Y0216232D01*
X0299164Y0217018D02*
X0191535Y0217018D01*
X0193872Y0211517D02*
X0315701Y0211517D01*
X0302242Y0210731D02*
X0193229Y0210731D01*
X0192443Y0209945D02*
X0300667Y0209945D01*
X0299881Y0209159D02*
X0191658Y0209159D01*
X0177529Y0199728D02*
X0172792Y0199728D01*
X0173483Y0200514D02*
X0176743Y0200514D01*
X0175957Y0201300D02*
X0173929Y0201300D01*
X0174177Y0202086D02*
X0175884Y0202086D01*
X0173233Y0193441D02*
X0172857Y0193441D01*
X0160281Y0208373D02*
X0299492Y0208373D01*
X0311120Y0190297D02*
X0315701Y0190297D01*
X0315701Y0189511D02*
X0312081Y0189511D01*
X0312677Y0188725D02*
X0315701Y0188725D01*
X0315701Y0187940D02*
X0313003Y0187940D01*
X0313151Y0187154D02*
X0315701Y0187154D01*
X0315701Y0186368D02*
X0313151Y0186368D01*
X0312981Y0185582D02*
X0315701Y0185582D01*
X0315701Y0184796D02*
X0312655Y0184796D01*
X0312028Y0184010D02*
X0315701Y0184010D01*
X0315701Y0183224D02*
X0310991Y0183224D01*
X0232729Y0225663D02*
X0226712Y0225663D01*
X0227656Y0226449D02*
X0231785Y0226449D01*
X0231196Y0227235D02*
X0228245Y0227235D01*
X0228571Y0228021D02*
X0230870Y0228021D01*
X0230727Y0228807D02*
X0228714Y0228807D01*
X0228714Y0229593D02*
X0230727Y0229593D01*
X0230727Y0230379D02*
X0228714Y0230379D01*
X0228714Y0231165D02*
X0230727Y0231165D01*
X0230727Y0231951D02*
X0228714Y0231951D01*
X0228714Y0232737D02*
X0230727Y0232737D01*
X0230727Y0233523D02*
X0228714Y0233523D01*
X0228714Y0234308D02*
X0230727Y0234308D01*
X0230727Y0235094D02*
X0228714Y0235094D01*
X0228714Y0235880D02*
X0230727Y0235880D01*
X0231021Y0236666D02*
X0228420Y0236666D01*
X0228078Y0237452D02*
X0231363Y0237452D01*
X0221363Y0237452D02*
X0218078Y0237452D01*
X0218420Y0236666D02*
X0221021Y0236666D01*
X0220727Y0235880D02*
X0218714Y0235880D01*
X0218714Y0235094D02*
X0220727Y0235094D01*
X0220727Y0234308D02*
X0218714Y0234308D01*
X0218714Y0233523D02*
X0220727Y0233523D01*
X0220727Y0232737D02*
X0218714Y0232737D01*
X0218714Y0231951D02*
X0220727Y0231951D01*
X0220727Y0231165D02*
X0218714Y0231165D01*
X0218714Y0230379D02*
X0220727Y0230379D01*
X0220727Y0229593D02*
X0218714Y0229593D01*
X0218714Y0228807D02*
X0220727Y0228807D01*
X0220870Y0228021D02*
X0218571Y0228021D01*
X0218245Y0227235D02*
X0221196Y0227235D01*
X0221785Y0226449D02*
X0217656Y0226449D01*
X0216712Y0225663D02*
X0222729Y0225663D01*
X0096394Y0146394D02*
X0096394Y0136394D01*
X0096394Y0146394D02*
X0093894Y0148894D01*
X0053894Y0228894D02*
X0058894Y0233894D01*
X0078894Y0233894D01*
D18*
X0078894Y0233894D03*
X0053894Y0228894D03*
X0016394Y0226394D03*
X0018894Y0206394D03*
X0046394Y0198894D03*
X0058894Y0186394D03*
X0038894Y0168894D03*
X0023894Y0131394D03*
X0018894Y0113894D03*
X0093894Y0148894D03*
X0096394Y0136394D03*
X0118894Y0133894D03*
X0131394Y0133894D03*
X0153894Y0146394D03*
X0146394Y0151394D03*
X0163894Y0141394D03*
X0176394Y0128894D03*
X0186394Y0136394D03*
X0186394Y0141394D03*
X0186394Y0148894D03*
X0203894Y0138894D03*
X0216394Y0136394D03*
X0223894Y0136394D03*
X0226394Y0143894D03*
X0241394Y0148894D03*
X0261394Y0136394D03*
X0218894Y0126394D03*
X0211394Y0113894D03*
X0204399Y0108388D03*
X0196394Y0108635D03*
X0192394Y0103281D03*
X0178894Y0101394D03*
X0178894Y0106394D03*
X0228894Y0103894D03*
X0211394Y0153894D03*
X0181394Y0183894D03*
X0171394Y0191394D03*
X0158894Y0213894D03*
X0096394Y0116394D03*
X0096899Y0100888D03*
X0128894Y0108894D03*
X0183894Y0048894D03*
D19*
X0178894Y0101394D02*
X0180781Y0103281D01*
X0192394Y0103281D01*
X0196394Y0108635D02*
X0181135Y0108635D01*
X0178894Y0106394D01*
X0210515Y0133894D02*
X0215404Y0138783D01*
X0221283Y0138783D01*
X0226394Y0143894D01*
X0223894Y0136394D02*
X0216394Y0136394D01*
X0210515Y0133894D02*
X0131394Y0133894D01*
X0131283Y0136283D02*
X0130404Y0136283D01*
X0128015Y0133894D01*
X0118894Y0133894D01*
X0131283Y0136283D02*
X0146394Y0151394D01*
X0181394Y0183894D02*
X0211394Y0153894D01*
X0173015Y0191394D02*
X0180404Y0198783D01*
X0185633Y0198783D01*
X0189878Y0203028D01*
X0173015Y0191394D02*
X0171394Y0191394D01*
X0096394Y0116394D02*
X0096899Y0115888D01*
X0096899Y0100888D01*
M02*
