G75*
%MOIN*%
%OFA0B0*%
%FSLAX25Y25*%
%IPPOS*%
%LPD*%
%AMOC8*
5,1,8,0,0,1.08239X$1,22.5*
%
%ADD10C,0.00000*%
%ADD11C,0.00300*%
%ADD12C,0.00400*%
%ADD13C,0.00800*%
%ADD14C,0.01000*%
%ADD15C,0.00600*%
%ADD16R,0.03400X0.03000*%
%ADD17R,0.00591X0.01181*%
%ADD18R,0.01181X0.01181*%
%ADD19R,0.01181X0.00591*%
%ADD20C,0.00500*%
%ADD21C,0.00200*%
%ADD22R,0.02500X0.03000*%
%ADD23R,0.11000X0.05000*%
%ADD24C,0.00700*%
%ADD25C,0.00100*%
D10*
X0008894Y0006394D02*
X0008894Y0242614D01*
X0320094Y0242614D01*
X0320094Y0006394D01*
X0008894Y0006394D01*
X0245311Y0028500D02*
X0245313Y0028661D01*
X0245319Y0028821D01*
X0245329Y0028982D01*
X0245343Y0029142D01*
X0245361Y0029302D01*
X0245382Y0029461D01*
X0245408Y0029620D01*
X0245438Y0029778D01*
X0245471Y0029935D01*
X0245509Y0030092D01*
X0245550Y0030247D01*
X0245595Y0030401D01*
X0245644Y0030554D01*
X0245697Y0030706D01*
X0245753Y0030857D01*
X0245814Y0031006D01*
X0245877Y0031154D01*
X0245945Y0031300D01*
X0246016Y0031444D01*
X0246090Y0031586D01*
X0246168Y0031727D01*
X0246250Y0031865D01*
X0246335Y0032002D01*
X0246423Y0032136D01*
X0246515Y0032268D01*
X0246610Y0032398D01*
X0246708Y0032526D01*
X0246809Y0032651D01*
X0246913Y0032773D01*
X0247020Y0032893D01*
X0247130Y0033010D01*
X0247243Y0033125D01*
X0247359Y0033236D01*
X0247478Y0033345D01*
X0247599Y0033450D01*
X0247723Y0033553D01*
X0247849Y0033653D01*
X0247977Y0033749D01*
X0248108Y0033842D01*
X0248242Y0033932D01*
X0248377Y0034019D01*
X0248515Y0034102D01*
X0248654Y0034182D01*
X0248796Y0034258D01*
X0248939Y0034331D01*
X0249084Y0034400D01*
X0249231Y0034466D01*
X0249379Y0034528D01*
X0249529Y0034586D01*
X0249680Y0034641D01*
X0249833Y0034692D01*
X0249987Y0034739D01*
X0250142Y0034782D01*
X0250298Y0034821D01*
X0250454Y0034857D01*
X0250612Y0034888D01*
X0250770Y0034916D01*
X0250929Y0034940D01*
X0251089Y0034960D01*
X0251249Y0034976D01*
X0251409Y0034988D01*
X0251570Y0034996D01*
X0251731Y0035000D01*
X0251891Y0035000D01*
X0252052Y0034996D01*
X0252213Y0034988D01*
X0252373Y0034976D01*
X0252533Y0034960D01*
X0252693Y0034940D01*
X0252852Y0034916D01*
X0253010Y0034888D01*
X0253168Y0034857D01*
X0253324Y0034821D01*
X0253480Y0034782D01*
X0253635Y0034739D01*
X0253789Y0034692D01*
X0253942Y0034641D01*
X0254093Y0034586D01*
X0254243Y0034528D01*
X0254391Y0034466D01*
X0254538Y0034400D01*
X0254683Y0034331D01*
X0254826Y0034258D01*
X0254968Y0034182D01*
X0255107Y0034102D01*
X0255245Y0034019D01*
X0255380Y0033932D01*
X0255514Y0033842D01*
X0255645Y0033749D01*
X0255773Y0033653D01*
X0255899Y0033553D01*
X0256023Y0033450D01*
X0256144Y0033345D01*
X0256263Y0033236D01*
X0256379Y0033125D01*
X0256492Y0033010D01*
X0256602Y0032893D01*
X0256709Y0032773D01*
X0256813Y0032651D01*
X0256914Y0032526D01*
X0257012Y0032398D01*
X0257107Y0032268D01*
X0257199Y0032136D01*
X0257287Y0032002D01*
X0257372Y0031865D01*
X0257454Y0031727D01*
X0257532Y0031586D01*
X0257606Y0031444D01*
X0257677Y0031300D01*
X0257745Y0031154D01*
X0257808Y0031006D01*
X0257869Y0030857D01*
X0257925Y0030706D01*
X0257978Y0030554D01*
X0258027Y0030401D01*
X0258072Y0030247D01*
X0258113Y0030092D01*
X0258151Y0029935D01*
X0258184Y0029778D01*
X0258214Y0029620D01*
X0258240Y0029461D01*
X0258261Y0029302D01*
X0258279Y0029142D01*
X0258293Y0028982D01*
X0258303Y0028821D01*
X0258309Y0028661D01*
X0258311Y0028500D01*
X0258309Y0028339D01*
X0258303Y0028179D01*
X0258293Y0028018D01*
X0258279Y0027858D01*
X0258261Y0027698D01*
X0258240Y0027539D01*
X0258214Y0027380D01*
X0258184Y0027222D01*
X0258151Y0027065D01*
X0258113Y0026908D01*
X0258072Y0026753D01*
X0258027Y0026599D01*
X0257978Y0026446D01*
X0257925Y0026294D01*
X0257869Y0026143D01*
X0257808Y0025994D01*
X0257745Y0025846D01*
X0257677Y0025700D01*
X0257606Y0025556D01*
X0257532Y0025414D01*
X0257454Y0025273D01*
X0257372Y0025135D01*
X0257287Y0024998D01*
X0257199Y0024864D01*
X0257107Y0024732D01*
X0257012Y0024602D01*
X0256914Y0024474D01*
X0256813Y0024349D01*
X0256709Y0024227D01*
X0256602Y0024107D01*
X0256492Y0023990D01*
X0256379Y0023875D01*
X0256263Y0023764D01*
X0256144Y0023655D01*
X0256023Y0023550D01*
X0255899Y0023447D01*
X0255773Y0023347D01*
X0255645Y0023251D01*
X0255514Y0023158D01*
X0255380Y0023068D01*
X0255245Y0022981D01*
X0255107Y0022898D01*
X0254968Y0022818D01*
X0254826Y0022742D01*
X0254683Y0022669D01*
X0254538Y0022600D01*
X0254391Y0022534D01*
X0254243Y0022472D01*
X0254093Y0022414D01*
X0253942Y0022359D01*
X0253789Y0022308D01*
X0253635Y0022261D01*
X0253480Y0022218D01*
X0253324Y0022179D01*
X0253168Y0022143D01*
X0253010Y0022112D01*
X0252852Y0022084D01*
X0252693Y0022060D01*
X0252533Y0022040D01*
X0252373Y0022024D01*
X0252213Y0022012D01*
X0252052Y0022004D01*
X0251891Y0022000D01*
X0251731Y0022000D01*
X0251570Y0022004D01*
X0251409Y0022012D01*
X0251249Y0022024D01*
X0251089Y0022040D01*
X0250929Y0022060D01*
X0250770Y0022084D01*
X0250612Y0022112D01*
X0250454Y0022143D01*
X0250298Y0022179D01*
X0250142Y0022218D01*
X0249987Y0022261D01*
X0249833Y0022308D01*
X0249680Y0022359D01*
X0249529Y0022414D01*
X0249379Y0022472D01*
X0249231Y0022534D01*
X0249084Y0022600D01*
X0248939Y0022669D01*
X0248796Y0022742D01*
X0248654Y0022818D01*
X0248515Y0022898D01*
X0248377Y0022981D01*
X0248242Y0023068D01*
X0248108Y0023158D01*
X0247977Y0023251D01*
X0247849Y0023347D01*
X0247723Y0023447D01*
X0247599Y0023550D01*
X0247478Y0023655D01*
X0247359Y0023764D01*
X0247243Y0023875D01*
X0247130Y0023990D01*
X0247020Y0024107D01*
X0246913Y0024227D01*
X0246809Y0024349D01*
X0246708Y0024474D01*
X0246610Y0024602D01*
X0246515Y0024732D01*
X0246423Y0024864D01*
X0246335Y0024998D01*
X0246250Y0025135D01*
X0246168Y0025273D01*
X0246090Y0025414D01*
X0246016Y0025556D01*
X0245945Y0025700D01*
X0245877Y0025846D01*
X0245814Y0025994D01*
X0245753Y0026143D01*
X0245697Y0026294D01*
X0245644Y0026446D01*
X0245595Y0026599D01*
X0245550Y0026753D01*
X0245509Y0026908D01*
X0245471Y0027065D01*
X0245438Y0027222D01*
X0245408Y0027380D01*
X0245382Y0027539D01*
X0245361Y0027698D01*
X0245343Y0027858D01*
X0245329Y0028018D01*
X0245319Y0028179D01*
X0245313Y0028339D01*
X0245311Y0028500D01*
D11*
X0268015Y0021846D02*
X0268015Y0018944D01*
X0269467Y0018944D01*
X0269950Y0019427D01*
X0269950Y0019911D01*
X0269467Y0020395D01*
X0268015Y0020395D01*
X0268015Y0021846D02*
X0269467Y0021846D01*
X0269950Y0021362D01*
X0269950Y0020879D01*
X0269467Y0020395D01*
X0270962Y0020879D02*
X0270962Y0018944D01*
X0270962Y0019911D02*
X0271929Y0020879D01*
X0272413Y0020879D01*
X0273901Y0020879D02*
X0274868Y0020879D01*
X0275352Y0020395D01*
X0275352Y0018944D01*
X0273901Y0018944D01*
X0273417Y0019427D01*
X0273901Y0019911D01*
X0275352Y0019911D01*
X0276364Y0018944D02*
X0276364Y0020879D01*
X0277815Y0020879D01*
X0278299Y0020395D01*
X0278299Y0018944D01*
X0279310Y0019427D02*
X0279310Y0020395D01*
X0279794Y0020879D01*
X0281245Y0020879D01*
X0281245Y0021846D02*
X0281245Y0018944D01*
X0279794Y0018944D01*
X0279310Y0019427D01*
X0279303Y0016562D02*
X0279303Y0014627D01*
X0279787Y0014144D01*
X0281267Y0014627D02*
X0281751Y0014144D01*
X0281267Y0014627D02*
X0281267Y0016562D01*
X0280784Y0016079D02*
X0281751Y0016079D01*
X0282748Y0015595D02*
X0283232Y0016079D01*
X0284199Y0016079D01*
X0284683Y0015595D01*
X0284683Y0014144D01*
X0285694Y0014627D02*
X0285694Y0015595D01*
X0286178Y0016079D01*
X0287146Y0016079D01*
X0287629Y0015595D01*
X0287629Y0015111D01*
X0285694Y0015111D01*
X0285694Y0014627D02*
X0286178Y0014144D01*
X0287146Y0014144D01*
X0288641Y0014627D02*
X0288641Y0016079D01*
X0288641Y0014627D02*
X0289125Y0014144D01*
X0289608Y0014627D01*
X0290092Y0014144D01*
X0290576Y0014627D01*
X0290576Y0016079D01*
X0291096Y0018944D02*
X0291096Y0021846D01*
X0293031Y0018944D01*
X0293031Y0021846D01*
X0294043Y0020879D02*
X0294527Y0020879D01*
X0294527Y0018944D01*
X0295010Y0018944D02*
X0294043Y0018944D01*
X0296007Y0018944D02*
X0296007Y0021846D01*
X0294527Y0021846D02*
X0294527Y0022330D01*
X0295003Y0023744D02*
X0294036Y0023744D01*
X0293552Y0024227D01*
X0293552Y0025195D01*
X0294036Y0025679D01*
X0295003Y0025679D01*
X0295487Y0025195D01*
X0295487Y0024711D01*
X0293552Y0024711D01*
X0292540Y0024711D02*
X0291089Y0024711D01*
X0290605Y0024227D01*
X0291089Y0023744D01*
X0292540Y0023744D01*
X0292540Y0025195D01*
X0292056Y0025679D01*
X0291089Y0025679D01*
X0289594Y0025195D02*
X0289594Y0023744D01*
X0289594Y0025195D02*
X0289110Y0025679D01*
X0288142Y0025679D01*
X0287659Y0025195D01*
X0286647Y0025679D02*
X0285196Y0025679D01*
X0284712Y0025195D01*
X0284712Y0024227D01*
X0285196Y0023744D01*
X0286647Y0023744D01*
X0287659Y0023744D02*
X0287659Y0026646D01*
X0288612Y0028544D02*
X0288612Y0029995D01*
X0288128Y0030479D01*
X0286677Y0030479D01*
X0286677Y0028544D01*
X0285665Y0028544D02*
X0285665Y0030479D01*
X0283730Y0030479D02*
X0283730Y0029027D01*
X0284214Y0028544D01*
X0285665Y0028544D01*
X0283232Y0027130D02*
X0283232Y0026646D01*
X0283232Y0025679D02*
X0283232Y0023744D01*
X0283715Y0023744D02*
X0282748Y0023744D01*
X0281736Y0023744D02*
X0281736Y0026646D01*
X0280769Y0025679D01*
X0279801Y0026646D01*
X0279801Y0023744D01*
X0282748Y0025679D02*
X0283232Y0025679D01*
X0282235Y0028544D02*
X0280784Y0028544D01*
X0280784Y0027576D02*
X0280784Y0030479D01*
X0282235Y0030479D01*
X0282719Y0029995D01*
X0282719Y0029027D01*
X0282235Y0028544D01*
X0279787Y0028544D02*
X0278819Y0028544D01*
X0279303Y0028544D02*
X0279303Y0030479D01*
X0278819Y0030479D01*
X0279303Y0031446D02*
X0279303Y0031930D01*
X0277808Y0031446D02*
X0277808Y0028544D01*
X0275873Y0031446D01*
X0275873Y0028544D01*
X0282741Y0020879D02*
X0282257Y0020395D01*
X0282257Y0019427D01*
X0282741Y0018944D01*
X0283708Y0018944D01*
X0284192Y0019427D01*
X0284192Y0020395D01*
X0283708Y0020879D01*
X0282741Y0020879D01*
X0285203Y0020879D02*
X0285203Y0018944D01*
X0285203Y0020879D02*
X0286655Y0020879D01*
X0287138Y0020395D01*
X0287138Y0018944D01*
X0282748Y0017046D02*
X0282748Y0014144D01*
X0282733Y0012246D02*
X0283701Y0012246D01*
X0283217Y0012246D02*
X0283217Y0009827D01*
X0282733Y0009344D01*
X0282249Y0009344D01*
X0281766Y0009827D01*
X0284712Y0009827D02*
X0285196Y0010311D01*
X0286647Y0010311D01*
X0286647Y0010795D02*
X0286647Y0009344D01*
X0285196Y0009344D01*
X0284712Y0009827D01*
X0285196Y0011279D02*
X0286163Y0011279D01*
X0286647Y0010795D01*
X0287659Y0010795D02*
X0287659Y0009827D01*
X0288142Y0009344D01*
X0289594Y0009344D01*
X0290605Y0009827D02*
X0291089Y0009344D01*
X0292056Y0009344D01*
X0292540Y0009827D01*
X0292540Y0010795D01*
X0292056Y0011279D01*
X0291089Y0011279D01*
X0290605Y0010795D01*
X0290605Y0009827D01*
X0289594Y0011279D02*
X0288142Y0011279D01*
X0287659Y0010795D01*
X0293552Y0011279D02*
X0295003Y0011279D01*
X0295487Y0010795D01*
X0295487Y0009827D01*
X0295003Y0009344D01*
X0293552Y0009344D01*
X0293552Y0012246D01*
X0295018Y0014144D02*
X0294534Y0014627D01*
X0295018Y0014144D02*
X0295985Y0014144D01*
X0296469Y0014627D01*
X0296469Y0015111D01*
X0295985Y0015595D01*
X0295018Y0015595D01*
X0294534Y0016079D01*
X0294534Y0016562D01*
X0295018Y0017046D01*
X0295985Y0017046D01*
X0296469Y0016562D01*
X0297480Y0016079D02*
X0298448Y0016079D01*
X0297964Y0016562D02*
X0297964Y0014627D01*
X0298448Y0014144D01*
X0299445Y0014627D02*
X0299929Y0015111D01*
X0301380Y0015111D01*
X0301380Y0015595D02*
X0301380Y0014144D01*
X0299929Y0014144D01*
X0299445Y0014627D01*
X0299929Y0016079D02*
X0300896Y0016079D01*
X0301380Y0015595D01*
X0302391Y0015595D02*
X0302391Y0014627D01*
X0302875Y0014144D01*
X0304326Y0014144D01*
X0305338Y0014144D02*
X0305338Y0017046D01*
X0305822Y0016079D02*
X0306789Y0016079D01*
X0307273Y0015595D01*
X0307273Y0014144D01*
X0308284Y0014627D02*
X0308284Y0015595D01*
X0308768Y0016079D01*
X0309736Y0016079D01*
X0310219Y0015595D01*
X0310219Y0014627D01*
X0309736Y0014144D01*
X0308768Y0014144D01*
X0308284Y0014627D01*
X0305822Y0016079D02*
X0305338Y0015595D01*
X0304326Y0016079D02*
X0302875Y0016079D01*
X0302391Y0015595D01*
X0301409Y0018944D02*
X0301409Y0020879D01*
X0301409Y0019911D02*
X0302377Y0020879D01*
X0302860Y0020879D01*
X0303865Y0020395D02*
X0304348Y0020879D01*
X0305316Y0020879D01*
X0305800Y0020395D01*
X0305800Y0019911D01*
X0303865Y0019911D01*
X0303865Y0019427D02*
X0303865Y0020395D01*
X0303865Y0019427D02*
X0304348Y0018944D01*
X0305316Y0018944D01*
X0306811Y0018944D02*
X0307779Y0018944D01*
X0307295Y0018944D02*
X0307295Y0021846D01*
X0306811Y0021846D01*
X0307302Y0023744D02*
X0307302Y0025679D01*
X0308753Y0025679D01*
X0309237Y0025195D01*
X0309237Y0023744D01*
X0310249Y0024227D02*
X0310732Y0023744D01*
X0312184Y0023744D01*
X0313195Y0024227D02*
X0313195Y0025195D01*
X0313679Y0025679D01*
X0314646Y0025679D01*
X0315130Y0025195D01*
X0315130Y0024711D01*
X0313195Y0024711D01*
X0313195Y0024227D02*
X0313679Y0023744D01*
X0314646Y0023744D01*
X0316142Y0024227D02*
X0316142Y0025195D01*
X0316625Y0025679D01*
X0317593Y0025679D01*
X0318077Y0025195D01*
X0318077Y0024227D01*
X0317593Y0023744D01*
X0316625Y0023744D01*
X0316142Y0024227D01*
X0317117Y0022330D02*
X0317117Y0021846D01*
X0317117Y0020879D02*
X0317117Y0018944D01*
X0317600Y0018944D02*
X0316633Y0018944D01*
X0316633Y0020879D02*
X0317117Y0020879D01*
X0315621Y0020879D02*
X0314654Y0018944D01*
X0313686Y0020879D01*
X0312675Y0020395D02*
X0312675Y0019911D01*
X0310740Y0019911D01*
X0310740Y0019427D02*
X0310740Y0020395D01*
X0311224Y0020879D01*
X0312191Y0020879D01*
X0312675Y0020395D01*
X0312191Y0018944D02*
X0311224Y0018944D01*
X0310740Y0019427D01*
X0309743Y0018460D02*
X0309743Y0020879D01*
X0309743Y0021846D02*
X0309743Y0022330D01*
X0310249Y0024227D02*
X0310249Y0025195D01*
X0310732Y0025679D01*
X0312184Y0025679D01*
X0311700Y0027576D02*
X0311216Y0027576D01*
X0311700Y0027576D02*
X0312184Y0028060D01*
X0312184Y0030479D01*
X0313679Y0030479D02*
X0314646Y0030479D01*
X0315130Y0029995D01*
X0315130Y0028544D01*
X0313679Y0028544D01*
X0313195Y0029027D01*
X0313679Y0029511D01*
X0315130Y0029511D01*
X0316142Y0029511D02*
X0317593Y0030479D01*
X0319081Y0030479D02*
X0320048Y0030479D01*
X0320532Y0029995D01*
X0320532Y0028544D01*
X0319081Y0028544D01*
X0318597Y0029027D01*
X0319081Y0029511D01*
X0320532Y0029511D01*
X0317593Y0028544D02*
X0316142Y0029511D01*
X0316142Y0028544D02*
X0316142Y0031446D01*
X0315629Y0033344D02*
X0314177Y0033344D01*
X0314177Y0036246D01*
X0314177Y0035279D02*
X0315629Y0035279D01*
X0316112Y0034795D01*
X0316112Y0033827D01*
X0315629Y0033344D01*
X0317124Y0033827D02*
X0317608Y0033344D01*
X0319059Y0033344D01*
X0319059Y0032860D02*
X0318575Y0032376D01*
X0318091Y0032376D01*
X0319059Y0032860D02*
X0319059Y0035279D01*
X0320070Y0035279D02*
X0320070Y0034795D01*
X0320554Y0034795D01*
X0320554Y0035279D01*
X0320070Y0035279D01*
X0320070Y0033827D02*
X0320070Y0033344D01*
X0320554Y0033344D01*
X0320554Y0033827D01*
X0320070Y0033827D01*
X0317124Y0033827D02*
X0317124Y0035279D01*
X0310219Y0035279D02*
X0308768Y0035279D01*
X0308284Y0034795D01*
X0308284Y0033827D01*
X0308768Y0033344D01*
X0310219Y0033344D01*
X0310219Y0036246D01*
X0307273Y0034795D02*
X0307273Y0034311D01*
X0305338Y0034311D01*
X0305338Y0033827D02*
X0305338Y0034795D01*
X0305822Y0035279D01*
X0306789Y0035279D01*
X0307273Y0034795D01*
X0306789Y0033344D02*
X0305822Y0033344D01*
X0305338Y0033827D01*
X0304326Y0033344D02*
X0304326Y0034795D01*
X0303843Y0035279D01*
X0302391Y0035279D01*
X0302391Y0033344D01*
X0301380Y0033344D02*
X0299929Y0033344D01*
X0299445Y0033827D01*
X0299445Y0034795D01*
X0299929Y0035279D01*
X0301380Y0035279D01*
X0301380Y0032860D01*
X0300896Y0032376D01*
X0300412Y0032376D01*
X0300398Y0030479D02*
X0298946Y0030479D01*
X0298463Y0029995D01*
X0298946Y0029511D01*
X0299914Y0029511D01*
X0300398Y0029027D01*
X0299914Y0028544D01*
X0298463Y0028544D01*
X0297451Y0028544D02*
X0297451Y0029995D01*
X0296967Y0030479D01*
X0296000Y0030479D01*
X0296000Y0029511D02*
X0297451Y0029511D01*
X0297451Y0028544D02*
X0296000Y0028544D01*
X0295516Y0029027D01*
X0296000Y0029511D01*
X0294505Y0029027D02*
X0294505Y0030962D01*
X0294021Y0031446D01*
X0292570Y0031446D01*
X0292570Y0028544D01*
X0294021Y0028544D01*
X0294505Y0029027D01*
X0296498Y0026646D02*
X0296982Y0026646D01*
X0296982Y0023744D01*
X0296498Y0023744D02*
X0297466Y0023744D01*
X0297458Y0020879D02*
X0296007Y0019911D01*
X0297458Y0018944D01*
X0298463Y0018944D02*
X0299914Y0018944D01*
X0300398Y0019427D01*
X0300398Y0020395D01*
X0299914Y0020879D01*
X0298463Y0020879D01*
X0298463Y0017976D01*
X0301409Y0023744D02*
X0301409Y0026646D01*
X0302377Y0025679D01*
X0303344Y0026646D01*
X0303344Y0023744D01*
X0304356Y0024227D02*
X0304839Y0024711D01*
X0306291Y0024711D01*
X0306291Y0025195D02*
X0306291Y0023744D01*
X0304839Y0023744D01*
X0304356Y0024227D01*
X0304839Y0025679D02*
X0305807Y0025679D01*
X0306291Y0025195D01*
X0306291Y0028544D02*
X0306291Y0029995D01*
X0305807Y0030479D01*
X0304356Y0030479D01*
X0304356Y0028544D01*
X0303344Y0028544D02*
X0301893Y0028544D01*
X0301409Y0029027D01*
X0301893Y0029511D01*
X0303344Y0029511D01*
X0303344Y0029995D02*
X0303344Y0028544D01*
X0303344Y0029995D02*
X0302860Y0030479D01*
X0301893Y0030479D01*
X0298448Y0033344D02*
X0297480Y0033344D01*
X0297964Y0033344D02*
X0297964Y0035279D01*
X0297480Y0035279D01*
X0296469Y0035279D02*
X0295018Y0035279D01*
X0294534Y0034795D01*
X0295018Y0034311D01*
X0295985Y0034311D01*
X0296469Y0033827D01*
X0295985Y0033344D01*
X0294534Y0033344D01*
X0293522Y0034311D02*
X0291587Y0034311D01*
X0291587Y0033827D02*
X0291587Y0034795D01*
X0292071Y0035279D01*
X0293039Y0035279D01*
X0293522Y0034795D01*
X0293522Y0034311D01*
X0293039Y0033344D02*
X0292071Y0033344D01*
X0291587Y0033827D01*
X0290576Y0033827D02*
X0290576Y0035762D01*
X0290092Y0036246D01*
X0288641Y0036246D01*
X0288641Y0033344D01*
X0290092Y0033344D01*
X0290576Y0033827D01*
X0297964Y0036246D02*
X0297964Y0036730D01*
X0307786Y0030479D02*
X0308753Y0030479D01*
X0309237Y0029995D01*
X0309237Y0028544D01*
X0307786Y0028544D01*
X0307302Y0029027D01*
X0307786Y0029511D01*
X0309237Y0029511D01*
X0310249Y0029027D02*
X0310732Y0028544D01*
X0312184Y0028544D01*
X0310249Y0029027D02*
X0310249Y0030479D01*
X0319088Y0025679D02*
X0319088Y0023744D01*
X0319088Y0024711D02*
X0320056Y0025679D01*
X0320540Y0025679D01*
X0320532Y0020879D02*
X0319081Y0020879D01*
X0318597Y0020395D01*
X0318597Y0019427D01*
X0319081Y0018944D01*
X0320532Y0018944D01*
X0319088Y0017046D02*
X0319088Y0014144D01*
X0319088Y0015111D02*
X0320540Y0014144D01*
X0319088Y0015111D02*
X0320540Y0016079D01*
X0318077Y0015595D02*
X0318077Y0014144D01*
X0316625Y0014144D01*
X0316142Y0014627D01*
X0316625Y0015111D01*
X0318077Y0015111D01*
X0318077Y0015595D02*
X0317593Y0016079D01*
X0316625Y0016079D01*
X0314661Y0016079D02*
X0314661Y0014144D01*
X0314177Y0014144D02*
X0315145Y0014144D01*
X0314661Y0016079D02*
X0314177Y0016079D01*
X0313166Y0016079D02*
X0313166Y0014627D01*
X0312682Y0014144D01*
X0312198Y0014627D01*
X0311715Y0014144D01*
X0311231Y0014627D01*
X0311231Y0016079D01*
X0309259Y0017976D02*
X0309743Y0018460D01*
X0309259Y0017976D02*
X0308775Y0017976D01*
X0314661Y0017530D02*
X0314661Y0017046D01*
X0314646Y0011279D02*
X0315130Y0010795D01*
X0315130Y0010311D01*
X0313195Y0010311D01*
X0313195Y0009827D02*
X0313195Y0010795D01*
X0313679Y0011279D01*
X0314646Y0011279D01*
X0316142Y0011279D02*
X0316142Y0009344D01*
X0316142Y0010311D02*
X0317109Y0011279D01*
X0317593Y0011279D01*
X0318597Y0010795D02*
X0318597Y0009827D01*
X0319081Y0009344D01*
X0320532Y0009344D01*
X0320532Y0008860D02*
X0320532Y0011279D01*
X0319081Y0011279D01*
X0318597Y0010795D01*
X0319565Y0008376D02*
X0320048Y0008376D01*
X0320532Y0008860D01*
X0314646Y0009344D02*
X0313679Y0009344D01*
X0313195Y0009827D01*
X0312184Y0009827D02*
X0312184Y0010795D01*
X0311700Y0011279D01*
X0310249Y0011279D01*
X0310249Y0012246D02*
X0310249Y0009344D01*
X0311700Y0009344D01*
X0312184Y0009827D01*
X0309237Y0009827D02*
X0308753Y0010311D01*
X0307786Y0010311D01*
X0307302Y0010795D01*
X0307786Y0011279D01*
X0309237Y0011279D01*
X0309237Y0009827D02*
X0308753Y0009344D01*
X0307302Y0009344D01*
X0306305Y0009344D02*
X0305338Y0009344D01*
X0305822Y0009344D02*
X0305822Y0011279D01*
X0305338Y0011279D01*
X0305822Y0012246D02*
X0305822Y0012730D01*
X0304326Y0010795D02*
X0304326Y0010311D01*
X0302391Y0010311D01*
X0302391Y0009827D02*
X0302391Y0010795D01*
X0302875Y0011279D01*
X0303843Y0011279D01*
X0304326Y0010795D01*
X0303843Y0009344D02*
X0302875Y0009344D01*
X0302391Y0009827D01*
X0301380Y0009344D02*
X0301380Y0012246D01*
X0299445Y0012246D02*
X0299445Y0009344D01*
X0300412Y0010311D01*
X0301380Y0009344D01*
X0279787Y0016079D02*
X0278819Y0016079D01*
X0277808Y0015595D02*
X0277808Y0014144D01*
X0276356Y0014144D01*
X0275873Y0014627D01*
X0276356Y0015111D01*
X0277808Y0015111D01*
X0277808Y0015595D02*
X0277324Y0016079D01*
X0276356Y0016079D01*
X0274861Y0017046D02*
X0274861Y0014144D01*
X0272926Y0014144D02*
X0272926Y0017046D01*
X0273894Y0016079D01*
X0274861Y0017046D01*
X0274493Y0066544D02*
X0274493Y0068479D01*
X0275460Y0068479D02*
X0274493Y0067511D01*
X0273481Y0067511D02*
X0272030Y0067511D01*
X0271546Y0067027D01*
X0272030Y0066544D01*
X0273481Y0066544D01*
X0273481Y0067995D01*
X0272997Y0068479D01*
X0272030Y0068479D01*
X0270535Y0067995D02*
X0270051Y0068479D01*
X0269083Y0068479D01*
X0268600Y0067995D01*
X0268600Y0067027D01*
X0269083Y0066544D01*
X0270051Y0066544D01*
X0270535Y0067027D01*
X0270535Y0067995D01*
X0267588Y0068479D02*
X0267104Y0067995D01*
X0265653Y0067995D01*
X0265653Y0066544D02*
X0265653Y0069446D01*
X0267104Y0069446D01*
X0267588Y0068962D01*
X0267588Y0068479D01*
X0267104Y0067995D02*
X0267588Y0067511D01*
X0267588Y0067027D01*
X0267104Y0066544D01*
X0265653Y0066544D01*
X0261710Y0066544D02*
X0260742Y0066544D01*
X0261226Y0066544D02*
X0261226Y0069446D01*
X0260742Y0069446D01*
X0259731Y0067995D02*
X0259247Y0068479D01*
X0258280Y0068479D01*
X0257796Y0067995D01*
X0257796Y0067027D01*
X0258280Y0066544D01*
X0259247Y0066544D01*
X0259731Y0067027D01*
X0259731Y0067995D01*
X0256792Y0068479D02*
X0256308Y0068479D01*
X0255340Y0067511D01*
X0255340Y0066544D02*
X0255340Y0068479D01*
X0254343Y0068479D02*
X0253376Y0068479D01*
X0253860Y0068962D02*
X0253860Y0067027D01*
X0254343Y0066544D01*
X0252364Y0066544D02*
X0252364Y0067995D01*
X0251881Y0068479D01*
X0250429Y0068479D01*
X0250429Y0066544D01*
X0249418Y0067027D02*
X0249418Y0067995D01*
X0248934Y0068479D01*
X0247967Y0068479D01*
X0247483Y0067995D01*
X0247483Y0067027D01*
X0247967Y0066544D01*
X0248934Y0066544D01*
X0249418Y0067027D01*
X0246471Y0067027D02*
X0245988Y0066544D01*
X0245020Y0066544D01*
X0244536Y0067027D01*
X0244536Y0068962D01*
X0245020Y0069446D01*
X0245988Y0069446D01*
X0246471Y0068962D01*
X0240578Y0067995D02*
X0240578Y0067511D01*
X0238643Y0067511D01*
X0238643Y0067027D02*
X0238643Y0067995D01*
X0239127Y0068479D01*
X0240095Y0068479D01*
X0240578Y0067995D01*
X0240095Y0066544D02*
X0239127Y0066544D01*
X0238643Y0067027D01*
X0237639Y0068479D02*
X0237155Y0068479D01*
X0236188Y0067511D01*
X0236188Y0066544D02*
X0236188Y0068479D01*
X0235176Y0068479D02*
X0235176Y0066544D01*
X0233725Y0066544D01*
X0233241Y0067027D01*
X0233241Y0068479D01*
X0232245Y0068479D02*
X0231277Y0068479D01*
X0231761Y0068962D02*
X0231761Y0067027D01*
X0232245Y0066544D01*
X0230266Y0066544D02*
X0228814Y0066544D01*
X0228331Y0067027D01*
X0228814Y0067511D01*
X0230266Y0067511D01*
X0230266Y0067995D02*
X0230266Y0066544D01*
X0230266Y0067995D02*
X0229782Y0068479D01*
X0228814Y0068479D01*
X0227326Y0068479D02*
X0226843Y0068479D01*
X0225875Y0067511D01*
X0225875Y0066544D02*
X0225875Y0068479D01*
X0224864Y0067995D02*
X0224864Y0067511D01*
X0222929Y0067511D01*
X0222929Y0067027D02*
X0222929Y0067995D01*
X0223412Y0068479D01*
X0224380Y0068479D01*
X0224864Y0067995D01*
X0224380Y0066544D02*
X0223412Y0066544D01*
X0222929Y0067027D01*
X0221917Y0067027D02*
X0221433Y0066544D01*
X0219982Y0066544D01*
X0219982Y0065576D02*
X0219982Y0068479D01*
X0221433Y0068479D01*
X0221917Y0067995D01*
X0221917Y0067027D01*
X0218971Y0066544D02*
X0218971Y0067995D01*
X0218487Y0068479D01*
X0218003Y0067995D01*
X0218003Y0066544D01*
X0217036Y0066544D02*
X0217036Y0068479D01*
X0217519Y0068479D01*
X0218003Y0067995D01*
X0216024Y0067995D02*
X0216024Y0067511D01*
X0214089Y0067511D01*
X0214089Y0067027D02*
X0214089Y0067995D01*
X0214573Y0068479D01*
X0215540Y0068479D01*
X0216024Y0067995D01*
X0215540Y0066544D02*
X0214573Y0066544D01*
X0214089Y0067027D01*
X0212110Y0066544D02*
X0212110Y0069446D01*
X0211143Y0069446D02*
X0213078Y0069446D01*
X0207192Y0068479D02*
X0206708Y0068479D01*
X0205741Y0067511D01*
X0205741Y0066544D02*
X0205741Y0068479D01*
X0204729Y0067995D02*
X0204729Y0066544D01*
X0203278Y0066544D01*
X0202794Y0067027D01*
X0203278Y0067511D01*
X0204729Y0067511D01*
X0204729Y0067995D02*
X0204245Y0068479D01*
X0203278Y0068479D01*
X0201314Y0069446D02*
X0201314Y0066544D01*
X0201797Y0066544D02*
X0200830Y0066544D01*
X0199818Y0066544D02*
X0199818Y0068479D01*
X0200830Y0069446D02*
X0201314Y0069446D01*
X0197883Y0068479D02*
X0197883Y0067027D01*
X0198367Y0066544D01*
X0199818Y0066544D01*
X0196872Y0066544D02*
X0195420Y0066544D01*
X0194937Y0067027D01*
X0194937Y0067995D01*
X0195420Y0068479D01*
X0196872Y0068479D01*
X0196872Y0069446D02*
X0196872Y0066544D01*
X0193925Y0067027D02*
X0193925Y0067995D01*
X0193441Y0068479D01*
X0192474Y0068479D01*
X0191990Y0067995D01*
X0191990Y0067027D01*
X0192474Y0066544D01*
X0193441Y0066544D01*
X0193925Y0067027D01*
X0190979Y0066544D02*
X0190979Y0069446D01*
X0190011Y0068479D01*
X0189044Y0069446D01*
X0189044Y0066544D01*
X0133925Y0046395D02*
X0131990Y0046395D01*
X0128032Y0046395D02*
X0126097Y0046395D01*
X0127065Y0047362D02*
X0127065Y0045427D01*
X0084952Y0046395D02*
X0083017Y0046395D01*
X0079059Y0046395D02*
X0077124Y0046395D01*
X0078091Y0047362D02*
X0078091Y0045427D01*
X0069349Y0009930D02*
X0069349Y0009446D01*
X0069349Y0008479D02*
X0069349Y0006544D01*
X0068865Y0006544D02*
X0069833Y0006544D01*
X0070830Y0007027D02*
X0070830Y0007995D01*
X0071314Y0008479D01*
X0072281Y0008479D01*
X0072765Y0007995D01*
X0072765Y0007511D01*
X0070830Y0007511D01*
X0070830Y0007027D02*
X0071314Y0006544D01*
X0072281Y0006544D01*
X0073776Y0006544D02*
X0073776Y0008479D01*
X0074744Y0008479D02*
X0075228Y0008479D01*
X0074744Y0008479D02*
X0073776Y0007511D01*
X0069349Y0008479D02*
X0068865Y0008479D01*
X0067869Y0008479D02*
X0066901Y0008479D01*
X0067385Y0008962D02*
X0067385Y0007027D01*
X0067869Y0006544D01*
X0065904Y0006544D02*
X0064937Y0006544D01*
X0065420Y0006544D02*
X0065420Y0009446D01*
X0064937Y0009446D01*
X0063925Y0007995D02*
X0063925Y0007511D01*
X0061990Y0007511D01*
X0061990Y0007027D02*
X0061990Y0007995D01*
X0062474Y0008479D01*
X0063441Y0008479D01*
X0063925Y0007995D01*
X0063441Y0006544D02*
X0062474Y0006544D01*
X0061990Y0007027D01*
X0060979Y0007995D02*
X0060495Y0007511D01*
X0059044Y0007511D01*
X0059044Y0006544D02*
X0059044Y0009446D01*
X0060495Y0009446D01*
X0060979Y0008962D01*
X0060979Y0007995D01*
X0079178Y0008962D02*
X0079178Y0007027D01*
X0079662Y0006544D01*
X0080629Y0006544D01*
X0081113Y0007027D01*
X0082125Y0007027D02*
X0082125Y0007995D01*
X0082608Y0008479D01*
X0083576Y0008479D01*
X0084060Y0007995D01*
X0084060Y0007027D01*
X0083576Y0006544D01*
X0082608Y0006544D01*
X0082125Y0007027D01*
X0081113Y0008962D02*
X0080629Y0009446D01*
X0079662Y0009446D01*
X0079178Y0008962D01*
X0085071Y0008479D02*
X0085071Y0006544D01*
X0085071Y0008479D02*
X0086523Y0008479D01*
X0087006Y0007995D01*
X0087006Y0006544D01*
X0088018Y0006544D02*
X0088018Y0008479D01*
X0089469Y0008479D01*
X0089953Y0007995D01*
X0089953Y0006544D01*
X0090964Y0007027D02*
X0090964Y0007995D01*
X0091448Y0008479D01*
X0092416Y0008479D01*
X0092899Y0007995D01*
X0092899Y0007511D01*
X0090964Y0007511D01*
X0090964Y0007027D02*
X0091448Y0006544D01*
X0092416Y0006544D01*
X0093911Y0007027D02*
X0094395Y0006544D01*
X0095846Y0006544D01*
X0097341Y0007027D02*
X0097825Y0006544D01*
X0097341Y0007027D02*
X0097341Y0008962D01*
X0096857Y0008479D02*
X0097825Y0008479D01*
X0098822Y0007995D02*
X0098822Y0007027D01*
X0099305Y0006544D01*
X0100273Y0006544D01*
X0100757Y0007027D01*
X0100757Y0007995D01*
X0100273Y0008479D01*
X0099305Y0008479D01*
X0098822Y0007995D01*
X0101768Y0008479D02*
X0101768Y0006544D01*
X0101768Y0007511D02*
X0102736Y0008479D01*
X0103219Y0008479D01*
X0109044Y0007995D02*
X0110979Y0007995D01*
X0111990Y0007995D02*
X0111990Y0007027D01*
X0112474Y0006544D01*
X0113441Y0006544D01*
X0113925Y0007511D02*
X0111990Y0007511D01*
X0111990Y0007995D02*
X0112474Y0008479D01*
X0113441Y0008479D01*
X0113925Y0007995D01*
X0113925Y0007511D01*
X0114937Y0007027D02*
X0115420Y0007511D01*
X0116872Y0007511D01*
X0116872Y0007995D02*
X0116872Y0006544D01*
X0115420Y0006544D01*
X0114937Y0007027D01*
X0115420Y0008479D02*
X0116388Y0008479D01*
X0116872Y0007995D01*
X0117883Y0008479D02*
X0118851Y0008479D01*
X0118367Y0008962D02*
X0118367Y0007027D01*
X0118851Y0006544D01*
X0119848Y0007027D02*
X0119848Y0007995D01*
X0120331Y0008479D01*
X0121299Y0008479D01*
X0121783Y0007995D01*
X0121783Y0007511D01*
X0119848Y0007511D01*
X0119848Y0007027D02*
X0120331Y0006544D01*
X0121299Y0006544D01*
X0122794Y0006544D02*
X0122794Y0008479D01*
X0123762Y0008479D02*
X0124245Y0008479D01*
X0123762Y0008479D02*
X0122794Y0007511D01*
X0128196Y0007027D02*
X0128680Y0006544D01*
X0129647Y0006544D01*
X0130131Y0007027D01*
X0131143Y0007027D02*
X0131143Y0007995D01*
X0131626Y0008479D01*
X0132594Y0008479D01*
X0133078Y0007995D01*
X0133078Y0007027D01*
X0132594Y0006544D01*
X0131626Y0006544D01*
X0131143Y0007027D01*
X0130131Y0008962D02*
X0129647Y0009446D01*
X0128680Y0009446D01*
X0128196Y0008962D01*
X0128196Y0007027D01*
X0134089Y0006544D02*
X0134089Y0008479D01*
X0135540Y0008479D01*
X0136024Y0007995D01*
X0136024Y0006544D01*
X0137036Y0006544D02*
X0137036Y0008479D01*
X0138487Y0008479D01*
X0138971Y0007995D01*
X0138971Y0006544D01*
X0139982Y0007027D02*
X0139982Y0007995D01*
X0140466Y0008479D01*
X0141433Y0008479D01*
X0141917Y0007995D01*
X0141917Y0007511D01*
X0139982Y0007511D01*
X0139982Y0007027D02*
X0140466Y0006544D01*
X0141433Y0006544D01*
X0142929Y0007027D02*
X0143412Y0006544D01*
X0144864Y0006544D01*
X0146359Y0007027D02*
X0146843Y0006544D01*
X0146359Y0007027D02*
X0146359Y0008962D01*
X0145875Y0008479D02*
X0146843Y0008479D01*
X0147840Y0007995D02*
X0147840Y0007027D01*
X0148323Y0006544D01*
X0149291Y0006544D01*
X0149774Y0007027D01*
X0149774Y0007995D01*
X0149291Y0008479D01*
X0148323Y0008479D01*
X0147840Y0007995D01*
X0150786Y0008479D02*
X0150786Y0006544D01*
X0150786Y0007511D02*
X0151754Y0008479D01*
X0152237Y0008479D01*
X0144864Y0008479D02*
X0143412Y0008479D01*
X0142929Y0007995D01*
X0142929Y0007027D01*
X0110979Y0006544D02*
X0110979Y0009446D01*
X0109044Y0009446D02*
X0109044Y0006544D01*
X0095846Y0008479D02*
X0094395Y0008479D01*
X0093911Y0007995D01*
X0093911Y0007027D01*
X0012744Y0091856D02*
X0009041Y0091856D01*
X0009041Y0093707D01*
X0009658Y0094324D01*
X0010892Y0094324D01*
X0011509Y0093707D01*
X0011509Y0091856D01*
X0011509Y0093090D02*
X0012744Y0094324D01*
X0012127Y0095539D02*
X0010892Y0095539D01*
X0010275Y0096156D01*
X0010275Y0097390D01*
X0010892Y0098008D01*
X0011509Y0098008D01*
X0011509Y0095539D01*
X0012127Y0095539D02*
X0012744Y0096156D01*
X0012744Y0097390D01*
X0012744Y0099222D02*
X0012744Y0101074D01*
X0012127Y0101691D01*
X0011509Y0101074D01*
X0011509Y0099839D01*
X0010892Y0099222D01*
X0010275Y0099839D01*
X0010275Y0101691D01*
X0010892Y0102905D02*
X0010275Y0103522D01*
X0010275Y0104757D01*
X0010892Y0105374D01*
X0011509Y0105374D01*
X0011509Y0102905D01*
X0010892Y0102905D02*
X0012127Y0102905D01*
X0012744Y0103522D01*
X0012744Y0104757D01*
X0012127Y0107205D02*
X0009658Y0107205D01*
X0010275Y0106588D02*
X0010275Y0107823D01*
X0012127Y0107205D02*
X0012744Y0107823D01*
X0063781Y0139008D02*
X0066917Y0142144D01*
X0066917Y0140576D02*
X0063781Y0140576D01*
X0063781Y0142144D02*
X0066917Y0139008D01*
X0065349Y0139008D02*
X0065349Y0142144D01*
X0072581Y0116228D02*
X0072581Y0112308D01*
X0073365Y0111524D01*
X0074933Y0111524D01*
X0075717Y0112308D01*
X0075717Y0116228D01*
X0077185Y0114660D02*
X0078753Y0116228D01*
X0078753Y0111524D01*
X0077185Y0111524D02*
X0080321Y0111524D01*
X0275460Y0068479D02*
X0275944Y0068479D01*
X0276948Y0067995D02*
X0277432Y0068479D01*
X0278883Y0068479D01*
X0278883Y0069446D02*
X0278883Y0066544D01*
X0277432Y0066544D01*
X0276948Y0067027D01*
X0276948Y0067995D01*
D12*
X0192653Y0097302D02*
X0191885Y0096535D01*
X0190351Y0096535D01*
X0189583Y0097302D01*
X0189583Y0098837D02*
X0191118Y0099604D01*
X0191885Y0099604D01*
X0192653Y0098837D01*
X0192653Y0097302D01*
X0189583Y0098837D02*
X0189583Y0101139D01*
X0192653Y0101139D01*
X0188049Y0100371D02*
X0188049Y0098837D01*
X0187281Y0098069D01*
X0184980Y0098069D01*
X0186514Y0098069D02*
X0188049Y0096535D01*
X0184980Y0096535D02*
X0184980Y0101139D01*
X0187281Y0101139D01*
X0188049Y0100371D01*
X0188049Y0110235D02*
X0186514Y0111770D01*
X0187281Y0111770D02*
X0184980Y0111770D01*
X0184980Y0110235D02*
X0184980Y0114839D01*
X0187281Y0114839D01*
X0188049Y0114072D01*
X0188049Y0112537D01*
X0187281Y0111770D01*
X0189583Y0112537D02*
X0192653Y0112537D01*
X0191885Y0110235D02*
X0191885Y0114839D01*
X0189583Y0112537D01*
X0138398Y0164216D02*
X0137631Y0163449D01*
X0134562Y0163449D01*
X0133795Y0164216D01*
X0133795Y0165751D01*
X0134562Y0166518D01*
X0133795Y0168053D02*
X0136096Y0168053D01*
X0135329Y0169587D01*
X0135329Y0170355D01*
X0136096Y0171122D01*
X0137631Y0171122D01*
X0138398Y0170355D01*
X0138398Y0168820D01*
X0137631Y0168053D01*
X0137631Y0166518D02*
X0138398Y0165751D01*
X0138398Y0164216D01*
X0133795Y0168053D02*
X0133795Y0171122D01*
X0113302Y0164485D02*
X0111768Y0163718D01*
X0110233Y0162183D01*
X0112535Y0162183D01*
X0113302Y0161416D01*
X0113302Y0160648D01*
X0112535Y0159881D01*
X0111000Y0159881D01*
X0110233Y0160648D01*
X0110233Y0162183D01*
X0108698Y0160648D02*
X0107931Y0159881D01*
X0106396Y0159881D01*
X0105629Y0160648D01*
X0105629Y0163718D01*
X0106396Y0164485D01*
X0107931Y0164485D01*
X0108698Y0163718D01*
X0060859Y0167224D02*
X0060859Y0168758D01*
X0060859Y0167991D02*
X0056255Y0167991D01*
X0056255Y0167224D02*
X0056255Y0168758D01*
X0057022Y0170293D02*
X0060092Y0170293D01*
X0060859Y0171060D01*
X0060859Y0172595D01*
X0060092Y0173362D01*
X0060859Y0174897D02*
X0057790Y0177966D01*
X0057022Y0177966D01*
X0056255Y0177199D01*
X0056255Y0175664D01*
X0057022Y0174897D01*
X0057022Y0173362D02*
X0056255Y0172595D01*
X0056255Y0171060D01*
X0057022Y0170293D01*
X0060859Y0174897D02*
X0060859Y0177966D01*
X0055623Y0185181D02*
X0056391Y0185948D01*
X0056391Y0187483D01*
X0055623Y0188250D01*
X0055623Y0189785D02*
X0056391Y0189785D01*
X0055623Y0189785D02*
X0052554Y0192854D01*
X0051787Y0192854D01*
X0051787Y0189785D01*
X0052554Y0188250D02*
X0051787Y0187483D01*
X0051787Y0185948D01*
X0052554Y0185181D01*
X0055623Y0185181D01*
X0044914Y0204724D02*
X0040310Y0204724D01*
X0044914Y0204724D02*
X0044914Y0207793D01*
X0044914Y0209328D02*
X0040310Y0209328D01*
X0040310Y0212397D01*
X0040310Y0213931D02*
X0040310Y0216233D01*
X0041078Y0217001D01*
X0044147Y0217001D01*
X0044914Y0216233D01*
X0044914Y0213931D01*
X0040310Y0213931D01*
X0042612Y0210862D02*
X0042612Y0209328D01*
X0044914Y0209328D02*
X0044914Y0212397D01*
X0044914Y0218535D02*
X0044914Y0221605D01*
X0044914Y0220070D02*
X0040310Y0220070D01*
X0041845Y0218535D01*
X0042989Y0230098D02*
X0046058Y0233167D01*
X0046058Y0233934D01*
X0045291Y0234702D01*
X0043756Y0234702D01*
X0042989Y0233934D01*
X0041454Y0233934D02*
X0040687Y0234702D01*
X0039152Y0234702D01*
X0038385Y0233934D01*
X0038385Y0230865D01*
X0039152Y0230098D01*
X0040687Y0230098D01*
X0041454Y0230865D01*
X0042989Y0230098D02*
X0046058Y0230098D01*
X0061633Y0238267D02*
X0062400Y0237499D01*
X0063935Y0237499D01*
X0064702Y0238267D01*
X0066237Y0238267D02*
X0067004Y0237499D01*
X0068539Y0237499D01*
X0069306Y0238267D01*
X0069306Y0239034D01*
X0068539Y0239801D01*
X0067772Y0239801D01*
X0068539Y0239801D02*
X0069306Y0240568D01*
X0069306Y0241336D01*
X0068539Y0242103D01*
X0067004Y0242103D01*
X0066237Y0241336D01*
X0064702Y0241336D02*
X0063935Y0242103D01*
X0062400Y0242103D01*
X0061633Y0241336D01*
X0061633Y0238267D01*
X0023485Y0222989D02*
X0023485Y0218385D01*
X0021950Y0218385D02*
X0025020Y0218385D01*
X0021950Y0221454D02*
X0023485Y0222989D01*
X0020416Y0222222D02*
X0020416Y0220687D01*
X0019648Y0219920D01*
X0017346Y0219920D01*
X0017346Y0218385D02*
X0017346Y0222989D01*
X0019648Y0222989D01*
X0020416Y0222222D01*
X0018881Y0219920D02*
X0020416Y0218385D01*
X0021003Y0206670D02*
X0023305Y0206670D01*
X0024072Y0205903D01*
X0024072Y0204368D01*
X0023305Y0203601D01*
X0021003Y0203601D01*
X0022538Y0203601D02*
X0024072Y0202066D01*
X0025607Y0202066D02*
X0028676Y0205135D01*
X0028676Y0205903D01*
X0027909Y0206670D01*
X0026374Y0206670D01*
X0025607Y0205903D01*
X0021003Y0206670D02*
X0021003Y0202066D01*
X0025607Y0202066D02*
X0028676Y0202066D01*
X0028578Y0188934D02*
X0029346Y0188167D01*
X0029346Y0187399D01*
X0028578Y0186632D01*
X0027044Y0186632D01*
X0026276Y0187399D01*
X0026276Y0188167D01*
X0027044Y0188934D01*
X0028578Y0188934D01*
X0028578Y0186632D02*
X0029346Y0185865D01*
X0029346Y0185097D01*
X0028578Y0184330D01*
X0027044Y0184330D01*
X0026276Y0185097D01*
X0026276Y0185865D01*
X0027044Y0186632D01*
X0024742Y0188167D02*
X0023974Y0188934D01*
X0022440Y0188934D01*
X0021672Y0188167D01*
X0021672Y0185097D01*
X0022440Y0184330D01*
X0023974Y0184330D01*
X0024742Y0185097D01*
X0022808Y0162082D02*
X0022041Y0162082D01*
X0021274Y0161315D01*
X0021274Y0159013D01*
X0022808Y0159013D01*
X0023576Y0159780D01*
X0023576Y0161315D01*
X0022808Y0162082D01*
X0019739Y0160547D02*
X0021274Y0159013D01*
X0021274Y0157478D02*
X0022041Y0156711D01*
X0022041Y0154409D01*
X0022041Y0155943D02*
X0023576Y0157478D01*
X0021274Y0157478D02*
X0019739Y0157478D01*
X0018972Y0156711D01*
X0018972Y0154409D01*
X0023576Y0154409D01*
X0023911Y0150630D02*
X0024678Y0149863D01*
X0024678Y0148328D01*
X0023911Y0147561D01*
X0023911Y0146026D02*
X0020841Y0146026D01*
X0020074Y0145259D01*
X0020074Y0142957D01*
X0024678Y0142957D01*
X0024678Y0145259D01*
X0023911Y0146026D01*
X0021312Y0144444D02*
X0021312Y0141375D01*
X0020074Y0141422D02*
X0020074Y0138353D01*
X0024678Y0138353D01*
X0024678Y0141422D01*
X0022376Y0139887D02*
X0022376Y0138353D01*
X0021312Y0139073D02*
X0021312Y0137538D01*
X0020545Y0136771D01*
X0017475Y0136771D01*
X0016708Y0137538D01*
X0016708Y0139073D01*
X0017475Y0139840D01*
X0018243Y0141375D02*
X0016708Y0142909D01*
X0021312Y0142909D01*
X0020545Y0139840D02*
X0021312Y0139073D01*
X0024678Y0136818D02*
X0024678Y0133749D01*
X0020074Y0133749D01*
X0029251Y0131867D02*
X0029251Y0128798D01*
X0030018Y0128031D01*
X0031553Y0128031D01*
X0032320Y0128798D01*
X0033855Y0130333D02*
X0036924Y0130333D01*
X0036157Y0128031D02*
X0036157Y0132635D01*
X0033855Y0130333D01*
X0032320Y0131867D02*
X0031553Y0132635D01*
X0030018Y0132635D01*
X0029251Y0131867D01*
X0020841Y0147561D02*
X0020074Y0148328D01*
X0020074Y0149863D01*
X0020841Y0150630D01*
X0021609Y0150630D01*
X0022376Y0149863D01*
X0023143Y0150630D01*
X0023911Y0150630D01*
X0022376Y0149863D02*
X0022376Y0149095D01*
X0019739Y0160547D02*
X0018972Y0162082D01*
X0018719Y0075765D02*
X0020254Y0075765D01*
X0019486Y0075765D02*
X0019486Y0071928D01*
X0018719Y0071161D01*
X0017952Y0071161D01*
X0017184Y0071928D01*
X0021788Y0071161D02*
X0024857Y0071161D01*
X0023323Y0071161D02*
X0023323Y0075765D01*
X0021788Y0074230D01*
X0133670Y0224842D02*
X0136739Y0224842D01*
X0138274Y0224842D02*
X0141343Y0224842D01*
X0142878Y0224842D02*
X0145180Y0224842D01*
X0145947Y0225609D01*
X0145947Y0228678D01*
X0145180Y0229446D01*
X0142878Y0229446D01*
X0142878Y0224842D01*
X0139809Y0227144D02*
X0138274Y0227144D01*
X0138274Y0229446D02*
X0138274Y0224842D01*
X0138274Y0229446D02*
X0141343Y0229446D01*
X0147482Y0228678D02*
X0148249Y0229446D01*
X0149784Y0229446D01*
X0150551Y0228678D01*
X0150551Y0227911D01*
X0147482Y0224842D01*
X0150551Y0224842D01*
X0133670Y0224842D02*
X0133670Y0229446D01*
X0174251Y0234940D02*
X0174251Y0239544D01*
X0176553Y0239544D01*
X0177320Y0238777D01*
X0177320Y0237242D01*
X0176553Y0236475D01*
X0174251Y0236475D01*
X0175786Y0236475D02*
X0177320Y0234940D01*
X0178855Y0235707D02*
X0179622Y0234940D01*
X0181157Y0234940D01*
X0181924Y0235707D01*
X0181924Y0236475D01*
X0181157Y0237242D01*
X0180390Y0237242D01*
X0181157Y0237242D02*
X0181924Y0238009D01*
X0181924Y0238777D01*
X0181157Y0239544D01*
X0179622Y0239544D01*
X0178855Y0238777D01*
D13*
X0088959Y0192124D02*
X0088961Y0168524D01*
X0063157Y0168524D01*
X0063159Y0192124D01*
X0213539Y0151276D02*
X0213539Y0116630D01*
X0215114Y0115055D01*
X0249760Y0115055D01*
X0251335Y0116630D01*
X0251335Y0151276D01*
X0249760Y0152850D01*
X0215114Y0152850D01*
X0213539Y0151276D01*
X0152417Y0041413D02*
X0108323Y0041413D01*
X0108323Y0015823D01*
X0152417Y0015823D01*
X0152417Y0011886D01*
X0108323Y0011886D01*
X0108323Y0015823D01*
X0102358Y0015980D02*
X0102358Y0012043D01*
X0058264Y0012043D01*
X0058264Y0015980D01*
X0102358Y0015980D01*
X0102358Y0041571D01*
X0058264Y0041571D01*
X0058264Y0015980D01*
X0048913Y0010016D02*
X0048913Y0041315D01*
X0048913Y0060016D02*
X0048913Y0066315D01*
X0042614Y0066315D01*
X0021354Y0066315D02*
X0015055Y0066315D01*
X0015055Y0010016D01*
X0048913Y0010016D01*
X0152417Y0015823D02*
X0152417Y0041413D01*
D14*
X0058633Y0143494D02*
X0034233Y0143494D01*
X0034233Y0156094D01*
X0058633Y0156094D01*
X0058633Y0143494D01*
X0215576Y0149701D02*
X0215578Y0149768D01*
X0215584Y0149834D01*
X0215594Y0149900D01*
X0215608Y0149965D01*
X0215625Y0150029D01*
X0215647Y0150092D01*
X0215672Y0150154D01*
X0215701Y0150214D01*
X0215734Y0150272D01*
X0215769Y0150328D01*
X0215809Y0150382D01*
X0215851Y0150433D01*
X0215896Y0150482D01*
X0215944Y0150528D01*
X0215995Y0150571D01*
X0216048Y0150611D01*
X0216104Y0150648D01*
X0216162Y0150681D01*
X0216221Y0150711D01*
X0216282Y0150737D01*
X0216345Y0150760D01*
X0216409Y0150778D01*
X0216474Y0150793D01*
X0216540Y0150804D01*
X0216606Y0150811D01*
X0216672Y0150814D01*
X0216739Y0150813D01*
X0216805Y0150808D01*
X0216871Y0150799D01*
X0216937Y0150786D01*
X0217001Y0150769D01*
X0217064Y0150749D01*
X0217126Y0150724D01*
X0217187Y0150696D01*
X0217246Y0150665D01*
X0217302Y0150630D01*
X0217357Y0150592D01*
X0217409Y0150550D01*
X0217458Y0150505D01*
X0217505Y0150458D01*
X0217549Y0150408D01*
X0217589Y0150355D01*
X0217627Y0150300D01*
X0217661Y0150243D01*
X0217692Y0150184D01*
X0217719Y0150123D01*
X0217742Y0150061D01*
X0217762Y0149997D01*
X0217778Y0149932D01*
X0217790Y0149867D01*
X0217798Y0149801D01*
X0217802Y0149734D01*
X0217802Y0149668D01*
X0217798Y0149601D01*
X0217790Y0149535D01*
X0217778Y0149470D01*
X0217762Y0149405D01*
X0217742Y0149341D01*
X0217719Y0149279D01*
X0217692Y0149218D01*
X0217661Y0149159D01*
X0217627Y0149102D01*
X0217589Y0149047D01*
X0217549Y0148994D01*
X0217505Y0148944D01*
X0217458Y0148897D01*
X0217409Y0148852D01*
X0217357Y0148810D01*
X0217302Y0148772D01*
X0217245Y0148737D01*
X0217187Y0148706D01*
X0217126Y0148678D01*
X0217064Y0148653D01*
X0217001Y0148633D01*
X0216937Y0148616D01*
X0216871Y0148603D01*
X0216805Y0148594D01*
X0216739Y0148589D01*
X0216672Y0148588D01*
X0216606Y0148591D01*
X0216540Y0148598D01*
X0216474Y0148609D01*
X0216409Y0148624D01*
X0216345Y0148642D01*
X0216282Y0148665D01*
X0216221Y0148691D01*
X0216162Y0148721D01*
X0216104Y0148754D01*
X0216048Y0148791D01*
X0215995Y0148831D01*
X0215944Y0148874D01*
X0215896Y0148920D01*
X0215851Y0148969D01*
X0215809Y0149020D01*
X0215769Y0149074D01*
X0215734Y0149130D01*
X0215701Y0149188D01*
X0215672Y0149248D01*
X0215647Y0149310D01*
X0215625Y0149373D01*
X0215608Y0149437D01*
X0215594Y0149502D01*
X0215584Y0149568D01*
X0215578Y0149634D01*
X0215576Y0149701D01*
D15*
X0217737Y0161753D02*
X0219872Y0161753D01*
X0218805Y0161753D02*
X0218805Y0168158D01*
X0219872Y0168158D02*
X0217737Y0168158D01*
X0222034Y0167091D02*
X0222034Y0162820D01*
X0223102Y0161753D01*
X0225237Y0161753D01*
X0226304Y0162820D01*
X0228480Y0161753D02*
X0232750Y0161753D01*
X0230615Y0161753D02*
X0230615Y0168158D01*
X0228480Y0166023D01*
X0226304Y0167091D02*
X0225237Y0168158D01*
X0223102Y0168158D01*
X0222034Y0167091D01*
X0192378Y0198028D02*
X0187378Y0198028D01*
X0184878Y0200528D01*
X0182378Y0198028D01*
X0177378Y0198028D01*
X0174878Y0200528D01*
X0172378Y0198028D01*
X0167378Y0198028D01*
X0164878Y0200528D01*
X0164878Y0215528D01*
X0167378Y0218028D01*
X0172378Y0218028D01*
X0174878Y0215528D01*
X0177378Y0218028D01*
X0182378Y0218028D01*
X0184878Y0215528D01*
X0187378Y0218028D01*
X0192378Y0218028D01*
X0194878Y0215528D01*
X0194878Y0200528D01*
X0192378Y0198028D01*
X0212220Y0227161D02*
X0209720Y0229661D01*
X0209720Y0234661D01*
X0212220Y0237161D01*
X0217220Y0237161D01*
X0219720Y0234661D01*
X0222220Y0237161D01*
X0227220Y0237161D01*
X0229720Y0234661D01*
X0232220Y0237161D01*
X0237220Y0237161D01*
X0239720Y0234661D01*
X0242220Y0237161D01*
X0247220Y0237161D01*
X0249720Y0234661D01*
X0249720Y0229661D01*
X0247220Y0227161D01*
X0242220Y0227161D01*
X0239720Y0229661D01*
X0237220Y0227161D01*
X0232220Y0227161D01*
X0229720Y0229661D01*
X0227220Y0227161D01*
X0222220Y0227161D01*
X0219720Y0229661D01*
X0217220Y0227161D01*
X0212220Y0227161D01*
X0301157Y0229287D02*
X0301157Y0224287D01*
X0303657Y0221787D01*
X0301157Y0219287D01*
X0301157Y0214287D01*
X0303657Y0211787D01*
X0301157Y0209287D01*
X0301157Y0204287D01*
X0303657Y0201787D01*
X0301157Y0199287D01*
X0301157Y0194287D01*
X0303657Y0191787D01*
X0301157Y0189287D01*
X0301157Y0184287D01*
X0303657Y0181787D01*
X0301157Y0179287D01*
X0301157Y0174287D01*
X0303657Y0171787D01*
X0301157Y0169287D01*
X0301157Y0164287D01*
X0303657Y0161787D01*
X0301157Y0159287D01*
X0301157Y0154287D01*
X0303657Y0151787D01*
X0308657Y0151787D01*
X0311157Y0154287D01*
X0311157Y0159287D01*
X0308657Y0161787D01*
X0311157Y0164287D01*
X0311157Y0169287D01*
X0308657Y0171787D01*
X0311157Y0174287D01*
X0311157Y0179287D01*
X0308657Y0181787D01*
X0311157Y0184287D01*
X0311157Y0189287D01*
X0308657Y0191787D01*
X0311157Y0194287D01*
X0311157Y0199287D01*
X0308657Y0201787D01*
X0311157Y0204287D01*
X0311157Y0209287D01*
X0308657Y0211787D01*
X0311157Y0214287D01*
X0311157Y0219287D01*
X0308657Y0221787D01*
X0311157Y0224287D01*
X0311157Y0229287D01*
X0308657Y0231787D01*
X0303657Y0231787D01*
X0301157Y0229287D01*
X0303697Y0150449D02*
X0308697Y0150449D01*
X0311197Y0147949D01*
X0311197Y0142949D01*
X0308697Y0140449D01*
X0311197Y0137949D01*
X0311197Y0132949D01*
X0308697Y0130449D01*
X0311197Y0127949D01*
X0311197Y0122949D01*
X0308697Y0120449D01*
X0311197Y0117949D01*
X0311197Y0112949D01*
X0308697Y0110449D01*
X0311197Y0107949D01*
X0311197Y0102949D01*
X0308697Y0100449D01*
X0311197Y0097949D01*
X0311197Y0092949D01*
X0308697Y0090449D01*
X0311197Y0087949D01*
X0311197Y0082949D01*
X0308697Y0080449D01*
X0311197Y0077949D01*
X0311197Y0072949D01*
X0308697Y0070449D01*
X0303697Y0070449D01*
X0301197Y0072949D01*
X0301197Y0077949D01*
X0303697Y0080449D01*
X0301197Y0082949D01*
X0301197Y0087949D01*
X0303697Y0090449D01*
X0301197Y0092949D01*
X0301197Y0097949D01*
X0303697Y0100449D01*
X0301197Y0102949D01*
X0301197Y0107949D01*
X0303697Y0110449D01*
X0301197Y0112949D01*
X0301197Y0117949D01*
X0303697Y0120449D01*
X0301197Y0122949D01*
X0301197Y0127949D01*
X0303697Y0130449D01*
X0301197Y0132949D01*
X0301197Y0137949D01*
X0303697Y0140449D01*
X0301197Y0142949D01*
X0301197Y0147949D01*
X0303697Y0150449D01*
X0155429Y0140941D02*
X0155429Y0135941D01*
X0152929Y0133441D01*
X0155429Y0130941D01*
X0155429Y0125941D01*
X0152929Y0123441D01*
X0155429Y0120941D01*
X0155429Y0115941D01*
X0152929Y0113441D01*
X0155429Y0110941D01*
X0155429Y0105941D01*
X0152929Y0103441D01*
X0155429Y0100941D01*
X0155429Y0095941D01*
X0152929Y0093441D01*
X0155429Y0090941D01*
X0155429Y0085941D01*
X0152929Y0083441D01*
X0155429Y0080941D01*
X0155429Y0075941D01*
X0152929Y0073441D01*
X0147929Y0073441D01*
X0145429Y0075941D01*
X0145429Y0080941D01*
X0147929Y0083441D01*
X0145429Y0085941D01*
X0145429Y0090941D01*
X0147929Y0093441D01*
X0145429Y0095941D01*
X0145429Y0100941D01*
X0147929Y0103441D01*
X0145429Y0105941D01*
X0145429Y0110941D01*
X0147929Y0113441D01*
X0145429Y0115941D01*
X0145429Y0120941D01*
X0147929Y0123441D01*
X0145429Y0125941D01*
X0145429Y0130941D01*
X0147929Y0133441D01*
X0145429Y0135941D01*
X0145429Y0140941D01*
X0147929Y0143441D01*
X0152929Y0143441D01*
X0155429Y0140941D01*
X0100731Y0139874D02*
X0100731Y0138774D01*
X0100731Y0139874D02*
X0069931Y0139874D01*
X0069931Y0138774D01*
X0037657Y0111898D02*
X0036657Y0111898D01*
X0036657Y0112898D01*
X0030657Y0112898D01*
X0030657Y0111898D01*
X0029657Y0111898D01*
X0021657Y0108398D02*
X0021657Y0104898D01*
X0021657Y0094898D01*
X0021657Y0091398D01*
X0029657Y0087898D02*
X0030657Y0087898D01*
X0030657Y0086898D01*
X0036657Y0086898D01*
X0036657Y0087898D01*
X0037657Y0087898D01*
X0045657Y0091398D02*
X0045657Y0094898D01*
X0045657Y0104398D01*
X0045657Y0108398D01*
X0032657Y0099898D02*
X0032659Y0099961D01*
X0032665Y0100023D01*
X0032675Y0100085D01*
X0032688Y0100147D01*
X0032706Y0100207D01*
X0032727Y0100266D01*
X0032752Y0100324D01*
X0032781Y0100380D01*
X0032813Y0100434D01*
X0032848Y0100486D01*
X0032886Y0100535D01*
X0032928Y0100583D01*
X0032972Y0100627D01*
X0033020Y0100669D01*
X0033069Y0100707D01*
X0033121Y0100742D01*
X0033175Y0100774D01*
X0033231Y0100803D01*
X0033289Y0100828D01*
X0033348Y0100849D01*
X0033408Y0100867D01*
X0033470Y0100880D01*
X0033532Y0100890D01*
X0033594Y0100896D01*
X0033657Y0100898D01*
X0033720Y0100896D01*
X0033782Y0100890D01*
X0033844Y0100880D01*
X0033906Y0100867D01*
X0033966Y0100849D01*
X0034025Y0100828D01*
X0034083Y0100803D01*
X0034139Y0100774D01*
X0034193Y0100742D01*
X0034245Y0100707D01*
X0034294Y0100669D01*
X0034342Y0100627D01*
X0034386Y0100583D01*
X0034428Y0100535D01*
X0034466Y0100486D01*
X0034501Y0100434D01*
X0034533Y0100380D01*
X0034562Y0100324D01*
X0034587Y0100266D01*
X0034608Y0100207D01*
X0034626Y0100147D01*
X0034639Y0100085D01*
X0034649Y0100023D01*
X0034655Y0099961D01*
X0034657Y0099898D01*
X0034655Y0099835D01*
X0034649Y0099773D01*
X0034639Y0099711D01*
X0034626Y0099649D01*
X0034608Y0099589D01*
X0034587Y0099530D01*
X0034562Y0099472D01*
X0034533Y0099416D01*
X0034501Y0099362D01*
X0034466Y0099310D01*
X0034428Y0099261D01*
X0034386Y0099213D01*
X0034342Y0099169D01*
X0034294Y0099127D01*
X0034245Y0099089D01*
X0034193Y0099054D01*
X0034139Y0099022D01*
X0034083Y0098993D01*
X0034025Y0098968D01*
X0033966Y0098947D01*
X0033906Y0098929D01*
X0033844Y0098916D01*
X0033782Y0098906D01*
X0033720Y0098900D01*
X0033657Y0098898D01*
X0033594Y0098900D01*
X0033532Y0098906D01*
X0033470Y0098916D01*
X0033408Y0098929D01*
X0033348Y0098947D01*
X0033289Y0098968D01*
X0033231Y0098993D01*
X0033175Y0099022D01*
X0033121Y0099054D01*
X0033069Y0099089D01*
X0033020Y0099127D01*
X0032972Y0099169D01*
X0032928Y0099213D01*
X0032886Y0099261D01*
X0032848Y0099310D01*
X0032813Y0099362D01*
X0032781Y0099416D01*
X0032752Y0099472D01*
X0032727Y0099530D01*
X0032706Y0099589D01*
X0032688Y0099649D01*
X0032675Y0099711D01*
X0032665Y0099773D01*
X0032659Y0099835D01*
X0032657Y0099898D01*
X0026657Y0099898D02*
X0026659Y0100070D01*
X0026665Y0100241D01*
X0026676Y0100413D01*
X0026691Y0100584D01*
X0026710Y0100755D01*
X0026733Y0100925D01*
X0026760Y0101095D01*
X0026792Y0101264D01*
X0026827Y0101432D01*
X0026867Y0101599D01*
X0026911Y0101765D01*
X0026958Y0101930D01*
X0027010Y0102094D01*
X0027066Y0102256D01*
X0027126Y0102417D01*
X0027190Y0102577D01*
X0027258Y0102735D01*
X0027329Y0102891D01*
X0027404Y0103045D01*
X0027484Y0103198D01*
X0027566Y0103348D01*
X0027653Y0103497D01*
X0027743Y0103643D01*
X0027837Y0103787D01*
X0027934Y0103929D01*
X0028035Y0104068D01*
X0028139Y0104205D01*
X0028246Y0104339D01*
X0028357Y0104470D01*
X0028470Y0104599D01*
X0028587Y0104725D01*
X0028707Y0104848D01*
X0028830Y0104968D01*
X0028956Y0105085D01*
X0029085Y0105198D01*
X0029216Y0105309D01*
X0029350Y0105416D01*
X0029487Y0105520D01*
X0029626Y0105621D01*
X0029768Y0105718D01*
X0029912Y0105812D01*
X0030058Y0105902D01*
X0030207Y0105989D01*
X0030357Y0106071D01*
X0030510Y0106151D01*
X0030664Y0106226D01*
X0030820Y0106297D01*
X0030978Y0106365D01*
X0031138Y0106429D01*
X0031299Y0106489D01*
X0031461Y0106545D01*
X0031625Y0106597D01*
X0031790Y0106644D01*
X0031956Y0106688D01*
X0032123Y0106728D01*
X0032291Y0106763D01*
X0032460Y0106795D01*
X0032630Y0106822D01*
X0032800Y0106845D01*
X0032971Y0106864D01*
X0033142Y0106879D01*
X0033314Y0106890D01*
X0033485Y0106896D01*
X0033657Y0106898D01*
X0033829Y0106896D01*
X0034000Y0106890D01*
X0034172Y0106879D01*
X0034343Y0106864D01*
X0034514Y0106845D01*
X0034684Y0106822D01*
X0034854Y0106795D01*
X0035023Y0106763D01*
X0035191Y0106728D01*
X0035358Y0106688D01*
X0035524Y0106644D01*
X0035689Y0106597D01*
X0035853Y0106545D01*
X0036015Y0106489D01*
X0036176Y0106429D01*
X0036336Y0106365D01*
X0036494Y0106297D01*
X0036650Y0106226D01*
X0036804Y0106151D01*
X0036957Y0106071D01*
X0037107Y0105989D01*
X0037256Y0105902D01*
X0037402Y0105812D01*
X0037546Y0105718D01*
X0037688Y0105621D01*
X0037827Y0105520D01*
X0037964Y0105416D01*
X0038098Y0105309D01*
X0038229Y0105198D01*
X0038358Y0105085D01*
X0038484Y0104968D01*
X0038607Y0104848D01*
X0038727Y0104725D01*
X0038844Y0104599D01*
X0038957Y0104470D01*
X0039068Y0104339D01*
X0039175Y0104205D01*
X0039279Y0104068D01*
X0039380Y0103929D01*
X0039477Y0103787D01*
X0039571Y0103643D01*
X0039661Y0103497D01*
X0039748Y0103348D01*
X0039830Y0103198D01*
X0039910Y0103045D01*
X0039985Y0102891D01*
X0040056Y0102735D01*
X0040124Y0102577D01*
X0040188Y0102417D01*
X0040248Y0102256D01*
X0040304Y0102094D01*
X0040356Y0101930D01*
X0040403Y0101765D01*
X0040447Y0101599D01*
X0040487Y0101432D01*
X0040522Y0101264D01*
X0040554Y0101095D01*
X0040581Y0100925D01*
X0040604Y0100755D01*
X0040623Y0100584D01*
X0040638Y0100413D01*
X0040649Y0100241D01*
X0040655Y0100070D01*
X0040657Y0099898D01*
X0040655Y0099726D01*
X0040649Y0099555D01*
X0040638Y0099383D01*
X0040623Y0099212D01*
X0040604Y0099041D01*
X0040581Y0098871D01*
X0040554Y0098701D01*
X0040522Y0098532D01*
X0040487Y0098364D01*
X0040447Y0098197D01*
X0040403Y0098031D01*
X0040356Y0097866D01*
X0040304Y0097702D01*
X0040248Y0097540D01*
X0040188Y0097379D01*
X0040124Y0097219D01*
X0040056Y0097061D01*
X0039985Y0096905D01*
X0039910Y0096751D01*
X0039830Y0096598D01*
X0039748Y0096448D01*
X0039661Y0096299D01*
X0039571Y0096153D01*
X0039477Y0096009D01*
X0039380Y0095867D01*
X0039279Y0095728D01*
X0039175Y0095591D01*
X0039068Y0095457D01*
X0038957Y0095326D01*
X0038844Y0095197D01*
X0038727Y0095071D01*
X0038607Y0094948D01*
X0038484Y0094828D01*
X0038358Y0094711D01*
X0038229Y0094598D01*
X0038098Y0094487D01*
X0037964Y0094380D01*
X0037827Y0094276D01*
X0037688Y0094175D01*
X0037546Y0094078D01*
X0037402Y0093984D01*
X0037256Y0093894D01*
X0037107Y0093807D01*
X0036957Y0093725D01*
X0036804Y0093645D01*
X0036650Y0093570D01*
X0036494Y0093499D01*
X0036336Y0093431D01*
X0036176Y0093367D01*
X0036015Y0093307D01*
X0035853Y0093251D01*
X0035689Y0093199D01*
X0035524Y0093152D01*
X0035358Y0093108D01*
X0035191Y0093068D01*
X0035023Y0093033D01*
X0034854Y0093001D01*
X0034684Y0092974D01*
X0034514Y0092951D01*
X0034343Y0092932D01*
X0034172Y0092917D01*
X0034000Y0092906D01*
X0033829Y0092900D01*
X0033657Y0092898D01*
X0033485Y0092900D01*
X0033314Y0092906D01*
X0033142Y0092917D01*
X0032971Y0092932D01*
X0032800Y0092951D01*
X0032630Y0092974D01*
X0032460Y0093001D01*
X0032291Y0093033D01*
X0032123Y0093068D01*
X0031956Y0093108D01*
X0031790Y0093152D01*
X0031625Y0093199D01*
X0031461Y0093251D01*
X0031299Y0093307D01*
X0031138Y0093367D01*
X0030978Y0093431D01*
X0030820Y0093499D01*
X0030664Y0093570D01*
X0030510Y0093645D01*
X0030357Y0093725D01*
X0030207Y0093807D01*
X0030058Y0093894D01*
X0029912Y0093984D01*
X0029768Y0094078D01*
X0029626Y0094175D01*
X0029487Y0094276D01*
X0029350Y0094380D01*
X0029216Y0094487D01*
X0029085Y0094598D01*
X0028956Y0094711D01*
X0028830Y0094828D01*
X0028707Y0094948D01*
X0028587Y0095071D01*
X0028470Y0095197D01*
X0028357Y0095326D01*
X0028246Y0095457D01*
X0028139Y0095591D01*
X0028035Y0095728D01*
X0027934Y0095867D01*
X0027837Y0096009D01*
X0027743Y0096153D01*
X0027653Y0096299D01*
X0027566Y0096448D01*
X0027484Y0096598D01*
X0027404Y0096751D01*
X0027329Y0096905D01*
X0027258Y0097061D01*
X0027190Y0097219D01*
X0027126Y0097379D01*
X0027066Y0097540D01*
X0027010Y0097702D01*
X0026958Y0097866D01*
X0026911Y0098031D01*
X0026867Y0098197D01*
X0026827Y0098364D01*
X0026792Y0098532D01*
X0026760Y0098701D01*
X0026733Y0098871D01*
X0026710Y0099041D01*
X0026691Y0099212D01*
X0026676Y0099383D01*
X0026665Y0099555D01*
X0026659Y0099726D01*
X0026657Y0099898D01*
X0069931Y0088974D02*
X0069931Y0087874D01*
X0100731Y0087874D01*
X0100731Y0088974D01*
D16*
X0076059Y0166624D03*
D17*
X0049091Y0207614D03*
X0046138Y0207614D03*
X0018854Y0148874D03*
X0015902Y0148874D03*
D18*
X0017378Y0148874D03*
X0047614Y0207614D03*
X0148795Y0232142D03*
D19*
X0148795Y0233618D03*
X0148795Y0230665D03*
D20*
X0165128Y0223531D02*
X0165128Y0222780D01*
X0165879Y0222029D01*
X0167380Y0222029D01*
X0168131Y0221279D01*
X0168131Y0220528D01*
X0167380Y0219778D01*
X0165879Y0219778D01*
X0165128Y0220528D01*
X0169732Y0221279D02*
X0171233Y0219778D01*
X0172734Y0221279D01*
X0172734Y0224281D01*
X0174336Y0222780D02*
X0175837Y0224281D01*
X0175837Y0219778D01*
X0174336Y0219778D02*
X0177338Y0219778D01*
X0169732Y0221279D02*
X0169732Y0224281D01*
X0168131Y0223531D02*
X0167380Y0224281D01*
X0165879Y0224281D01*
X0165128Y0223531D01*
X0196128Y0213029D02*
X0198380Y0213029D01*
X0199131Y0212279D01*
X0199131Y0211528D01*
X0198380Y0210778D01*
X0196879Y0210778D01*
X0196128Y0211528D01*
X0196128Y0213029D01*
X0197629Y0214531D01*
X0199131Y0215281D01*
X0206618Y0229911D02*
X0206618Y0234415D01*
X0204367Y0232163D01*
X0207369Y0232163D01*
X0236159Y0224665D02*
X0236159Y0223914D01*
X0236909Y0223163D01*
X0238411Y0223163D01*
X0239161Y0222413D01*
X0239161Y0221662D01*
X0238411Y0220911D01*
X0236909Y0220911D01*
X0236159Y0221662D01*
X0236159Y0224665D02*
X0236909Y0225415D01*
X0238411Y0225415D01*
X0239161Y0224665D01*
X0240763Y0225415D02*
X0240763Y0222413D01*
X0242264Y0220911D01*
X0243765Y0222413D01*
X0243765Y0225415D01*
X0245367Y0224665D02*
X0246117Y0225415D01*
X0247618Y0225415D01*
X0248369Y0224665D01*
X0248369Y0223914D01*
X0247618Y0223163D01*
X0248369Y0222413D01*
X0248369Y0221662D01*
X0247618Y0220911D01*
X0246117Y0220911D01*
X0245367Y0221662D01*
X0246868Y0223163D02*
X0247618Y0223163D01*
X0249867Y0229911D02*
X0252869Y0229911D01*
X0251368Y0229911D02*
X0251368Y0234415D01*
X0249867Y0232914D01*
X0294904Y0225935D02*
X0299407Y0225935D01*
X0299407Y0227436D02*
X0299407Y0224433D01*
X0296405Y0224433D02*
X0294904Y0225935D01*
X0312904Y0225832D02*
X0315906Y0225832D01*
X0317407Y0224331D01*
X0315906Y0222830D01*
X0312904Y0222830D01*
X0313654Y0221228D02*
X0312904Y0220478D01*
X0312904Y0218976D01*
X0313654Y0218226D01*
X0314405Y0218226D01*
X0315156Y0218976D01*
X0315156Y0220478D01*
X0315906Y0221228D01*
X0316657Y0221228D01*
X0317407Y0220478D01*
X0317407Y0218976D01*
X0316657Y0218226D01*
X0317407Y0227433D02*
X0314405Y0230436D01*
X0313654Y0230436D01*
X0312904Y0229685D01*
X0312904Y0228184D01*
X0313654Y0227433D01*
X0317407Y0227433D02*
X0317407Y0230436D01*
X0316657Y0157936D02*
X0317407Y0157185D01*
X0317407Y0155684D01*
X0316657Y0154933D01*
X0315906Y0154933D01*
X0315156Y0155684D01*
X0315156Y0157185D01*
X0315906Y0157936D01*
X0316657Y0157936D01*
X0315156Y0157185D02*
X0314405Y0157936D01*
X0313654Y0157936D01*
X0312904Y0157185D01*
X0312904Y0155684D01*
X0313654Y0154933D01*
X0314405Y0154933D01*
X0315156Y0155684D01*
X0299447Y0145451D02*
X0299447Y0143949D01*
X0298696Y0143199D01*
X0297946Y0143199D01*
X0297195Y0143949D01*
X0297195Y0145451D01*
X0297946Y0146201D01*
X0298696Y0146201D01*
X0299447Y0145451D01*
X0297195Y0145451D02*
X0296444Y0146201D01*
X0295694Y0146201D01*
X0294943Y0145451D01*
X0294943Y0143949D01*
X0295694Y0143199D01*
X0296444Y0143199D01*
X0297195Y0143949D01*
X0297195Y0082909D02*
X0297195Y0079907D01*
X0294943Y0082159D01*
X0299447Y0082159D01*
X0297946Y0078305D02*
X0294943Y0078305D01*
X0294943Y0075303D02*
X0297946Y0075303D01*
X0299447Y0076804D01*
X0297946Y0078305D01*
X0297946Y0073701D02*
X0298696Y0073701D01*
X0299447Y0072951D01*
X0299447Y0071449D01*
X0298696Y0070699D01*
X0297195Y0071449D02*
X0297195Y0072951D01*
X0297946Y0073701D01*
X0295694Y0073701D02*
X0294943Y0072951D01*
X0294943Y0071449D01*
X0295694Y0070699D01*
X0296444Y0070699D01*
X0297195Y0071449D01*
X0312943Y0075200D02*
X0314444Y0073699D01*
X0312943Y0075200D02*
X0317447Y0075200D01*
X0317447Y0073699D02*
X0317447Y0076701D01*
X0265311Y0049000D02*
X0257811Y0049000D01*
X0257811Y0045500D01*
X0251811Y0045500D01*
X0251811Y0049000D01*
X0202811Y0049000D01*
X0202811Y0008000D01*
X0251811Y0008000D01*
X0251811Y0011500D01*
X0257811Y0011500D01*
X0257811Y0008000D01*
X0265311Y0008000D01*
X0265311Y0049000D01*
X0243595Y0033083D02*
X0242461Y0034217D01*
X0242461Y0033650D01*
X0241894Y0033650D01*
X0241894Y0034217D01*
X0242461Y0034217D01*
X0241894Y0035477D02*
X0242461Y0036044D01*
X0242461Y0037178D01*
X0241894Y0037745D01*
X0240760Y0037745D01*
X0240192Y0037178D01*
X0240192Y0036611D01*
X0240760Y0035477D01*
X0239058Y0035477D01*
X0239058Y0037745D01*
X0240192Y0039068D02*
X0240192Y0039635D01*
X0240760Y0040202D01*
X0240192Y0040769D01*
X0240760Y0041336D01*
X0242461Y0041336D01*
X0242461Y0040202D02*
X0240760Y0040202D01*
X0240192Y0039068D02*
X0242461Y0039068D01*
X0242461Y0042659D02*
X0240192Y0042659D01*
X0240192Y0043226D01*
X0240760Y0043793D01*
X0240192Y0044360D01*
X0240760Y0044928D01*
X0242461Y0044928D01*
X0242461Y0043793D02*
X0240760Y0043793D01*
X0239625Y0031760D02*
X0239058Y0031760D01*
X0239058Y0029492D01*
X0239625Y0031760D02*
X0241894Y0029492D01*
X0242461Y0029492D01*
X0242461Y0028169D02*
X0242461Y0025901D01*
X0242461Y0027035D02*
X0239058Y0027035D01*
X0240192Y0025901D01*
X0240192Y0024578D02*
X0239058Y0023444D01*
X0240192Y0022310D01*
X0242461Y0022310D01*
X0240760Y0022310D02*
X0240760Y0024578D01*
X0240192Y0024578D02*
X0242461Y0024578D01*
X0244711Y0028500D02*
X0244713Y0028674D01*
X0244720Y0028848D01*
X0244730Y0029022D01*
X0244745Y0029196D01*
X0244764Y0029369D01*
X0244788Y0029542D01*
X0244816Y0029714D01*
X0244847Y0029885D01*
X0244884Y0030056D01*
X0244924Y0030225D01*
X0244968Y0030394D01*
X0245017Y0030561D01*
X0245069Y0030727D01*
X0245126Y0030892D01*
X0245187Y0031055D01*
X0245251Y0031217D01*
X0245320Y0031377D01*
X0245393Y0031536D01*
X0245469Y0031692D01*
X0245549Y0031847D01*
X0245633Y0032000D01*
X0245721Y0032150D01*
X0245813Y0032298D01*
X0245908Y0032445D01*
X0246006Y0032588D01*
X0246108Y0032729D01*
X0246214Y0032868D01*
X0246323Y0033004D01*
X0246435Y0033138D01*
X0246550Y0033268D01*
X0246669Y0033396D01*
X0246791Y0033520D01*
X0246915Y0033642D01*
X0247043Y0033761D01*
X0247173Y0033876D01*
X0247307Y0033988D01*
X0247443Y0034097D01*
X0247582Y0034203D01*
X0247723Y0034305D01*
X0247866Y0034403D01*
X0248013Y0034498D01*
X0248161Y0034590D01*
X0248311Y0034678D01*
X0248464Y0034762D01*
X0248619Y0034842D01*
X0248775Y0034918D01*
X0248934Y0034991D01*
X0249094Y0035060D01*
X0249256Y0035124D01*
X0249419Y0035185D01*
X0249584Y0035242D01*
X0249750Y0035294D01*
X0249917Y0035343D01*
X0250086Y0035387D01*
X0250255Y0035427D01*
X0250426Y0035464D01*
X0250597Y0035495D01*
X0250769Y0035523D01*
X0250942Y0035547D01*
X0251115Y0035566D01*
X0251289Y0035581D01*
X0251463Y0035591D01*
X0251637Y0035598D01*
X0251811Y0035600D01*
X0251985Y0035598D01*
X0252159Y0035591D01*
X0252333Y0035581D01*
X0252507Y0035566D01*
X0252680Y0035547D01*
X0252853Y0035523D01*
X0253025Y0035495D01*
X0253196Y0035464D01*
X0253367Y0035427D01*
X0253536Y0035387D01*
X0253705Y0035343D01*
X0253872Y0035294D01*
X0254038Y0035242D01*
X0254203Y0035185D01*
X0254366Y0035124D01*
X0254528Y0035060D01*
X0254688Y0034991D01*
X0254847Y0034918D01*
X0255003Y0034842D01*
X0255158Y0034762D01*
X0255311Y0034678D01*
X0255461Y0034590D01*
X0255609Y0034498D01*
X0255756Y0034403D01*
X0255899Y0034305D01*
X0256040Y0034203D01*
X0256179Y0034097D01*
X0256315Y0033988D01*
X0256449Y0033876D01*
X0256579Y0033761D01*
X0256707Y0033642D01*
X0256831Y0033520D01*
X0256953Y0033396D01*
X0257072Y0033268D01*
X0257187Y0033138D01*
X0257299Y0033004D01*
X0257408Y0032868D01*
X0257514Y0032729D01*
X0257616Y0032588D01*
X0257714Y0032445D01*
X0257809Y0032298D01*
X0257901Y0032150D01*
X0257989Y0032000D01*
X0258073Y0031847D01*
X0258153Y0031692D01*
X0258229Y0031536D01*
X0258302Y0031377D01*
X0258371Y0031217D01*
X0258435Y0031055D01*
X0258496Y0030892D01*
X0258553Y0030727D01*
X0258605Y0030561D01*
X0258654Y0030394D01*
X0258698Y0030225D01*
X0258738Y0030056D01*
X0258775Y0029885D01*
X0258806Y0029714D01*
X0258834Y0029542D01*
X0258858Y0029369D01*
X0258877Y0029196D01*
X0258892Y0029022D01*
X0258902Y0028848D01*
X0258909Y0028674D01*
X0258911Y0028500D01*
X0258909Y0028326D01*
X0258902Y0028152D01*
X0258892Y0027978D01*
X0258877Y0027804D01*
X0258858Y0027631D01*
X0258834Y0027458D01*
X0258806Y0027286D01*
X0258775Y0027115D01*
X0258738Y0026944D01*
X0258698Y0026775D01*
X0258654Y0026606D01*
X0258605Y0026439D01*
X0258553Y0026273D01*
X0258496Y0026108D01*
X0258435Y0025945D01*
X0258371Y0025783D01*
X0258302Y0025623D01*
X0258229Y0025464D01*
X0258153Y0025308D01*
X0258073Y0025153D01*
X0257989Y0025000D01*
X0257901Y0024850D01*
X0257809Y0024702D01*
X0257714Y0024555D01*
X0257616Y0024412D01*
X0257514Y0024271D01*
X0257408Y0024132D01*
X0257299Y0023996D01*
X0257187Y0023862D01*
X0257072Y0023732D01*
X0256953Y0023604D01*
X0256831Y0023480D01*
X0256707Y0023358D01*
X0256579Y0023239D01*
X0256449Y0023124D01*
X0256315Y0023012D01*
X0256179Y0022903D01*
X0256040Y0022797D01*
X0255899Y0022695D01*
X0255756Y0022597D01*
X0255609Y0022502D01*
X0255461Y0022410D01*
X0255311Y0022322D01*
X0255158Y0022238D01*
X0255003Y0022158D01*
X0254847Y0022082D01*
X0254688Y0022009D01*
X0254528Y0021940D01*
X0254366Y0021876D01*
X0254203Y0021815D01*
X0254038Y0021758D01*
X0253872Y0021706D01*
X0253705Y0021657D01*
X0253536Y0021613D01*
X0253367Y0021573D01*
X0253196Y0021536D01*
X0253025Y0021505D01*
X0252853Y0021477D01*
X0252680Y0021453D01*
X0252507Y0021434D01*
X0252333Y0021419D01*
X0252159Y0021409D01*
X0251985Y0021402D01*
X0251811Y0021400D01*
X0251637Y0021402D01*
X0251463Y0021409D01*
X0251289Y0021419D01*
X0251115Y0021434D01*
X0250942Y0021453D01*
X0250769Y0021477D01*
X0250597Y0021505D01*
X0250426Y0021536D01*
X0250255Y0021573D01*
X0250086Y0021613D01*
X0249917Y0021657D01*
X0249750Y0021706D01*
X0249584Y0021758D01*
X0249419Y0021815D01*
X0249256Y0021876D01*
X0249094Y0021940D01*
X0248934Y0022009D01*
X0248775Y0022082D01*
X0248619Y0022158D01*
X0248464Y0022238D01*
X0248311Y0022322D01*
X0248161Y0022410D01*
X0248013Y0022502D01*
X0247866Y0022597D01*
X0247723Y0022695D01*
X0247582Y0022797D01*
X0247443Y0022903D01*
X0247307Y0023012D01*
X0247173Y0023124D01*
X0247043Y0023239D01*
X0246915Y0023358D01*
X0246791Y0023480D01*
X0246669Y0023604D01*
X0246550Y0023732D01*
X0246435Y0023862D01*
X0246323Y0023996D01*
X0246214Y0024132D01*
X0246108Y0024271D01*
X0246006Y0024412D01*
X0245908Y0024555D01*
X0245813Y0024702D01*
X0245721Y0024850D01*
X0245633Y0025000D01*
X0245549Y0025153D01*
X0245469Y0025308D01*
X0245393Y0025464D01*
X0245320Y0025623D01*
X0245251Y0025783D01*
X0245187Y0025945D01*
X0245126Y0026108D01*
X0245069Y0026273D01*
X0245017Y0026439D01*
X0244968Y0026606D01*
X0244924Y0026775D01*
X0244884Y0026944D01*
X0244847Y0027115D01*
X0244816Y0027286D01*
X0244788Y0027458D01*
X0244764Y0027631D01*
X0244745Y0027804D01*
X0244730Y0027978D01*
X0244720Y0028152D01*
X0244713Y0028326D01*
X0244711Y0028500D01*
X0161679Y0075587D02*
X0160928Y0075587D01*
X0157926Y0078590D01*
X0157175Y0078590D01*
X0157175Y0075587D01*
X0149877Y0037030D02*
X0150193Y0036713D01*
X0150193Y0036079D01*
X0149877Y0035762D01*
X0148926Y0035762D01*
X0149560Y0035762D02*
X0150193Y0035128D01*
X0148926Y0035128D02*
X0148926Y0037030D01*
X0149877Y0037030D01*
X0147984Y0036713D02*
X0147667Y0037030D01*
X0147033Y0037030D01*
X0146716Y0036713D01*
X0146716Y0035445D01*
X0147033Y0035128D01*
X0147667Y0035128D01*
X0147984Y0035445D01*
X0147984Y0036713D01*
X0145774Y0037030D02*
X0144506Y0037030D01*
X0145140Y0037030D02*
X0145140Y0035128D01*
X0143564Y0035445D02*
X0143247Y0035128D01*
X0142613Y0035128D01*
X0142296Y0035445D01*
X0142296Y0036713D01*
X0142613Y0037030D01*
X0143247Y0037030D01*
X0143564Y0036713D01*
X0141354Y0037030D02*
X0140086Y0037030D01*
X0140086Y0035128D01*
X0141354Y0035128D01*
X0140720Y0036079D02*
X0140086Y0036079D01*
X0139144Y0035128D02*
X0139144Y0037030D01*
X0137876Y0037030D02*
X0139144Y0035128D01*
X0137876Y0035128D02*
X0137876Y0037030D01*
X0136934Y0037030D02*
X0136934Y0035128D01*
X0135666Y0037030D01*
X0135666Y0035128D01*
X0134724Y0035445D02*
X0134724Y0036713D01*
X0134407Y0037030D01*
X0133774Y0037030D01*
X0133457Y0036713D01*
X0133457Y0035445D01*
X0133774Y0035128D01*
X0134407Y0035128D01*
X0134724Y0035445D01*
X0132514Y0035445D02*
X0132198Y0035128D01*
X0131564Y0035128D01*
X0131247Y0035445D01*
X0131247Y0036713D01*
X0131564Y0037030D01*
X0132198Y0037030D01*
X0132514Y0036713D01*
X0130305Y0034811D02*
X0129037Y0034811D01*
X0128095Y0035128D02*
X0127461Y0035762D01*
X0127778Y0035762D02*
X0126827Y0035762D01*
X0126827Y0035128D02*
X0126827Y0037030D01*
X0127778Y0037030D01*
X0128095Y0036713D01*
X0128095Y0036079D01*
X0127778Y0035762D01*
X0125885Y0035128D02*
X0124617Y0035128D01*
X0124617Y0037030D01*
X0125885Y0037030D01*
X0125251Y0036079D02*
X0124617Y0036079D01*
X0123675Y0037030D02*
X0122407Y0037030D01*
X0123041Y0037030D02*
X0123041Y0035128D01*
X0121465Y0035128D02*
X0121465Y0036396D01*
X0120831Y0037030D01*
X0120197Y0036396D01*
X0120197Y0035128D01*
X0119255Y0035128D02*
X0117987Y0035128D01*
X0117987Y0037030D01*
X0119255Y0037030D01*
X0118621Y0036079D02*
X0117987Y0036079D01*
X0117045Y0036079D02*
X0115778Y0036079D01*
X0115778Y0035128D02*
X0115778Y0037030D01*
X0117045Y0037030D02*
X0117045Y0035128D01*
X0120197Y0036079D02*
X0121465Y0036079D01*
X0101608Y0036236D02*
X0101291Y0035919D01*
X0100340Y0035919D01*
X0100340Y0035285D02*
X0100340Y0037187D01*
X0101291Y0037187D01*
X0101608Y0036870D01*
X0101608Y0036236D01*
X0100974Y0035919D02*
X0101608Y0035285D01*
X0099398Y0035602D02*
X0099398Y0036870D01*
X0099081Y0037187D01*
X0098447Y0037187D01*
X0098130Y0036870D01*
X0098130Y0035602D01*
X0098447Y0035285D01*
X0099081Y0035285D01*
X0099398Y0035602D01*
X0097188Y0037187D02*
X0095920Y0037187D01*
X0096554Y0037187D02*
X0096554Y0035285D01*
X0094978Y0035602D02*
X0094661Y0035285D01*
X0094027Y0035285D01*
X0093710Y0035602D01*
X0093710Y0036870D01*
X0094027Y0037187D01*
X0094661Y0037187D01*
X0094978Y0036870D01*
X0092768Y0037187D02*
X0091500Y0037187D01*
X0091500Y0035285D01*
X0092768Y0035285D01*
X0092134Y0036236D02*
X0091500Y0036236D01*
X0090558Y0035285D02*
X0090558Y0037187D01*
X0089291Y0037187D02*
X0090558Y0035285D01*
X0089291Y0035285D02*
X0089291Y0037187D01*
X0088348Y0037187D02*
X0088348Y0035285D01*
X0087081Y0037187D01*
X0087081Y0035285D01*
X0086139Y0035602D02*
X0086139Y0036870D01*
X0085822Y0037187D01*
X0085188Y0037187D01*
X0084871Y0036870D01*
X0084871Y0035602D01*
X0085188Y0035285D01*
X0085822Y0035285D01*
X0086139Y0035602D01*
X0083929Y0035602D02*
X0083612Y0035285D01*
X0082978Y0035285D01*
X0082661Y0035602D01*
X0082661Y0036870D01*
X0082978Y0037187D01*
X0083612Y0037187D01*
X0083929Y0036870D01*
X0081719Y0034969D02*
X0080451Y0034969D01*
X0079509Y0035285D02*
X0078875Y0035919D01*
X0079192Y0035919D02*
X0078241Y0035919D01*
X0078241Y0035285D02*
X0078241Y0037187D01*
X0079192Y0037187D01*
X0079509Y0036870D01*
X0079509Y0036236D01*
X0079192Y0035919D01*
X0077299Y0035285D02*
X0076031Y0035285D01*
X0076031Y0037187D01*
X0077299Y0037187D01*
X0076665Y0036236D02*
X0076031Y0036236D01*
X0075192Y0035285D02*
X0074558Y0035285D01*
X0074875Y0035285D02*
X0074875Y0037187D01*
X0074558Y0037187D02*
X0075192Y0037187D01*
X0073616Y0037187D02*
X0072348Y0037187D01*
X0072982Y0037187D02*
X0072982Y0035285D01*
X0071406Y0035285D02*
X0070138Y0035285D01*
X0070138Y0037187D01*
X0069196Y0037187D02*
X0067928Y0037187D01*
X0067928Y0035285D01*
X0069196Y0035285D01*
X0068562Y0036236D02*
X0067928Y0036236D01*
X0066986Y0036236D02*
X0066669Y0035919D01*
X0065719Y0035919D01*
X0065719Y0035285D02*
X0065719Y0037187D01*
X0066669Y0037187D01*
X0066986Y0036870D01*
X0066986Y0036236D01*
X0018157Y0088148D02*
X0018907Y0088898D01*
X0018907Y0090400D01*
X0018157Y0091150D01*
X0017406Y0091150D01*
X0016656Y0090400D01*
X0016656Y0088898D01*
X0015905Y0088148D01*
X0015154Y0088148D01*
X0014404Y0088898D01*
X0014404Y0090400D01*
X0015154Y0091150D01*
X0015905Y0092752D02*
X0014404Y0094253D01*
X0018907Y0094253D01*
X0018907Y0092752D02*
X0018907Y0095754D01*
X0118102Y0137571D02*
X0118102Y0150413D01*
X0133701Y0150413D01*
X0133701Y0137571D01*
X0118102Y0137571D01*
X0139175Y0138088D02*
X0143679Y0138088D01*
X0143679Y0136587D02*
X0143679Y0139590D01*
X0140677Y0136587D02*
X0139175Y0138088D01*
X0157175Y0137486D02*
X0160178Y0137486D01*
X0161679Y0135984D01*
X0160178Y0134483D01*
X0157175Y0134483D01*
X0157926Y0132882D02*
X0157175Y0132131D01*
X0157175Y0130630D01*
X0157926Y0129879D01*
X0158677Y0129879D01*
X0159427Y0130630D01*
X0159427Y0132131D01*
X0160178Y0132882D01*
X0160928Y0132882D01*
X0161679Y0132131D01*
X0161679Y0130630D01*
X0160928Y0129879D01*
X0160928Y0139087D02*
X0161679Y0139838D01*
X0161679Y0141339D01*
X0160928Y0142090D01*
X0159427Y0142090D01*
X0158677Y0141339D01*
X0158677Y0140588D01*
X0159427Y0139087D01*
X0157175Y0139087D01*
X0157175Y0142090D01*
X0167628Y0191778D02*
X0170631Y0191778D01*
X0169129Y0191778D02*
X0169129Y0196281D01*
X0167628Y0194780D01*
D21*
X0045657Y0104398D02*
X0044657Y0104398D01*
X0044657Y0094898D01*
X0045657Y0094898D01*
X0022657Y0094898D02*
X0022657Y0104898D01*
X0021657Y0104898D01*
X0021657Y0094898D02*
X0022657Y0094898D01*
X0205311Y0046500D02*
X0205311Y0010500D01*
X0237811Y0010500D01*
X0237811Y0046500D01*
X0205311Y0046500D01*
D22*
X0190561Y0038500D03*
X0190561Y0028500D03*
X0190561Y0018500D03*
D23*
X0197311Y0018500D03*
X0197311Y0028500D03*
X0197311Y0038500D03*
D24*
X0228656Y0038455D02*
X0229707Y0037404D01*
X0228656Y0038455D02*
X0228656Y0040557D01*
X0229707Y0041608D01*
X0230757Y0041608D01*
X0234961Y0037404D01*
X0234961Y0041608D01*
X0234961Y0035163D02*
X0232859Y0033061D01*
X0233910Y0035163D02*
X0234961Y0034112D01*
X0234961Y0032010D01*
X0233910Y0030959D01*
X0229707Y0030959D01*
X0228656Y0032010D01*
X0228656Y0034112D01*
X0229707Y0035163D01*
X0233910Y0035163D01*
D25*
X0109681Y0135624D02*
X0108681Y0135624D01*
X0108681Y0137124D01*
X0109681Y0137124D01*
X0109681Y0135624D01*
X0109681Y0135641D02*
X0108681Y0135641D01*
X0108681Y0135739D02*
X0109681Y0135739D01*
X0109681Y0135838D02*
X0108681Y0135838D01*
X0108681Y0135936D02*
X0109681Y0135936D01*
X0109681Y0136035D02*
X0108681Y0136035D01*
X0108681Y0136133D02*
X0109681Y0136133D01*
X0109681Y0136232D02*
X0108681Y0136232D01*
X0108681Y0136330D02*
X0109681Y0136330D01*
X0109681Y0136429D02*
X0108681Y0136429D01*
X0108681Y0136527D02*
X0109681Y0136527D01*
X0109681Y0136626D02*
X0108681Y0136626D01*
X0108681Y0136724D02*
X0109681Y0136724D01*
X0109681Y0136823D02*
X0108681Y0136823D01*
X0108681Y0136921D02*
X0109681Y0136921D01*
X0109681Y0137020D02*
X0108681Y0137020D01*
X0108681Y0137118D02*
X0109681Y0137118D01*
X0061981Y0092124D02*
X0060981Y0092124D01*
X0060981Y0090624D01*
X0061981Y0090624D01*
X0061981Y0092124D01*
X0061981Y0092099D02*
X0060981Y0092099D01*
X0060981Y0092000D02*
X0061981Y0092000D01*
X0061981Y0091902D02*
X0060981Y0091902D01*
X0060981Y0091803D02*
X0061981Y0091803D01*
X0061981Y0091705D02*
X0060981Y0091705D01*
X0060981Y0091606D02*
X0061981Y0091606D01*
X0061981Y0091507D02*
X0060981Y0091507D01*
X0060981Y0091409D02*
X0061981Y0091409D01*
X0061981Y0091310D02*
X0060981Y0091310D01*
X0060981Y0091212D02*
X0061981Y0091212D01*
X0061981Y0091113D02*
X0060981Y0091113D01*
X0060981Y0091015D02*
X0061981Y0091015D01*
X0061981Y0090916D02*
X0060981Y0090916D01*
X0060981Y0090818D02*
X0061981Y0090818D01*
X0061981Y0090719D02*
X0060981Y0090719D01*
M02*
