M48
;GenerationSoftware,Autodesk,EAGLE,9.4.2*%
;CreationDate,2019-11-14T21:49:55Z*%
FMAT,2
ICI,OFF
METRIC,TZ,000.000
T6C0.350
T5C1.000
T4C1.016
T3C1.118
T2C1.300
T1C3.302
%
G90
M71
T1
X61701Y5615
T2
X28355Y4695
X20640Y4735
X15640Y4735
X33355Y4695
T3
X44175Y5615
X44175Y8155
X44175Y3075
T4
X43430Y49945
X45970Y49945
X40890Y52485
X43430Y52485
X45970Y52485
X75505Y55980
X75505Y53440
X75505Y50900
X75505Y48360
X75505Y45820
X75505Y43280
X4029Y27001
X75505Y40740
X75505Y38200
X75515Y17540
X75515Y20080
X75515Y22620
X75515Y25160
X75515Y27700
X75515Y30240
X75515Y32780
X75515Y35320
X35950Y33540
X35950Y28460
X35950Y25920
X35950Y23380
X35950Y20840
X35950Y18300
X59900Y57345
X57360Y57345
X54820Y57345
X52280Y57345
X14351Y56896
X16891Y56896
X4029Y20499
X8551Y20499
X35950Y31000
X8551Y27001
X40890Y49945
T5
X10665Y11320
X5865Y8320
X5865Y14420
T6
X13589Y54229
X21590Y36195
X22225Y27940
X22353Y23494
X54737Y33020
X52705Y33020
X34925Y36830
X41275Y46990
X21717Y32131
X2540Y50800
X9525Y48895
X12700Y45720
X7620Y41275
X1905Y55880
X38100Y52705
X49530Y33655
X2540Y27305
X51435Y37465
X43815Y45085
X51435Y27305
X55880Y24765
X43180Y24130
X46228Y24609
X50801Y25907
X44450Y10795
X53340Y30480
X43180Y25400
X47625Y25969
X30480Y26035
X45085Y36195
X59055Y36195
X7366Y49403
X7620Y45593
X11430Y55245
X26035Y29210
X31877Y31115
X29718Y32385
X55245Y34925
M30