G04 EAGLE Gerber RS-274X export*
G75*
%MOMM*%
%FSLAX34Y34*%
%LPD*%
%INSilkscreen Top*%
%IPPOS*%
%AMOC8*
5,1,8,0,0,1.08239X$1,22.5*%
G01*
%ADD10C,0.076200*%
%ADD11C,0.050800*%
%ADD12C,0.203200*%
%ADD13C,0.254000*%
%ADD14R,0.863600X0.762000*%
%ADD15R,0.150000X0.300000*%
%ADD16R,0.300000X0.300000*%
%ADD17R,0.300000X0.150000*%
%ADD18C,0.127000*%
%ADD19C,0.152400*%
%ADD20R,0.635000X0.762000*%
%ADD21R,2.794000X1.270000*%
%ADD22C,0.177800*%
%ADD23C,0.101600*%

G36*
X256001Y328120D02*
X256001Y328120D01*
X256003Y328119D01*
X256046Y328139D01*
X256090Y328157D01*
X256090Y328159D01*
X256092Y328160D01*
X256125Y328245D01*
X256125Y332055D01*
X256124Y332057D01*
X256125Y332059D01*
X256105Y332102D01*
X256087Y332146D01*
X256085Y332146D01*
X256084Y332148D01*
X255999Y332181D01*
X253459Y332181D01*
X253457Y332180D01*
X253455Y332181D01*
X253412Y332161D01*
X253368Y332143D01*
X253368Y332141D01*
X253366Y332140D01*
X253333Y332055D01*
X253333Y328245D01*
X253334Y328243D01*
X253333Y328241D01*
X253353Y328198D01*
X253371Y328154D01*
X253373Y328154D01*
X253374Y328152D01*
X253459Y328119D01*
X255999Y328119D01*
X256001Y328120D01*
G37*
G36*
X134843Y213820D02*
X134843Y213820D01*
X134845Y213819D01*
X134888Y213839D01*
X134932Y213857D01*
X134932Y213859D01*
X134934Y213860D01*
X134967Y213945D01*
X134967Y217755D01*
X134966Y217757D01*
X134967Y217759D01*
X134947Y217802D01*
X134929Y217846D01*
X134927Y217846D01*
X134926Y217848D01*
X134841Y217881D01*
X132301Y217881D01*
X132299Y217880D01*
X132297Y217881D01*
X132254Y217861D01*
X132210Y217843D01*
X132210Y217841D01*
X132208Y217840D01*
X132175Y217755D01*
X132175Y213945D01*
X132176Y213943D01*
X132175Y213941D01*
X132195Y213898D01*
X132213Y213854D01*
X132215Y213854D01*
X132216Y213852D01*
X132301Y213819D01*
X134841Y213819D01*
X134843Y213820D01*
G37*
D10*
X457581Y152781D02*
X457581Y160153D01*
X460038Y157696D01*
X462496Y160153D01*
X462496Y152781D01*
X466294Y152781D02*
X468751Y152781D01*
X469980Y154010D01*
X469980Y156467D01*
X468751Y157696D01*
X466294Y157696D01*
X465065Y156467D01*
X465065Y154010D01*
X466294Y152781D01*
X477464Y152781D02*
X477464Y160153D01*
X477464Y152781D02*
X473778Y152781D01*
X472549Y154010D01*
X472549Y156467D01*
X473778Y157696D01*
X477464Y157696D01*
X480033Y157696D02*
X480033Y154010D01*
X481262Y152781D01*
X484948Y152781D01*
X484948Y157696D01*
X487518Y160153D02*
X488746Y160153D01*
X488746Y152781D01*
X487518Y152781D02*
X489975Y152781D01*
X493736Y157696D02*
X496193Y157696D01*
X497422Y156467D01*
X497422Y152781D01*
X493736Y152781D01*
X492507Y154010D01*
X493736Y155238D01*
X497422Y155238D01*
X499991Y152781D02*
X499991Y157696D01*
X499991Y155238D02*
X502449Y157696D01*
X503677Y157696D01*
X516170Y160153D02*
X516170Y152781D01*
X513712Y160153D02*
X518627Y160153D01*
X522425Y152781D02*
X524882Y152781D01*
X522425Y152781D02*
X521196Y154010D01*
X521196Y156467D01*
X522425Y157696D01*
X524882Y157696D01*
X526111Y156467D01*
X526111Y155238D01*
X521196Y155238D01*
X528680Y152781D02*
X528680Y157696D01*
X529909Y157696D01*
X531138Y156467D01*
X531138Y152781D01*
X531138Y156467D02*
X532367Y157696D01*
X533595Y156467D01*
X533595Y152781D01*
X536165Y150324D02*
X536165Y157696D01*
X539851Y157696D01*
X541079Y156467D01*
X541079Y154010D01*
X539851Y152781D01*
X536165Y152781D01*
X544877Y152781D02*
X547335Y152781D01*
X544877Y152781D02*
X543649Y154010D01*
X543649Y156467D01*
X544877Y157696D01*
X547335Y157696D01*
X548564Y156467D01*
X548564Y155238D01*
X543649Y155238D01*
X551133Y152781D02*
X551133Y157696D01*
X553590Y157696D02*
X551133Y155238D01*
X553590Y157696D02*
X554819Y157696D01*
X558598Y157696D02*
X561056Y157696D01*
X562285Y156467D01*
X562285Y152781D01*
X558598Y152781D01*
X557370Y154010D01*
X558598Y155238D01*
X562285Y155238D01*
X566083Y154010D02*
X566083Y158925D01*
X566083Y154010D02*
X567311Y152781D01*
X567311Y157696D02*
X564854Y157696D01*
X569843Y157696D02*
X569843Y154010D01*
X571072Y152781D01*
X574758Y152781D01*
X574758Y157696D01*
X577327Y157696D02*
X577327Y152781D01*
X577327Y155238D02*
X579785Y157696D01*
X581014Y157696D01*
X584793Y152781D02*
X587250Y152781D01*
X584793Y152781D02*
X583564Y154010D01*
X583564Y156467D01*
X584793Y157696D01*
X587250Y157696D01*
X588479Y156467D01*
X588479Y155238D01*
X583564Y155238D01*
X602219Y160153D02*
X603447Y158925D01*
X602219Y160153D02*
X599761Y160153D01*
X598533Y158925D01*
X598533Y154010D01*
X599761Y152781D01*
X602219Y152781D01*
X603447Y154010D01*
X607245Y152781D02*
X609703Y152781D01*
X610932Y154010D01*
X610932Y156467D01*
X609703Y157696D01*
X607245Y157696D01*
X606017Y156467D01*
X606017Y154010D01*
X607245Y152781D01*
X613501Y152781D02*
X613501Y157696D01*
X617187Y157696D01*
X618416Y156467D01*
X618416Y152781D01*
X622214Y154010D02*
X622214Y158925D01*
X622214Y154010D02*
X623442Y152781D01*
X623442Y157696D02*
X620985Y157696D01*
X625974Y157696D02*
X625974Y152781D01*
X625974Y155238D02*
X628432Y157696D01*
X629661Y157696D01*
X633440Y152781D02*
X635897Y152781D01*
X637126Y154010D01*
X637126Y156467D01*
X635897Y157696D01*
X633440Y157696D01*
X632211Y156467D01*
X632211Y154010D01*
X633440Y152781D01*
X639695Y160153D02*
X640924Y160153D01*
X640924Y152781D01*
X639695Y152781D02*
X642153Y152781D01*
X652169Y152781D02*
X652169Y160153D01*
X655855Y160153D01*
X657084Y158925D01*
X657084Y157696D01*
X655855Y156467D01*
X657084Y155238D01*
X657084Y154010D01*
X655855Y152781D01*
X652169Y152781D01*
X652169Y156467D02*
X655855Y156467D01*
X660882Y152781D02*
X663339Y152781D01*
X664568Y154010D01*
X664568Y156467D01*
X663339Y157696D01*
X660882Y157696D01*
X659653Y156467D01*
X659653Y154010D01*
X660882Y152781D01*
X668366Y157696D02*
X670823Y157696D01*
X672052Y156467D01*
X672052Y152781D01*
X668366Y152781D01*
X667137Y154010D01*
X668366Y155238D01*
X672052Y155238D01*
X674621Y152781D02*
X674621Y157696D01*
X674621Y155238D02*
X677079Y157696D01*
X678308Y157696D01*
X685773Y160153D02*
X685773Y152781D01*
X682087Y152781D01*
X680858Y154010D01*
X680858Y156467D01*
X682087Y157696D01*
X685773Y157696D01*
D11*
X717354Y79761D02*
X717354Y74168D01*
X720151Y74168D01*
X721083Y75100D01*
X721083Y78829D01*
X720151Y79761D01*
X717354Y79761D01*
X723899Y74168D02*
X725764Y74168D01*
X723899Y74168D02*
X722967Y75100D01*
X722967Y76964D01*
X723899Y77897D01*
X725764Y77897D01*
X726696Y76964D01*
X726696Y76032D01*
X722967Y76032D01*
X728580Y74168D02*
X731377Y74168D01*
X732309Y75100D01*
X731377Y76032D01*
X729513Y76032D01*
X728580Y76964D01*
X729513Y77897D01*
X732309Y77897D01*
X734194Y77897D02*
X735126Y77897D01*
X735126Y74168D01*
X734194Y74168D02*
X736058Y74168D01*
X735126Y79761D02*
X735126Y80693D01*
X739800Y72304D02*
X740732Y72304D01*
X741664Y73236D01*
X741664Y77897D01*
X738868Y77897D01*
X737936Y76964D01*
X737936Y75100D01*
X738868Y74168D01*
X741664Y74168D01*
X743549Y74168D02*
X743549Y77897D01*
X746345Y77897D01*
X747277Y76964D01*
X747277Y74168D01*
X750094Y74168D02*
X751958Y74168D01*
X750094Y74168D02*
X749162Y75100D01*
X749162Y76964D01*
X750094Y77897D01*
X751958Y77897D01*
X752890Y76964D01*
X752890Y76032D01*
X749162Y76032D01*
X758503Y74168D02*
X758503Y79761D01*
X758503Y74168D02*
X755707Y74168D01*
X754775Y75100D01*
X754775Y76964D01*
X755707Y77897D01*
X758503Y77897D01*
X766001Y79761D02*
X766001Y74168D01*
X768797Y74168D01*
X769730Y75100D01*
X769730Y76964D01*
X768797Y77897D01*
X766001Y77897D01*
X771614Y77897D02*
X771614Y75100D01*
X772546Y74168D01*
X775343Y74168D01*
X775343Y73236D02*
X775343Y77897D01*
X775343Y73236D02*
X774411Y72304D01*
X773478Y72304D01*
X777227Y77897D02*
X778159Y77897D01*
X778159Y76964D01*
X777227Y76964D01*
X777227Y77897D01*
X777227Y75100D02*
X778159Y75100D01*
X778159Y74168D01*
X777227Y74168D01*
X777227Y75100D01*
X693031Y70617D02*
X693031Y65024D01*
X696759Y65024D02*
X693031Y70617D01*
X696759Y70617D02*
X696759Y65024D01*
X698644Y68753D02*
X699576Y68753D01*
X699576Y65024D01*
X698644Y65024D02*
X700508Y65024D01*
X699576Y70617D02*
X699576Y71549D01*
X702386Y68753D02*
X702386Y63160D01*
X702386Y68753D02*
X705182Y68753D01*
X706114Y67820D01*
X706114Y65956D01*
X705182Y65024D01*
X702386Y65024D01*
X707999Y65956D02*
X707999Y68753D01*
X707999Y65956D02*
X708931Y65024D01*
X711727Y65024D01*
X711727Y68753D01*
X713612Y68753D02*
X713612Y65024D01*
X713612Y68753D02*
X716408Y68753D01*
X717341Y67820D01*
X717341Y65024D01*
X724838Y65024D02*
X724838Y70617D01*
X724838Y65024D02*
X727635Y65024D01*
X728567Y65956D01*
X728567Y69685D01*
X727635Y70617D01*
X724838Y70617D01*
X731383Y68753D02*
X733248Y68753D01*
X734180Y67820D01*
X734180Y65024D01*
X731383Y65024D01*
X730451Y65956D01*
X731383Y66888D01*
X734180Y66888D01*
X736064Y65024D02*
X738861Y65024D01*
X739793Y65956D01*
X738861Y66888D01*
X736997Y66888D01*
X736064Y67820D01*
X736997Y68753D01*
X739793Y68753D01*
X742610Y68753D02*
X744474Y68753D01*
X745406Y67820D01*
X745406Y65024D01*
X742610Y65024D01*
X741678Y65956D01*
X742610Y66888D01*
X745406Y66888D01*
X747291Y65024D02*
X747291Y68753D01*
X750087Y68753D01*
X751019Y67820D01*
X751019Y65024D01*
X753836Y68753D02*
X755700Y68753D01*
X756632Y67820D01*
X756632Y65024D01*
X753836Y65024D01*
X752904Y65956D01*
X753836Y66888D01*
X756632Y66888D01*
X758517Y65956D02*
X758517Y68753D01*
X758517Y65956D02*
X759449Y65024D01*
X762245Y65024D01*
X762245Y64092D02*
X762245Y68753D01*
X762245Y64092D02*
X761313Y63160D01*
X760381Y63160D01*
X765062Y68753D02*
X766926Y68753D01*
X767858Y67820D01*
X767858Y65024D01*
X765062Y65024D01*
X764130Y65956D01*
X765062Y66888D01*
X767858Y66888D01*
X769743Y65024D02*
X769743Y70617D01*
X769743Y66888D02*
X772539Y65024D01*
X769743Y66888D02*
X772539Y68753D01*
X775353Y68753D02*
X777217Y68753D01*
X778149Y67820D01*
X778149Y65024D01*
X775353Y65024D01*
X774421Y65956D01*
X775353Y66888D01*
X778149Y66888D01*
X700515Y61473D02*
X700515Y55880D01*
X702379Y59609D02*
X700515Y61473D01*
X702379Y59609D02*
X704243Y61473D01*
X704243Y55880D01*
X706128Y59609D02*
X707060Y59609D01*
X707060Y55880D01*
X706128Y55880D02*
X707992Y55880D01*
X707060Y61473D02*
X707060Y62405D01*
X710802Y59609D02*
X713599Y59609D01*
X710802Y59609D02*
X709870Y58676D01*
X709870Y56812D01*
X710802Y55880D01*
X713599Y55880D01*
X715483Y55880D02*
X715483Y61473D01*
X716415Y59609D02*
X715483Y58676D01*
X716415Y59609D02*
X718279Y59609D01*
X719212Y58676D01*
X719212Y55880D01*
X722028Y59609D02*
X723893Y59609D01*
X724825Y58676D01*
X724825Y55880D01*
X722028Y55880D01*
X721096Y56812D01*
X722028Y57744D01*
X724825Y57744D01*
X727641Y55880D02*
X729506Y55880D01*
X727641Y55880D02*
X726709Y56812D01*
X726709Y58676D01*
X727641Y59609D01*
X729506Y59609D01*
X730438Y58676D01*
X730438Y57744D01*
X726709Y57744D01*
X732322Y61473D02*
X733255Y61473D01*
X733255Y55880D01*
X734187Y55880D02*
X732322Y55880D01*
X741678Y55880D02*
X741678Y61473D01*
X743542Y59609D01*
X745406Y61473D01*
X745406Y55880D01*
X748223Y59609D02*
X750087Y59609D01*
X751019Y58676D01*
X751019Y55880D01*
X748223Y55880D01*
X747291Y56812D01*
X748223Y57744D01*
X751019Y57744D01*
X752904Y55880D02*
X752904Y59609D01*
X755700Y59609D01*
X756632Y58676D01*
X756632Y55880D01*
X759449Y59609D02*
X762245Y59609D01*
X759449Y59609D02*
X758517Y58676D01*
X758517Y56812D01*
X759449Y55880D01*
X762245Y55880D01*
X765062Y55880D02*
X766926Y55880D01*
X765062Y55880D02*
X764130Y56812D01*
X764130Y58676D01*
X765062Y59609D01*
X766926Y59609D01*
X767858Y58676D01*
X767858Y57744D01*
X764130Y57744D01*
X770675Y55880D02*
X772539Y55880D01*
X773472Y56812D01*
X773472Y58676D01*
X772539Y59609D01*
X770675Y59609D01*
X769743Y58676D01*
X769743Y56812D01*
X770675Y55880D01*
X775356Y55880D02*
X775356Y59609D01*
X777220Y59609D02*
X775356Y57744D01*
X777220Y59609D02*
X778152Y59609D01*
X678062Y52329D02*
X678062Y46736D01*
X678062Y52329D02*
X680859Y52329D01*
X681791Y51397D01*
X681791Y50465D01*
X680859Y49532D01*
X681791Y48600D01*
X681791Y47668D01*
X680859Y46736D01*
X678062Y46736D01*
X678062Y49532D02*
X680859Y49532D01*
X683675Y50465D02*
X683675Y46736D01*
X683675Y48600D02*
X685540Y50465D01*
X686472Y50465D01*
X689285Y50465D02*
X691149Y50465D01*
X692082Y49532D01*
X692082Y46736D01*
X689285Y46736D01*
X688353Y47668D01*
X689285Y48600D01*
X692082Y48600D01*
X693966Y46736D02*
X693966Y50465D01*
X696763Y50465D01*
X697695Y49532D01*
X697695Y46736D01*
X703308Y46736D02*
X703308Y52329D01*
X703308Y46736D02*
X700511Y46736D01*
X699579Y47668D01*
X699579Y49532D01*
X700511Y50465D01*
X703308Y50465D01*
X706124Y46736D02*
X707989Y46736D01*
X708921Y47668D01*
X708921Y49532D01*
X707989Y50465D01*
X706124Y50465D01*
X705192Y49532D01*
X705192Y47668D01*
X706124Y46736D01*
X710805Y46736D02*
X710805Y50465D01*
X713602Y50465D01*
X714534Y49532D01*
X714534Y46736D01*
X722032Y46736D02*
X722032Y52329D01*
X725760Y46736D01*
X725760Y52329D01*
X727645Y50465D02*
X728577Y50465D01*
X728577Y46736D01*
X727645Y46736D02*
X729509Y46736D01*
X728577Y52329D02*
X728577Y53261D01*
X731387Y52329D02*
X731387Y46736D01*
X731387Y48600D02*
X734183Y46736D01*
X731387Y48600D02*
X734183Y50465D01*
X736064Y50465D02*
X736064Y44872D01*
X736064Y50465D02*
X738861Y50465D01*
X739793Y49532D01*
X739793Y47668D01*
X738861Y46736D01*
X736064Y46736D01*
X741677Y46736D02*
X741677Y50465D01*
X741677Y48600D02*
X743542Y50465D01*
X744474Y50465D01*
X747287Y46736D02*
X749151Y46736D01*
X747287Y46736D02*
X746355Y47668D01*
X746355Y49532D01*
X747287Y50465D01*
X749151Y50465D01*
X750084Y49532D01*
X750084Y48600D01*
X746355Y48600D01*
X751968Y52329D02*
X752900Y52329D01*
X752900Y46736D01*
X751968Y46736D02*
X753832Y46736D01*
X755710Y44872D02*
X756642Y44872D01*
X757574Y45804D01*
X757574Y50465D01*
X757574Y52329D02*
X757574Y53261D01*
X760384Y46736D02*
X762249Y46736D01*
X760384Y46736D02*
X759452Y47668D01*
X759452Y49532D01*
X760384Y50465D01*
X762249Y50465D01*
X763181Y49532D01*
X763181Y48600D01*
X759452Y48600D01*
X765065Y50465D02*
X766930Y46736D01*
X768794Y50465D01*
X770678Y50465D02*
X771611Y50465D01*
X771611Y46736D01*
X772543Y46736D02*
X770678Y46736D01*
X771611Y52329D02*
X771611Y53261D01*
X775353Y50465D02*
X778149Y50465D01*
X775353Y50465D02*
X774421Y49532D01*
X774421Y47668D01*
X775353Y46736D01*
X778149Y46736D01*
X687418Y43185D02*
X687418Y37592D01*
X689282Y41321D02*
X687418Y43185D01*
X689282Y41321D02*
X691146Y43185D01*
X691146Y37592D01*
X693963Y41321D02*
X695827Y41321D01*
X696759Y40388D01*
X696759Y37592D01*
X693963Y37592D01*
X693031Y38524D01*
X693963Y39456D01*
X696759Y39456D01*
X699576Y38524D02*
X699576Y42253D01*
X699576Y38524D02*
X700508Y37592D01*
X700508Y41321D02*
X698644Y41321D01*
X703318Y42253D02*
X703318Y38524D01*
X704250Y37592D01*
X704250Y41321D02*
X702386Y41321D01*
X706128Y43185D02*
X706128Y37592D01*
X706128Y40388D02*
X707060Y41321D01*
X708924Y41321D01*
X709856Y40388D01*
X709856Y37592D01*
X712673Y37592D02*
X714537Y37592D01*
X712673Y37592D02*
X711741Y38524D01*
X711741Y40388D01*
X712673Y41321D01*
X714537Y41321D01*
X715469Y40388D01*
X715469Y39456D01*
X711741Y39456D01*
X717354Y38524D02*
X717354Y41321D01*
X717354Y38524D02*
X718286Y37592D01*
X719218Y38524D01*
X720150Y37592D01*
X721083Y38524D01*
X721083Y41321D01*
X731377Y43185D02*
X732309Y42253D01*
X731377Y43185D02*
X729512Y43185D01*
X728580Y42253D01*
X728580Y41321D01*
X729512Y40388D01*
X731377Y40388D01*
X732309Y39456D01*
X732309Y38524D01*
X731377Y37592D01*
X729512Y37592D01*
X728580Y38524D01*
X735125Y38524D02*
X735125Y42253D01*
X735125Y38524D02*
X736058Y37592D01*
X736058Y41321D02*
X734193Y41321D01*
X738868Y41321D02*
X740732Y41321D01*
X741664Y40388D01*
X741664Y37592D01*
X738868Y37592D01*
X737935Y38524D01*
X738868Y39456D01*
X741664Y39456D01*
X744481Y41321D02*
X747277Y41321D01*
X744481Y41321D02*
X743549Y40388D01*
X743549Y38524D01*
X744481Y37592D01*
X747277Y37592D01*
X749162Y37592D02*
X749162Y43185D01*
X750094Y41321D02*
X749162Y40388D01*
X750094Y41321D02*
X751958Y41321D01*
X752890Y40388D01*
X752890Y37592D01*
X755707Y37592D02*
X757571Y37592D01*
X758503Y38524D01*
X758503Y40388D01*
X757571Y41321D01*
X755707Y41321D01*
X754775Y40388D01*
X754775Y38524D01*
X755707Y37592D01*
X760388Y38524D02*
X760388Y41321D01*
X760388Y38524D02*
X761320Y37592D01*
X762252Y38524D01*
X763184Y37592D01*
X764116Y38524D01*
X764116Y41321D01*
X766001Y41321D02*
X766933Y41321D01*
X766933Y37592D01*
X766001Y37592D02*
X767865Y37592D01*
X766933Y43185D02*
X766933Y44117D01*
X770675Y41321D02*
X772539Y41321D01*
X773471Y40388D01*
X773471Y37592D01*
X770675Y37592D01*
X769743Y38524D01*
X770675Y39456D01*
X773471Y39456D01*
X775356Y37592D02*
X775356Y43185D01*
X775356Y39456D02*
X778152Y37592D01*
X775356Y39456D02*
X778152Y41321D01*
X705189Y28448D02*
X704257Y29380D01*
X705189Y28448D02*
X706121Y28448D01*
X707053Y29380D01*
X707053Y34041D01*
X706121Y34041D02*
X707985Y34041D01*
X710802Y32177D02*
X712666Y32177D01*
X713599Y31244D01*
X713599Y28448D01*
X710802Y28448D01*
X709870Y29380D01*
X710802Y30312D01*
X713599Y30312D01*
X716415Y32177D02*
X719212Y32177D01*
X716415Y32177D02*
X715483Y31244D01*
X715483Y29380D01*
X716415Y28448D01*
X719212Y28448D01*
X722028Y28448D02*
X723893Y28448D01*
X724825Y29380D01*
X724825Y31244D01*
X723893Y32177D01*
X722028Y32177D01*
X721096Y31244D01*
X721096Y29380D01*
X722028Y28448D01*
X726709Y28448D02*
X726709Y34041D01*
X726709Y28448D02*
X729506Y28448D01*
X730438Y29380D01*
X730438Y31244D01*
X729506Y32177D01*
X726709Y32177D01*
X737936Y34041D02*
X737936Y28448D01*
X739800Y30312D01*
X741664Y28448D01*
X741664Y34041D01*
X744481Y28448D02*
X746345Y28448D01*
X744481Y28448D02*
X743549Y29380D01*
X743549Y31244D01*
X744481Y32177D01*
X746345Y32177D01*
X747277Y31244D01*
X747277Y30312D01*
X743549Y30312D01*
X749162Y32177D02*
X750094Y32177D01*
X750094Y28448D01*
X749162Y28448D02*
X751026Y28448D01*
X750094Y34041D02*
X750094Y34973D01*
X752904Y28448D02*
X755700Y28448D01*
X756632Y29380D01*
X755700Y30312D01*
X753836Y30312D01*
X752904Y31244D01*
X753836Y32177D01*
X756632Y32177D01*
X758517Y34041D02*
X758517Y28448D01*
X761313Y28448D01*
X762245Y29380D01*
X762245Y31244D01*
X761313Y32177D01*
X758517Y32177D01*
X765062Y28448D02*
X766926Y28448D01*
X765062Y28448D02*
X764130Y29380D01*
X764130Y31244D01*
X765062Y32177D01*
X766926Y32177D01*
X767858Y31244D01*
X767858Y30312D01*
X764130Y30312D01*
X769743Y28448D02*
X769743Y32177D01*
X771607Y32177D02*
X769743Y30312D01*
X771607Y32177D02*
X772539Y32177D01*
X776285Y26584D02*
X777217Y26584D01*
X778149Y27516D01*
X778149Y32177D01*
X775353Y32177D01*
X774421Y31244D01*
X774421Y29380D01*
X775353Y28448D01*
X778149Y28448D01*
D10*
X127381Y7753D02*
X127381Y381D01*
X127381Y7753D02*
X131067Y7753D01*
X132296Y6525D01*
X132296Y4067D01*
X131067Y2838D01*
X127381Y2838D01*
X136094Y381D02*
X138551Y381D01*
X136094Y381D02*
X134865Y1610D01*
X134865Y4067D01*
X136094Y5296D01*
X138551Y5296D01*
X139780Y4067D01*
X139780Y2838D01*
X134865Y2838D01*
X142349Y7753D02*
X143578Y7753D01*
X143578Y381D01*
X142349Y381D02*
X144807Y381D01*
X148567Y1610D02*
X148567Y6525D01*
X148567Y1610D02*
X149796Y381D01*
X149796Y5296D02*
X147339Y5296D01*
X152328Y5296D02*
X153557Y5296D01*
X153557Y381D01*
X152328Y381D02*
X154786Y381D01*
X153557Y7753D02*
X153557Y8982D01*
X158546Y381D02*
X161004Y381D01*
X158546Y381D02*
X157318Y1610D01*
X157318Y4067D01*
X158546Y5296D01*
X161004Y5296D01*
X162232Y4067D01*
X162232Y2838D01*
X157318Y2838D01*
X164802Y381D02*
X164802Y5296D01*
X167259Y5296D02*
X164802Y2838D01*
X167259Y5296D02*
X168488Y5296D01*
X182209Y7753D02*
X183438Y6525D01*
X182209Y7753D02*
X179751Y7753D01*
X178523Y6525D01*
X178523Y1610D01*
X179751Y381D01*
X182209Y381D01*
X183438Y1610D01*
X187236Y381D02*
X189693Y381D01*
X190922Y1610D01*
X190922Y4067D01*
X189693Y5296D01*
X187236Y5296D01*
X186007Y4067D01*
X186007Y1610D01*
X187236Y381D01*
X193491Y381D02*
X193491Y5296D01*
X197177Y5296D01*
X198406Y4067D01*
X198406Y381D01*
X200975Y381D02*
X200975Y5296D01*
X204661Y5296D01*
X205890Y4067D01*
X205890Y381D01*
X209688Y381D02*
X212145Y381D01*
X209688Y381D02*
X208459Y1610D01*
X208459Y4067D01*
X209688Y5296D01*
X212145Y5296D01*
X213374Y4067D01*
X213374Y2838D01*
X208459Y2838D01*
X217172Y5296D02*
X220858Y5296D01*
X217172Y5296D02*
X215944Y4067D01*
X215944Y1610D01*
X217172Y381D01*
X220858Y381D01*
X224656Y1610D02*
X224656Y6525D01*
X224656Y1610D02*
X225885Y381D01*
X225885Y5296D02*
X223428Y5296D01*
X229646Y381D02*
X232103Y381D01*
X233332Y1610D01*
X233332Y4067D01*
X232103Y5296D01*
X229646Y5296D01*
X228417Y4067D01*
X228417Y1610D01*
X229646Y381D01*
X235901Y381D02*
X235901Y5296D01*
X235901Y2838D02*
X238359Y5296D01*
X239587Y5296D01*
X254381Y7753D02*
X254381Y381D01*
X254381Y4067D02*
X259296Y4067D01*
X259296Y7753D02*
X259296Y381D01*
X263094Y381D02*
X265551Y381D01*
X263094Y381D02*
X261865Y1610D01*
X261865Y4067D01*
X263094Y5296D01*
X265551Y5296D01*
X266780Y4067D01*
X266780Y2838D01*
X261865Y2838D01*
X270578Y5296D02*
X273035Y5296D01*
X274264Y4067D01*
X274264Y381D01*
X270578Y381D01*
X269349Y1610D01*
X270578Y2838D01*
X274264Y2838D01*
X278062Y1610D02*
X278062Y6525D01*
X278062Y1610D02*
X279291Y381D01*
X279291Y5296D02*
X276833Y5296D01*
X283052Y381D02*
X285509Y381D01*
X283052Y381D02*
X281823Y1610D01*
X281823Y4067D01*
X283052Y5296D01*
X285509Y5296D01*
X286738Y4067D01*
X286738Y2838D01*
X281823Y2838D01*
X289307Y381D02*
X289307Y5296D01*
X291764Y5296D02*
X289307Y2838D01*
X291764Y5296D02*
X292993Y5296D01*
X306714Y7753D02*
X307943Y6525D01*
X306714Y7753D02*
X304257Y7753D01*
X303028Y6525D01*
X303028Y1610D01*
X304257Y381D01*
X306714Y381D01*
X307943Y1610D01*
X311741Y381D02*
X314198Y381D01*
X315427Y1610D01*
X315427Y4067D01*
X314198Y5296D01*
X311741Y5296D01*
X310512Y4067D01*
X310512Y1610D01*
X311741Y381D01*
X317996Y381D02*
X317996Y5296D01*
X321682Y5296D01*
X322911Y4067D01*
X322911Y381D01*
X325480Y381D02*
X325480Y5296D01*
X329167Y5296D01*
X330395Y4067D01*
X330395Y381D01*
X334193Y381D02*
X336651Y381D01*
X334193Y381D02*
X332965Y1610D01*
X332965Y4067D01*
X334193Y5296D01*
X336651Y5296D01*
X337879Y4067D01*
X337879Y2838D01*
X332965Y2838D01*
X341677Y5296D02*
X345364Y5296D01*
X341677Y5296D02*
X340449Y4067D01*
X340449Y1610D01*
X341677Y381D01*
X345364Y381D01*
X349162Y1610D02*
X349162Y6525D01*
X349162Y1610D02*
X350390Y381D01*
X350390Y5296D02*
X347933Y5296D01*
X354151Y381D02*
X356609Y381D01*
X357837Y1610D01*
X357837Y4067D01*
X356609Y5296D01*
X354151Y5296D01*
X352922Y4067D01*
X352922Y1610D01*
X354151Y381D01*
X360407Y381D02*
X360407Y5296D01*
X362864Y5296D02*
X360407Y2838D01*
X362864Y5296D02*
X364093Y5296D01*
X178220Y101603D02*
X173305Y101603D01*
X175762Y99146D02*
X175762Y104061D01*
X188273Y101603D02*
X193188Y101603D01*
X297697Y101603D02*
X302612Y101603D01*
X300154Y99146D02*
X300154Y104061D01*
X312665Y101603D02*
X317580Y101603D01*
X9779Y217073D02*
X373Y217073D01*
X373Y221776D01*
X1941Y223344D01*
X5076Y223344D01*
X6644Y221776D01*
X6644Y217073D01*
X6644Y220209D02*
X9779Y223344D01*
X9779Y227996D02*
X9779Y231132D01*
X9779Y227996D02*
X8211Y226429D01*
X5076Y226429D01*
X3508Y227996D01*
X3508Y231132D01*
X5076Y232699D01*
X6644Y232699D01*
X6644Y226429D01*
X9779Y235784D02*
X9779Y240487D01*
X8211Y242055D01*
X6644Y240487D01*
X6644Y237351D01*
X5076Y235784D01*
X3508Y237351D01*
X3508Y242055D01*
X9779Y246707D02*
X9779Y249842D01*
X9779Y246707D02*
X8211Y245139D01*
X5076Y245139D01*
X3508Y246707D01*
X3508Y249842D01*
X5076Y251410D01*
X6644Y251410D01*
X6644Y245139D01*
X8211Y256062D02*
X1941Y256062D01*
X8211Y256062D02*
X9779Y257630D01*
X3508Y257630D02*
X3508Y254494D01*
D11*
X454914Y484637D02*
X458643Y484637D01*
X454914Y484637D02*
X454914Y481840D01*
X456778Y482773D01*
X457710Y482773D01*
X458643Y481840D01*
X458643Y479976D01*
X457710Y479044D01*
X455846Y479044D01*
X454914Y479976D01*
X460527Y480908D02*
X460527Y484637D01*
X460527Y480908D02*
X462391Y479044D01*
X464256Y480908D01*
X464256Y484637D01*
X426974Y484637D02*
X426974Y479044D01*
X428838Y482773D02*
X426974Y484637D01*
X428838Y482773D02*
X430703Y484637D01*
X430703Y479044D01*
X433519Y484637D02*
X435383Y484637D01*
X433519Y484637D02*
X432587Y483705D01*
X432587Y479976D01*
X433519Y479044D01*
X435383Y479044D01*
X436316Y479976D01*
X436316Y483705D01*
X435383Y484637D01*
X440997Y484637D02*
X441929Y483705D01*
X440997Y484637D02*
X439132Y484637D01*
X438200Y483705D01*
X438200Y482773D01*
X439132Y481840D01*
X440997Y481840D01*
X441929Y480908D01*
X441929Y479976D01*
X440997Y479044D01*
X439132Y479044D01*
X438200Y479976D01*
X443813Y479044D02*
X445678Y479044D01*
X444745Y479044D02*
X444745Y484637D01*
X443813Y484637D02*
X445678Y484637D01*
X390063Y484975D02*
X389130Y485907D01*
X387266Y485907D01*
X386334Y484975D01*
X386334Y481246D01*
X387266Y480314D01*
X389130Y480314D01*
X390063Y481246D01*
X390063Y483110D01*
X388198Y483110D01*
X391947Y480314D02*
X391947Y485907D01*
X395676Y480314D01*
X395676Y485907D01*
X397560Y485907D02*
X397560Y480314D01*
X400357Y480314D01*
X401289Y481246D01*
X401289Y484975D01*
X400357Y485907D01*
X397560Y485907D01*
X395224Y540004D02*
X395224Y545597D01*
X398020Y545597D01*
X398953Y544665D01*
X398953Y542800D01*
X398020Y541868D01*
X395224Y541868D01*
X397088Y541868D02*
X398953Y540004D01*
X400837Y545597D02*
X404566Y545597D01*
X400837Y545597D02*
X400837Y540004D01*
X404566Y540004D01*
X402701Y542800D02*
X400837Y542800D01*
X409247Y545597D02*
X410179Y544665D01*
X409247Y545597D02*
X407382Y545597D01*
X406450Y544665D01*
X406450Y543733D01*
X407382Y542800D01*
X409247Y542800D01*
X410179Y541868D01*
X410179Y540936D01*
X409247Y540004D01*
X407382Y540004D01*
X406450Y540936D01*
X412063Y545597D02*
X415792Y545597D01*
X412063Y545597D02*
X412063Y540004D01*
X415792Y540004D01*
X413928Y542800D02*
X412063Y542800D01*
X419541Y540004D02*
X419541Y545597D01*
X421405Y545597D02*
X417676Y545597D01*
X451104Y545597D02*
X451104Y540004D01*
X452968Y543733D02*
X451104Y545597D01*
X452968Y543733D02*
X454833Y545597D01*
X454833Y540004D01*
X456717Y540004D02*
X458581Y540004D01*
X457649Y540004D02*
X457649Y545597D01*
X456717Y545597D02*
X458581Y545597D01*
X463256Y545597D02*
X464188Y544665D01*
X463256Y545597D02*
X461391Y545597D01*
X460459Y544665D01*
X460459Y543733D01*
X461391Y542800D01*
X463256Y542800D01*
X464188Y541868D01*
X464188Y540936D01*
X463256Y540004D01*
X461391Y540004D01*
X460459Y540936D01*
X467004Y545597D02*
X468869Y545597D01*
X467004Y545597D02*
X466072Y544665D01*
X466072Y540936D01*
X467004Y540004D01*
X468869Y540004D01*
X469801Y540936D01*
X469801Y544665D01*
X468869Y545597D01*
X429433Y544665D02*
X428500Y545597D01*
X426636Y545597D01*
X425704Y544665D01*
X425704Y543733D01*
X426636Y542800D01*
X428500Y542800D01*
X429433Y541868D01*
X429433Y540936D01*
X428500Y540004D01*
X426636Y540004D01*
X425704Y540936D01*
X434113Y545597D02*
X435046Y544665D01*
X434113Y545597D02*
X432249Y545597D01*
X431317Y544665D01*
X431317Y540936D01*
X432249Y540004D01*
X434113Y540004D01*
X435046Y540936D01*
X436930Y540004D02*
X436930Y545597D01*
X436930Y541868D02*
X440659Y545597D01*
X437862Y542800D02*
X440659Y540004D01*
X706630Y178567D02*
X707563Y177635D01*
X706630Y178567D02*
X704766Y178567D01*
X703834Y177635D01*
X703834Y176703D01*
X704766Y175770D01*
X706630Y175770D01*
X707563Y174838D01*
X707563Y173906D01*
X706630Y172974D01*
X704766Y172974D01*
X703834Y173906D01*
X712243Y178567D02*
X713176Y177635D01*
X712243Y178567D02*
X710379Y178567D01*
X709447Y177635D01*
X709447Y173906D01*
X710379Y172974D01*
X712243Y172974D01*
X713176Y173906D01*
X715060Y172974D02*
X715060Y178567D01*
X715060Y172974D02*
X718789Y172974D01*
X706293Y203035D02*
X705360Y203967D01*
X703496Y203967D01*
X702564Y203035D01*
X702564Y202103D01*
X703496Y201170D01*
X705360Y201170D01*
X706293Y200238D01*
X706293Y199306D01*
X705360Y198374D01*
X703496Y198374D01*
X702564Y199306D01*
X708177Y198374D02*
X708177Y203967D01*
X708177Y198374D02*
X710973Y198374D01*
X711906Y199306D01*
X711906Y203035D01*
X710973Y203967D01*
X708177Y203967D01*
X713790Y202103D02*
X713790Y198374D01*
X713790Y202103D02*
X715654Y203967D01*
X717519Y202103D01*
X717519Y198374D01*
X717519Y201170D02*
X713790Y201170D01*
X712643Y225044D02*
X708914Y225044D01*
X712643Y228773D01*
X712643Y229705D01*
X711710Y230637D01*
X709846Y230637D01*
X708914Y229705D01*
X714527Y228773D02*
X716391Y230637D01*
X716391Y225044D01*
X714527Y225044D02*
X718256Y225044D01*
X712643Y249174D02*
X708914Y249174D01*
X712643Y252903D01*
X712643Y253835D01*
X711710Y254767D01*
X709846Y254767D01*
X708914Y253835D01*
X714527Y249174D02*
X718256Y249174D01*
X714527Y249174D02*
X718256Y252903D01*
X718256Y253835D01*
X717323Y254767D01*
X715459Y254767D01*
X714527Y253835D01*
X712643Y274574D02*
X708914Y274574D01*
X712643Y278303D01*
X712643Y279235D01*
X711710Y280167D01*
X709846Y280167D01*
X708914Y279235D01*
X714527Y279235D02*
X715459Y280167D01*
X717323Y280167D01*
X718256Y279235D01*
X718256Y278303D01*
X717323Y277370D01*
X716391Y277370D01*
X717323Y277370D02*
X718256Y276438D01*
X718256Y275506D01*
X717323Y274574D01*
X715459Y274574D01*
X714527Y275506D01*
X713913Y299974D02*
X710184Y299974D01*
X713913Y303703D01*
X713913Y304635D01*
X712980Y305567D01*
X711116Y305567D01*
X710184Y304635D01*
X718593Y305567D02*
X718593Y299974D01*
X715797Y302770D02*
X718593Y305567D01*
X719526Y302770D02*
X715797Y302770D01*
X713913Y325374D02*
X710184Y325374D01*
X713913Y329103D01*
X713913Y330035D01*
X712980Y330967D01*
X711116Y330967D01*
X710184Y330035D01*
X715797Y330967D02*
X719526Y330967D01*
X715797Y330967D02*
X715797Y328170D01*
X717661Y329103D01*
X718593Y329103D01*
X719526Y328170D01*
X719526Y326306D01*
X718593Y325374D01*
X716729Y325374D01*
X715797Y326306D01*
X715183Y349504D02*
X711454Y349504D01*
X715183Y353233D01*
X715183Y354165D01*
X714250Y355097D01*
X712386Y355097D01*
X711454Y354165D01*
X718931Y354165D02*
X720796Y355097D01*
X718931Y354165D02*
X717067Y352300D01*
X717067Y350436D01*
X717999Y349504D01*
X719863Y349504D01*
X720796Y350436D01*
X720796Y351368D01*
X719863Y352300D01*
X717067Y352300D01*
X712724Y384645D02*
X713656Y385577D01*
X715520Y385577D01*
X716453Y384645D01*
X716453Y383713D01*
X715520Y382780D01*
X714588Y382780D01*
X715520Y382780D02*
X716453Y381848D01*
X716453Y380916D01*
X715520Y379984D01*
X713656Y379984D01*
X712724Y380916D01*
X718337Y380916D02*
X718337Y384645D01*
X719269Y385577D01*
X721133Y385577D01*
X722066Y384645D01*
X722066Y380916D01*
X721133Y379984D01*
X719269Y379984D01*
X718337Y380916D01*
X722066Y384645D01*
X713994Y408775D02*
X714926Y409707D01*
X716790Y409707D01*
X717723Y408775D01*
X717723Y407843D01*
X716790Y406910D01*
X715858Y406910D01*
X716790Y406910D02*
X717723Y405978D01*
X717723Y405046D01*
X716790Y404114D01*
X714926Y404114D01*
X713994Y405046D01*
X719607Y407843D02*
X721471Y409707D01*
X721471Y404114D01*
X719607Y404114D02*
X723336Y404114D01*
X713994Y434175D02*
X714926Y435107D01*
X716790Y435107D01*
X717723Y434175D01*
X717723Y433243D01*
X716790Y432310D01*
X715858Y432310D01*
X716790Y432310D02*
X717723Y431378D01*
X717723Y430446D01*
X716790Y429514D01*
X714926Y429514D01*
X713994Y430446D01*
X719607Y429514D02*
X723336Y429514D01*
X719607Y429514D02*
X723336Y433243D01*
X723336Y434175D01*
X722403Y435107D01*
X720539Y435107D01*
X719607Y434175D01*
X713994Y459575D02*
X714926Y460507D01*
X716790Y460507D01*
X717723Y459575D01*
X717723Y458643D01*
X716790Y457710D01*
X715858Y457710D01*
X716790Y457710D02*
X717723Y456778D01*
X717723Y455846D01*
X716790Y454914D01*
X714926Y454914D01*
X713994Y455846D01*
X719607Y459575D02*
X720539Y460507D01*
X722403Y460507D01*
X723336Y459575D01*
X723336Y458643D01*
X722403Y457710D01*
X721471Y457710D01*
X722403Y457710D02*
X723336Y456778D01*
X723336Y455846D01*
X722403Y454914D01*
X720539Y454914D01*
X719607Y455846D01*
X713994Y484975D02*
X714926Y485907D01*
X716790Y485907D01*
X717723Y484975D01*
X717723Y484043D01*
X716790Y483110D01*
X715858Y483110D01*
X716790Y483110D02*
X717723Y482178D01*
X717723Y481246D01*
X716790Y480314D01*
X714926Y480314D01*
X713994Y481246D01*
X722403Y480314D02*
X722403Y485907D01*
X719607Y483110D01*
X723336Y483110D01*
X713994Y510375D02*
X714926Y511307D01*
X716790Y511307D01*
X717723Y510375D01*
X717723Y509443D01*
X716790Y508510D01*
X715858Y508510D01*
X716790Y508510D02*
X717723Y507578D01*
X717723Y506646D01*
X716790Y505714D01*
X714926Y505714D01*
X713994Y506646D01*
X719607Y511307D02*
X723336Y511307D01*
X719607Y511307D02*
X719607Y508510D01*
X721471Y509443D01*
X722403Y509443D01*
X723336Y508510D01*
X723336Y506646D01*
X722403Y505714D01*
X720539Y505714D01*
X719607Y506646D01*
X676488Y531114D02*
X674624Y531114D01*
X675556Y531114D02*
X675556Y536707D01*
X674624Y536707D02*
X676488Y536707D01*
X678366Y536707D02*
X678366Y531114D01*
X678366Y536707D02*
X682095Y536707D01*
X680230Y533910D02*
X678366Y533910D01*
X683979Y531114D02*
X683979Y536707D01*
X683979Y531114D02*
X687708Y531114D01*
X689592Y531114D02*
X689592Y534843D01*
X691457Y536707D01*
X693321Y534843D01*
X693321Y531114D01*
X693321Y533910D02*
X689592Y533910D01*
X698002Y536707D02*
X698934Y535775D01*
X698002Y536707D02*
X696137Y536707D01*
X695205Y535775D01*
X695205Y532046D01*
X696137Y531114D01*
X698002Y531114D01*
X698934Y532046D01*
X698934Y533910D01*
X697070Y533910D01*
X706432Y532978D02*
X708296Y531114D01*
X706432Y532978D02*
X706432Y534843D01*
X708296Y536707D01*
X710174Y535775D02*
X711106Y536707D01*
X712970Y536707D01*
X713902Y535775D01*
X713902Y534843D01*
X712970Y533910D01*
X712038Y533910D01*
X712970Y533910D02*
X713902Y532978D01*
X713902Y532046D01*
X712970Y531114D01*
X711106Y531114D01*
X710174Y532046D01*
X717651Y535775D02*
X719515Y536707D01*
X717651Y535775D02*
X715787Y533910D01*
X715787Y532046D01*
X716719Y531114D01*
X718583Y531114D01*
X719515Y532046D01*
X719515Y532978D01*
X718583Y533910D01*
X715787Y533910D01*
X721400Y531114D02*
X723264Y532978D01*
X723264Y534843D01*
X721400Y536707D01*
X675218Y553974D02*
X675218Y559567D01*
X673354Y559567D02*
X677083Y559567D01*
X678967Y559567D02*
X678967Y553974D01*
X678967Y559567D02*
X682696Y559567D01*
X680831Y556770D02*
X678967Y556770D01*
X684580Y553974D02*
X684580Y559567D01*
X684580Y553974D02*
X688309Y553974D01*
X690193Y553974D02*
X690193Y557703D01*
X692058Y559567D01*
X693922Y557703D01*
X693922Y553974D01*
X693922Y556770D02*
X690193Y556770D01*
X698603Y559567D02*
X699535Y558635D01*
X698603Y559567D02*
X696739Y559567D01*
X695806Y558635D01*
X695806Y554906D01*
X696739Y553974D01*
X698603Y553974D01*
X699535Y554906D01*
X699535Y556770D01*
X697671Y556770D01*
X707033Y555838D02*
X708897Y553974D01*
X707033Y555838D02*
X707033Y557703D01*
X708897Y559567D01*
X710775Y558635D02*
X711707Y559567D01*
X713571Y559567D01*
X714503Y558635D01*
X714503Y557703D01*
X713571Y556770D01*
X712639Y556770D01*
X713571Y556770D02*
X714503Y555838D01*
X714503Y554906D01*
X713571Y553974D01*
X711707Y553974D01*
X710775Y554906D01*
X716388Y559567D02*
X720116Y559567D01*
X720116Y558635D01*
X716388Y554906D01*
X716388Y553974D01*
X722001Y553974D02*
X723865Y555838D01*
X723865Y557703D01*
X722001Y559567D01*
X521210Y554487D02*
X521210Y548894D01*
X518414Y551690D02*
X521210Y554487D01*
X522143Y551690D02*
X518414Y551690D01*
X526823Y548894D02*
X526823Y554487D01*
X524027Y551690D01*
X527756Y551690D01*
X545340Y548894D02*
X545340Y554487D01*
X542544Y551690D01*
X546273Y551690D01*
X548157Y548894D02*
X551886Y548894D01*
X548157Y548894D02*
X551886Y552623D01*
X551886Y553555D01*
X550953Y554487D01*
X549089Y554487D01*
X548157Y553555D01*
X572010Y554487D02*
X572010Y548894D01*
X569214Y551690D02*
X572010Y554487D01*
X572943Y551690D02*
X569214Y551690D01*
X574827Y552623D02*
X576691Y554487D01*
X576691Y548894D01*
X574827Y548894D02*
X578556Y548894D01*
X597410Y548894D02*
X597410Y554487D01*
X594614Y551690D01*
X598343Y551690D01*
X600227Y549826D02*
X600227Y553555D01*
X601159Y554487D01*
X603023Y554487D01*
X603956Y553555D01*
X603956Y549826D01*
X603023Y548894D01*
X601159Y548894D01*
X600227Y549826D01*
X603956Y553555D01*
X393278Y186187D02*
X391414Y184323D01*
X393278Y186187D02*
X393278Y180594D01*
X391414Y180594D02*
X395143Y180594D01*
X397027Y186187D02*
X400756Y186187D01*
X397027Y186187D02*
X397027Y183390D01*
X398891Y184323D01*
X399823Y184323D01*
X400756Y183390D01*
X400756Y181526D01*
X399823Y180594D01*
X397959Y180594D01*
X397027Y181526D01*
X391414Y209723D02*
X393278Y211587D01*
X393278Y205994D01*
X391414Y205994D02*
X395143Y205994D01*
X399823Y205994D02*
X399823Y211587D01*
X397027Y208790D01*
X400756Y208790D01*
X391414Y236393D02*
X393278Y238257D01*
X393278Y232664D01*
X391414Y232664D02*
X395143Y232664D01*
X397027Y237325D02*
X397959Y238257D01*
X399823Y238257D01*
X400756Y237325D01*
X400756Y236393D01*
X399823Y235460D01*
X398891Y235460D01*
X399823Y235460D02*
X400756Y234528D01*
X400756Y233596D01*
X399823Y232664D01*
X397959Y232664D01*
X397027Y233596D01*
X391414Y260523D02*
X393278Y262387D01*
X393278Y256794D01*
X391414Y256794D02*
X395143Y256794D01*
X397027Y256794D02*
X400756Y256794D01*
X397027Y256794D02*
X400756Y260523D01*
X400756Y261455D01*
X399823Y262387D01*
X397959Y262387D01*
X397027Y261455D01*
X391414Y285923D02*
X393278Y287787D01*
X393278Y282194D01*
X391414Y282194D02*
X395143Y282194D01*
X397027Y285923D02*
X398891Y287787D01*
X398891Y282194D01*
X397027Y282194D02*
X400756Y282194D01*
X391414Y311323D02*
X393278Y313187D01*
X393278Y307594D01*
X391414Y307594D02*
X395143Y307594D01*
X397027Y308526D02*
X397027Y312255D01*
X397959Y313187D01*
X399823Y313187D01*
X400756Y312255D01*
X400756Y308526D01*
X399823Y307594D01*
X397959Y307594D01*
X397027Y308526D01*
X400756Y312255D01*
X397426Y332994D02*
X396494Y333926D01*
X397426Y332994D02*
X399290Y332994D01*
X400223Y333926D01*
X400223Y337655D01*
X399290Y338587D01*
X397426Y338587D01*
X396494Y337655D01*
X396494Y336723D01*
X397426Y335790D01*
X400223Y335790D01*
X378633Y80520D02*
X374904Y80520D01*
X376768Y82385D02*
X376768Y78656D01*
X386130Y77724D02*
X386130Y83317D01*
X386130Y80520D02*
X389859Y80520D01*
X389859Y77724D02*
X389859Y83317D01*
X392675Y77724D02*
X394540Y77724D01*
X392675Y77724D02*
X391743Y78656D01*
X391743Y80520D01*
X392675Y81453D01*
X394540Y81453D01*
X395472Y80520D01*
X395472Y79588D01*
X391743Y79588D01*
X398289Y81453D02*
X400153Y81453D01*
X401085Y80520D01*
X401085Y77724D01*
X398289Y77724D01*
X397356Y78656D01*
X398289Y79588D01*
X401085Y79588D01*
X403902Y78656D02*
X403902Y82385D01*
X403902Y78656D02*
X404834Y77724D01*
X404834Y81453D02*
X402969Y81453D01*
X407644Y77724D02*
X409508Y77724D01*
X407644Y77724D02*
X406712Y78656D01*
X406712Y80520D01*
X407644Y81453D01*
X409508Y81453D01*
X410440Y80520D01*
X410440Y79588D01*
X406712Y79588D01*
X412325Y77724D02*
X412325Y81453D01*
X414189Y81453D02*
X412325Y79588D01*
X414189Y81453D02*
X415121Y81453D01*
X379903Y57660D02*
X376174Y57660D01*
X387400Y54864D02*
X387400Y60457D01*
X387400Y57660D02*
X391129Y57660D01*
X391129Y54864D02*
X391129Y60457D01*
X393945Y54864D02*
X395810Y54864D01*
X393945Y54864D02*
X393013Y55796D01*
X393013Y57660D01*
X393945Y58593D01*
X395810Y58593D01*
X396742Y57660D01*
X396742Y56728D01*
X393013Y56728D01*
X399559Y58593D02*
X401423Y58593D01*
X402355Y57660D01*
X402355Y54864D01*
X399559Y54864D01*
X398626Y55796D01*
X399559Y56728D01*
X402355Y56728D01*
X405172Y55796D02*
X405172Y59525D01*
X405172Y55796D02*
X406104Y54864D01*
X406104Y58593D02*
X404239Y58593D01*
X408914Y54864D02*
X410778Y54864D01*
X408914Y54864D02*
X407982Y55796D01*
X407982Y57660D01*
X408914Y58593D01*
X410778Y58593D01*
X411710Y57660D01*
X411710Y56728D01*
X407982Y56728D01*
X413595Y54864D02*
X413595Y58593D01*
X415459Y58593D02*
X413595Y56728D01*
X415459Y58593D02*
X416391Y58593D01*
X403100Y33787D02*
X404033Y32855D01*
X403100Y33787D02*
X401236Y33787D01*
X400304Y32855D01*
X400304Y29126D01*
X401236Y28194D01*
X403100Y28194D01*
X404033Y29126D01*
X404033Y30990D01*
X402168Y30990D01*
X405917Y28194D02*
X405917Y33787D01*
X409646Y28194D01*
X409646Y33787D01*
X411530Y33787D02*
X411530Y28194D01*
X414327Y28194D01*
X415259Y29126D01*
X415259Y32855D01*
X414327Y33787D01*
X411530Y33787D01*
X23033Y380240D02*
X19304Y380240D01*
X21168Y382105D02*
X21168Y378376D01*
X366014Y564390D02*
X369743Y564390D01*
X367878Y562526D02*
X367878Y566255D01*
X105583Y494540D02*
X101854Y494540D01*
X103718Y496405D02*
X103718Y492676D01*
X131064Y549150D02*
X134793Y549150D01*
X132928Y547286D02*
X132928Y551015D01*
X136677Y551015D02*
X137609Y551947D01*
X139473Y551947D01*
X140406Y551015D01*
X140406Y550083D01*
X139473Y549150D01*
X138541Y549150D01*
X139473Y549150D02*
X140406Y548218D01*
X140406Y547286D01*
X139473Y546354D01*
X137609Y546354D01*
X136677Y547286D01*
X142290Y548218D02*
X142290Y551947D01*
X142290Y548218D02*
X144154Y546354D01*
X146019Y548218D01*
X146019Y551947D01*
X147903Y551015D02*
X148835Y551947D01*
X150700Y551947D01*
X151632Y551015D01*
X151632Y550083D01*
X150700Y549150D01*
X149768Y549150D01*
X150700Y549150D02*
X151632Y548218D01*
X151632Y547286D01*
X150700Y546354D01*
X148835Y546354D01*
X147903Y547286D01*
X163070Y551947D02*
X164003Y551015D01*
X163070Y551947D02*
X161206Y551947D01*
X160274Y551015D01*
X160274Y547286D01*
X161206Y546354D01*
X163070Y546354D01*
X164003Y547286D01*
X164003Y549150D01*
X162138Y549150D01*
X165887Y546354D02*
X165887Y551947D01*
X169616Y546354D01*
X169616Y551947D01*
X171500Y551947D02*
X171500Y546354D01*
X174297Y546354D01*
X175229Y547286D01*
X175229Y551015D01*
X174297Y551947D01*
X171500Y551947D01*
X562864Y174500D02*
X566593Y174500D01*
X564728Y172636D02*
X564728Y176365D01*
X55075Y343523D02*
X54143Y342590D01*
X54143Y340726D01*
X55075Y339794D01*
X58804Y339794D01*
X59736Y340726D01*
X59736Y342590D01*
X58804Y343523D01*
X56008Y345407D02*
X54143Y347271D01*
X59736Y347271D01*
X59736Y345407D02*
X59736Y349136D01*
X87273Y571345D02*
X86340Y572277D01*
X84476Y572277D01*
X83544Y571345D01*
X83544Y567616D01*
X84476Y566684D01*
X86340Y566684D01*
X87273Y567616D01*
X89157Y566684D02*
X92886Y566684D01*
X89157Y566684D02*
X92886Y570413D01*
X92886Y571345D01*
X91953Y572277D01*
X90089Y572277D01*
X89157Y571345D01*
X466833Y357480D02*
X467765Y358413D01*
X466833Y357480D02*
X466833Y355616D01*
X467765Y354684D01*
X471494Y354684D01*
X472426Y355616D01*
X472426Y357480D01*
X471494Y358413D01*
X467765Y360297D02*
X466833Y361229D01*
X466833Y363093D01*
X467765Y364026D01*
X468698Y364026D01*
X469630Y363093D01*
X469630Y362161D01*
X469630Y363093D02*
X470562Y364026D01*
X471494Y364026D01*
X472426Y363093D01*
X472426Y361229D01*
X471494Y360297D01*
X657500Y343507D02*
X658433Y342575D01*
X657500Y343507D02*
X655636Y343507D01*
X654704Y342575D01*
X654704Y338846D01*
X655636Y337914D01*
X657500Y337914D01*
X658433Y338846D01*
X663113Y337914D02*
X663113Y343507D01*
X660317Y340710D01*
X664046Y340710D01*
X482351Y323476D02*
X481419Y322544D01*
X481419Y320680D01*
X482351Y319748D01*
X486080Y319748D01*
X487012Y320680D01*
X487012Y322544D01*
X486080Y323476D01*
X481419Y325361D02*
X481419Y329089D01*
X481419Y325361D02*
X484216Y325361D01*
X483284Y327225D01*
X483284Y328157D01*
X484216Y329089D01*
X486080Y329089D01*
X487012Y328157D01*
X487012Y326293D01*
X486080Y325361D01*
X416561Y340196D02*
X415629Y339264D01*
X415629Y337400D01*
X416561Y336468D01*
X420290Y336468D01*
X421222Y337400D01*
X421222Y339264D01*
X420290Y340196D01*
X416561Y343945D02*
X415629Y345809D01*
X416561Y343945D02*
X418426Y342081D01*
X420290Y342081D01*
X421222Y343013D01*
X421222Y344877D01*
X420290Y345809D01*
X419358Y345809D01*
X418426Y344877D01*
X418426Y342081D01*
X108361Y462136D02*
X107429Y461204D01*
X107429Y459340D01*
X108361Y458408D01*
X112090Y458408D01*
X113022Y459340D01*
X113022Y461204D01*
X112090Y462136D01*
X107429Y464021D02*
X107429Y467749D01*
X108361Y467749D01*
X112090Y464021D01*
X113022Y464021D01*
X44823Y455095D02*
X43890Y456027D01*
X42026Y456027D01*
X41094Y455095D01*
X41094Y451366D01*
X42026Y450434D01*
X43890Y450434D01*
X44823Y451366D01*
X46707Y455095D02*
X47639Y456027D01*
X49503Y456027D01*
X50436Y455095D01*
X50436Y454163D01*
X49503Y453230D01*
X50436Y452298D01*
X50436Y451366D01*
X49503Y450434D01*
X47639Y450434D01*
X46707Y451366D01*
X46707Y452298D01*
X47639Y453230D01*
X46707Y454163D01*
X46707Y455095D01*
X47639Y453230D02*
X49503Y453230D01*
D12*
X519800Y368000D02*
X523800Y372000D01*
X611800Y372000D01*
X615800Y368000D01*
X615800Y280000D01*
X611800Y276000D01*
X523800Y276000D01*
X519800Y280000D01*
X519800Y368000D01*
D13*
X524973Y364000D02*
X524975Y364106D01*
X524981Y364211D01*
X524991Y364317D01*
X525005Y364421D01*
X525022Y364526D01*
X525044Y364629D01*
X525069Y364732D01*
X525099Y364833D01*
X525132Y364934D01*
X525168Y365033D01*
X525209Y365130D01*
X525253Y365227D01*
X525301Y365321D01*
X525352Y365414D01*
X525406Y365504D01*
X525464Y365593D01*
X525525Y365679D01*
X525590Y365763D01*
X525657Y365844D01*
X525728Y365923D01*
X525801Y365999D01*
X525877Y366072D01*
X525956Y366143D01*
X526037Y366210D01*
X526121Y366275D01*
X526207Y366336D01*
X526296Y366394D01*
X526387Y366448D01*
X526479Y366499D01*
X526573Y366547D01*
X526670Y366591D01*
X526767Y366632D01*
X526866Y366668D01*
X526967Y366701D01*
X527068Y366731D01*
X527171Y366756D01*
X527274Y366778D01*
X527379Y366795D01*
X527483Y366809D01*
X527589Y366819D01*
X527694Y366825D01*
X527800Y366827D01*
X527906Y366825D01*
X528011Y366819D01*
X528117Y366809D01*
X528221Y366795D01*
X528326Y366778D01*
X528429Y366756D01*
X528532Y366731D01*
X528633Y366701D01*
X528734Y366668D01*
X528833Y366632D01*
X528930Y366591D01*
X529027Y366547D01*
X529121Y366499D01*
X529214Y366448D01*
X529304Y366394D01*
X529393Y366336D01*
X529479Y366275D01*
X529563Y366210D01*
X529644Y366143D01*
X529723Y366072D01*
X529799Y365999D01*
X529872Y365923D01*
X529943Y365844D01*
X530010Y365763D01*
X530075Y365679D01*
X530136Y365593D01*
X530194Y365504D01*
X530248Y365413D01*
X530299Y365321D01*
X530347Y365227D01*
X530391Y365130D01*
X530432Y365033D01*
X530468Y364934D01*
X530501Y364833D01*
X530531Y364732D01*
X530556Y364629D01*
X530578Y364526D01*
X530595Y364421D01*
X530609Y364317D01*
X530619Y364211D01*
X530625Y364106D01*
X530627Y364000D01*
X530625Y363894D01*
X530619Y363789D01*
X530609Y363683D01*
X530595Y363579D01*
X530578Y363474D01*
X530556Y363371D01*
X530531Y363268D01*
X530501Y363167D01*
X530468Y363066D01*
X530432Y362967D01*
X530391Y362870D01*
X530347Y362773D01*
X530299Y362679D01*
X530248Y362586D01*
X530194Y362496D01*
X530136Y362407D01*
X530075Y362321D01*
X530010Y362237D01*
X529943Y362156D01*
X529872Y362077D01*
X529799Y362001D01*
X529723Y361928D01*
X529644Y361857D01*
X529563Y361790D01*
X529479Y361725D01*
X529393Y361664D01*
X529304Y361606D01*
X529213Y361552D01*
X529121Y361501D01*
X529027Y361453D01*
X528930Y361409D01*
X528833Y361368D01*
X528734Y361332D01*
X528633Y361299D01*
X528532Y361269D01*
X528429Y361244D01*
X528326Y361222D01*
X528221Y361205D01*
X528117Y361191D01*
X528011Y361181D01*
X527906Y361175D01*
X527800Y361173D01*
X527694Y361175D01*
X527589Y361181D01*
X527483Y361191D01*
X527379Y361205D01*
X527274Y361222D01*
X527171Y361244D01*
X527068Y361269D01*
X526967Y361299D01*
X526866Y361332D01*
X526767Y361368D01*
X526670Y361409D01*
X526573Y361453D01*
X526479Y361501D01*
X526386Y361552D01*
X526296Y361606D01*
X526207Y361664D01*
X526121Y361725D01*
X526037Y361790D01*
X525956Y361857D01*
X525877Y361928D01*
X525801Y362001D01*
X525728Y362077D01*
X525657Y362156D01*
X525590Y362237D01*
X525525Y362321D01*
X525464Y362407D01*
X525406Y362496D01*
X525352Y362587D01*
X525301Y362679D01*
X525253Y362773D01*
X525209Y362870D01*
X525168Y362967D01*
X525132Y363066D01*
X525099Y363167D01*
X525069Y363268D01*
X525044Y363371D01*
X525022Y363474D01*
X525005Y363579D01*
X524991Y363683D01*
X524981Y363789D01*
X524975Y363894D01*
X524973Y364000D01*
D12*
X203370Y411810D02*
X203366Y471754D01*
X203370Y411810D02*
X137830Y411810D01*
X137834Y471754D01*
D14*
X170600Y406984D03*
D11*
X132246Y408254D02*
X132246Y410118D01*
X132246Y409186D02*
X126653Y409186D01*
X126653Y408254D02*
X126653Y410118D01*
X126653Y414792D02*
X127585Y415725D01*
X126653Y414792D02*
X126653Y412928D01*
X127585Y411996D01*
X131314Y411996D01*
X132246Y412928D01*
X132246Y414792D01*
X131314Y415725D01*
X132246Y417609D02*
X132246Y421338D01*
X128518Y421338D02*
X132246Y417609D01*
X128518Y421338D02*
X127585Y421338D01*
X126653Y420406D01*
X126653Y418541D01*
X127585Y417609D01*
D12*
X101650Y9200D02*
X15650Y9200D01*
X15650Y152200D01*
X31650Y152200D01*
X85650Y152200D02*
X101650Y152200D01*
X101650Y88700D02*
X101650Y9200D01*
X101650Y136200D02*
X101650Y152200D01*
D11*
X21736Y164254D02*
X20804Y165186D01*
X21736Y164254D02*
X22668Y164254D01*
X23600Y165186D01*
X23600Y169847D01*
X22668Y169847D02*
X24533Y169847D01*
X26417Y167983D02*
X28281Y169847D01*
X28281Y164254D01*
X26417Y164254D02*
X30146Y164254D01*
D13*
X64362Y348236D02*
X126338Y348236D01*
X126338Y380240D01*
X64362Y380240D01*
X64362Y348236D01*
D15*
X94600Y511100D03*
X102100Y511100D03*
D16*
X98350Y511100D03*
D11*
X83613Y502153D02*
X83613Y498424D01*
X86410Y498424D01*
X85478Y500288D01*
X85478Y501220D01*
X86410Y502153D01*
X88274Y502153D01*
X89206Y501220D01*
X89206Y499356D01*
X88274Y498424D01*
X87342Y504037D02*
X83613Y504037D01*
X87342Y504037D02*
X89206Y505901D01*
X87342Y507766D01*
X83613Y507766D01*
X90138Y509650D02*
X90138Y513379D01*
X89206Y515263D02*
X83613Y515263D01*
X89206Y515263D02*
X89206Y518992D01*
X83613Y520876D02*
X83613Y524605D01*
X83613Y520876D02*
X89206Y520876D01*
X89206Y524605D01*
X86410Y522741D02*
X86410Y520876D01*
X89206Y526489D02*
X83613Y526489D01*
X89206Y526489D02*
X89206Y529286D01*
X88274Y530218D01*
X84545Y530218D01*
X83613Y529286D01*
X83613Y526489D01*
D17*
X355350Y569650D03*
X355350Y577150D03*
D16*
X355350Y573400D03*
D11*
X340591Y586189D02*
X339659Y587121D01*
X337794Y587121D01*
X336862Y586189D01*
X336862Y585257D01*
X337794Y584324D01*
X339659Y584324D01*
X340591Y583392D01*
X340591Y582460D01*
X339659Y581528D01*
X337794Y581528D01*
X336862Y582460D01*
X345272Y587121D02*
X346204Y586189D01*
X345272Y587121D02*
X343407Y587121D01*
X342475Y586189D01*
X342475Y582460D01*
X343407Y581528D01*
X345272Y581528D01*
X346204Y582460D01*
X348088Y581528D02*
X348088Y587121D01*
X348088Y583392D02*
X351817Y587121D01*
X349021Y584324D02*
X351817Y581528D01*
X353701Y580596D02*
X357430Y580596D01*
X359315Y581528D02*
X359315Y587121D01*
X359315Y581528D02*
X363043Y581528D01*
X364928Y587121D02*
X368656Y587121D01*
X364928Y587121D02*
X364928Y581528D01*
X368656Y581528D01*
X366792Y584324D02*
X364928Y584324D01*
X370541Y581528D02*
X370541Y587121D01*
X370541Y581528D02*
X373337Y581528D01*
X374269Y582460D01*
X374269Y586189D01*
X373337Y587121D01*
X370541Y587121D01*
D15*
X25300Y361900D03*
X17800Y361900D03*
D16*
X21550Y361900D03*
D11*
X5289Y344344D02*
X6221Y343412D01*
X5289Y344344D02*
X5289Y346209D01*
X6221Y347141D01*
X7154Y347141D01*
X8086Y346209D01*
X8086Y345276D01*
X8086Y346209D02*
X9018Y347141D01*
X9950Y347141D01*
X10882Y346209D01*
X10882Y344344D01*
X9950Y343412D01*
X9018Y349025D02*
X5289Y349025D01*
X9018Y349025D02*
X10882Y350890D01*
X9018Y352754D01*
X5289Y352754D01*
X6221Y354638D02*
X5289Y355571D01*
X5289Y357435D01*
X6221Y358367D01*
X7154Y358367D01*
X8086Y357435D01*
X8086Y356503D01*
X8086Y357435D02*
X9018Y358367D01*
X9950Y358367D01*
X10882Y357435D01*
X10882Y355571D01*
X9950Y354638D01*
X11814Y360251D02*
X11814Y363980D01*
X10882Y365865D02*
X5289Y365865D01*
X10882Y365865D02*
X10882Y369593D01*
X5289Y371478D02*
X5289Y375206D01*
X5289Y371478D02*
X10882Y371478D01*
X10882Y375206D01*
X8086Y373342D02*
X8086Y371478D01*
X10882Y377091D02*
X5289Y377091D01*
X10882Y377091D02*
X10882Y379887D01*
X9950Y380819D01*
X6221Y380819D01*
X5289Y379887D01*
X5289Y377091D01*
D18*
X415820Y317950D02*
X455440Y317950D01*
X415820Y317950D02*
X415820Y350570D01*
X455440Y350570D01*
X455440Y317950D01*
D11*
X32108Y563858D02*
X32108Y569451D01*
X34904Y569451D01*
X35836Y568519D01*
X35836Y566654D01*
X34904Y565722D01*
X32108Y565722D01*
X33972Y565722D02*
X35836Y563858D01*
X37721Y567587D02*
X39585Y569451D01*
X39585Y563858D01*
X37721Y563858D02*
X41449Y563858D01*
X33044Y503617D02*
X33044Y498024D01*
X33044Y503617D02*
X35840Y503617D01*
X36773Y502685D01*
X36773Y500820D01*
X35840Y499888D01*
X33044Y499888D01*
X34908Y499888D02*
X36773Y498024D01*
X38657Y498024D02*
X42386Y498024D01*
X38657Y498024D02*
X42386Y501753D01*
X42386Y502685D01*
X41453Y503617D01*
X39589Y503617D01*
X38657Y502685D01*
X421024Y580254D02*
X421024Y585847D01*
X423820Y585847D01*
X424753Y584915D01*
X424753Y583050D01*
X423820Y582118D01*
X421024Y582118D01*
X422888Y582118D02*
X424753Y580254D01*
X426637Y584915D02*
X427569Y585847D01*
X429433Y585847D01*
X430366Y584915D01*
X430366Y583983D01*
X429433Y583050D01*
X428501Y583050D01*
X429433Y583050D02*
X430366Y582118D01*
X430366Y581186D01*
X429433Y580254D01*
X427569Y580254D01*
X426637Y581186D01*
X56596Y378244D02*
X51003Y378244D01*
X51003Y381040D01*
X51935Y381973D01*
X53800Y381973D01*
X54732Y381040D01*
X54732Y378244D01*
X54732Y380108D02*
X56596Y381973D01*
X51935Y385721D02*
X51003Y387586D01*
X51935Y385721D02*
X53800Y383857D01*
X55664Y383857D01*
X56596Y384789D01*
X56596Y386653D01*
X55664Y387586D01*
X54732Y387586D01*
X53800Y386653D01*
X53800Y383857D01*
D19*
X70520Y270520D02*
X70520Y267980D01*
X70520Y270520D02*
X55280Y270520D01*
X55280Y267980D01*
X55280Y207020D02*
X55280Y204480D01*
X70520Y204480D01*
X70520Y207020D01*
D11*
X34960Y224800D02*
X32420Y224800D01*
X34960Y224800D02*
X34960Y250200D01*
X32420Y250200D01*
X90840Y248930D02*
X90840Y224800D01*
X90840Y248930D02*
X93380Y248930D01*
X93380Y224800D02*
X90840Y224800D01*
D19*
X93380Y224800D02*
X93380Y215910D01*
X32420Y250200D02*
X32420Y259090D01*
X32420Y250200D02*
X32420Y224800D01*
X32420Y215910D01*
X93380Y224800D02*
X93380Y248930D01*
X93380Y259090D01*
X73060Y267980D02*
X70520Y267980D01*
X55280Y267980D02*
X52740Y267980D01*
X70520Y207020D02*
X73060Y207020D01*
X55280Y207020D02*
X52740Y207020D01*
X45120Y237500D02*
X45125Y237936D01*
X45141Y238372D01*
X45168Y238808D01*
X45206Y239243D01*
X45254Y239676D01*
X45312Y240109D01*
X45382Y240540D01*
X45462Y240969D01*
X45552Y241396D01*
X45653Y241820D01*
X45764Y242242D01*
X45886Y242661D01*
X46017Y243077D01*
X46159Y243490D01*
X46311Y243899D01*
X46473Y244304D01*
X46645Y244705D01*
X46827Y245102D01*
X47018Y245494D01*
X47219Y245881D01*
X47430Y246264D01*
X47650Y246641D01*
X47879Y247012D01*
X48116Y247378D01*
X48363Y247738D01*
X48619Y248092D01*
X48883Y248439D01*
X49156Y248780D01*
X49437Y249113D01*
X49726Y249440D01*
X50023Y249760D01*
X50328Y250072D01*
X50640Y250377D01*
X50960Y250674D01*
X51287Y250963D01*
X51620Y251244D01*
X51961Y251517D01*
X52308Y251781D01*
X52662Y252037D01*
X53022Y252284D01*
X53388Y252521D01*
X53759Y252750D01*
X54136Y252970D01*
X54519Y253181D01*
X54906Y253382D01*
X55298Y253573D01*
X55695Y253755D01*
X56096Y253927D01*
X56501Y254089D01*
X56910Y254241D01*
X57323Y254383D01*
X57739Y254514D01*
X58158Y254636D01*
X58580Y254747D01*
X59004Y254848D01*
X59431Y254938D01*
X59860Y255018D01*
X60291Y255088D01*
X60724Y255146D01*
X61157Y255194D01*
X61592Y255232D01*
X62028Y255259D01*
X62464Y255275D01*
X62900Y255280D01*
X63336Y255275D01*
X63772Y255259D01*
X64208Y255232D01*
X64643Y255194D01*
X65076Y255146D01*
X65509Y255088D01*
X65940Y255018D01*
X66369Y254938D01*
X66796Y254848D01*
X67220Y254747D01*
X67642Y254636D01*
X68061Y254514D01*
X68477Y254383D01*
X68890Y254241D01*
X69299Y254089D01*
X69704Y253927D01*
X70105Y253755D01*
X70502Y253573D01*
X70894Y253382D01*
X71281Y253181D01*
X71664Y252970D01*
X72041Y252750D01*
X72412Y252521D01*
X72778Y252284D01*
X73138Y252037D01*
X73492Y251781D01*
X73839Y251517D01*
X74180Y251244D01*
X74513Y250963D01*
X74840Y250674D01*
X75160Y250377D01*
X75472Y250072D01*
X75777Y249760D01*
X76074Y249440D01*
X76363Y249113D01*
X76644Y248780D01*
X76917Y248439D01*
X77181Y248092D01*
X77437Y247738D01*
X77684Y247378D01*
X77921Y247012D01*
X78150Y246641D01*
X78370Y246264D01*
X78581Y245881D01*
X78782Y245494D01*
X78973Y245102D01*
X79155Y244705D01*
X79327Y244304D01*
X79489Y243899D01*
X79641Y243490D01*
X79783Y243077D01*
X79914Y242661D01*
X80036Y242242D01*
X80147Y241820D01*
X80248Y241396D01*
X80338Y240969D01*
X80418Y240540D01*
X80488Y240109D01*
X80546Y239676D01*
X80594Y239243D01*
X80632Y238808D01*
X80659Y238372D01*
X80675Y237936D01*
X80680Y237500D01*
X80675Y237064D01*
X80659Y236628D01*
X80632Y236192D01*
X80594Y235757D01*
X80546Y235324D01*
X80488Y234891D01*
X80418Y234460D01*
X80338Y234031D01*
X80248Y233604D01*
X80147Y233180D01*
X80036Y232758D01*
X79914Y232339D01*
X79783Y231923D01*
X79641Y231510D01*
X79489Y231101D01*
X79327Y230696D01*
X79155Y230295D01*
X78973Y229898D01*
X78782Y229506D01*
X78581Y229119D01*
X78370Y228736D01*
X78150Y228359D01*
X77921Y227988D01*
X77684Y227622D01*
X77437Y227262D01*
X77181Y226908D01*
X76917Y226561D01*
X76644Y226220D01*
X76363Y225887D01*
X76074Y225560D01*
X75777Y225240D01*
X75472Y224928D01*
X75160Y224623D01*
X74840Y224326D01*
X74513Y224037D01*
X74180Y223756D01*
X73839Y223483D01*
X73492Y223219D01*
X73138Y222963D01*
X72778Y222716D01*
X72412Y222479D01*
X72041Y222250D01*
X71664Y222030D01*
X71281Y221819D01*
X70894Y221618D01*
X70502Y221427D01*
X70105Y221245D01*
X69704Y221073D01*
X69299Y220911D01*
X68890Y220759D01*
X68477Y220617D01*
X68061Y220486D01*
X67642Y220364D01*
X67220Y220253D01*
X66796Y220152D01*
X66369Y220062D01*
X65940Y219982D01*
X65509Y219912D01*
X65076Y219854D01*
X64643Y219806D01*
X64208Y219768D01*
X63772Y219741D01*
X63336Y219725D01*
X62900Y219720D01*
X62464Y219725D01*
X62028Y219741D01*
X61592Y219768D01*
X61157Y219806D01*
X60724Y219854D01*
X60291Y219912D01*
X59860Y219982D01*
X59431Y220062D01*
X59004Y220152D01*
X58580Y220253D01*
X58158Y220364D01*
X57739Y220486D01*
X57323Y220617D01*
X56910Y220759D01*
X56501Y220911D01*
X56096Y221073D01*
X55695Y221245D01*
X55298Y221427D01*
X54906Y221618D01*
X54519Y221819D01*
X54136Y222030D01*
X53759Y222250D01*
X53388Y222479D01*
X53022Y222716D01*
X52662Y222963D01*
X52308Y223219D01*
X51961Y223483D01*
X51620Y223756D01*
X51287Y224037D01*
X50960Y224326D01*
X50640Y224623D01*
X50328Y224928D01*
X50023Y225240D01*
X49726Y225560D01*
X49437Y225887D01*
X49156Y226220D01*
X48883Y226561D01*
X48619Y226908D01*
X48363Y227262D01*
X48116Y227622D01*
X47879Y227988D01*
X47650Y228359D01*
X47430Y228736D01*
X47219Y229119D01*
X47018Y229506D01*
X46827Y229898D01*
X46645Y230295D01*
X46473Y230696D01*
X46311Y231101D01*
X46159Y231510D01*
X46017Y231923D01*
X45886Y232339D01*
X45764Y232758D01*
X45653Y233180D01*
X45552Y233604D01*
X45462Y234031D01*
X45382Y234460D01*
X45312Y234891D01*
X45254Y235324D01*
X45206Y235757D01*
X45168Y236192D01*
X45141Y236628D01*
X45125Y237064D01*
X45120Y237500D01*
X60360Y237500D02*
X60362Y237600D01*
X60368Y237701D01*
X60378Y237800D01*
X60392Y237900D01*
X60409Y237999D01*
X60431Y238097D01*
X60457Y238194D01*
X60486Y238290D01*
X60519Y238384D01*
X60556Y238478D01*
X60596Y238570D01*
X60640Y238660D01*
X60688Y238748D01*
X60739Y238835D01*
X60793Y238919D01*
X60851Y239001D01*
X60912Y239081D01*
X60976Y239158D01*
X61043Y239233D01*
X61113Y239305D01*
X61186Y239374D01*
X61261Y239440D01*
X61339Y239504D01*
X61419Y239564D01*
X61502Y239621D01*
X61587Y239674D01*
X61674Y239724D01*
X61763Y239771D01*
X61853Y239814D01*
X61945Y239854D01*
X62039Y239890D01*
X62134Y239922D01*
X62230Y239950D01*
X62328Y239975D01*
X62426Y239995D01*
X62525Y240012D01*
X62625Y240025D01*
X62724Y240034D01*
X62825Y240039D01*
X62925Y240040D01*
X63025Y240037D01*
X63126Y240030D01*
X63225Y240019D01*
X63325Y240004D01*
X63423Y239986D01*
X63521Y239963D01*
X63618Y239936D01*
X63713Y239906D01*
X63808Y239872D01*
X63901Y239834D01*
X63992Y239793D01*
X64082Y239748D01*
X64170Y239700D01*
X64256Y239648D01*
X64340Y239593D01*
X64421Y239534D01*
X64500Y239472D01*
X64577Y239408D01*
X64651Y239340D01*
X64722Y239269D01*
X64791Y239196D01*
X64856Y239120D01*
X64919Y239041D01*
X64978Y238960D01*
X65034Y238877D01*
X65087Y238792D01*
X65136Y238704D01*
X65182Y238615D01*
X65224Y238524D01*
X65263Y238431D01*
X65298Y238337D01*
X65329Y238242D01*
X65357Y238145D01*
X65380Y238048D01*
X65400Y237949D01*
X65416Y237850D01*
X65428Y237751D01*
X65436Y237650D01*
X65440Y237550D01*
X65440Y237450D01*
X65436Y237350D01*
X65428Y237249D01*
X65416Y237150D01*
X65400Y237051D01*
X65380Y236952D01*
X65357Y236855D01*
X65329Y236758D01*
X65298Y236663D01*
X65263Y236569D01*
X65224Y236476D01*
X65182Y236385D01*
X65136Y236296D01*
X65087Y236208D01*
X65034Y236123D01*
X64978Y236040D01*
X64919Y235959D01*
X64856Y235880D01*
X64791Y235804D01*
X64722Y235731D01*
X64651Y235660D01*
X64577Y235592D01*
X64500Y235528D01*
X64421Y235466D01*
X64340Y235407D01*
X64256Y235352D01*
X64170Y235300D01*
X64082Y235252D01*
X63992Y235207D01*
X63901Y235166D01*
X63808Y235128D01*
X63713Y235094D01*
X63618Y235064D01*
X63521Y235037D01*
X63423Y235014D01*
X63325Y234996D01*
X63225Y234981D01*
X63126Y234970D01*
X63025Y234963D01*
X62925Y234960D01*
X62825Y234961D01*
X62724Y234966D01*
X62625Y234975D01*
X62525Y234988D01*
X62426Y235005D01*
X62328Y235025D01*
X62230Y235050D01*
X62134Y235078D01*
X62039Y235110D01*
X61945Y235146D01*
X61853Y235186D01*
X61763Y235229D01*
X61674Y235276D01*
X61587Y235326D01*
X61502Y235379D01*
X61419Y235436D01*
X61339Y235496D01*
X61261Y235560D01*
X61186Y235626D01*
X61113Y235695D01*
X61043Y235767D01*
X60976Y235842D01*
X60912Y235919D01*
X60851Y235999D01*
X60793Y236081D01*
X60739Y236165D01*
X60688Y236252D01*
X60640Y236340D01*
X60596Y236430D01*
X60556Y236522D01*
X60519Y236616D01*
X60486Y236710D01*
X60457Y236806D01*
X60431Y236903D01*
X60409Y237001D01*
X60392Y237100D01*
X60378Y237200D01*
X60368Y237299D01*
X60362Y237400D01*
X60360Y237500D01*
D11*
X21155Y211003D02*
X20223Y210070D01*
X20223Y208206D01*
X21155Y207274D01*
X22088Y207274D01*
X23020Y208206D01*
X23020Y210070D01*
X23952Y211003D01*
X24884Y211003D01*
X25816Y210070D01*
X25816Y208206D01*
X24884Y207274D01*
X22088Y212887D02*
X20223Y214751D01*
X25816Y214751D01*
X25816Y212887D02*
X25816Y216616D01*
D19*
X402550Y537550D02*
X415250Y537550D01*
X421600Y531200D01*
X427950Y537550D01*
X440650Y537550D01*
X447000Y531200D01*
X402550Y537550D02*
X396200Y531200D01*
X447000Y531200D02*
X453350Y537550D01*
X466050Y537550D01*
X472400Y531200D01*
X472400Y493100D01*
X421600Y493100D02*
X415250Y486750D01*
X440650Y486750D02*
X447000Y493100D01*
X440650Y486750D02*
X427950Y486750D01*
X421600Y493100D01*
X396200Y493100D02*
X396200Y531200D01*
X396200Y493100D02*
X402550Y486750D01*
X415250Y486750D01*
X466050Y486750D02*
X472400Y493100D01*
X466050Y486750D02*
X453350Y486750D01*
X447000Y493100D01*
D18*
X406998Y482315D02*
X403185Y478502D01*
X406998Y482315D02*
X406998Y470875D01*
X403185Y470875D02*
X410812Y470875D01*
X479388Y528668D02*
X483202Y530575D01*
X479388Y528668D02*
X475575Y524855D01*
X475575Y521042D01*
X477482Y519135D01*
X481295Y519135D01*
X483202Y521042D01*
X483202Y522948D01*
X481295Y524855D01*
X475575Y524855D01*
D11*
X362083Y514525D02*
X361150Y515457D01*
X359286Y515457D01*
X358354Y514525D01*
X358354Y513593D01*
X359286Y512660D01*
X361150Y512660D01*
X362083Y511728D01*
X362083Y510796D01*
X361150Y509864D01*
X359286Y509864D01*
X358354Y510796D01*
X363967Y511728D02*
X363967Y515457D01*
X363967Y511728D02*
X365831Y509864D01*
X367696Y511728D01*
X367696Y515457D01*
X369580Y513593D02*
X371444Y515457D01*
X371444Y509864D01*
X369580Y509864D02*
X373309Y509864D01*
D18*
X492550Y108220D02*
X492550Y4080D01*
X651300Y4080D02*
X651300Y108220D01*
X617010Y4080D02*
X492550Y4080D01*
X617010Y4080D02*
X617010Y12970D01*
X632250Y12970D01*
X632250Y4080D01*
X651300Y4080D01*
X617010Y108220D02*
X492550Y108220D01*
X617010Y108220D02*
X617010Y99330D01*
X632250Y99330D01*
X632250Y108220D01*
X651300Y108220D01*
D11*
X498900Y101870D02*
X498900Y10430D01*
X581450Y10430D01*
X581450Y101870D01*
X498900Y101870D01*
D18*
X598976Y56150D02*
X598981Y56593D01*
X598998Y57035D01*
X599025Y57477D01*
X599063Y57918D01*
X599112Y58358D01*
X599171Y58796D01*
X599242Y59233D01*
X599323Y59668D01*
X599414Y60101D01*
X599516Y60532D01*
X599629Y60960D01*
X599753Y61385D01*
X599886Y61807D01*
X600030Y62225D01*
X600184Y62640D01*
X600349Y63051D01*
X600523Y63458D01*
X600707Y63861D01*
X600902Y64258D01*
X601105Y64651D01*
X601319Y65039D01*
X601542Y65421D01*
X601774Y65798D01*
X602015Y66169D01*
X602266Y66534D01*
X602525Y66893D01*
X602793Y67245D01*
X603070Y67591D01*
X603354Y67929D01*
X603648Y68261D01*
X603949Y68585D01*
X604258Y68902D01*
X604575Y69211D01*
X604899Y69512D01*
X605231Y69806D01*
X605569Y70090D01*
X605915Y70367D01*
X606267Y70635D01*
X606626Y70894D01*
X606991Y71145D01*
X607362Y71386D01*
X607739Y71618D01*
X608121Y71841D01*
X608509Y72055D01*
X608902Y72258D01*
X609299Y72453D01*
X609702Y72637D01*
X610109Y72811D01*
X610520Y72976D01*
X610935Y73130D01*
X611353Y73274D01*
X611775Y73407D01*
X612200Y73531D01*
X612628Y73644D01*
X613059Y73746D01*
X613492Y73837D01*
X613927Y73918D01*
X614364Y73989D01*
X614802Y74048D01*
X615242Y74097D01*
X615683Y74135D01*
X616125Y74162D01*
X616567Y74179D01*
X617010Y74184D01*
X617453Y74179D01*
X617895Y74162D01*
X618337Y74135D01*
X618778Y74097D01*
X619218Y74048D01*
X619656Y73989D01*
X620093Y73918D01*
X620528Y73837D01*
X620961Y73746D01*
X621392Y73644D01*
X621820Y73531D01*
X622245Y73407D01*
X622667Y73274D01*
X623085Y73130D01*
X623500Y72976D01*
X623911Y72811D01*
X624318Y72637D01*
X624721Y72453D01*
X625118Y72258D01*
X625511Y72055D01*
X625899Y71841D01*
X626281Y71618D01*
X626658Y71386D01*
X627029Y71145D01*
X627394Y70894D01*
X627753Y70635D01*
X628105Y70367D01*
X628451Y70090D01*
X628789Y69806D01*
X629121Y69512D01*
X629445Y69211D01*
X629762Y68902D01*
X630071Y68585D01*
X630372Y68261D01*
X630666Y67929D01*
X630950Y67591D01*
X631227Y67245D01*
X631495Y66893D01*
X631754Y66534D01*
X632005Y66169D01*
X632246Y65798D01*
X632478Y65421D01*
X632701Y65039D01*
X632915Y64651D01*
X633118Y64258D01*
X633313Y63861D01*
X633497Y63458D01*
X633671Y63051D01*
X633836Y62640D01*
X633990Y62225D01*
X634134Y61807D01*
X634267Y61385D01*
X634391Y60960D01*
X634504Y60532D01*
X634606Y60101D01*
X634697Y59668D01*
X634778Y59233D01*
X634849Y58796D01*
X634908Y58358D01*
X634957Y57918D01*
X634995Y57477D01*
X635022Y57035D01*
X635039Y56593D01*
X635044Y56150D01*
X635039Y55707D01*
X635022Y55265D01*
X634995Y54823D01*
X634957Y54382D01*
X634908Y53942D01*
X634849Y53504D01*
X634778Y53067D01*
X634697Y52632D01*
X634606Y52199D01*
X634504Y51768D01*
X634391Y51340D01*
X634267Y50915D01*
X634134Y50493D01*
X633990Y50075D01*
X633836Y49660D01*
X633671Y49249D01*
X633497Y48842D01*
X633313Y48439D01*
X633118Y48042D01*
X632915Y47649D01*
X632701Y47261D01*
X632478Y46879D01*
X632246Y46502D01*
X632005Y46131D01*
X631754Y45766D01*
X631495Y45407D01*
X631227Y45055D01*
X630950Y44709D01*
X630666Y44371D01*
X630372Y44039D01*
X630071Y43715D01*
X629762Y43398D01*
X629445Y43089D01*
X629121Y42788D01*
X628789Y42494D01*
X628451Y42210D01*
X628105Y41933D01*
X627753Y41665D01*
X627394Y41406D01*
X627029Y41155D01*
X626658Y40914D01*
X626281Y40682D01*
X625899Y40459D01*
X625511Y40245D01*
X625118Y40042D01*
X624721Y39847D01*
X624318Y39663D01*
X623911Y39489D01*
X623500Y39324D01*
X623085Y39170D01*
X622667Y39026D01*
X622245Y38893D01*
X621820Y38769D01*
X621392Y38656D01*
X620961Y38554D01*
X620528Y38463D01*
X620093Y38382D01*
X619656Y38311D01*
X619218Y38252D01*
X618778Y38203D01*
X618337Y38165D01*
X617895Y38138D01*
X617453Y38121D01*
X617010Y38116D01*
X616567Y38121D01*
X616125Y38138D01*
X615683Y38165D01*
X615242Y38203D01*
X614802Y38252D01*
X614364Y38311D01*
X613927Y38382D01*
X613492Y38463D01*
X613059Y38554D01*
X612628Y38656D01*
X612200Y38769D01*
X611775Y38893D01*
X611353Y39026D01*
X610935Y39170D01*
X610520Y39324D01*
X610109Y39489D01*
X609702Y39663D01*
X609299Y39847D01*
X608902Y40042D01*
X608509Y40245D01*
X608121Y40459D01*
X607739Y40682D01*
X607362Y40914D01*
X606991Y41155D01*
X606626Y41406D01*
X606267Y41665D01*
X605915Y41933D01*
X605569Y42210D01*
X605231Y42494D01*
X604899Y42788D01*
X604575Y43089D01*
X604258Y43398D01*
X603949Y43715D01*
X603648Y44039D01*
X603354Y44371D01*
X603070Y44709D01*
X602793Y45055D01*
X602525Y45407D01*
X602266Y45766D01*
X602015Y46131D01*
X601774Y46502D01*
X601542Y46879D01*
X601319Y47261D01*
X601105Y47649D01*
X600902Y48042D01*
X600707Y48439D01*
X600523Y48842D01*
X600349Y49249D01*
X600184Y49660D01*
X600030Y50075D01*
X599886Y50493D01*
X599753Y50915D01*
X599629Y51340D01*
X599516Y51768D01*
X599414Y52199D01*
X599323Y52632D01*
X599242Y53067D01*
X599171Y53504D01*
X599112Y53942D01*
X599063Y54382D01*
X599025Y54823D01*
X598998Y55265D01*
X598981Y55707D01*
X598976Y56150D01*
X593261Y40426D02*
X587499Y40426D01*
X584618Y43307D01*
X587499Y46189D01*
X593261Y46189D01*
X588939Y46189D02*
X588939Y40426D01*
X587499Y49548D02*
X584618Y52429D01*
X593261Y52429D01*
X593261Y49548D02*
X593261Y55310D01*
X584618Y58669D02*
X584618Y64431D01*
X586058Y64431D01*
X591820Y58669D01*
X593261Y58669D01*
X596142Y67790D02*
X593261Y70671D01*
X591820Y70671D01*
X591820Y69231D01*
X593261Y69231D01*
X593261Y70671D01*
X584618Y73871D02*
X584618Y79633D01*
X584618Y73871D02*
X588939Y73871D01*
X587499Y76752D01*
X587499Y78193D01*
X588939Y79633D01*
X591820Y79633D01*
X593261Y78193D01*
X593261Y75312D01*
X591820Y73871D01*
X593261Y82992D02*
X587499Y82992D01*
X587499Y84433D01*
X588939Y85874D01*
X593261Y85874D01*
X588939Y85874D02*
X587499Y87314D01*
X588939Y88755D01*
X593261Y88755D01*
X593261Y92114D02*
X587499Y92114D01*
X587499Y93554D01*
X588939Y94995D01*
X593261Y94995D01*
X588939Y94995D02*
X587499Y96435D01*
X588939Y97876D01*
X593261Y97876D01*
D20*
X461435Y30750D03*
X461435Y56150D03*
X461435Y81550D03*
D21*
X478580Y81550D03*
X478580Y56150D03*
X478580Y30750D03*
D22*
X560865Y62396D02*
X571542Y62396D01*
X560865Y62396D02*
X558195Y65065D01*
X558195Y70404D01*
X560865Y73073D01*
X571542Y73073D01*
X574211Y70404D01*
X574211Y65065D01*
X571542Y62396D01*
X568872Y67734D02*
X574211Y73073D01*
X574211Y78767D02*
X574211Y89445D01*
X563534Y89445D02*
X574211Y78767D01*
X563534Y89445D02*
X560865Y89445D01*
X558195Y86775D01*
X558195Y81437D01*
X560865Y78767D01*
D11*
X447004Y263504D02*
X447004Y269097D01*
X449800Y269097D01*
X450733Y268165D01*
X450733Y266300D01*
X449800Y265368D01*
X447004Y265368D01*
X448868Y265368D02*
X450733Y263504D01*
X455413Y263504D02*
X455413Y269097D01*
X452617Y266300D01*
X456346Y266300D01*
X447004Y234297D02*
X447004Y228704D01*
X447004Y234297D02*
X449800Y234297D01*
X450733Y233365D01*
X450733Y231500D01*
X449800Y230568D01*
X447004Y230568D01*
X448868Y230568D02*
X450733Y228704D01*
X452617Y234297D02*
X456346Y234297D01*
X452617Y234297D02*
X452617Y231500D01*
X454481Y232433D01*
X455413Y232433D01*
X456346Y231500D01*
X456346Y229636D01*
X455413Y228704D01*
X453549Y228704D01*
X452617Y229636D01*
D19*
X233266Y206960D02*
X155034Y206960D01*
X233266Y206960D02*
X233266Y209754D01*
X233266Y339040D02*
X155034Y339040D01*
X155034Y336246D01*
X155034Y209754D02*
X155034Y206960D01*
X233266Y336246D02*
X233266Y339040D01*
D10*
X147378Y336840D02*
X139413Y344806D01*
X147378Y344806D02*
X139413Y336840D01*
X139413Y340823D02*
X147378Y340823D01*
X143396Y336840D02*
X143396Y344806D01*
X164305Y314539D02*
X164305Y304582D01*
X166296Y302591D01*
X170279Y302591D01*
X172270Y304582D01*
X172270Y314539D01*
X175999Y310556D02*
X179982Y314539D01*
X179982Y302591D01*
X183964Y302591D02*
X175999Y302591D01*
D12*
X252550Y88950D02*
X364550Y88950D01*
X364550Y23950D01*
X364550Y13950D01*
X252550Y13950D01*
X252550Y23950D01*
X252550Y88950D01*
X252550Y23950D02*
X364550Y23950D01*
D18*
X271485Y72985D02*
X271485Y77815D01*
X271485Y75400D02*
X274705Y75400D01*
X274705Y77815D02*
X274705Y72985D01*
X277098Y77815D02*
X280318Y77815D01*
X277098Y77815D02*
X277098Y72985D01*
X280318Y72985D01*
X278708Y75400D02*
X277098Y75400D01*
X282711Y76205D02*
X282711Y72985D01*
X282711Y76205D02*
X284321Y77815D01*
X285931Y76205D01*
X285931Y72985D01*
X285931Y75400D02*
X282711Y75400D01*
X289934Y72985D02*
X289934Y77815D01*
X288324Y77815D02*
X291544Y77815D01*
X293937Y77815D02*
X297157Y77815D01*
X293937Y77815D02*
X293937Y72985D01*
X297157Y72985D01*
X295547Y75400D02*
X293937Y75400D01*
X299550Y72985D02*
X299550Y77815D01*
X301966Y77815D01*
X302771Y77010D01*
X302771Y75400D01*
X301966Y74595D01*
X299550Y74595D01*
X301161Y74595D02*
X302771Y72985D01*
X305164Y72180D02*
X308384Y72180D01*
X313997Y77010D02*
X313192Y77815D01*
X311582Y77815D01*
X310777Y77010D01*
X310777Y73790D01*
X311582Y72985D01*
X313192Y72985D01*
X313997Y73790D01*
X317195Y77815D02*
X318805Y77815D01*
X317195Y77815D02*
X316390Y77010D01*
X316390Y73790D01*
X317195Y72985D01*
X318805Y72985D01*
X319610Y73790D01*
X319610Y77010D01*
X318805Y77815D01*
X322003Y77815D02*
X322003Y72985D01*
X325223Y72985D02*
X322003Y77815D01*
X325223Y77815D02*
X325223Y72985D01*
X327616Y72985D02*
X327616Y77815D01*
X330836Y72985D01*
X330836Y77815D01*
X333229Y77815D02*
X336449Y77815D01*
X333229Y77815D02*
X333229Y72985D01*
X336449Y72985D01*
X334839Y75400D02*
X333229Y75400D01*
X341257Y77815D02*
X342062Y77010D01*
X341257Y77815D02*
X339647Y77815D01*
X338842Y77010D01*
X338842Y73790D01*
X339647Y72985D01*
X341257Y72985D01*
X342062Y73790D01*
X346065Y72985D02*
X346065Y77815D01*
X344455Y77815D02*
X347675Y77815D01*
X350873Y77815D02*
X352483Y77815D01*
X350873Y77815D02*
X350068Y77010D01*
X350068Y73790D01*
X350873Y72985D01*
X352483Y72985D01*
X353288Y73790D01*
X353288Y77010D01*
X352483Y77815D01*
X355681Y77815D02*
X355681Y72985D01*
X355681Y77815D02*
X358096Y77815D01*
X358901Y77010D01*
X358901Y75400D01*
X358096Y74595D01*
X355681Y74595D01*
X357291Y74595D02*
X358901Y72985D01*
D12*
X237400Y89350D02*
X125400Y89350D01*
X237400Y89350D02*
X237400Y24350D01*
X237400Y14350D01*
X125400Y14350D01*
X125400Y24350D01*
X125400Y89350D01*
X125400Y24350D02*
X237400Y24350D01*
D18*
X144335Y73385D02*
X144335Y78215D01*
X146750Y78215D01*
X147555Y77410D01*
X147555Y75800D01*
X146750Y74995D01*
X144335Y74995D01*
X149948Y78215D02*
X153168Y78215D01*
X149948Y78215D02*
X149948Y73385D01*
X153168Y73385D01*
X151558Y75800D02*
X149948Y75800D01*
X155561Y78215D02*
X155561Y73385D01*
X158781Y73385D01*
X162784Y73385D02*
X162784Y78215D01*
X161174Y78215D02*
X164394Y78215D01*
X166787Y73385D02*
X168397Y73385D01*
X167592Y73385D02*
X167592Y78215D01*
X166787Y78215D02*
X168397Y78215D01*
X170529Y78215D02*
X173750Y78215D01*
X170529Y78215D02*
X170529Y73385D01*
X173750Y73385D01*
X172139Y75800D02*
X170529Y75800D01*
X176143Y73385D02*
X176143Y78215D01*
X178558Y78215D01*
X179363Y77410D01*
X179363Y75800D01*
X178558Y74995D01*
X176143Y74995D01*
X177753Y74995D02*
X179363Y73385D01*
X181756Y72580D02*
X184976Y72580D01*
X190589Y77410D02*
X189784Y78215D01*
X188174Y78215D01*
X187369Y77410D01*
X187369Y74190D01*
X188174Y73385D01*
X189784Y73385D01*
X190589Y74190D01*
X193787Y78215D02*
X195397Y78215D01*
X193787Y78215D02*
X192982Y77410D01*
X192982Y74190D01*
X193787Y73385D01*
X195397Y73385D01*
X196202Y74190D01*
X196202Y77410D01*
X195397Y78215D01*
X198595Y78215D02*
X198595Y73385D01*
X201815Y73385D02*
X198595Y78215D01*
X201815Y78215D02*
X201815Y73385D01*
X204208Y73385D02*
X204208Y78215D01*
X207428Y73385D01*
X207428Y78215D01*
X209821Y78215D02*
X213041Y78215D01*
X209821Y78215D02*
X209821Y73385D01*
X213041Y73385D01*
X211431Y75800D02*
X209821Y75800D01*
X217849Y78215D02*
X218654Y77410D01*
X217849Y78215D02*
X216239Y78215D01*
X215434Y77410D01*
X215434Y74190D01*
X216239Y73385D01*
X217849Y73385D01*
X218654Y74190D01*
X222657Y73385D02*
X222657Y78215D01*
X221047Y78215D02*
X224267Y78215D01*
X227465Y78215D02*
X229075Y78215D01*
X227465Y78215D02*
X226660Y77410D01*
X226660Y74190D01*
X227465Y73385D01*
X229075Y73385D01*
X229880Y74190D01*
X229880Y77410D01*
X229075Y78215D01*
X232273Y78215D02*
X232273Y73385D01*
X232273Y78215D02*
X234689Y78215D01*
X235494Y77410D01*
X235494Y75800D01*
X234689Y74995D01*
X232273Y74995D01*
X233884Y74995D02*
X235494Y73385D01*
D19*
X767750Y553450D02*
X767750Y566150D01*
X767750Y553450D02*
X761400Y547100D01*
X748700Y547100D02*
X742350Y553450D01*
X761400Y547100D02*
X767750Y540750D01*
X767750Y528050D01*
X761400Y521700D01*
X748700Y521700D02*
X742350Y528050D01*
X742350Y540750D01*
X748700Y547100D01*
X748700Y572500D02*
X761400Y572500D01*
X767750Y566150D01*
X748700Y572500D02*
X742350Y566150D01*
X742350Y553450D01*
X761400Y521700D02*
X767750Y515350D01*
X767750Y502650D01*
X761400Y496300D01*
X748700Y496300D02*
X742350Y502650D01*
X742350Y515350D01*
X748700Y521700D01*
X767750Y489950D02*
X767750Y477250D01*
X761400Y470900D01*
X748700Y470900D02*
X742350Y477250D01*
X761400Y496300D02*
X767750Y489950D01*
X748700Y496300D02*
X742350Y489950D01*
X742350Y477250D01*
X767750Y464550D02*
X767750Y451850D01*
X761400Y445500D01*
X748700Y445500D02*
X742350Y451850D01*
X761400Y445500D02*
X767750Y439150D01*
X767750Y426450D01*
X761400Y420100D01*
X748700Y420100D02*
X742350Y426450D01*
X742350Y439150D01*
X748700Y445500D01*
X767750Y464550D02*
X761400Y470900D01*
X748700Y470900D02*
X742350Y464550D01*
X742350Y451850D01*
X761400Y420100D02*
X767750Y413750D01*
X767750Y401050D01*
X761400Y394700D01*
X748700Y394700D02*
X742350Y401050D01*
X742350Y413750D01*
X748700Y420100D01*
X767750Y388350D02*
X767750Y375650D01*
X761400Y369300D01*
X748700Y369300D01*
X742350Y375650D01*
X761400Y394700D02*
X767750Y388350D01*
X748700Y394700D02*
X742350Y388350D01*
X742350Y375650D01*
D18*
X730279Y553821D02*
X726465Y557634D01*
X737905Y557634D01*
X737905Y553821D02*
X737905Y561448D01*
X772185Y379198D02*
X774092Y377291D01*
X772185Y379198D02*
X772185Y383011D01*
X774092Y384918D01*
X775999Y384918D01*
X777905Y383011D01*
X779812Y384918D01*
X781718Y384918D01*
X783625Y383011D01*
X783625Y379198D01*
X781718Y377291D01*
X779812Y377291D01*
X777905Y379198D01*
X775999Y377291D01*
X774092Y377291D01*
X777905Y379198D02*
X777905Y383011D01*
X772185Y543773D02*
X774092Y545680D01*
X772185Y543773D02*
X772185Y539960D01*
X774092Y538053D01*
X775999Y538053D01*
X777905Y539960D01*
X777905Y543773D01*
X779812Y545680D01*
X781718Y545680D01*
X783625Y543773D01*
X783625Y539960D01*
X781718Y538053D01*
X779812Y549747D02*
X772185Y549747D01*
X779812Y549747D02*
X783625Y553560D01*
X779812Y557374D01*
X772185Y557374D01*
X783625Y561441D02*
X783625Y569067D01*
X783625Y561441D02*
X775999Y569067D01*
X774092Y569067D01*
X772185Y567161D01*
X772185Y563348D01*
X774092Y561441D01*
D19*
X742450Y181750D02*
X742450Y169050D01*
X742450Y181750D02*
X748800Y188100D01*
X761500Y188100D02*
X767850Y181750D01*
X748800Y188100D02*
X742450Y194450D01*
X742450Y207150D01*
X748800Y213500D01*
X761500Y213500D02*
X767850Y207150D01*
X767850Y194450D01*
X761500Y188100D01*
X761500Y162700D02*
X748800Y162700D01*
X742450Y169050D01*
X761500Y162700D02*
X767850Y169050D01*
X767850Y181750D01*
X748800Y213500D02*
X742450Y219850D01*
X742450Y232550D01*
X748800Y238900D01*
X761500Y238900D02*
X767850Y232550D01*
X767850Y219850D01*
X761500Y213500D01*
X742450Y245250D02*
X742450Y257950D01*
X748800Y264300D01*
X761500Y264300D02*
X767850Y257950D01*
X748800Y238900D02*
X742450Y245250D01*
X761500Y238900D02*
X767850Y245250D01*
X767850Y257950D01*
X742450Y270650D02*
X742450Y283350D01*
X748800Y289700D01*
X761500Y289700D02*
X767850Y283350D01*
X748800Y289700D02*
X742450Y296050D01*
X742450Y308750D01*
X748800Y315100D01*
X761500Y315100D02*
X767850Y308750D01*
X767850Y296050D01*
X761500Y289700D01*
X742450Y270650D02*
X748800Y264300D01*
X761500Y264300D02*
X767850Y270650D01*
X767850Y283350D01*
X748800Y315100D02*
X742450Y321450D01*
X742450Y334150D01*
X748800Y340500D01*
X761500Y340500D02*
X767850Y334150D01*
X767850Y321450D01*
X761500Y315100D01*
X742450Y346850D02*
X742450Y359550D01*
X748800Y365900D01*
X761500Y365900D01*
X767850Y359550D01*
X748800Y340500D02*
X742450Y346850D01*
X761500Y340500D02*
X767850Y346850D01*
X767850Y359550D01*
D18*
X772285Y174768D02*
X776099Y170955D01*
X772285Y174768D02*
X783725Y174768D01*
X783725Y170955D02*
X783725Y178582D01*
X728472Y347485D02*
X726565Y349392D01*
X726565Y353205D01*
X728472Y355112D01*
X730379Y355112D01*
X732285Y353205D01*
X734192Y355112D01*
X736098Y355112D01*
X738005Y353205D01*
X738005Y349392D01*
X736098Y347485D01*
X734192Y347485D01*
X732285Y349392D01*
X730379Y347485D01*
X728472Y347485D01*
X732285Y349392D02*
X732285Y353205D01*
X744563Y157625D02*
X746470Y155718D01*
X744563Y157625D02*
X740750Y157625D01*
X738843Y155718D01*
X738843Y153812D01*
X740750Y151905D01*
X744563Y151905D01*
X746470Y149998D01*
X746470Y148092D01*
X744563Y146185D01*
X740750Y146185D01*
X738843Y148092D01*
X750537Y149998D02*
X750537Y157625D01*
X750537Y149998D02*
X754350Y146185D01*
X758164Y149998D01*
X758164Y157625D01*
X767951Y157625D02*
X767951Y146185D01*
X762231Y151905D02*
X767951Y157625D01*
X769857Y151905D02*
X762231Y151905D01*
D19*
X372200Y329050D02*
X372200Y341750D01*
X372200Y329050D02*
X365850Y322700D01*
X353150Y322700D02*
X346800Y329050D01*
X365850Y322700D02*
X372200Y316350D01*
X372200Y303650D01*
X365850Y297300D01*
X353150Y297300D02*
X346800Y303650D01*
X346800Y316350D01*
X353150Y322700D01*
X353150Y348100D02*
X365850Y348100D01*
X372200Y341750D01*
X353150Y348100D02*
X346800Y341750D01*
X346800Y329050D01*
X365850Y297300D02*
X372200Y290950D01*
X372200Y278250D01*
X365850Y271900D01*
X353150Y271900D02*
X346800Y278250D01*
X346800Y290950D01*
X353150Y297300D01*
X372200Y265550D02*
X372200Y252850D01*
X365850Y246500D01*
X353150Y246500D02*
X346800Y252850D01*
X365850Y246500D02*
X372200Y240150D01*
X372200Y227450D01*
X365850Y221100D01*
X353150Y221100D02*
X346800Y227450D01*
X346800Y240150D01*
X353150Y246500D01*
X372200Y265550D02*
X365850Y271900D01*
X353150Y271900D02*
X346800Y265550D01*
X346800Y252850D01*
X365850Y221100D02*
X372200Y214750D01*
X372200Y202050D01*
X365850Y195700D01*
X353150Y195700D02*
X346800Y202050D01*
X346800Y214750D01*
X353150Y221100D01*
X372200Y189350D02*
X372200Y176650D01*
X365850Y170300D01*
X353150Y170300D01*
X346800Y176650D01*
X365850Y195700D02*
X372200Y189350D01*
X353150Y195700D02*
X346800Y189350D01*
X346800Y176650D01*
D18*
X334729Y330691D02*
X330915Y334504D01*
X342355Y334504D01*
X342355Y330691D02*
X342355Y338318D01*
X376635Y183378D02*
X376635Y175751D01*
X376635Y183378D02*
X378542Y183378D01*
X386168Y175751D01*
X388075Y175751D01*
X330915Y266033D02*
X332822Y267940D01*
X330915Y266033D02*
X330915Y262220D01*
X332822Y260313D01*
X334729Y260313D01*
X336635Y262220D01*
X336635Y266033D01*
X338542Y267940D01*
X340448Y267940D01*
X342355Y266033D01*
X342355Y262220D01*
X340448Y260313D01*
X338542Y272007D02*
X330915Y272007D01*
X338542Y272007D02*
X342355Y275820D01*
X338542Y279634D01*
X330915Y279634D01*
X330915Y283701D02*
X330915Y291327D01*
X330915Y283701D02*
X336635Y283701D01*
X334729Y287514D01*
X334729Y289421D01*
X336635Y291327D01*
X340448Y291327D01*
X342355Y289421D01*
X342355Y285608D01*
X340448Y283701D01*
D19*
X592650Y560750D02*
X605350Y560750D01*
X592650Y560750D02*
X586300Y567100D01*
X586300Y579800D02*
X592650Y586150D01*
X586300Y567100D02*
X579950Y560750D01*
X567250Y560750D01*
X560900Y567100D01*
X560900Y579800D02*
X567250Y586150D01*
X579950Y586150D01*
X586300Y579800D01*
X611700Y579800D02*
X611700Y567100D01*
X605350Y560750D01*
X611700Y579800D02*
X605350Y586150D01*
X592650Y586150D01*
X560900Y567100D02*
X554550Y560750D01*
X541850Y560750D01*
X535500Y567100D01*
X535500Y579800D02*
X541850Y586150D01*
X554550Y586150D01*
X560900Y579800D01*
X529150Y560750D02*
X516450Y560750D01*
X510100Y567100D01*
X510100Y579800D01*
X516450Y586150D01*
X535500Y567100D02*
X529150Y560750D01*
X535500Y579800D02*
X529150Y586150D01*
X516450Y586150D01*
D18*
X612071Y575362D02*
X615884Y579175D01*
X615884Y567735D01*
X612071Y567735D02*
X619698Y567735D01*
X502221Y567735D02*
X502221Y579175D01*
X496501Y573455D01*
X504128Y573455D01*
D23*
X549084Y599530D02*
X550609Y598005D01*
X549084Y599530D02*
X546033Y599530D01*
X544508Y598005D01*
X544508Y596479D01*
X546033Y594954D01*
X549084Y594954D01*
X550609Y593429D01*
X550609Y591903D01*
X549084Y590378D01*
X546033Y590378D01*
X544508Y591903D01*
X553863Y593429D02*
X553863Y599530D01*
X553863Y593429D02*
X556914Y590378D01*
X559964Y593429D01*
X559964Y599530D01*
X563218Y598005D02*
X564744Y599530D01*
X567794Y599530D01*
X569320Y598005D01*
X569320Y596479D01*
X567794Y594954D01*
X566269Y594954D01*
X567794Y594954D02*
X569320Y593429D01*
X569320Y591903D01*
X567794Y590378D01*
X564744Y590378D01*
X563218Y591903D01*
D19*
X149860Y581660D02*
X137160Y581660D01*
X149860Y581660D02*
X156210Y575310D01*
X156210Y562610D01*
X149860Y556260D01*
X130810Y562610D02*
X130810Y575310D01*
X137160Y581660D01*
X130810Y562610D02*
X137160Y556260D01*
X149860Y556260D01*
X156210Y575310D02*
X162560Y581660D01*
X175260Y581660D01*
X181610Y575310D01*
X181610Y562610D01*
X175260Y556260D01*
X162560Y556260D01*
X156210Y562610D01*
D23*
X511790Y176032D02*
X511790Y164338D01*
X511790Y176032D02*
X517637Y176032D01*
X519586Y174083D01*
X519586Y170185D01*
X517637Y168236D01*
X511790Y168236D01*
X515688Y168236D02*
X519586Y164338D01*
X523484Y176032D02*
X531280Y176032D01*
X531280Y174083D01*
X523484Y166287D01*
X523484Y164338D01*
D17*
X574270Y186630D03*
X574270Y179130D03*
D16*
X574270Y182880D03*
D11*
X555244Y190754D02*
X555244Y195330D01*
X557532Y195330D01*
X558295Y194567D01*
X558295Y193042D01*
X557532Y192279D01*
X555244Y192279D01*
X559922Y190754D02*
X561447Y190754D01*
X560684Y190754D02*
X560684Y195330D01*
X559922Y195330D02*
X561447Y195330D01*
X563040Y195330D02*
X563040Y190754D01*
X566091Y190754D02*
X563040Y195330D01*
X566091Y195330D02*
X566091Y190754D01*
X567718Y189991D02*
X570768Y189991D01*
X572395Y193805D02*
X573920Y195330D01*
X573920Y190754D01*
X572395Y190754D02*
X575446Y190754D01*
X577073Y195330D02*
X580123Y195330D01*
X577073Y195330D02*
X577073Y193042D01*
X578598Y193805D01*
X579361Y193805D01*
X580123Y193042D01*
X580123Y191517D01*
X579361Y190754D01*
X577835Y190754D01*
X577073Y191517D01*
X581750Y189991D02*
X584801Y189991D01*
X586428Y190754D02*
X586428Y195330D01*
X586428Y190754D02*
X589479Y190754D01*
X591106Y195330D02*
X594156Y195330D01*
X591106Y195330D02*
X591106Y190754D01*
X594156Y190754D01*
X592631Y193042D02*
X591106Y193042D01*
X595783Y195330D02*
X595783Y190754D01*
X598071Y190754D01*
X598834Y191517D01*
X598834Y194567D01*
X598071Y195330D01*
X595783Y195330D01*
M02*
