G04 EAGLE Gerber RS-274X export*
G75*
%MOMM*%
%FSLAX34Y34*%
%LPD*%
%INSolderpaste Top*%
%IPPOS*%
%AMOC8*
5,1,8,0,0,1.08239X$1,22.5*%
G01*
%ADD10R,1.500000X1.300000*%
%ADD11R,1.300000X1.500000*%
%ADD12R,1.000000X1.100000*%
%ADD13R,1.100000X1.000000*%
%ADD14R,1.500000X0.500000*%
%ADD15R,0.500000X1.500000*%
%ADD16R,5.400000X6.200000*%
%ADD17R,1.000000X1.600000*%
%ADD18R,1.193800X2.184400*%
%ADD19R,3.606800X2.184400*%
%ADD20R,0.800000X0.800000*%
%ADD21R,1.300000X1.100000*%
%ADD22R,1.981200X0.558800*%

G36*
X203550Y289623D02*
X203550Y289623D01*
X203553Y289622D01*
X203636Y289659D01*
X205050Y291073D01*
X205052Y291076D01*
X205054Y291077D01*
X205087Y291162D01*
X205087Y295351D01*
X205086Y295353D01*
X205087Y295355D01*
X205067Y295398D01*
X205049Y295441D01*
X205047Y295442D01*
X205046Y295444D01*
X204961Y295477D01*
X199087Y295477D01*
X199085Y295476D01*
X199083Y295477D01*
X199040Y295457D01*
X198996Y295439D01*
X198996Y295437D01*
X198994Y295436D01*
X198961Y295351D01*
X198961Y291162D01*
X198962Y291159D01*
X198961Y291156D01*
X198998Y291073D01*
X200412Y289659D01*
X200415Y289658D01*
X200416Y289655D01*
X200501Y289622D01*
X203547Y289622D01*
X203550Y289623D01*
G37*
G36*
X195676Y289623D02*
X195676Y289623D01*
X195679Y289622D01*
X195762Y289659D01*
X197176Y291073D01*
X197178Y291076D01*
X197180Y291077D01*
X197213Y291162D01*
X197213Y295351D01*
X197212Y295353D01*
X197213Y295355D01*
X197193Y295398D01*
X197175Y295441D01*
X197173Y295442D01*
X197172Y295444D01*
X197087Y295477D01*
X191213Y295477D01*
X191211Y295476D01*
X191209Y295477D01*
X191166Y295457D01*
X191122Y295439D01*
X191122Y295437D01*
X191120Y295436D01*
X191087Y295351D01*
X191087Y291162D01*
X191088Y291159D01*
X191087Y291156D01*
X191124Y291073D01*
X192538Y289659D01*
X192541Y289658D01*
X192542Y289655D01*
X192627Y289622D01*
X195673Y289622D01*
X195676Y289623D01*
G37*
G36*
X187802Y289623D02*
X187802Y289623D01*
X187805Y289622D01*
X187888Y289659D01*
X189302Y291073D01*
X189304Y291076D01*
X189306Y291077D01*
X189339Y291162D01*
X189339Y295351D01*
X189338Y295353D01*
X189339Y295355D01*
X189319Y295398D01*
X189301Y295441D01*
X189299Y295442D01*
X189298Y295444D01*
X189213Y295477D01*
X183339Y295477D01*
X183337Y295476D01*
X183335Y295477D01*
X183292Y295457D01*
X183248Y295439D01*
X183248Y295437D01*
X183246Y295436D01*
X183213Y295351D01*
X183213Y291162D01*
X183214Y291159D01*
X183213Y291156D01*
X183250Y291073D01*
X184664Y289659D01*
X184667Y289658D01*
X184668Y289655D01*
X184753Y289622D01*
X187799Y289622D01*
X187802Y289623D01*
G37*
G36*
X204963Y250524D02*
X204963Y250524D01*
X204965Y250523D01*
X205008Y250543D01*
X205052Y250561D01*
X205052Y250563D01*
X205054Y250564D01*
X205087Y250649D01*
X205087Y254838D01*
X205086Y254841D01*
X205087Y254844D01*
X205050Y254927D01*
X203636Y256341D01*
X203633Y256343D01*
X203632Y256345D01*
X203547Y256378D01*
X200501Y256378D01*
X200498Y256377D01*
X200495Y256378D01*
X200412Y256341D01*
X198998Y254927D01*
X198997Y254924D01*
X198994Y254923D01*
X198961Y254838D01*
X198961Y250649D01*
X198962Y250647D01*
X198961Y250645D01*
X198981Y250602D01*
X198999Y250559D01*
X199001Y250558D01*
X199002Y250556D01*
X199087Y250523D01*
X204961Y250523D01*
X204963Y250524D01*
G37*
G36*
X197089Y250524D02*
X197089Y250524D01*
X197091Y250523D01*
X197134Y250543D01*
X197178Y250561D01*
X197178Y250563D01*
X197180Y250564D01*
X197213Y250649D01*
X197213Y254838D01*
X197212Y254841D01*
X197213Y254844D01*
X197176Y254927D01*
X195762Y256341D01*
X195759Y256343D01*
X195758Y256345D01*
X195673Y256378D01*
X192627Y256378D01*
X192624Y256377D01*
X192621Y256378D01*
X192538Y256341D01*
X191124Y254927D01*
X191123Y254924D01*
X191120Y254923D01*
X191087Y254838D01*
X191087Y250649D01*
X191088Y250647D01*
X191087Y250645D01*
X191107Y250602D01*
X191125Y250559D01*
X191127Y250558D01*
X191128Y250556D01*
X191213Y250523D01*
X197087Y250523D01*
X197089Y250524D01*
G37*
G36*
X189215Y250524D02*
X189215Y250524D01*
X189217Y250523D01*
X189260Y250543D01*
X189304Y250561D01*
X189304Y250563D01*
X189306Y250564D01*
X189339Y250649D01*
X189339Y254838D01*
X189338Y254841D01*
X189339Y254844D01*
X189302Y254927D01*
X187888Y256341D01*
X187885Y256343D01*
X187884Y256345D01*
X187799Y256378D01*
X184753Y256378D01*
X184750Y256377D01*
X184747Y256378D01*
X184664Y256341D01*
X183250Y254927D01*
X183249Y254924D01*
X183246Y254923D01*
X183213Y254838D01*
X183213Y250649D01*
X183214Y250647D01*
X183213Y250645D01*
X183233Y250602D01*
X183251Y250559D01*
X183253Y250558D01*
X183254Y250556D01*
X183339Y250523D01*
X189213Y250523D01*
X189215Y250524D01*
G37*
G36*
X195676Y281749D02*
X195676Y281749D01*
X195679Y281748D01*
X195762Y281785D01*
X197176Y283199D01*
X197178Y283202D01*
X197180Y283203D01*
X197213Y283288D01*
X197213Y286334D01*
X197212Y286337D01*
X197213Y286340D01*
X197176Y286423D01*
X195762Y287837D01*
X195759Y287839D01*
X195758Y287841D01*
X195673Y287874D01*
X192627Y287874D01*
X192624Y287873D01*
X192621Y287874D01*
X192538Y287837D01*
X191124Y286423D01*
X191123Y286420D01*
X191120Y286419D01*
X191087Y286334D01*
X191087Y283288D01*
X191088Y283285D01*
X191087Y283282D01*
X191124Y283199D01*
X192538Y281785D01*
X192541Y281784D01*
X192542Y281781D01*
X192627Y281748D01*
X195673Y281748D01*
X195676Y281749D01*
G37*
G36*
X203550Y281749D02*
X203550Y281749D01*
X203553Y281748D01*
X203636Y281785D01*
X205050Y283199D01*
X205052Y283202D01*
X205054Y283203D01*
X205087Y283288D01*
X205087Y286334D01*
X205086Y286337D01*
X205087Y286340D01*
X205050Y286423D01*
X203636Y287837D01*
X203633Y287839D01*
X203632Y287841D01*
X203547Y287874D01*
X200501Y287874D01*
X200498Y287873D01*
X200495Y287874D01*
X200412Y287837D01*
X198998Y286423D01*
X198997Y286420D01*
X198994Y286419D01*
X198961Y286334D01*
X198961Y283288D01*
X198962Y283285D01*
X198961Y283282D01*
X198998Y283199D01*
X200412Y281785D01*
X200415Y281784D01*
X200416Y281781D01*
X200501Y281748D01*
X203547Y281748D01*
X203550Y281749D01*
G37*
G36*
X187802Y281749D02*
X187802Y281749D01*
X187805Y281748D01*
X187888Y281785D01*
X189302Y283199D01*
X189304Y283202D01*
X189306Y283203D01*
X189339Y283288D01*
X189339Y286334D01*
X189338Y286337D01*
X189339Y286340D01*
X189302Y286423D01*
X187888Y287837D01*
X187885Y287839D01*
X187884Y287841D01*
X187799Y287874D01*
X184753Y287874D01*
X184750Y287873D01*
X184747Y287874D01*
X184664Y287837D01*
X183250Y286423D01*
X183249Y286420D01*
X183246Y286419D01*
X183213Y286334D01*
X183213Y283288D01*
X183214Y283285D01*
X183213Y283282D01*
X183250Y283199D01*
X184664Y281785D01*
X184667Y281784D01*
X184668Y281781D01*
X184753Y281748D01*
X187799Y281748D01*
X187802Y281749D01*
G37*
G36*
X203550Y273875D02*
X203550Y273875D01*
X203553Y273874D01*
X203636Y273911D01*
X205050Y275325D01*
X205052Y275328D01*
X205054Y275329D01*
X205087Y275414D01*
X205087Y278460D01*
X205086Y278463D01*
X205087Y278466D01*
X205050Y278549D01*
X203636Y279963D01*
X203633Y279965D01*
X203632Y279967D01*
X203547Y280000D01*
X200501Y280000D01*
X200498Y279999D01*
X200495Y280000D01*
X200412Y279963D01*
X198998Y278549D01*
X198997Y278546D01*
X198994Y278545D01*
X198961Y278460D01*
X198961Y275414D01*
X198962Y275411D01*
X198961Y275408D01*
X198998Y275325D01*
X200412Y273911D01*
X200415Y273910D01*
X200416Y273907D01*
X200501Y273874D01*
X203547Y273874D01*
X203550Y273875D01*
G37*
G36*
X195676Y273875D02*
X195676Y273875D01*
X195679Y273874D01*
X195762Y273911D01*
X197176Y275325D01*
X197178Y275328D01*
X197180Y275329D01*
X197213Y275414D01*
X197213Y278460D01*
X197212Y278463D01*
X197213Y278466D01*
X197176Y278549D01*
X195762Y279963D01*
X195759Y279965D01*
X195758Y279967D01*
X195673Y280000D01*
X192627Y280000D01*
X192624Y279999D01*
X192621Y280000D01*
X192538Y279963D01*
X191124Y278549D01*
X191123Y278546D01*
X191120Y278545D01*
X191087Y278460D01*
X191087Y275414D01*
X191088Y275411D01*
X191087Y275408D01*
X191124Y275325D01*
X192538Y273911D01*
X192541Y273910D01*
X192542Y273907D01*
X192627Y273874D01*
X195673Y273874D01*
X195676Y273875D01*
G37*
G36*
X187802Y273875D02*
X187802Y273875D01*
X187805Y273874D01*
X187888Y273911D01*
X189302Y275325D01*
X189304Y275328D01*
X189306Y275329D01*
X189339Y275414D01*
X189339Y278460D01*
X189338Y278463D01*
X189339Y278466D01*
X189302Y278549D01*
X187888Y279963D01*
X187885Y279965D01*
X187884Y279967D01*
X187799Y280000D01*
X184753Y280000D01*
X184750Y279999D01*
X184747Y280000D01*
X184664Y279963D01*
X183250Y278549D01*
X183249Y278546D01*
X183246Y278545D01*
X183213Y278460D01*
X183213Y275414D01*
X183214Y275411D01*
X183213Y275408D01*
X183250Y275325D01*
X184664Y273911D01*
X184667Y273910D01*
X184668Y273907D01*
X184753Y273874D01*
X187799Y273874D01*
X187802Y273875D01*
G37*
G36*
X203550Y266001D02*
X203550Y266001D01*
X203553Y266000D01*
X203636Y266037D01*
X205050Y267451D01*
X205052Y267454D01*
X205054Y267455D01*
X205087Y267540D01*
X205087Y270586D01*
X205086Y270589D01*
X205087Y270592D01*
X205050Y270675D01*
X203636Y272089D01*
X203633Y272091D01*
X203632Y272093D01*
X203547Y272126D01*
X200501Y272126D01*
X200498Y272125D01*
X200495Y272126D01*
X200412Y272089D01*
X198998Y270675D01*
X198997Y270672D01*
X198994Y270671D01*
X198961Y270586D01*
X198961Y267540D01*
X198962Y267537D01*
X198961Y267534D01*
X198998Y267451D01*
X200412Y266037D01*
X200415Y266036D01*
X200416Y266033D01*
X200501Y266000D01*
X203547Y266000D01*
X203550Y266001D01*
G37*
G36*
X195676Y266001D02*
X195676Y266001D01*
X195679Y266000D01*
X195762Y266037D01*
X197176Y267451D01*
X197178Y267454D01*
X197180Y267455D01*
X197213Y267540D01*
X197213Y270586D01*
X197212Y270589D01*
X197213Y270592D01*
X197176Y270675D01*
X195762Y272089D01*
X195759Y272091D01*
X195758Y272093D01*
X195673Y272126D01*
X192627Y272126D01*
X192624Y272125D01*
X192621Y272126D01*
X192538Y272089D01*
X191124Y270675D01*
X191123Y270672D01*
X191120Y270671D01*
X191087Y270586D01*
X191087Y267540D01*
X191088Y267537D01*
X191087Y267534D01*
X191124Y267451D01*
X192538Y266037D01*
X192541Y266036D01*
X192542Y266033D01*
X192627Y266000D01*
X195673Y266000D01*
X195676Y266001D01*
G37*
G36*
X187802Y266001D02*
X187802Y266001D01*
X187805Y266000D01*
X187888Y266037D01*
X189302Y267451D01*
X189304Y267454D01*
X189306Y267455D01*
X189339Y267540D01*
X189339Y270586D01*
X189338Y270589D01*
X189339Y270592D01*
X189302Y270675D01*
X187888Y272089D01*
X187885Y272091D01*
X187884Y272093D01*
X187799Y272126D01*
X184753Y272126D01*
X184750Y272125D01*
X184747Y272126D01*
X184664Y272089D01*
X183250Y270675D01*
X183249Y270672D01*
X183246Y270671D01*
X183213Y270586D01*
X183213Y267540D01*
X183214Y267537D01*
X183213Y267534D01*
X183250Y267451D01*
X184664Y266037D01*
X184667Y266036D01*
X184668Y266033D01*
X184753Y266000D01*
X187799Y266000D01*
X187802Y266001D01*
G37*
G36*
X187802Y258127D02*
X187802Y258127D01*
X187805Y258126D01*
X187888Y258163D01*
X189302Y259577D01*
X189304Y259580D01*
X189306Y259581D01*
X189339Y259666D01*
X189339Y262712D01*
X189338Y262715D01*
X189339Y262718D01*
X189302Y262801D01*
X187888Y264215D01*
X187885Y264217D01*
X187884Y264219D01*
X187799Y264252D01*
X184753Y264252D01*
X184750Y264251D01*
X184747Y264252D01*
X184664Y264215D01*
X183250Y262801D01*
X183249Y262798D01*
X183246Y262797D01*
X183213Y262712D01*
X183213Y259666D01*
X183214Y259663D01*
X183213Y259660D01*
X183250Y259577D01*
X184664Y258163D01*
X184667Y258162D01*
X184668Y258159D01*
X184753Y258126D01*
X187799Y258126D01*
X187802Y258127D01*
G37*
G36*
X203550Y258127D02*
X203550Y258127D01*
X203553Y258126D01*
X203636Y258163D01*
X205050Y259577D01*
X205052Y259580D01*
X205054Y259581D01*
X205087Y259666D01*
X205087Y262712D01*
X205086Y262715D01*
X205087Y262718D01*
X205050Y262801D01*
X203636Y264215D01*
X203633Y264217D01*
X203632Y264219D01*
X203547Y264252D01*
X200501Y264252D01*
X200498Y264251D01*
X200495Y264252D01*
X200412Y264215D01*
X198998Y262801D01*
X198997Y262798D01*
X198994Y262797D01*
X198961Y262712D01*
X198961Y259666D01*
X198962Y259663D01*
X198961Y259660D01*
X198998Y259577D01*
X200412Y258163D01*
X200415Y258162D01*
X200416Y258159D01*
X200501Y258126D01*
X203547Y258126D01*
X203550Y258127D01*
G37*
G36*
X195676Y258127D02*
X195676Y258127D01*
X195679Y258126D01*
X195762Y258163D01*
X197176Y259577D01*
X197178Y259580D01*
X197180Y259581D01*
X197213Y259666D01*
X197213Y262712D01*
X197212Y262715D01*
X197213Y262718D01*
X197176Y262801D01*
X195762Y264215D01*
X195759Y264217D01*
X195758Y264219D01*
X195673Y264252D01*
X192627Y264252D01*
X192624Y264251D01*
X192621Y264252D01*
X192538Y264215D01*
X191124Y262801D01*
X191123Y262798D01*
X191120Y262797D01*
X191087Y262712D01*
X191087Y259666D01*
X191088Y259663D01*
X191087Y259660D01*
X191124Y259577D01*
X192538Y258163D01*
X192541Y258162D01*
X192542Y258159D01*
X192627Y258126D01*
X195673Y258126D01*
X195676Y258127D01*
G37*
G36*
X179928Y281749D02*
X179928Y281749D01*
X179931Y281748D01*
X180014Y281785D01*
X181428Y283199D01*
X181430Y283202D01*
X181432Y283203D01*
X181465Y283288D01*
X181465Y286334D01*
X181464Y286337D01*
X181465Y286340D01*
X181428Y286423D01*
X180014Y287837D01*
X180011Y287839D01*
X180010Y287841D01*
X179925Y287874D01*
X177099Y287874D01*
X177097Y287873D01*
X177095Y287874D01*
X177052Y287854D01*
X177009Y287836D01*
X177008Y287834D01*
X177006Y287833D01*
X176973Y287748D01*
X176973Y281874D01*
X176974Y281872D01*
X176973Y281870D01*
X176993Y281827D01*
X177011Y281783D01*
X177013Y281783D01*
X177014Y281781D01*
X177099Y281748D01*
X179925Y281748D01*
X179928Y281749D01*
G37*
G36*
X211203Y281749D02*
X211203Y281749D01*
X211205Y281748D01*
X211248Y281768D01*
X211291Y281786D01*
X211292Y281788D01*
X211294Y281789D01*
X211327Y281874D01*
X211327Y287748D01*
X211326Y287750D01*
X211327Y287752D01*
X211307Y287795D01*
X211289Y287839D01*
X211287Y287839D01*
X211286Y287841D01*
X211201Y287874D01*
X208375Y287874D01*
X208372Y287873D01*
X208369Y287874D01*
X208286Y287837D01*
X206872Y286423D01*
X206871Y286420D01*
X206868Y286419D01*
X206835Y286334D01*
X206835Y283288D01*
X206836Y283285D01*
X206835Y283282D01*
X206872Y283199D01*
X208286Y281785D01*
X208289Y281784D01*
X208290Y281781D01*
X208375Y281748D01*
X211201Y281748D01*
X211203Y281749D01*
G37*
G36*
X211203Y273875D02*
X211203Y273875D01*
X211205Y273874D01*
X211248Y273894D01*
X211291Y273912D01*
X211292Y273914D01*
X211294Y273915D01*
X211327Y274000D01*
X211327Y279874D01*
X211326Y279876D01*
X211327Y279878D01*
X211307Y279921D01*
X211289Y279965D01*
X211287Y279965D01*
X211286Y279967D01*
X211201Y280000D01*
X208375Y280000D01*
X208372Y279999D01*
X208369Y280000D01*
X208286Y279963D01*
X206872Y278549D01*
X206871Y278546D01*
X206868Y278545D01*
X206835Y278460D01*
X206835Y275414D01*
X206836Y275411D01*
X206835Y275408D01*
X206872Y275325D01*
X208286Y273911D01*
X208289Y273910D01*
X208290Y273907D01*
X208375Y273874D01*
X211201Y273874D01*
X211203Y273875D01*
G37*
G36*
X179928Y273875D02*
X179928Y273875D01*
X179931Y273874D01*
X180014Y273911D01*
X181428Y275325D01*
X181430Y275328D01*
X181432Y275329D01*
X181465Y275414D01*
X181465Y278460D01*
X181464Y278463D01*
X181465Y278466D01*
X181428Y278549D01*
X180014Y279963D01*
X180011Y279965D01*
X180010Y279967D01*
X179925Y280000D01*
X177099Y280000D01*
X177097Y279999D01*
X177095Y280000D01*
X177052Y279980D01*
X177009Y279962D01*
X177008Y279960D01*
X177006Y279959D01*
X176973Y279874D01*
X176973Y274000D01*
X176974Y273998D01*
X176973Y273996D01*
X176993Y273953D01*
X177011Y273909D01*
X177013Y273909D01*
X177014Y273907D01*
X177099Y273874D01*
X179925Y273874D01*
X179928Y273875D01*
G37*
G36*
X179928Y266001D02*
X179928Y266001D01*
X179931Y266000D01*
X180014Y266037D01*
X181428Y267451D01*
X181430Y267454D01*
X181432Y267455D01*
X181465Y267540D01*
X181465Y270586D01*
X181464Y270589D01*
X181465Y270592D01*
X181428Y270675D01*
X180014Y272089D01*
X180011Y272091D01*
X180010Y272093D01*
X179925Y272126D01*
X177099Y272126D01*
X177097Y272125D01*
X177095Y272126D01*
X177052Y272106D01*
X177009Y272088D01*
X177008Y272086D01*
X177006Y272085D01*
X176973Y272000D01*
X176973Y266126D01*
X176974Y266124D01*
X176973Y266122D01*
X176993Y266079D01*
X177011Y266035D01*
X177013Y266035D01*
X177014Y266033D01*
X177099Y266000D01*
X179925Y266000D01*
X179928Y266001D01*
G37*
G36*
X211203Y266001D02*
X211203Y266001D01*
X211205Y266000D01*
X211248Y266020D01*
X211291Y266038D01*
X211292Y266040D01*
X211294Y266041D01*
X211327Y266126D01*
X211327Y272000D01*
X211326Y272002D01*
X211327Y272004D01*
X211307Y272047D01*
X211289Y272091D01*
X211287Y272091D01*
X211286Y272093D01*
X211201Y272126D01*
X208375Y272126D01*
X208372Y272125D01*
X208369Y272126D01*
X208286Y272089D01*
X206872Y270675D01*
X206871Y270672D01*
X206868Y270671D01*
X206835Y270586D01*
X206835Y267540D01*
X206836Y267537D01*
X206835Y267534D01*
X206872Y267451D01*
X208286Y266037D01*
X208289Y266036D01*
X208290Y266033D01*
X208375Y266000D01*
X211201Y266000D01*
X211203Y266001D01*
G37*
G36*
X211203Y258127D02*
X211203Y258127D01*
X211205Y258126D01*
X211248Y258146D01*
X211291Y258164D01*
X211292Y258166D01*
X211294Y258167D01*
X211327Y258252D01*
X211327Y264126D01*
X211326Y264128D01*
X211327Y264130D01*
X211307Y264173D01*
X211289Y264217D01*
X211287Y264217D01*
X211286Y264219D01*
X211201Y264252D01*
X208375Y264252D01*
X208372Y264251D01*
X208369Y264252D01*
X208286Y264215D01*
X206872Y262801D01*
X206871Y262798D01*
X206868Y262797D01*
X206835Y262712D01*
X206835Y259666D01*
X206836Y259663D01*
X206835Y259660D01*
X206872Y259577D01*
X208286Y258163D01*
X208289Y258162D01*
X208290Y258159D01*
X208375Y258126D01*
X211201Y258126D01*
X211203Y258127D01*
G37*
G36*
X179928Y258127D02*
X179928Y258127D01*
X179931Y258126D01*
X180014Y258163D01*
X181428Y259577D01*
X181430Y259580D01*
X181432Y259581D01*
X181465Y259666D01*
X181465Y262712D01*
X181464Y262715D01*
X181465Y262718D01*
X181428Y262801D01*
X180014Y264215D01*
X180011Y264217D01*
X180010Y264219D01*
X179925Y264252D01*
X177099Y264252D01*
X177097Y264251D01*
X177095Y264252D01*
X177052Y264232D01*
X177009Y264214D01*
X177008Y264212D01*
X177006Y264211D01*
X176973Y264126D01*
X176973Y258252D01*
X176974Y258250D01*
X176973Y258248D01*
X176993Y258205D01*
X177011Y258161D01*
X177013Y258161D01*
X177014Y258159D01*
X177099Y258126D01*
X179925Y258126D01*
X179928Y258127D01*
G37*
G36*
X211203Y289623D02*
X211203Y289623D01*
X211205Y289622D01*
X211248Y289642D01*
X211291Y289660D01*
X211292Y289662D01*
X211294Y289663D01*
X211327Y289748D01*
X211327Y295351D01*
X211326Y295353D01*
X211327Y295355D01*
X211307Y295398D01*
X211289Y295441D01*
X211287Y295442D01*
X211286Y295444D01*
X211201Y295477D01*
X206961Y295477D01*
X206959Y295476D01*
X206957Y295477D01*
X206914Y295457D01*
X206870Y295439D01*
X206870Y295437D01*
X206868Y295436D01*
X206835Y295351D01*
X206835Y291162D01*
X206836Y291159D01*
X206835Y291156D01*
X206872Y291073D01*
X208286Y289659D01*
X208289Y289658D01*
X208290Y289655D01*
X208375Y289622D01*
X211201Y289622D01*
X211203Y289623D01*
G37*
G36*
X179928Y289623D02*
X179928Y289623D01*
X179931Y289622D01*
X180014Y289659D01*
X181428Y291073D01*
X181430Y291076D01*
X181432Y291077D01*
X181465Y291162D01*
X181465Y295351D01*
X181464Y295353D01*
X181465Y295355D01*
X181445Y295398D01*
X181427Y295441D01*
X181425Y295442D01*
X181424Y295444D01*
X181339Y295477D01*
X177099Y295477D01*
X177097Y295476D01*
X177095Y295477D01*
X177052Y295457D01*
X177009Y295439D01*
X177008Y295437D01*
X177006Y295436D01*
X176973Y295351D01*
X176973Y289748D01*
X176974Y289746D01*
X176973Y289744D01*
X176993Y289701D01*
X177011Y289657D01*
X177013Y289657D01*
X177014Y289655D01*
X177099Y289622D01*
X179925Y289622D01*
X179928Y289623D01*
G37*
G36*
X181341Y250524D02*
X181341Y250524D01*
X181343Y250523D01*
X181386Y250543D01*
X181430Y250561D01*
X181430Y250563D01*
X181432Y250564D01*
X181465Y250649D01*
X181465Y254838D01*
X181464Y254841D01*
X181465Y254844D01*
X181428Y254927D01*
X180014Y256341D01*
X180011Y256343D01*
X180010Y256345D01*
X179925Y256378D01*
X177099Y256378D01*
X177097Y256377D01*
X177095Y256378D01*
X177052Y256358D01*
X177009Y256340D01*
X177008Y256338D01*
X177006Y256337D01*
X176973Y256252D01*
X176973Y250649D01*
X176974Y250647D01*
X176973Y250645D01*
X176993Y250602D01*
X177011Y250559D01*
X177013Y250558D01*
X177014Y250556D01*
X177099Y250523D01*
X181339Y250523D01*
X181341Y250524D01*
G37*
G36*
X211203Y250524D02*
X211203Y250524D01*
X211205Y250523D01*
X211248Y250543D01*
X211291Y250561D01*
X211292Y250563D01*
X211294Y250564D01*
X211327Y250649D01*
X211327Y256252D01*
X211326Y256254D01*
X211327Y256256D01*
X211307Y256299D01*
X211289Y256343D01*
X211287Y256343D01*
X211286Y256345D01*
X211201Y256378D01*
X208375Y256378D01*
X208372Y256377D01*
X208369Y256378D01*
X208286Y256341D01*
X206872Y254927D01*
X206871Y254924D01*
X206868Y254923D01*
X206835Y254838D01*
X206835Y250649D01*
X206836Y250647D01*
X206835Y250645D01*
X206855Y250602D01*
X206873Y250559D01*
X206875Y250558D01*
X206876Y250556D01*
X206961Y250523D01*
X211201Y250523D01*
X211203Y250524D01*
G37*
D10*
X44750Y333850D03*
X44750Y352850D03*
D11*
X77600Y555000D03*
X96600Y555000D03*
D12*
X479030Y352280D03*
X479030Y369280D03*
D13*
X651030Y331310D03*
X668030Y331310D03*
D12*
X468470Y332870D03*
X468470Y315870D03*
X403950Y350860D03*
X403950Y333860D03*
D10*
X95750Y473800D03*
X95750Y454800D03*
D11*
X35150Y438750D03*
X54150Y438750D03*
D14*
X509800Y364000D03*
X509800Y356000D03*
X509800Y348000D03*
X509800Y340000D03*
X509800Y332000D03*
X509800Y324000D03*
X509800Y316000D03*
X509800Y308000D03*
X509800Y300000D03*
X509800Y292000D03*
X509800Y284000D03*
D15*
X527800Y266000D03*
X535800Y266000D03*
X543800Y266000D03*
X551800Y266000D03*
X559800Y266000D03*
X567800Y266000D03*
X575800Y266000D03*
X583800Y266000D03*
X591800Y266000D03*
X599800Y266000D03*
X607800Y266000D03*
D14*
X625800Y284000D03*
X625800Y292000D03*
X625800Y300000D03*
X625800Y308000D03*
X625800Y316000D03*
X625800Y324000D03*
X625800Y332000D03*
X625800Y340000D03*
X625800Y348000D03*
X625800Y356000D03*
X625800Y364000D03*
D15*
X607800Y382000D03*
X599800Y382000D03*
X591800Y382000D03*
X583800Y382000D03*
X575800Y382000D03*
X567800Y382000D03*
X559800Y382000D03*
X551800Y382000D03*
X543800Y382000D03*
X535800Y382000D03*
X527800Y382000D03*
D16*
X170600Y458400D03*
D17*
X147800Y385400D03*
X193400Y385400D03*
D18*
X72490Y333250D03*
X95350Y333250D03*
X118210Y333250D03*
D19*
X95350Y395226D03*
D20*
X98350Y517100D03*
X98350Y502100D03*
X349350Y573400D03*
X364350Y573400D03*
X21550Y355900D03*
X21550Y370900D03*
D21*
X447130Y325260D03*
X424130Y325260D03*
X424130Y343260D03*
X447130Y343260D03*
D12*
X46500Y557000D03*
X29500Y557000D03*
X28100Y490150D03*
X45100Y490150D03*
X417350Y573650D03*
X434350Y573650D03*
D13*
X44150Y373300D03*
X44150Y390300D03*
D12*
X444600Y256900D03*
X461600Y256900D03*
X444600Y222100D03*
X461600Y222100D03*
D22*
X147287Y330150D03*
X147287Y317450D03*
X147287Y304750D03*
X147287Y292050D03*
X147287Y279350D03*
X147287Y266650D03*
X147287Y253950D03*
X147287Y241250D03*
X147287Y228550D03*
X147287Y215850D03*
X241013Y215850D03*
X241013Y228550D03*
X241013Y241250D03*
X241013Y253950D03*
X241013Y266650D03*
X241013Y279350D03*
X241013Y292050D03*
X241013Y304750D03*
X241013Y317450D03*
X241013Y330150D03*
D12*
X536820Y182880D03*
X519820Y182880D03*
D20*
X580270Y182880D03*
X565270Y182880D03*
M02*
