G04 EAGLE Gerber RS-274X export*
G75*
%MOMM*%
%FSLAX34Y34*%
%LPD*%
%INSoldermask Top*%
%IPPOS*%
%AMOC8*
5,1,8,0,0,1.08239X$1,22.5*%
G01*
%ADD10R,1.703200X1.503200*%
%ADD11R,1.503200X1.703200*%
%ADD12R,1.203200X1.303200*%
%ADD13R,1.303200X1.203200*%
%ADD14R,1.703200X0.703200*%
%ADD15R,0.703200X1.703200*%
%ADD16R,5.603200X6.403200*%
%ADD17R,1.203200X1.803200*%
%ADD18C,2.203200*%
%ADD19R,1.397000X2.387600*%
%ADD20R,3.810000X2.387600*%
%ADD21R,1.003200X1.003200*%
%ADD22R,1.503200X1.303200*%
%ADD23C,1.727200*%
%ADD24C,1.727200*%
%ADD25P,1.869504X8X22.500000*%
%ADD26C,1.879600*%
%ADD27C,3.505200*%
%ADD28R,2.184400X0.762000*%
%ADD29R,3.763200X4.823200*%
%ADD30R,2.235200X2.235200*%
%ADD31C,2.235200*%
%ADD32C,0.959600*%

G36*
X175713Y296860D02*
X175713Y296860D01*
X175711Y296861D01*
X175668Y296841D01*
X175624Y296823D01*
X175624Y296821D01*
X175622Y296820D01*
X175589Y296735D01*
X175589Y249265D01*
X175590Y249263D01*
X175589Y249261D01*
X175609Y249218D01*
X175627Y249174D01*
X175629Y249174D01*
X175630Y249172D01*
X175715Y249139D01*
X212585Y249139D01*
X212587Y249140D01*
X212589Y249139D01*
X212632Y249159D01*
X212676Y249177D01*
X212676Y249179D01*
X212678Y249180D01*
X212711Y249265D01*
X212711Y296735D01*
X212710Y296737D01*
X212711Y296739D01*
X212691Y296782D01*
X212673Y296826D01*
X212671Y296826D01*
X212670Y296828D01*
X212585Y296861D01*
X175715Y296861D01*
X175713Y296860D01*
G37*
%LPC*%
G36*
X180465Y286874D02*
X180465Y286874D01*
X180465Y290622D01*
X184213Y290622D01*
X184213Y286874D01*
X180465Y286874D01*
G37*
%LPD*%
%LPC*%
G36*
X188339Y286874D02*
X188339Y286874D01*
X188339Y290622D01*
X192087Y290622D01*
X192087Y286874D01*
X188339Y286874D01*
G37*
%LPD*%
%LPC*%
G36*
X196213Y286874D02*
X196213Y286874D01*
X196213Y290622D01*
X199961Y290622D01*
X199961Y286874D01*
X196213Y286874D01*
G37*
%LPD*%
%LPC*%
G36*
X204087Y286874D02*
X204087Y286874D01*
X204087Y290622D01*
X207835Y290622D01*
X207835Y286874D01*
X204087Y286874D01*
G37*
%LPD*%
%LPC*%
G36*
X180465Y279000D02*
X180465Y279000D01*
X180465Y282748D01*
X184213Y282748D01*
X184213Y279000D01*
X180465Y279000D01*
G37*
%LPD*%
%LPC*%
G36*
X204087Y279000D02*
X204087Y279000D01*
X204087Y282748D01*
X207835Y282748D01*
X207835Y279000D01*
X204087Y279000D01*
G37*
%LPD*%
%LPC*%
G36*
X188339Y279000D02*
X188339Y279000D01*
X188339Y282748D01*
X192087Y282748D01*
X192087Y279000D01*
X188339Y279000D01*
G37*
%LPD*%
%LPC*%
G36*
X196213Y279000D02*
X196213Y279000D01*
X196213Y282748D01*
X199961Y282748D01*
X199961Y279000D01*
X196213Y279000D01*
G37*
%LPD*%
%LPC*%
G36*
X180465Y271126D02*
X180465Y271126D01*
X180465Y274874D01*
X184213Y274874D01*
X184213Y271126D01*
X180465Y271126D01*
G37*
%LPD*%
%LPC*%
G36*
X204087Y271126D02*
X204087Y271126D01*
X204087Y274874D01*
X207835Y274874D01*
X207835Y271126D01*
X204087Y271126D01*
G37*
%LPD*%
%LPC*%
G36*
X188339Y271126D02*
X188339Y271126D01*
X188339Y274874D01*
X192087Y274874D01*
X192087Y271126D01*
X188339Y271126D01*
G37*
%LPD*%
%LPC*%
G36*
X196213Y271126D02*
X196213Y271126D01*
X196213Y274874D01*
X199961Y274874D01*
X199961Y271126D01*
X196213Y271126D01*
G37*
%LPD*%
%LPC*%
G36*
X180465Y263252D02*
X180465Y263252D01*
X180465Y267000D01*
X184213Y267000D01*
X184213Y263252D01*
X180465Y263252D01*
G37*
%LPD*%
%LPC*%
G36*
X204087Y263252D02*
X204087Y263252D01*
X204087Y267000D01*
X207835Y267000D01*
X207835Y263252D01*
X204087Y263252D01*
G37*
%LPD*%
%LPC*%
G36*
X188339Y263252D02*
X188339Y263252D01*
X188339Y267000D01*
X192087Y267000D01*
X192087Y263252D01*
X188339Y263252D01*
G37*
%LPD*%
%LPC*%
G36*
X196213Y263252D02*
X196213Y263252D01*
X196213Y267000D01*
X199961Y267000D01*
X199961Y263252D01*
X196213Y263252D01*
G37*
%LPD*%
%LPC*%
G36*
X180465Y255378D02*
X180465Y255378D01*
X180465Y259126D01*
X184213Y259126D01*
X184213Y255378D01*
X180465Y255378D01*
G37*
%LPD*%
%LPC*%
G36*
X188339Y255378D02*
X188339Y255378D01*
X188339Y259126D01*
X192087Y259126D01*
X192087Y255378D01*
X188339Y255378D01*
G37*
%LPD*%
%LPC*%
G36*
X196213Y255378D02*
X196213Y255378D01*
X196213Y259126D01*
X199961Y259126D01*
X199961Y255378D01*
X196213Y255378D01*
G37*
%LPD*%
%LPC*%
G36*
X204087Y255378D02*
X204087Y255378D01*
X204087Y259126D01*
X207835Y259126D01*
X207835Y255378D01*
X204087Y255378D01*
G37*
%LPD*%
D10*
X44750Y333850D03*
X44750Y352850D03*
D11*
X77600Y555000D03*
X96600Y555000D03*
D12*
X479030Y352280D03*
X479030Y369280D03*
D13*
X651030Y331310D03*
X668030Y331310D03*
D12*
X468470Y332870D03*
X468470Y315870D03*
X403950Y350860D03*
X403950Y333860D03*
D10*
X95750Y473800D03*
X95750Y454800D03*
D11*
X35150Y438750D03*
X54150Y438750D03*
D14*
X509800Y364000D03*
X509800Y356000D03*
X509800Y348000D03*
X509800Y340000D03*
X509800Y332000D03*
X509800Y324000D03*
X509800Y316000D03*
X509800Y308000D03*
X509800Y300000D03*
X509800Y292000D03*
X509800Y284000D03*
D15*
X527800Y266000D03*
X535800Y266000D03*
X543800Y266000D03*
X551800Y266000D03*
X559800Y266000D03*
X567800Y266000D03*
X575800Y266000D03*
X583800Y266000D03*
X591800Y266000D03*
X599800Y266000D03*
X607800Y266000D03*
D14*
X625800Y284000D03*
X625800Y292000D03*
X625800Y300000D03*
X625800Y308000D03*
X625800Y316000D03*
X625800Y324000D03*
X625800Y332000D03*
X625800Y340000D03*
X625800Y348000D03*
X625800Y356000D03*
X625800Y364000D03*
D15*
X607800Y382000D03*
X599800Y382000D03*
X591800Y382000D03*
X583800Y382000D03*
X575800Y382000D03*
X567800Y382000D03*
X559800Y382000D03*
X551800Y382000D03*
X543800Y382000D03*
X535800Y382000D03*
X527800Y382000D03*
D16*
X170600Y458400D03*
D17*
X147800Y385400D03*
X193400Y385400D03*
D18*
X68650Y144200D02*
X48650Y144200D01*
X48650Y83200D02*
X68650Y83200D01*
X106650Y103200D02*
X106650Y123200D01*
D19*
X72490Y333250D03*
X95350Y333250D03*
X118210Y333250D03*
D20*
X95350Y395226D03*
D21*
X98350Y517100D03*
X98350Y502100D03*
X349350Y573400D03*
X364350Y573400D03*
X21550Y355900D03*
X21550Y370900D03*
D22*
X447130Y325260D03*
X424130Y325260D03*
X424130Y343260D03*
X447130Y343260D03*
D12*
X46500Y557000D03*
X29500Y557000D03*
X28100Y490150D03*
X45100Y490150D03*
X417350Y573650D03*
X434350Y573650D03*
D13*
X44150Y373300D03*
X44150Y390300D03*
D23*
X40294Y212608D02*
X40294Y197368D01*
X85506Y197368D02*
X85506Y212608D01*
X40294Y262392D02*
X40294Y277632D01*
X85506Y277632D02*
X85506Y262392D01*
D24*
X408900Y499450D03*
D25*
X434300Y499450D03*
X459700Y499450D03*
X408900Y524850D03*
X434300Y524850D03*
X459700Y524850D03*
D26*
X450132Y81550D02*
X433368Y81550D01*
X433368Y56150D02*
X450132Y56150D01*
X450132Y30750D02*
X433368Y30750D01*
D27*
X617010Y56150D03*
D12*
X444600Y256900D03*
X461600Y256900D03*
X444600Y222100D03*
X461600Y222100D03*
D28*
X147287Y330150D03*
X147287Y317450D03*
X147287Y304750D03*
X147287Y292050D03*
X147287Y279350D03*
X147287Y266650D03*
X147287Y253950D03*
X147287Y241250D03*
X147287Y228550D03*
X147287Y215850D03*
X241013Y215850D03*
X241013Y228550D03*
X241013Y241250D03*
X241013Y253950D03*
X241013Y266650D03*
X241013Y279350D03*
X241013Y292050D03*
X241013Y304750D03*
X241013Y317450D03*
X241013Y330150D03*
D29*
X194150Y273000D03*
D30*
X283550Y46950D03*
D31*
X333550Y46950D03*
D30*
X156400Y47350D03*
D31*
X206400Y47350D03*
D23*
X747430Y559800D02*
X762670Y559800D01*
X762670Y534400D02*
X747430Y534400D01*
X747430Y509000D02*
X762670Y509000D01*
X762670Y483600D02*
X747430Y483600D01*
X747430Y458200D02*
X762670Y458200D01*
X762670Y432800D02*
X747430Y432800D01*
X747430Y407400D02*
X762670Y407400D01*
X762670Y382000D02*
X747430Y382000D01*
X747530Y175400D02*
X762770Y175400D01*
X762770Y200800D02*
X747530Y200800D01*
X747530Y226200D02*
X762770Y226200D01*
X762770Y251600D02*
X747530Y251600D01*
X747530Y277000D02*
X762770Y277000D01*
X762770Y302400D02*
X747530Y302400D01*
X747530Y327800D02*
X762770Y327800D01*
X762770Y353200D02*
X747530Y353200D01*
X367120Y335400D02*
X351880Y335400D01*
X351880Y310000D02*
X367120Y310000D01*
X367120Y284600D02*
X351880Y284600D01*
X351880Y259200D02*
X367120Y259200D01*
X367120Y233800D02*
X351880Y233800D01*
X351880Y208400D02*
X367120Y208400D01*
X367120Y183000D02*
X351880Y183000D01*
X599000Y565830D02*
X599000Y581070D01*
X573600Y581070D02*
X573600Y565830D01*
X548200Y565830D02*
X548200Y581070D01*
X522800Y581070D02*
X522800Y565830D01*
X143510Y561340D02*
X143510Y576580D01*
X168910Y576580D02*
X168910Y561340D01*
D12*
X536820Y182880D03*
X519820Y182880D03*
D21*
X580270Y182880D03*
X565270Y182880D03*
D32*
X73660Y494030D03*
X76200Y455930D03*
X114300Y552450D03*
X135890Y542290D03*
X215900Y361950D03*
X222250Y279400D03*
X223534Y234936D03*
X547370Y330200D03*
X527050Y330200D03*
X349250Y368300D03*
X412750Y469900D03*
X260350Y292100D03*
X217170Y321310D03*
X25400Y508000D03*
X95250Y488950D03*
X127000Y457200D03*
X76200Y412750D03*
X19050Y558800D03*
X381000Y527050D03*
X495300Y336550D03*
X25400Y273050D03*
X514350Y374650D03*
X438150Y450850D03*
X514350Y273050D03*
X558800Y247650D03*
X431800Y241300D03*
X462280Y246094D03*
X508014Y259066D03*
X444500Y107950D03*
X533400Y304800D03*
X431800Y254000D03*
X476250Y259694D03*
X304800Y260350D03*
X318770Y311150D03*
X450850Y361950D03*
X590550Y361950D03*
X552450Y349250D03*
X297180Y323850D03*
M02*
